<svg width="375" height="812" viewBox="0 0 375 812" fill="none" xmlns="http://www.w3.org/2000/svg">
<g clip-path="url(#clip0_656_1437)">
<rect width="375" height="812" fill="#F9F9F9"/>
<g opacity="0.1" filter="url(#filter0_f_656_1437)">
<ellipse cx="187.5" cy="727" rx="271.5" ry="119" fill="#42B002"/>
</g>
<g opacity="0.6" filter="url(#filter1_f_656_1437)">
<circle cx="188" cy="-81" r="119" fill="#42B002"/>
</g>
<g opacity="0.4">
<rect x="9" width="29.75" height="29.75" stroke="white" stroke-width="0.838028"/>
<rect x="38.75" width="29.75" height="29.75" stroke="white" stroke-width="0.838028"/>
<rect x="68.5" width="29.75" height="29.75" stroke="white" stroke-width="0.838028"/>
<rect x="98.25" width="29.75" height="29.75" stroke="white" stroke-width="0.838028"/>
<rect x="128" width="29.75" height="29.75" stroke="white" stroke-width="0.838028"/>
<rect x="157.75" width="29.75" height="29.75" stroke="white" stroke-width="0.838028"/>
<rect x="187.5" width="29.75" height="29.75" stroke="white" stroke-width="0.838028"/>
<rect x="217.25" width="29.75" height="29.75" stroke="white" stroke-width="0.838028"/>
<rect x="247" width="29.75" height="29.75" stroke="white" stroke-width="0.838028"/>
<rect x="276.75" width="29.75" height="29.75" stroke="white" stroke-width="0.838028"/>
<rect x="306.5" width="29.75" height="29.75" stroke="white" stroke-width="0.838028"/>
<rect x="336.25" width="29.75" height="29.75" stroke="white" stroke-width="0.838028"/>
<rect x="9" y="29.75" width="29.75" height="29.75" stroke="white" stroke-width="0.838028"/>
<rect x="38.75" y="29.75" width="29.75" height="29.75" stroke="white" stroke-width="0.838028"/>
<rect x="68.5" y="29.75" width="29.75" height="29.75" stroke="white" stroke-width="0.838028"/>
<rect x="98.25" y="29.75" width="29.75" height="29.75" stroke="white" stroke-width="0.838028"/>
<rect x="128" y="29.75" width="29.75" height="29.75" stroke="white" stroke-width="0.838028"/>
<rect x="157.75" y="29.75" width="29.75" height="29.75" stroke="white" stroke-width="0.838028"/>
<rect x="187.5" y="29.75" width="29.75" height="29.75" stroke="white" stroke-width="0.838028"/>
<rect x="217.25" y="29.75" width="29.75" height="29.75" stroke="white" stroke-width="0.838028"/>
<rect x="247" y="29.75" width="29.75" height="29.75" stroke="white" stroke-width="0.838028"/>
<rect x="276.75" y="29.75" width="29.75" height="29.75" stroke="white" stroke-width="0.838028"/>
<rect x="306.5" y="29.75" width="29.75" height="29.75" stroke="white" stroke-width="0.838028"/>
<rect x="336.25" y="29.75" width="29.75" height="29.75" stroke="white" stroke-width="0.838028"/>
<rect x="9" y="59.5" width="29.75" height="29.75" stroke="white" stroke-width="0.838028"/>
<rect x="38.75" y="59.5" width="29.75" height="29.75" stroke="white" stroke-width="0.838028"/>
<rect x="68.5" y="59.5" width="29.75" height="29.75" stroke="white" stroke-width="0.838028"/>
<rect x="98.25" y="59.5" width="29.75" height="29.75" stroke="white" stroke-width="0.838028"/>
<rect x="128" y="59.5" width="29.75" height="29.75" stroke="white" stroke-width="0.838028"/>
<rect x="157.75" y="59.5" width="29.75" height="29.75" stroke="white" stroke-width="0.838028"/>
<rect x="187.5" y="59.5" width="29.75" height="29.75" stroke="white" stroke-width="0.838028"/>
<rect x="217.25" y="59.5" width="29.75" height="29.75" stroke="white" stroke-width="0.838028"/>
<rect x="247" y="59.5" width="29.75" height="29.75" stroke="white" stroke-width="0.838028"/>
<rect x="276.75" y="59.5" width="29.75" height="29.75" stroke="white" stroke-width="0.838028"/>
<rect x="306.5" y="59.5" width="29.75" height="29.75" stroke="white" stroke-width="0.838028"/>
<rect x="336.25" y="59.5" width="29.75" height="29.75" stroke="white" stroke-width="0.838028"/>
<rect x="9" y="89.25" width="29.75" height="29.75" stroke="white" stroke-width="0.838028"/>
<rect x="38.75" y="89.25" width="29.75" height="29.75" stroke="white" stroke-width="0.838028"/>
<rect x="68.5" y="89.25" width="29.75" height="29.75" stroke="white" stroke-width="0.838028"/>
<rect x="98.25" y="89.25" width="29.75" height="29.75" stroke="white" stroke-width="0.838028"/>
<rect x="128" y="89.25" width="29.75" height="29.75" stroke="white" stroke-width="0.838028"/>
<rect x="157.75" y="89.25" width="29.75" height="29.75" stroke="white" stroke-width="0.838028"/>
<rect x="187.5" y="89.25" width="29.75" height="29.75" stroke="white" stroke-width="0.838028"/>
<rect x="217.25" y="89.25" width="29.75" height="29.75" stroke="white" stroke-width="0.838028"/>
<rect x="247" y="89.25" width="29.75" height="29.75" stroke="white" stroke-width="0.838028"/>
<rect x="276.75" y="89.25" width="29.75" height="29.75" stroke="white" stroke-width="0.838028"/>
<rect x="306.5" y="89.25" width="29.75" height="29.75" stroke="white" stroke-width="0.838028"/>
<rect x="336.25" y="89.25" width="29.75" height="29.75" stroke="white" stroke-width="0.838028"/>
<rect x="9" y="119" width="29.75" height="29.75" stroke="white" stroke-width="0.838028"/>
<rect x="38.75" y="119" width="29.75" height="29.75" stroke="white" stroke-width="0.838028"/>
<rect x="68.5" y="119" width="29.75" height="29.75" stroke="white" stroke-width="0.838028"/>
<rect x="98.25" y="119" width="29.75" height="29.75" stroke="white" stroke-width="0.838028"/>
<rect x="128" y="119" width="29.75" height="29.75" stroke="white" stroke-width="0.838028"/>
<rect x="157.75" y="119" width="29.75" height="29.75" stroke="white" stroke-width="0.838028"/>
<rect x="187.5" y="119" width="29.75" height="29.75" stroke="white" stroke-width="0.838028"/>
<rect x="217.25" y="119" width="29.75" height="29.75" stroke="white" stroke-width="0.838028"/>
<rect x="247" y="119" width="29.75" height="29.75" stroke="white" stroke-width="0.838028"/>
<rect x="276.75" y="119" width="29.75" height="29.75" stroke="white" stroke-width="0.838028"/>
<rect x="306.5" y="119" width="29.75" height="29.75" stroke="white" stroke-width="0.838028"/>
<rect x="336.25" y="119" width="29.75" height="29.75" stroke="white" stroke-width="0.838028"/>
</g>
</g>
<defs>
<filter id="filter0_f_656_1437" x="-164" y="528" width="703" height="398" filterUnits="userSpaceOnUse" color-interpolation-filters="sRGB">
<feFlood flood-opacity="0" result="BackgroundImageFix"/>
<feBlend mode="normal" in="SourceGraphic" in2="BackgroundImageFix" result="shape"/>
<feGaussianBlur stdDeviation="40" result="effect1_foregroundBlur_656_1437"/>
</filter>
<filter id="filter1_f_656_1437" x="-220.739" y="-489.739" width="817.478" height="817.478" filterUnits="userSpaceOnUse" color-interpolation-filters="sRGB">
<feFlood flood-opacity="0" result="BackgroundImageFix"/>
<feBlend mode="normal" in="SourceGraphic" in2="BackgroundImageFix" result="shape"/>
<feGaussianBlur stdDeviation="144.87" result="effect1_foregroundBlur_656_1437"/>
</filter>
<clipPath id="clip0_656_1437">
<rect width="375" height="812" fill="white"/>
</clipPath>
</defs>
</svg>
