<svg width="375" height="420" viewBox="0 0 375 420" fill="none" xmlns="http://www.w3.org/2000/svg">
<g clip-path="url(#clip0_810_3272)">
<rect width="375" height="420" fill="#00C565"/>
<g clip-path="url(#clip1_810_3272)">
<g clip-path="url(#clip2_810_3272)">
<mask id="mask0_810_3272" style="mask-type:alpha" maskUnits="userSpaceOnUse" x="-320" y="-155" width="1040" height="693">
<rect x="-320" y="-154.946" width="1040" height="692" fill="url(#paint0_diamond_810_3272)"/>
</mask>
<g mask="url(#mask0_810_3272)">
<g opacity="0.7">
<circle cx="317.617" cy="280.417" r="0.699952" fill="white" fill-opacity="0.5"/>
<circle cx="73.297" cy="205.995" r="0.866106" fill="white" fill-opacity="0.3"/>
<circle cx="6.7695" cy="229.447" r="0.639683" fill="white" fill-opacity="0.6"/>
<circle cx="199.132" cy="418.85" r="0.610874" fill="white" fill-opacity="0.4"/>
<circle cx="149.496" cy="340.799" r="0.700234" fill="white" fill-opacity="0.4"/>
<circle cx="344.985" cy="303.05" r="0.837128" fill="white" fill-opacity="0.5"/>
<circle cx="2.60862" cy="169.047" r="0.621616" fill="white" fill-opacity="0.6"/>
<circle cx="18.7882" cy="384.724" r="0.818832" fill="white" fill-opacity="0.4"/>
<circle cx="134.096" cy="100.447" r="0.690477" fill="white" fill-opacity="0.6"/>
<circle cx="13.4038" cy="50.7929" r="0.76211" fill="white" fill-opacity="0.5"/>
<circle cx="181.993" cy="292.786" r="0.637879" fill="white" fill-opacity="0.5"/>
<circle cx="260.685" cy="269.066" r="0.596974" fill="white" fill-opacity="0.3"/>
<circle cx="229.999" cy="385.783" r="0.694188" fill="white" fill-opacity="0.5"/>
<circle cx="70.168" cy="43.6242" r="0.69691" fill="white" fill-opacity="0.5"/>
<circle cx="31.1798" cy="381.724" r="0.778728" fill="white" fill-opacity="0.3"/>
<circle cx="237.885" cy="334.47" r="0.882725" fill="white" fill-opacity="0.4"/>
<circle cx="263.168" cy="102.245" r="0.711451" fill="white" fill-opacity="0.6"/>
<circle cx="127.6" cy="396.451" r="0.706451" fill="white" fill-opacity="0.4"/>
<circle cx="5.82303" cy="249.811" r="0.876195" fill="white" fill-opacity="0.5"/>
<circle cx="372.245" cy="419.698" r="0.866262" fill="white" fill-opacity="0.6"/>
<circle cx="314.122" cy="393.541" r="0.756572" fill="white" fill-opacity="0.3"/>
<circle cx="123.443" cy="115.25" r="0.693902" fill="white" fill-opacity="0.3"/>
<circle cx="373.827" cy="63.7258" r="0.671636" fill="white" fill-opacity="0.5"/>
<circle cx="2.12285" cy="28.8572" r="0.729233" fill="white" fill-opacity="0.4"/>
<circle cx="228.811" cy="96.3032" r="0.689881" fill="white" fill-opacity="0.5"/>
<circle cx="133.578" cy="152.615" r="0.765212" fill="white" fill-opacity="0.4"/>
<circle cx="112.963" cy="391.878" r="0.869681" fill="white" fill-opacity="0.6"/>
<circle cx="206.936" cy="78.5717" r="0.718168" fill="white" fill-opacity="0.6"/>
<circle cx="48.4151" cy="358.705" r="0.84679" fill="white" fill-opacity="0.4"/>
<circle cx="76.6115" cy="314.088" r="0.627863" fill="white" fill-opacity="0.4"/>
<circle cx="78.4745" cy="325.423" r="0.715796" fill="white" fill-opacity="0.3"/>
<circle cx="336.534" cy="402.338" r="0.674169" fill="white" fill-opacity="0.5"/>
<circle cx="302.379" cy="254.523" r="0.852779" fill="white" fill-opacity="0.6"/>
<circle cx="159.522" cy="320.633" r="0.661517" fill="white" fill-opacity="0.3"/>
<circle cx="43.6912" cy="349.837" r="0.859218" fill="white" fill-opacity="0.6"/>
<circle cx="187.971" cy="228.321" r="0.696622" fill="white" fill-opacity="0.3"/>
<circle cx="91.4784" cy="402.359" r="0.695275" fill="white" fill-opacity="0.5"/>
<circle cx="355.043" cy="117.164" r="0.831583" fill="white" fill-opacity="0.4"/>
<circle cx="30.6136" cy="183.438" r="0.80469" fill="white" fill-opacity="0.5"/>
<circle cx="51.9692" cy="235.576" r="0.848888" fill="white" fill-opacity="0.4"/>
<circle cx="231.884" cy="329.655" r="0.803339" fill="white" fill-opacity="0.3"/>
<circle cx="36.466" cy="8.73696" r="0.735984" fill="white" fill-opacity="0.4"/>
<circle cx="359.754" cy="191.727" r="0.806592" fill="white" fill-opacity="0.4"/>
<circle cx="78.5631" cy="88.1296" r="0.804401" fill="white" fill-opacity="0.4"/>
<circle cx="308.897" cy="250.978" r="0.859109" fill="white" fill-opacity="0.5"/>
<circle cx="354.292" cy="27.0235" r="0.671462" fill="white" fill-opacity="0.6"/>
<circle cx="17.0543" cy="40.2354" r="0.859953" fill="white" fill-opacity="0.6"/>
<circle cx="110.965" cy="271.486" r="0.647362" fill="white" fill-opacity="0.3"/>
<circle cx="243.772" cy="57.986" r="0.85128" fill="white" fill-opacity="0.6"/>
<circle cx="121.095" cy="265.632" r="0.713183" fill="white" fill-opacity="0.5"/>
<circle cx="271.557" cy="223.701" r="0.813803" fill="white" fill-opacity="0.3"/>
<circle cx="229.498" cy="392.386" r="0.785658" fill="white" fill-opacity="0.4"/>
<circle cx="349.076" cy="38.3841" r="0.784446" fill="white" fill-opacity="0.3"/>
<circle cx="286.221" cy="75.5724" r="0.678364" fill="white" fill-opacity="0.4"/>
<circle cx="130.655" cy="216.586" r="0.802016" fill="white" fill-opacity="0.4"/>
<circle cx="56.6198" cy="211.811" r="0.763236" fill="white" fill-opacity="0.4"/>
<circle cx="273.369" cy="377.058" r="0.849438" fill="white" fill-opacity="0.5"/>
<circle cx="305.715" cy="385.725" r="0.636609" fill="white" fill-opacity="0.5"/>
<circle cx="245.373" cy="85.0422" r="0.676482" fill="white" fill-opacity="0.6"/>
<circle cx="161.284" cy="16.3448" r="0.648472" fill="white" fill-opacity="0.4"/>
<circle cx="248.356" cy="250.818" r="0.698949" fill="white" fill-opacity="0.6"/>
<circle cx="226.008" cy="313.122" r="0.846621" fill="white" fill-opacity="0.6"/>
<circle cx="8.61861" cy="219.456" r="0.711873" fill="white" fill-opacity="0.5"/>
<circle cx="326.601" cy="63.2671" r="0.804688" fill="white" fill-opacity="0.5"/>
<circle cx="120.592" cy="124.239" r="0.803196" fill="white" fill-opacity="0.5"/>
<circle cx="156.784" cy="57.4256" r="0.883131" fill="white" fill-opacity="0.5"/>
<circle cx="172.61" cy="100.483" r="0.727048" fill="white" fill-opacity="0.6"/>
<circle cx="114.102" cy="253.902" r="0.82322" fill="white" fill-opacity="0.4"/>
<circle cx="103.969" cy="57.2973" r="0.754837" fill="white" fill-opacity="0.5"/>
<circle cx="164.256" cy="338.391" r="0.660223" fill="white" fill-opacity="0.5"/>
<circle cx="27.463" cy="101.555" r="0.614002" fill="white" fill-opacity="0.4"/>
<circle cx="197.444" cy="266.799" r="0.69723" fill="white" fill-opacity="0.6"/>
<circle cx="220.622" cy="411.331" r="0.78747" fill="white" fill-opacity="0.3"/>
<circle cx="181.561" cy="31.2941" r="0.798039" fill="white" fill-opacity="0.6"/>
<circle cx="39.9863" cy="1.01075" r="0.705573" fill="white" fill-opacity="0.3"/>
<circle cx="97.5512" cy="59.7594" r="0.848304" fill="white" fill-opacity="0.5"/>
<circle cx="327.017" cy="410.58" r="0.628061" fill="white" fill-opacity="0.6"/>
<circle cx="197.951" cy="260.795" r="0.613189" fill="white" fill-opacity="0.3"/>
<circle cx="97.4488" cy="313.614" r="0.745889" fill="white" fill-opacity="0.4"/>
<circle cx="54.8999" cy="304.216" r="0.819658" fill="white" fill-opacity="0.6"/>
<circle cx="289.733" cy="57.7726" r="0.637861" fill="white" fill-opacity="0.5"/>
<circle cx="345.967" cy="343.102" r="0.634724" fill="white" fill-opacity="0.6"/>
<circle cx="180.299" cy="64.9579" r="0.719579" fill="white" fill-opacity="0.5"/>
<circle cx="-0.777439" cy="166.255" r="0.788845" fill="white" fill-opacity="0.4"/>
<circle cx="252.413" cy="299.273" r="0.613337" fill="white" fill-opacity="0.4"/>
<circle cx="267.43" cy="137.882" r="0.830232" fill="white" fill-opacity="0.4"/>
<circle cx="337.085" cy="1.5296" r="0.632627" fill="white" fill-opacity="0.5"/>
<circle cx="58.9969" cy="75.0757" r="0.773981" fill="white" fill-opacity="0.3"/>
<circle cx="78.3734" cy="9.2075" r="0.614725" fill="white" fill-opacity="0.3"/>
<circle cx="194.41" cy="402.879" r="0.622524" fill="white" fill-opacity="0.6"/>
<circle cx="121.202" cy="76.3063" r="0.820446" fill="white" fill-opacity="0.5"/>
<circle cx="180.217" cy="330.674" r="0.638211" fill="white" fill-opacity="0.5"/>
<circle cx="197.505" cy="321.322" r="0.758062" fill="white" fill-opacity="0.4"/>
<circle cx="125.12" cy="5.63497" r="0.593954" fill="white" fill-opacity="0.6"/>
<circle cx="53.076" cy="110" r="0.771508" fill="white" fill-opacity="0.3"/>
<circle cx="246.023" cy="161.465" r="0.734636" fill="white" fill-opacity="0.5"/>
<circle cx="215.834" cy="334.917" r="0.737588" fill="white" fill-opacity="0.4"/>
<circle cx="126.993" cy="101.633" r="0.692114" fill="white" fill-opacity="0.5"/>
</g>
<g opacity="0.12">
<g clip-path="url(#clip3_810_3272)">
<path d="M20.9103 -77.1157V785.871" stroke="white" stroke-width="0.654481"/>
<path d="M62.7971 -77.1157V785.871" stroke="white" stroke-width="0.654481"/>
<path d="M104.684 -77.1157V785.871" stroke="white" stroke-width="0.654481"/>
<path d="M146.571 -77.1157V785.871" stroke="white" stroke-width="0.654481"/>
<path d="M188.457 -77.1157V785.871" stroke="white" stroke-width="0.654481"/>
<path d="M230.344 -77.1157V785.871" stroke="white" stroke-width="0.654481"/>
<path d="M272.231 -77.1157V785.871" stroke="white" stroke-width="0.654481"/>
<path d="M314.118 -77.1157V785.871" stroke="white" stroke-width="0.654481"/>
<path d="M356.005 -77.1157V785.871" stroke="white" stroke-width="0.654481"/>
</g>
<g clip-path="url(#clip4_810_3272)">
<path d="M-314.184 6.65771L934 6.65771" stroke="white" stroke-width="0.654481"/>
<path d="M-314.184 48.5444L934 48.5444" stroke="white" stroke-width="0.654481"/>
<path d="M-314.184 90.4312L934 90.4312" stroke="white" stroke-width="0.654481"/>
<path d="M-314.184 132.318L934 132.318" stroke="white" stroke-width="0.654481"/>
<path d="M-314.184 174.205L934 174.205" stroke="white" stroke-width="0.654481"/>
<path d="M-314.184 216.092L934 216.092" stroke="white" stroke-width="0.654481"/>
<path d="M-314.184 257.979L934 257.979" stroke="white" stroke-width="0.654481"/>
<path d="M-314.184 299.865L934 299.865" stroke="white" stroke-width="0.654481"/>
<path d="M-314.184 341.752L934 341.752" stroke="white" stroke-width="0.654481"/>
<path d="M-314.184 383.639L934 383.639" stroke="white" stroke-width="0.654481"/>
</g>
</g>
</g>
</g>
<g filter="url(#filter0_f_810_3272)">
<path d="M31 418H344L275.957 -1.33514e-05H99.0435L31 418Z" fill="url(#paint1_linear_810_3272)" fill-opacity="0.15"/>
</g>
</g>
</g>
<defs>
<filter id="filter0_f_810_3272" x="-32.7333" y="-63.7333" width="440.467" height="545.467" filterUnits="userSpaceOnUse" color-interpolation-filters="sRGB">
<feFlood flood-opacity="0" result="BackgroundImageFix"/>
<feBlend mode="normal" in="SourceGraphic" in2="BackgroundImageFix" result="shape"/>
<feGaussianBlur stdDeviation="31.8666" result="effect1_foregroundBlur_810_3272"/>
</filter>
<radialGradient id="paint0_diamond_810_3272" cx="0" cy="0" r="1" gradientUnits="userSpaceOnUse" gradientTransform="translate(200 144.423) rotate(90) scale(376.812 876.393)">
<stop stop-color="white"/>
<stop offset="1" stop-color="#D9D9D9" stop-opacity="0"/>
</radialGradient>
<linearGradient id="paint1_linear_810_3272" x1="187.5" y1="418" x2="177.216" y2="72.2247" gradientUnits="userSpaceOnUse">
<stop stop-color="white" stop-opacity="0"/>
<stop offset="1" stop-color="white"/>
</linearGradient>
<clipPath id="clip0_810_3272">
<rect width="375" height="420" fill="white"/>
</clipPath>
<clipPath id="clip1_810_3272">
<rect width="376" height="812" fill="white"/>
</clipPath>
<clipPath id="clip2_810_3272">
<rect width="376" height="812" fill="white" transform="translate(0 0.0537109)"/>
</clipPath>
<clipPath id="clip3_810_3272">
<rect width="1248.18" height="806.841" fill="white" transform="translate(-314.184 -77.1157)"/>
</clipPath>
<clipPath id="clip4_810_3272">
<rect width="1248.18" height="806.841" fill="white" transform="translate(-314.184 -77.1157)"/>
</clipPath>
</defs>
</svg>
