<svg width="375" height="214" viewBox="0 0 375 214" fill="none" xmlns="http://www.w3.org/2000/svg">
<g clip-path="url(#clip0_810_2196)">
<rect width="375" height="213.974" fill="#00C565"/>
<g clip-path="url(#clip1_810_2196)">
<g clip-path="url(#clip2_810_2196)">
<mask id="mask0_810_2196" style="mask-type:alpha" maskUnits="userSpaceOnUse" x="-320" y="-155" width="1040" height="693">
<rect x="-320" y="-154.946" width="1040" height="692" fill="url(#paint0_diamond_810_2196)"/>
</mask>
<g mask="url(#mask0_810_2196)">
<g opacity="0.7">
<circle cx="73.2971" cy="205.995" r="0.866106" fill="white" fill-opacity="0.3"/>
<circle cx="2.60862" cy="169.047" r="0.621616" fill="white" fill-opacity="0.6"/>
<circle cx="134.096" cy="100.447" r="0.690477" fill="white" fill-opacity="0.6"/>
<circle cx="13.4038" cy="50.7929" r="0.76211" fill="white" fill-opacity="0.5"/>
<circle cx="70.168" cy="43.6242" r="0.69691" fill="white" fill-opacity="0.5"/>
<circle cx="263.168" cy="102.245" r="0.711451" fill="white" fill-opacity="0.6"/>
<circle cx="123.443" cy="115.25" r="0.693902" fill="white" fill-opacity="0.3"/>
<circle cx="373.827" cy="63.7258" r="0.671636" fill="white" fill-opacity="0.5"/>
<circle cx="2.12285" cy="28.8572" r="0.729233" fill="white" fill-opacity="0.4"/>
<circle cx="228.811" cy="96.3032" r="0.689881" fill="white" fill-opacity="0.5"/>
<circle cx="133.578" cy="152.615" r="0.765212" fill="white" fill-opacity="0.4"/>
<circle cx="206.936" cy="78.5717" r="0.718168" fill="white" fill-opacity="0.6"/>
<circle cx="355.043" cy="117.164" r="0.831583" fill="white" fill-opacity="0.4"/>
<circle cx="30.6136" cy="183.438" r="0.80469" fill="white" fill-opacity="0.5"/>
<circle cx="36.466" cy="8.73696" r="0.735984" fill="white" fill-opacity="0.4"/>
<circle cx="359.754" cy="191.727" r="0.806592" fill="white" fill-opacity="0.4"/>
<circle cx="78.5631" cy="88.1296" r="0.804401" fill="white" fill-opacity="0.4"/>
<circle cx="354.292" cy="27.0235" r="0.671462" fill="white" fill-opacity="0.6"/>
<circle cx="17.0543" cy="40.2354" r="0.859953" fill="white" fill-opacity="0.6"/>
<circle cx="243.772" cy="57.986" r="0.85128" fill="white" fill-opacity="0.6"/>
<circle cx="349.076" cy="38.3841" r="0.784446" fill="white" fill-opacity="0.3"/>
<circle cx="286.221" cy="75.5724" r="0.678364" fill="white" fill-opacity="0.4"/>
<circle cx="56.6198" cy="211.811" r="0.763236" fill="white" fill-opacity="0.4"/>
<circle cx="245.373" cy="85.0422" r="0.676482" fill="white" fill-opacity="0.6"/>
<circle cx="161.284" cy="16.3448" r="0.648472" fill="white" fill-opacity="0.4"/>
<circle cx="326.601" cy="63.2671" r="0.804688" fill="white" fill-opacity="0.5"/>
<circle cx="120.592" cy="124.239" r="0.803196" fill="white" fill-opacity="0.5"/>
<circle cx="156.784" cy="57.4256" r="0.883131" fill="white" fill-opacity="0.5"/>
<circle cx="172.61" cy="100.483" r="0.727048" fill="white" fill-opacity="0.6"/>
<circle cx="103.969" cy="57.2973" r="0.754837" fill="white" fill-opacity="0.5"/>
<circle cx="27.463" cy="101.555" r="0.614002" fill="white" fill-opacity="0.4"/>
<circle cx="181.561" cy="31.2941" r="0.798039" fill="white" fill-opacity="0.6"/>
<circle cx="39.9863" cy="1.01075" r="0.705573" fill="white" fill-opacity="0.3"/>
<circle cx="97.5512" cy="59.7594" r="0.848304" fill="white" fill-opacity="0.5"/>
<circle cx="289.733" cy="57.7726" r="0.637861" fill="white" fill-opacity="0.5"/>
<circle cx="180.299" cy="64.9579" r="0.719579" fill="white" fill-opacity="0.5"/>
<circle cx="-0.777439" cy="166.255" r="0.788845" fill="white" fill-opacity="0.4"/>
<circle cx="267.43" cy="137.882" r="0.830232" fill="white" fill-opacity="0.4"/>
<circle cx="337.085" cy="1.5296" r="0.632627" fill="white" fill-opacity="0.5"/>
<circle cx="58.9969" cy="75.0757" r="0.773981" fill="white" fill-opacity="0.3"/>
<circle cx="78.3734" cy="9.2075" r="0.614725" fill="white" fill-opacity="0.3"/>
<circle cx="121.202" cy="76.3063" r="0.820446" fill="white" fill-opacity="0.5"/>
<circle cx="125.12" cy="5.63497" r="0.593954" fill="white" fill-opacity="0.6"/>
<circle cx="53.076" cy="110" r="0.771508" fill="white" fill-opacity="0.3"/>
<circle cx="246.023" cy="161.465" r="0.734636" fill="white" fill-opacity="0.5"/>
<circle cx="126.993" cy="101.633" r="0.692114" fill="white" fill-opacity="0.5"/>
</g>
<g opacity="0.12">
<g clip-path="url(#clip3_810_2196)">
<path d="M20.9103 -77.1157V785.871" stroke="white" stroke-width="0.654481"/>
<path d="M62.7971 -77.1157V785.871" stroke="white" stroke-width="0.654481"/>
<path d="M104.684 -77.1157V785.871" stroke="white" stroke-width="0.654481"/>
<path d="M146.571 -77.1157V785.871" stroke="white" stroke-width="0.654481"/>
<path d="M188.457 -77.1157V785.871" stroke="white" stroke-width="0.654481"/>
<path d="M230.344 -77.1157V785.871" stroke="white" stroke-width="0.654481"/>
<path d="M272.231 -77.1157V785.871" stroke="white" stroke-width="0.654481"/>
<path d="M314.118 -77.1157V785.871" stroke="white" stroke-width="0.654481"/>
<path d="M356.005 -77.1157V785.871" stroke="white" stroke-width="0.654481"/>
</g>
<g clip-path="url(#clip4_810_2196)">
<path d="M-314.184 6.65771L934 6.65771" stroke="white" stroke-width="0.654481"/>
<path d="M-314.184 48.5444L934 48.5444" stroke="white" stroke-width="0.654481"/>
<path d="M-314.184 90.4312L934 90.4312" stroke="white" stroke-width="0.654481"/>
<path d="M-314.184 132.318L934 132.318" stroke="white" stroke-width="0.654481"/>
<path d="M-314.184 174.205L934 174.205" stroke="white" stroke-width="0.654481"/>
</g>
</g>
</g>
</g>
<g filter="url(#filter0_f_810_2196)">
<path d="M30.9999 212H344L275.956 3.8147e-06H99.0434L30.9999 212Z" fill="url(#paint1_linear_810_2196)" fill-opacity="0.15"/>
</g>
</g>
</g>
<defs>
<filter id="filter0_f_810_2196" x="-32.7334" y="-63.7333" width="440.467" height="339.467" filterUnits="userSpaceOnUse" color-interpolation-filters="sRGB">
<feFlood flood-opacity="0" result="BackgroundImageFix"/>
<feBlend mode="normal" in="SourceGraphic" in2="BackgroundImageFix" result="shape"/>
<feGaussianBlur stdDeviation="31.8666" result="effect1_foregroundBlur_810_2196"/>
</filter>
<radialGradient id="paint0_diamond_810_2196" cx="0" cy="0" r="1" gradientUnits="userSpaceOnUse" gradientTransform="translate(200 144.423) rotate(90) scale(376.812 876.393)">
<stop stop-color="white"/>
<stop offset="1" stop-color="#D9D9D9" stop-opacity="0"/>
</radialGradient>
<linearGradient id="paint1_linear_810_2196" x1="187.5" y1="212" x2="184.853" y2="36.5155" gradientUnits="userSpaceOnUse">
<stop stop-color="white" stop-opacity="0"/>
<stop offset="1" stop-color="white"/>
</linearGradient>
<clipPath id="clip0_810_2196">
<rect width="375" height="213.974" fill="white"/>
</clipPath>
<clipPath id="clip1_810_2196">
<rect width="376" height="812" fill="white"/>
</clipPath>
<clipPath id="clip2_810_2196">
<rect width="376" height="812" fill="white" transform="translate(-6.10352e-05 0.0537109)"/>
</clipPath>
<clipPath id="clip3_810_2196">
<rect width="1248.18" height="806.841" fill="white" transform="translate(-314.184 -77.1157)"/>
</clipPath>
<clipPath id="clip4_810_2196">
<rect width="1248.18" height="806.841" fill="white" transform="translate(-314.184 -77.1157)"/>
</clipPath>
</defs>
</svg>
