<svg width="323" height="320" viewBox="0 0 323 320" fill="none" xmlns="http://www.w3.org/2000/svg">
<g clip-path="url(#clip0_260_2449)">
<path d="M298.792 255.027L212.466 278.882L264.26 312.014" stroke="#00C565" stroke-width="0.813988" stroke-miterlimit="10"/>
<path d="M6.86353 280.709L34.0698 227.77" stroke="#00C565" stroke-width="0.813988" stroke-miterlimit="10"/>
<path d="M299.921 18.5381V72.9066" stroke="#00C565" stroke-width="0.813988" stroke-miterlimit="10"/>
<path d="M105.364 33.7915L32.2 48.458L9.46704 114.296" stroke="#00C565" stroke-width="0.813988" stroke-miterlimit="10"/>
<path d="M105.363 40.9337C103.655 41.9237 102.107 42.019 100.963 41.3664C99.8194 40.7137 99.1521 39.3351 99.1521 37.3624C99.1521 33.4172 101.924 28.6212 105.341 26.6486C107.05 25.6586 108.597 25.5633 109.741 26.2159C110.885 26.8686 111.553 28.2472 111.553 30.2199C111.553 34.1652 108.781 38.9391 105.363 40.9337Z" fill="#00C565"/>
<path d="M299.914 25.3136C298.205 26.2963 296.658 26.3916 295.514 25.7463C294.37 25.101 293.703 23.715 293.703 21.7424C293.703 17.7897 296.475 12.9938 299.892 11.0212C301.601 10.0385 303.148 9.94319 304.292 10.5885C305.436 11.2338 306.103 12.6198 306.103 14.5925C306.103 18.5377 303.331 23.341 299.914 25.3136Z" fill="#00C565"/>
<path d="M9.46686 120.874C7.75822 121.864 6.21091 121.959 5.06692 121.306C3.92294 120.654 3.25562 119.275 3.25562 117.302C3.25562 113.357 6.02757 108.561 9.44486 106.589C11.1535 105.599 12.7008 105.503 13.8448 106.156C14.9888 106.809 15.6561 108.187 15.6561 110.16C15.6561 114.105 12.8841 118.872 9.46686 120.874Z" fill="#00C565"/>
<path d="M6.85626 287.851C5.14762 288.841 3.60031 288.936 2.45633 288.291C1.31234 287.646 0.64502 286.252 0.64502 284.28C0.64502 280.334 3.40965 275.539 6.82693 273.566C8.53557 272.576 10.0829 272.488 11.2269 273.133C12.3708 273.779 13.0382 275.165 13.0382 277.137C13.0455 281.082 10.2735 285.878 6.85626 287.851Z" fill="#00C565"/>
<path d="M264.488 319.156C262.779 320.139 261.232 320.234 260.088 319.589C258.944 318.944 258.276 317.558 258.276 315.585C258.276 311.64 261.041 306.837 264.458 304.864C266.167 303.881 267.714 303.786 268.858 304.431C270.002 305.077 270.67 306.463 270.67 308.435C270.684 312.388 267.905 317.184 264.488 319.156Z" fill="#00C565"/>
<path d="M298.785 262.17C297.076 263.16 295.529 263.248 294.385 262.603C293.241 261.957 292.574 260.571 292.574 258.599C292.574 254.654 295.338 249.85 298.756 247.878C300.464 246.895 302.012 246.8 303.156 247.445C304.3 248.09 304.967 249.484 304.967 251.456C304.974 255.402 302.217 260.197 298.785 262.17Z" fill="#00C565"/>
<path d="M299.914 93.8284C294.913 96.7177 290.381 96.9963 287.103 95.097C283.825 93.1977 281.794 89.1424 281.794 83.3639C281.794 71.8067 289.904 57.7562 299.914 51.9776C304.923 49.0883 309.448 48.8097 312.733 50.709C316.018 52.6083 318.042 56.6636 318.042 62.4422C318.042 73.9993 309.924 88.0718 299.914 93.8284Z" fill="white" stroke="#00C565" stroke-width="1.24665" stroke-miterlimit="10"/>
<path d="M166.941 182.055C161.94 184.944 157.408 185.215 154.13 183.323C150.852 181.431 148.821 177.369 148.821 171.59C148.821 160.033 156.938 145.975 166.948 140.196C171.95 137.307 176.481 137.036 179.759 138.928C183.037 140.82 185.069 144.882 185.069 150.661C185.069 162.218 176.951 176.276 166.941 182.055Z" fill="white" stroke="#00C565" stroke-width="1.24665" stroke-miterlimit="10"/>
<path d="M123.161 289.949C118.16 292.838 113.628 293.109 110.343 291.217C107.057 289.325 105.041 285.263 105.041 279.484C105.041 267.927 113.151 253.869 123.161 248.09C128.17 245.201 132.694 244.93 135.98 246.822C139.265 248.714 141.289 252.776 141.289 258.555C141.282 270.12 133.171 284.17 123.161 289.949Z" fill="white" stroke="#00C565" stroke-width="1.24665" stroke-miterlimit="10"/>
<path d="M32.2 69.387C27.1914 72.2763 22.6668 72.5476 19.3815 70.6557C16.0962 68.7637 14.0723 64.7011 14.0723 58.9225C14.0723 47.3653 22.1901 33.3076 32.2 27.529C37.2013 24.6397 41.7332 24.3683 45.0112 26.2603C48.2891 28.1523 50.3204 32.2149 50.3204 37.9935C50.3204 49.558 42.2025 63.6084 32.2 69.387Z" fill="white" stroke="#00C565" stroke-width="1.24665" stroke-miterlimit="10"/>
<path d="M35.8003 245.186C30.7917 248.076 26.2671 248.347 22.9818 246.455C19.6966 244.563 17.6873 240.5 17.6873 234.736C17.6873 223.179 25.8051 209.122 35.815 203.343C40.8163 200.454 45.3482 200.182 48.6261 202.074C51.9041 203.966 53.9354 208.029 53.9354 213.807C53.9207 225.35 45.8102 239.408 35.8003 245.186Z" fill="white" stroke="#00C565" stroke-width="1.24665" stroke-miterlimit="10"/>
<path d="M212.458 299.811C207.457 302.701 202.925 302.972 199.647 301.08C196.369 299.188 194.338 295.125 194.338 289.347C194.338 277.79 202.448 263.732 212.458 257.953C217.467 255.064 221.991 254.793 225.277 256.685C228.562 258.577 230.586 262.639 230.586 268.418C230.586 279.975 222.468 294.033 212.458 299.811Z" fill="white" stroke="#00C565" stroke-width="1.24665" stroke-miterlimit="10"/>
<path d="M224.485 75.2166C219.476 78.1059 214.951 78.3772 211.666 76.4853C208.381 74.5933 206.357 70.5307 206.357 64.7521C206.357 53.1949 214.475 39.1371 224.485 33.3586C229.486 30.4693 234.018 30.1979 237.296 32.0899C240.574 33.9819 242.605 38.0445 242.605 43.8231C242.583 55.3802 234.473 69.438 224.485 75.2166Z" fill="white" stroke="#00C565" stroke-width="1.24665" stroke-miterlimit="10"/>
<path d="M276.037 206.716C271.029 209.605 266.504 209.877 263.219 207.985C259.934 206.093 257.91 202.03 257.91 196.252C257.91 184.687 266.028 170.637 276.037 164.858C281.039 161.969 285.571 161.69 288.849 163.589C292.127 165.489 294.15 169.544 294.15 175.337C294.15 186.88 286.084 200.93 276.037 206.716Z" fill="white" stroke="#00C565" stroke-width="1.24665" stroke-miterlimit="10"/>
<path d="M88.6731 153.785C83.6646 156.674 79.14 156.946 75.8547 155.054C72.5694 153.162 70.5454 149.099 70.5454 143.32C70.5454 131.763 78.6633 117.706 88.6731 111.927C93.6744 109.038 98.2063 108.766 101.484 110.658C104.762 112.55 106.794 116.613 106.794 122.391C106.794 133.956 98.683 148.006 88.6731 153.785Z" fill="white" stroke="#00C565" stroke-width="1.24665" stroke-miterlimit="10"/>
<path d="M283.701 72.907L240.273 55.3953" stroke="#00C565" stroke-width="1.24665" stroke-miterlimit="10"/>
<path d="M224.463 75.2168L268.799 170.783" stroke="#00C565" stroke-width="1.24665" stroke-miterlimit="10"/>
<path d="M206.342 64.7524L105.987 116.664" stroke="#00C565" stroke-width="1.24665" stroke-miterlimit="10"/>
<path d="M76.148 124.965L37.7146 65.2141" stroke="#00C565" stroke-width="1.24665" stroke-miterlimit="10"/>
<path d="M101.55 140.146L151.658 158.728" stroke="#00C565" stroke-width="1.24665" stroke-miterlimit="10"/>
<path d="M257.917 196.252L141.289 253.671" stroke="#00C565" stroke-width="1.24665" stroke-miterlimit="10"/>
<path d="M106.603 270.083L50.3716 228.291" stroke="#00C565" stroke-width="1.24665" stroke-miterlimit="10"/>
<path d="M136.897 274.754L197.807 275.033" stroke="#00C565" stroke-width="1.24665" stroke-miterlimit="10"/>
<path d="M317.983 57.324C320.763 58.93 322.486 62.3766 322.486 67.2752C322.486 77.0724 315.6 88.9962 307.086 93.8948C302.84 96.3441 299.02 96.5714 296.218 94.9654L291.459 92.2155C288.673 90.6095 286.957 87.1702 286.957 82.2716C286.957 72.4671 293.835 60.5506 302.356 55.652C306.595 53.2027 310.423 52.968 313.217 54.574L317.983 57.324Z" fill="#BA68C8"/>
<path d="M317.983 57.324C320.763 58.93 322.486 62.3766 322.486 67.2752C322.486 77.0724 315.6 88.9962 307.086 93.8948C302.84 96.3441 299.02 96.5714 296.218 94.9654L291.459 92.2155C288.673 90.6095 286.957 87.1702 286.957 82.2716C286.957 72.4671 293.835 60.5506 302.356 55.652C306.595 53.2027 310.423 52.968 313.217 54.574L317.983 57.324Z" fill="#00C565"/>
<path d="M316.971 84.0756C320.337 78.869 322.486 72.7458 322.486 67.2752C322.486 62.3766 320.763 58.93 317.983 57.324L313.217 54.574C310.438 52.968 306.617 53.2027 302.356 55.652C297.619 58.3873 293.38 63.3079 290.564 68.8518L316.971 84.0756Z" fill="#BA68C8"/>
<path d="M316.971 84.0756C320.337 78.869 322.486 72.7458 322.486 67.2752C322.486 62.3766 320.763 58.93 317.983 57.324L313.217 54.574C310.438 52.968 306.617 53.2027 302.356 55.652C297.619 58.3873 293.38 63.3079 290.564 68.8518L316.971 84.0756Z" fill="#00A957"/>
<path d="M300.252 95.5077C298.943 95.5271 297.652 95.1981 296.512 94.5544C293.784 92.9778 292.281 89.6045 292.281 85.0652C292.281 75.444 299.056 63.7109 307.38 58.9076C309.363 57.6632 311.639 56.9627 313.98 56.8763C315.289 56.8569 316.579 57.1859 317.719 57.8296C320.447 59.4063 321.951 62.7795 321.951 67.3188C321.951 76.9327 315.175 88.6732 306.852 93.4764C304.868 94.7208 302.592 95.4213 300.252 95.5077Z" fill="white"/>
<path d="M313.95 57.4043C315.166 57.3869 316.365 57.6905 317.426 58.2843C319.985 59.751 321.393 62.9702 321.393 67.3188C321.393 76.764 314.735 88.2919 306.558 93.0218C304.649 94.2058 302.467 94.8777 300.222 94.9725C299.006 94.9933 297.806 94.6896 296.746 94.0925C294.187 92.6258 292.779 89.4065 292.779 85.0653C292.779 75.6127 299.438 64.0849 307.614 59.3623C309.523 58.1766 311.705 57.5023 313.95 57.4043ZM313.95 56.3483C311.518 56.4361 309.152 57.1591 307.086 58.4456C298.602 63.3442 291.687 75.2607 291.687 85.0653C291.687 89.9639 293.41 93.4105 296.189 95.0091C297.409 95.7007 298.791 96.0551 300.193 96.0358C302.625 95.9481 304.991 95.225 307.057 93.9385C315.542 89.0399 322.457 77.116 322.457 67.3188C322.457 62.4203 320.733 58.9736 317.954 57.3677C316.732 56.6816 315.351 56.33 313.95 56.3483Z" fill="#00C565"/>
<path d="M298.499 91.7386L315.498 81.9268L315.219 79.4775C315.043 77.9302 314.427 76.8449 313.54 76.3389L312.403 75.6789C311.883 75.4242 311.305 75.3143 310.728 75.3607C310.151 75.4072 309.597 75.6083 309.125 75.9429L302.606 79.7048C300.112 81.1715 298.001 84.8381 297.649 88.314L297.37 91.086L298.499 91.7386Z" fill="#263238"/>
<path d="M310.68 64.8183C311.515 65.3023 312.036 66.3436 312.036 67.8176C311.945 69.4213 311.479 70.9813 310.675 72.3721C309.872 73.7629 308.753 74.9457 307.409 75.8255C306.133 76.5588 304.974 76.6321 304.138 76.1481L303.046 75.5175C302.21 75.0335 301.689 73.9995 301.689 72.5255C301.78 70.9218 302.246 69.3618 303.05 67.971C303.853 66.5802 304.972 65.3974 306.316 64.5176C307.592 63.7843 308.751 63.711 309.587 64.1876L310.68 64.8183Z" fill="#263238"/>
<path d="M315.219 79.4846C315.043 77.9373 314.427 76.852 313.54 76.346C313.02 76.0898 312.441 75.979 311.864 76.0255C311.287 76.072 310.733 76.274 310.262 76.61L303.743 80.372C301.249 81.8386 299.13 85.5052 298.778 88.9738L298.507 91.7458L315.498 81.9339L315.219 79.4846Z" fill="#455A64"/>
<path d="M304.138 76.1478C304.974 76.6318 306.133 76.5658 307.409 75.8252C308.753 74.9454 309.872 73.7626 310.675 72.3718C311.479 70.981 311.945 69.421 312.036 67.8173C312.036 66.3506 311.516 65.302 310.68 64.818C309.844 64.334 308.685 64.4073 307.409 65.148C306.065 66.0277 304.946 67.2106 304.143 68.6014C303.339 69.9922 302.873 71.5522 302.782 73.1559C302.782 74.6299 303.302 75.6638 304.138 76.1478Z" fill="#455A64"/>
<path d="M185.061 145.484C187.841 147.09 189.564 150.536 189.557 155.435C189.557 165.232 182.678 177.156 174.193 182.054C169.948 184.504 166.127 184.731 163.326 183.125L158.559 180.375C155.78 178.769 154.064 175.33 154.064 170.431C154.064 160.627 160.942 148.71 169.463 143.812C173.709 141.362 177.53 141.128 180.331 142.734L185.061 145.484Z" fill="#BA68C8"/>
<path d="M185.061 145.484C187.841 147.09 189.564 150.536 189.557 155.435C189.557 165.232 182.678 177.156 174.193 182.054C169.948 184.504 166.127 184.731 163.326 183.125L158.559 180.375C155.78 178.769 154.064 175.33 154.064 170.431C154.064 160.627 160.942 148.71 169.463 143.812C173.709 141.362 177.53 141.128 180.331 142.734L185.061 145.484Z" fill="#00C565"/>
<path d="M184.049 172.235C187.415 167.029 189.557 160.905 189.557 155.435C189.557 150.536 187.841 147.09 185.061 145.484L180.295 142.734C177.515 141.128 173.695 141.362 169.427 143.812C164.69 146.547 160.458 151.468 157.635 157.011L184.049 172.235Z" fill="#BA68C8"/>
<path d="M184.049 172.235C187.415 167.029 189.557 160.905 189.557 155.435C189.557 150.536 187.841 147.09 185.061 145.484L180.295 142.734C177.515 141.128 173.695 141.362 169.427 143.812C164.69 146.547 160.458 151.468 157.635 157.011L184.049 172.235Z" fill="#00A957"/>
<path d="M167.33 183.668C166.02 183.687 164.73 183.358 163.59 182.715C160.862 181.138 159.358 177.765 159.358 173.226C159.358 163.604 166.127 151.871 174.458 147.068C176.441 145.824 178.717 145.123 181.057 145.037C182.366 145.018 183.657 145.347 184.797 145.99C187.525 147.567 189.029 150.94 189.029 155.479C189.029 165.093 182.253 176.833 173.93 181.637C171.946 182.881 169.67 183.582 167.33 183.668Z" fill="white"/>
<path d="M181.057 145.564C182.271 145.547 183.468 145.851 184.526 146.444C187.093 147.911 188.501 151.13 188.501 155.479C188.501 164.924 181.842 176.452 173.665 181.182C171.756 182.366 169.574 183.038 167.33 183.133C166.113 183.153 164.913 182.85 163.854 182.253C161.294 180.786 159.886 177.567 159.886 173.225C159.886 163.773 166.545 152.245 174.721 147.522C176.63 146.337 178.812 145.662 181.057 145.564ZM181.057 144.508C178.626 144.596 176.259 145.319 174.193 146.606C165.709 151.504 158.794 163.421 158.794 173.225C158.794 178.124 160.517 181.571 163.296 183.169C164.516 183.861 165.898 184.215 167.3 184.196C169.732 184.108 172.099 183.385 174.164 182.099C182.649 177.2 189.527 165.276 189.527 155.479C189.527 150.58 187.811 147.134 185.032 145.528C183.81 144.842 182.429 144.49 181.028 144.508H181.057Z" fill="#00C565"/>
<path d="M165.577 179.906L182.575 170.094L182.297 167.645C182.121 166.097 181.505 165.012 180.618 164.506L179.481 163.846C178.961 163.591 178.382 163.482 177.806 163.528C177.229 163.574 176.675 163.776 176.203 164.11L169.684 167.872C167.19 169.339 165.071 173.005 164.726 176.481L164.448 179.253L165.577 179.906Z" fill="#263238"/>
<path d="M177.757 152.979C178.593 153.463 179.114 154.504 179.107 155.978C179.02 157.582 178.556 159.143 177.754 160.534C176.951 161.925 175.832 163.108 174.487 163.986C173.211 164.719 172.052 164.793 171.216 164.309L170.124 163.678C169.288 163.194 168.752 162.138 168.752 160.671C168.843 159.067 169.309 157.508 170.113 156.117C170.917 154.726 172.035 153.543 173.379 152.663C174.655 151.93 175.814 151.849 176.65 152.333L177.757 152.979Z" fill="#263238"/>
<path d="M182.297 167.645C182.121 166.097 181.505 165.012 180.617 164.506C180.098 164.25 179.519 164.139 178.942 164.186C178.365 164.232 177.811 164.434 177.339 164.77L170.82 168.532C168.32 169.999 166.208 173.665 165.856 177.134L165.577 179.906L182.575 170.094L182.297 167.645Z" fill="#455A64"/>
<path d="M171.216 164.337C172.052 164.821 173.211 164.755 174.487 164.015C175.832 163.137 176.951 161.954 177.754 160.563C178.556 159.171 179.02 157.611 179.107 156.007C179.107 154.54 178.593 153.491 177.757 153.007C176.922 152.523 175.763 152.597 174.487 153.337C173.143 154.217 172.024 155.4 171.22 156.791C170.417 158.182 169.951 159.742 169.86 161.345C169.86 162.79 170.38 163.824 171.216 164.337Z" fill="#455A64"/>
<path d="M54.1702 209.268C56.9495 210.874 58.6728 214.313 58.6728 219.219C58.6728 229.017 51.7942 240.933 43.273 245.832C39.0344 248.281 35.2065 248.516 32.4125 246.91L27.6459 244.16C24.8666 242.554 23.1433 239.107 23.1433 234.208C23.1433 224.411 30.0292 212.495 38.5431 207.596C42.789 205.14 46.6096 204.912 49.4109 206.518L54.1702 209.268Z" fill="#BA68C8"/>
<path d="M54.1702 209.268C56.9495 210.874 58.6728 214.313 58.6728 219.219C58.6728 229.017 51.7942 240.933 43.273 245.832C39.0344 248.281 35.2065 248.516 32.4125 246.91L27.6459 244.16C24.8666 242.554 23.1433 239.107 23.1433 234.208C23.1433 224.411 30.0292 212.495 38.5431 207.596C42.789 205.14 46.6096 204.912 49.4109 206.518L54.1702 209.268Z" fill="#00C565"/>
<path d="M53.1587 236.012C56.5319 230.813 58.6732 224.683 58.6732 219.219C58.6732 214.313 56.9499 210.874 54.1706 209.268L49.4114 206.518C46.6321 204.912 42.8115 205.14 38.5435 207.596C33.8209 210.324 29.5677 215.252 26.7517 220.803L53.1587 236.012Z" fill="#BA68C8"/>
<path d="M53.1587 236.012C56.5319 230.813 58.6732 224.683 58.6732 219.219C58.6732 214.313 56.9499 210.874 54.1706 209.268L49.4114 206.518C46.6321 204.912 42.8115 205.14 38.5435 207.596C33.8209 210.324 29.5677 215.252 26.7517 220.803L53.1587 236.012Z" fill="#00A957"/>
<path d="M36.4458 247.445C35.1371 247.469 33.8458 247.142 32.7059 246.499C29.9706 244.915 28.4673 241.549 28.4673 236.966C28.4673 227.352 35.2432 215.619 43.5737 210.808C45.5584 209.567 47.8344 208.869 50.1736 208.784C51.4824 208.76 52.7737 209.086 53.9136 209.73C56.6489 211.314 58.1522 214.68 58.1522 219.226C58.1522 228.84 51.3763 240.573 43.0457 245.384C41.0642 246.637 38.7883 247.348 36.4458 247.445Z" fill="white"/>
<path d="M50.1665 209.349C51.3829 209.327 52.583 209.631 53.6425 210.229C56.2017 211.696 57.6171 214.915 57.6097 219.264C57.6097 228.709 50.9585 240.237 42.7746 244.93C40.8698 246.119 38.6893 246.793 36.446 246.888C35.2296 246.91 34.0295 246.606 32.9701 246.008C30.4108 244.541 28.9955 241.322 28.9955 236.973C28.9955 227.528 35.654 216 43.8379 211.307C45.7427 210.118 47.9232 209.444 50.1665 209.349ZM50.1665 208.286C47.736 208.374 45.3715 209.1 43.3099 210.39C34.8181 215.289 27.9102 227.205 27.9102 237.003C27.9102 241.909 29.6261 245.348 32.4128 246.954C33.6322 247.646 35.0145 248.001 36.4167 247.98C38.8472 247.892 41.2117 247.166 43.2733 245.876C51.7651 240.977 58.673 229.061 58.673 219.264C58.673 214.358 56.9571 210.918 54.1704 209.312C52.9506 208.621 51.5686 208.266 50.1665 208.286Z" fill="#00C565"/>
<path d="M34.6933 243.691L51.6917 233.879L51.4204 231.43C51.2444 229.875 50.621 228.797 49.7337 228.284L48.6044 227.631C48.0852 227.375 47.5062 227.264 46.929 227.31C46.3518 227.357 45.798 227.559 45.3265 227.895L38.8072 231.657C36.3066 233.124 34.1946 236.79 33.8426 240.266L33.564 243.031L34.6933 243.691Z" fill="#263238"/>
<path d="M46.8665 216.763C47.7025 217.247 48.2232 218.281 48.2232 219.755C48.1367 221.36 47.6726 222.923 46.8685 224.316C46.0645 225.709 44.9433 226.892 43.5959 227.77C42.3199 228.503 41.1686 228.576 40.3253 228.092L39.2399 227.462C38.3966 226.978 37.8833 225.944 37.8833 224.463C37.9698 222.858 38.4339 221.296 39.238 219.904C40.0421 218.513 41.1633 217.331 42.5106 216.455C43.7865 215.721 44.9379 215.648 45.7739 216.132L46.8665 216.763Z" fill="#263238"/>
<path d="M51.4202 231.429C51.2442 229.875 50.6209 228.797 49.7336 228.283C49.2139 228.029 48.6352 227.919 48.0583 227.965C47.4815 228.012 46.9278 228.213 46.4556 228.547L39.9364 232.309C37.4431 233.776 35.3311 237.443 34.9791 240.919L34.7004 243.69L51.6989 233.879L51.4202 231.429Z" fill="#455A64"/>
<path d="M40.3325 228.092C41.1685 228.576 42.3198 228.503 43.5958 227.77C44.9407 226.889 46.0601 225.705 46.8638 224.313C47.6675 222.921 48.1331 221.36 48.2231 219.755C48.2231 218.288 47.7024 217.247 46.8664 216.763C46.0304 216.279 44.8791 216.352 43.5958 217.085C42.2467 217.961 41.1231 219.142 40.3166 220.534C39.51 221.925 39.0431 223.487 38.9539 225.093C38.9539 226.574 39.4892 227.608 40.3325 228.092Z" fill="#455A64"/>
<path d="M230.938 264.18C233.717 265.786 235.441 269.225 235.441 274.123C235.441 283.928 228.562 295.844 220.041 300.743C215.802 303.192 211.974 303.427 209.173 301.821L204.414 299.071C201.634 297.465 199.911 294.018 199.911 289.12C199.911 279.323 206.79 267.406 215.311 262.5C219.55 260.051 223.377 259.824 226.179 261.43L230.938 264.18Z" fill="#00C565"/>
<path d="M232.192 264.18C234.979 265.786 236.695 269.225 236.695 274.123C236.695 283.928 229.816 295.844 221.332 300.743C217.086 303.192 213.265 303.427 210.464 301.821L205.697 299.071C202.918 297.465 201.202 294.018 201.202 289.12C201.202 279.323 208.08 267.406 216.565 262.5C220.811 260.051 224.632 259.824 227.433 261.43L232.192 264.18Z" fill="#00C565"/>
<path d="M229.926 290.924C233.292 285.725 235.441 279.594 235.441 274.123C235.441 269.225 233.717 265.786 230.938 264.18L226.179 261.43C223.392 259.824 219.579 260.051 215.311 262.5C210.574 265.236 206.335 270.156 203.519 275.7L229.926 290.924Z" fill="#BA68C8"/>
<path d="M229.926 290.924C233.292 285.725 235.441 279.594 235.441 274.123C235.441 269.225 233.717 265.786 230.938 264.18L226.179 261.43C223.392 259.824 219.579 260.051 215.311 262.5C210.574 265.236 206.335 270.156 203.519 275.7L229.926 290.924Z" fill="#00A957"/>
<path d="M213.206 302.356C211.899 302.377 210.611 302.048 209.474 301.403C206.738 299.826 205.235 296.46 205.235 291.914C205.235 282.3 212.011 270.567 220.334 265.756C222.32 264.517 224.595 263.819 226.934 263.732C228.243 263.711 229.533 264.037 230.674 264.678C233.402 266.255 234.913 269.628 234.913 274.167C234.913 283.789 228.137 295.522 219.806 300.332C217.821 301.573 215.545 302.27 213.206 302.356Z" fill="white"/>
<path d="M226.934 264.26C228.15 264.239 229.35 264.543 230.41 265.14C232.969 266.607 234.377 269.826 234.377 274.167C234.377 283.62 227.726 295.148 219.542 299.87C217.635 301.06 215.452 301.735 213.206 301.828C211.993 301.846 210.796 301.542 209.738 300.948C207.178 299.482 205.763 296.262 205.763 291.914C205.763 282.468 212.422 270.941 220.605 266.247C222.51 265.059 224.691 264.384 226.934 264.289M226.934 263.226C224.503 263.316 222.137 264.039 220.07 265.323C211.586 270.229 204.67 282.146 204.67 291.943C204.67 296.842 206.386 300.288 209.166 301.894C210.386 302.584 211.768 302.935 213.17 302.914C215.601 302.826 217.968 302.103 220.034 300.816C228.525 295.918 235.433 284.001 235.433 274.197C235.433 269.298 233.71 265.859 230.931 264.253C229.711 263.561 228.329 263.207 226.927 263.226H226.934Z" fill="#00C565"/>
<path d="M211.461 298.602L228.452 288.782L228.174 286.34C228.005 284.786 227.382 283.708 226.494 283.194L225.358 282.542C224.838 282.286 224.259 282.175 223.682 282.221C223.105 282.268 222.551 282.47 222.08 282.806L215.568 286.568C213.067 288.034 210.955 291.701 210.603 295.177L210.324 297.942L211.461 298.602Z" fill="#263238"/>
<path d="M223.634 271.674C224.47 272.158 224.991 273.192 224.991 274.666C224.905 276.271 224.44 277.833 223.636 279.224C222.832 280.616 221.711 281.798 220.364 282.674C219.088 283.407 217.929 283.488 217.093 283.004L216 282.373C215.164 281.889 214.651 280.848 214.651 279.374C214.738 277.77 215.201 276.209 216.004 274.818C216.807 273.427 217.926 272.244 219.271 271.366C220.547 270.633 221.706 270.559 222.542 271.043L223.634 271.674Z" fill="#263238"/>
<path d="M228.151 286.34C227.982 284.786 227.359 283.708 226.472 283.194C225.952 282.94 225.373 282.83 224.797 282.876C224.22 282.923 223.666 283.124 223.194 283.458L216.675 287.22C214.181 288.687 212.062 292.353 211.717 295.829L211.439 298.601L228.43 288.782L228.151 286.34Z" fill="#455A64"/>
<path d="M217.093 283.004C217.929 283.488 219.087 283.415 220.363 282.674C221.711 281.798 222.832 280.616 223.636 279.224C224.44 277.833 224.904 276.271 224.991 274.666C224.991 273.199 224.47 272.158 223.634 271.674C222.798 271.19 221.639 271.256 220.363 271.997C219.018 272.875 217.899 274.057 217.096 275.449C216.294 276.84 215.83 278.401 215.743 280.005C215.743 281.479 216.257 282.52 217.093 283.004Z" fill="#455A64"/>
<path d="M50.1809 32.9923C52.9602 34.5909 54.6835 38.0375 54.6835 42.9361C54.6835 52.7406 47.805 64.6571 39.2838 69.5557C35.0452 72.005 31.2172 72.2397 28.4233 70.6337L23.6567 67.8838C20.9067 66.2778 19.1541 62.8312 19.1541 57.9326C19.1541 48.128 26.04 36.2115 34.5538 31.313C38.7998 28.8637 42.6204 28.6363 45.4217 30.235L50.1809 32.9923Z" fill="#BA68C8"/>
<path d="M50.1809 32.9923C52.9602 34.5909 54.6835 38.0375 54.6835 42.9361C54.6835 52.7406 47.805 64.6571 39.2838 69.5557C35.0452 72.005 31.2172 72.2397 28.4233 70.6337L23.6567 67.8838C20.9067 66.2778 19.1541 62.8312 19.1541 57.9326C19.1541 48.128 26.04 36.2115 34.5538 31.313C38.7998 28.8637 42.6204 28.6363 45.4217 30.235L50.1809 32.9923Z" fill="#00C565"/>
<path d="M49.1692 59.7364C52.5424 54.5371 54.6837 48.4065 54.6837 42.9359C54.6837 38.0373 52.9604 34.5907 50.1811 32.9921L45.4219 30.2348C42.6206 28.6728 38.8 28.8635 34.554 31.3128C29.8168 34.0481 25.5782 38.9687 22.7622 44.5126L49.1692 59.7364Z" fill="#BA68C8"/>
<path d="M49.1692 59.7364C52.5424 54.5371 54.6837 48.4065 54.6837 42.9359C54.6837 38.0373 52.9604 34.5907 50.1811 32.9921L45.4219 30.2348C42.6206 28.6728 38.8 28.8635 34.554 31.3128C29.8168 34.0481 25.5782 38.9687 22.7622 44.5126L49.1692 59.7364Z" fill="#00A957"/>
<path d="M32.4492 71.2057C31.1423 71.2263 29.8536 70.8971 28.7166 70.2524C25.9813 68.6757 24.478 65.3025 24.478 60.7632C24.478 51.1493 31.2539 39.4162 39.5845 34.6056C41.5671 33.359 43.8439 32.6583 46.1844 32.5743C47.4938 32.5524 48.7852 32.8816 49.9243 33.5276C52.6596 35.1042 54.1629 38.4775 54.1629 43.0168C54.1629 52.638 47.387 64.3711 39.0565 69.1744C37.0711 70.4209 34.792 71.1216 32.4492 71.2057Z" fill="white"/>
<path d="M46.177 33.0726C47.3934 33.0507 48.5935 33.3545 49.6529 33.9526C52.2122 35.4192 53.6275 38.6385 53.6202 42.9798C53.6202 52.4323 46.969 63.9602 38.7851 68.6828C36.8789 69.8685 34.6992 70.5428 32.4565 70.6407C31.2385 70.6525 30.0392 70.3412 28.9805 69.7387C26.4212 68.2721 25.0059 65.0528 25.0059 60.7042C25.0059 51.259 31.6645 39.7312 39.8484 35.0379C41.7536 33.849 43.9334 33.1721 46.177 33.0726ZM46.177 32.0093C43.7454 32.099 41.3795 32.822 39.3131 34.1066C30.8285 39.0052 23.95 50.929 23.95 60.7262C23.95 65.6248 25.6659 69.0714 28.4526 70.6774C29.674 71.3641 31.0553 71.7158 32.4565 71.6967C34.8858 71.6077 37.2496 70.8847 39.3131 69.5994C47.8049 64.7008 54.7128 52.7843 54.7128 42.9798C54.7128 38.0812 52.9895 34.6346 50.2102 33.0359C48.9904 32.3443 47.6084 31.99 46.2063 32.0093H46.177Z" fill="#00C565"/>
<path d="M30.704 67.407L47.7025 57.5951L47.4238 55.1458C47.408 54.5272 47.2472 53.9208 46.9542 53.3757C46.6612 52.8305 46.2444 52.3618 45.7372 52.0072L44.6078 51.3546C44.0886 51.0983 43.5096 50.9875 42.9324 51.034C42.3552 51.0805 41.8014 51.2825 41.3299 51.6186L34.8106 55.3805C32.31 56.8471 30.198 60.5138 29.846 63.9897L29.5674 66.7543L30.704 67.407Z" fill="#263238"/>
<path d="M42.8772 40.4865C43.7132 40.9705 44.2338 42.0045 44.2338 43.4785C44.1474 45.0833 43.6832 46.645 42.8792 48.0366C42.0751 49.4281 40.9538 50.6101 39.6066 51.4864C38.3306 52.2197 37.1793 52.293 36.336 51.809L35.2873 51.1784C34.444 50.7017 33.9307 49.6604 33.9307 48.1864C34.0171 46.5816 34.4813 45.0199 35.2853 43.6284C36.0894 42.2368 37.2107 41.0548 38.5579 40.1785C39.8339 39.4452 40.9852 39.3719 41.8212 39.8559L42.8772 40.4865Z" fill="#263238"/>
<path d="M47.4236 55.1455C47.4078 54.5268 47.247 53.9205 46.954 53.3754C46.6611 52.8302 46.2442 52.3615 45.737 52.0069C45.2177 51.7507 44.6387 51.6399 44.0616 51.6864C43.4844 51.7329 42.9306 51.9349 42.459 52.2709L35.9398 56.0328C33.4465 57.4995 31.3345 61.1661 30.9825 64.6421L30.7039 67.4067L47.7023 57.5948L47.4236 55.1455Z" fill="#455A64"/>
<path d="M36.3359 51.809C37.1792 52.293 38.3305 52.227 39.6065 51.4864C40.9537 50.6101 42.075 49.4281 42.8791 48.0366C43.6832 46.645 44.1473 45.0833 44.2338 43.4785C44.2338 42.0119 43.7131 40.9705 42.8771 40.4865C42.0411 40.0025 40.8898 40.0685 39.6065 40.8092C38.2615 41.6872 37.1422 42.8697 36.3396 44.261C35.5369 45.6523 35.0734 47.2132 34.9866 48.8171C34.9866 50.2911 35.4999 51.3324 36.3359 51.809Z" fill="#455A64"/>
<path d="M149.612 224.074L137.688 217.188C131.008 213.331 121.782 213.888 111.582 219.769C91.1956 231.547 74.6665 260.168 74.6665 283.715C74.6665 295.492 78.8024 303.757 85.483 307.614L97.3922 314.485C100.321 316.145 103.64 316.993 107.006 316.942C111.963 316.942 117.566 315.329 123.491 311.904C143.878 300.134 160.407 271.505 160.407 247.966C160.407 236.203 156.285 227.931 149.612 224.074ZM132.606 274.541C126.146 285.739 117.632 294.766 108.649 299.951C103.941 302.664 99.3721 304.138 95.3975 304.204C93.4689 300.787 92.4642 296.138 92.4642 290.586C92.4642 280.217 96.0209 268.337 102.489 257.139C108.957 245.942 117.419 236.936 126.424 231.73C131.132 229.009 135.708 227.543 139.683 227.477C141.604 230.901 142.616 235.506 142.616 241.094C142.638 251.464 139.074 263.336 132.606 274.541Z" fill="#BA68C8"/>
<path d="M149.612 224.074L137.688 217.188C131.008 213.331 121.782 213.888 111.582 219.769C91.1956 231.547 74.6665 260.168 74.6665 283.715C74.6665 295.492 78.8024 303.757 85.483 307.614L97.3922 314.485C100.321 316.145 103.64 316.993 107.006 316.942C111.963 316.942 117.566 315.329 123.491 311.904C143.878 300.134 160.407 271.505 160.407 247.966C160.407 236.203 156.285 227.931 149.612 224.074ZM132.606 274.541C126.146 285.739 117.632 294.766 108.649 299.951C103.941 302.664 99.3721 304.138 95.3975 304.204C93.4689 300.787 92.4642 296.138 92.4642 290.586C92.4642 280.217 96.0209 268.337 102.489 257.139C108.957 245.942 117.419 236.936 126.424 231.73C131.132 229.009 135.708 227.543 139.683 227.477C141.604 230.901 142.616 235.506 142.616 241.094C142.638 251.464 139.074 263.336 132.606 274.541Z" fill="#00A957"/>
<path opacity="0.1" d="M84.3171 249.403L101.286 259.215C101.66 258.525 102.02 257.829 102.445 257.139C104.431 253.686 106.664 250.38 109.125 247.247L92.105 237.413C89.1944 241.196 86.5902 245.206 84.3171 249.403ZM101.125 227.55C99.4089 229.129 97.7467 230.811 96.1383 232.595L113.239 242.466C114.86 240.722 116.574 239.067 118.373 237.508L101.125 227.55Z" fill="white"/>
<path d="M97.3408 314.456L85.483 307.614C78.8024 303.757 74.6665 295.492 74.6665 283.715C74.6665 283.268 74.6665 282.813 74.6665 282.358L86.6197 289.23C86.6197 289.684 86.6197 290.139 86.6197 290.586C86.5757 302.327 90.6896 310.591 97.3408 314.456Z" fill="#00C565"/>
<path d="M139.976 227.469H139.683C141.604 230.894 142.616 235.499 142.616 241.087C142.616 251.456 139.052 263.336 132.585 274.534C126.117 285.732 117.632 294.767 108.62 299.951C103.912 302.664 99.343 304.138 95.3684 304.204C96.4617 306.326 98.1305 308.096 100.184 309.313C102.237 310.529 104.591 311.143 106.977 311.083C111.018 311.083 115.703 309.616 120.529 306.822C129.512 301.638 138.018 292.618 144.486 281.42C150.954 270.222 154.511 258.335 154.511 247.966C154.54 235.133 149.106 227.469 139.976 227.469Z" fill="#02C264"/>
<path d="M143.819 234.165L135.752 229.523C131.25 226.927 124.804 227.712 117.456 232.5C102.789 242.07 90.1103 264.033 89.1643 281.515C88.6877 290.264 91.2323 296.241 95.7642 298.836L103.779 303.464C105.786 304.594 108.083 305.104 110.379 304.93C113.841 304.725 117.808 303.302 122.076 300.53C136.742 290.961 149.421 268.998 150.367 251.515C150.844 242.737 148.299 236.761 143.819 234.165Z" fill="#00A957"/>
<g opacity="0.1">
<path d="M97.2971 255.621L108.737 262.221C109.03 261.693 109.324 261.158 109.632 260.63C111.153 257.984 112.841 255.436 114.684 253.003L103.222 246.404C101.031 249.332 99.0513 252.412 97.2971 255.621ZM109.888 238.704C108.627 239.95 107.402 241.263 106.222 242.656L117.735 249.3C118.959 247.907 120.221 246.609 121.504 245.414L109.888 238.704Z" fill="#A3CF6E"/>
</g>
<path d="M125.486 237.127C110.819 246.697 98.1403 268.66 97.187 286.143C96.2337 303.625 107.373 310.063 122.054 300.494C136.735 290.924 149.4 268.961 150.346 251.486C151.292 234.011 140.189 227.557 125.486 237.127Z" fill="#FAFAFA"/>
<path d="M123.491 226.67C103.105 238.403 86.5757 267.069 86.5757 290.609C86.5757 314.148 103.105 323.696 123.491 311.926C143.878 300.157 160.407 271.528 160.407 247.988C160.407 224.448 143.878 214.878 123.491 226.67ZM120.558 306.844C115.733 309.631 111.025 311.105 107.006 311.105C104.622 311.159 102.27 310.54 100.221 309.32C98.1722 308.099 96.5082 306.326 95.4196 304.204C93.4909 300.787 92.4863 296.138 92.4863 290.587C92.4863 280.217 96.0429 268.338 102.511 257.14C108.979 245.942 117.419 236.937 126.424 231.73C131.132 229.01 135.708 227.543 139.683 227.477H139.976C149.106 227.477 154.54 235.14 154.54 248.01C154.54 258.379 150.983 270.266 144.516 281.464C138.048 292.662 129.541 301.638 120.558 306.822V306.844Z" fill="#00A957"/>
<g opacity="0.3">
<path d="M95.7131 257.587C92.3061 264.222 89.784 271.276 88.2112 278.567C87.4502 282.206 87.0304 285.908 86.9573 289.626C86.8619 293.33 87.2689 297.03 88.1672 300.625C89.0333 304.235 90.7084 307.6 93.0658 310.467C95.4772 313.302 98.7204 315.306 102.335 316.194C105.962 317.021 109.735 316.963 113.335 316.025C116.957 315.133 120.435 313.736 123.667 311.875C120.466 313.799 117.01 315.265 113.401 316.23C109.767 317.208 105.95 317.291 102.276 316.472C98.5871 315.599 95.2684 313.581 92.7945 310.709C90.3797 307.809 88.6546 304.399 87.7492 300.735C86.8653 297.089 86.4781 293.339 86.5979 289.589C86.7009 285.85 87.1477 282.129 87.9326 278.472C88.7237 274.823 89.7726 271.236 91.0712 267.736C92.4078 264.26 93.958 260.871 95.7131 257.587Z" fill="#70AE2A"/>
</g>
<path d="M136.662 276.411L137.755 284.735C139.466 282.271 141.04 279.716 142.47 277.079C140.595 276.484 138.623 276.258 136.662 276.411Z" fill="#BA68C8"/>
<path d="M136.655 276.411C135.855 276.455 130.861 276.704 126.96 277.144C123.552 277.579 120.182 278.268 116.877 279.205C109.111 281.06 100.905 287.536 100.905 287.536C99.3578 289.134 98.9325 293.219 99.2258 298.535C103.024 306.103 111.648 307.379 122.069 300.581C129.593 295.676 136.589 287.514 141.744 278.369C140.172 277.43 138.45 276.768 136.655 276.411Z" fill="#37474F"/>
<path d="M138.092 231.686C134.425 231.686 131.198 230.131 127.73 229.391C122.971 228.372 119.766 228.225 115.535 229.222C109.257 230.689 105.07 234.971 102.46 240.669C100.377 245.209 100.582 249.887 102.152 254.602C104.799 262.53 108.018 264.737 110.277 270.083C113.21 267.26 116.737 264.847 119.913 262.258C122.787 259.904 125.669 257.543 128.5 255.13C129.284 254.47 130.047 253.737 130.773 253.011C131.238 252.526 131.853 252.211 132.518 252.117C133.308 251.875 134.014 251.418 134.557 250.797C134.667 250.665 135.686 248.875 135.488 248.853C136.666 249.057 137.866 249.089 139.052 248.949C139.644 248.872 140.212 248.67 140.718 248.355C141.224 248.04 141.656 247.619 141.986 247.123C142.457 246.171 142.606 245.093 142.411 244.05C142.391 243.557 142.272 243.072 142.06 242.626C141.848 242.18 141.549 241.781 141.179 241.454C142.338 241.021 143.592 240.259 143.716 239.034C143.734 238.64 143.655 238.248 143.485 237.892C143.315 237.536 143.059 237.228 142.741 236.995C142.101 236.532 141.368 236.214 140.592 236.064C141.214 235.381 141.656 234.555 141.879 233.659C142.102 232.763 142.098 231.825 141.868 230.931C140.674 231.437 139.389 231.694 138.092 231.686Z" fill="#263238"/>
<path d="M140.394 252.622C140.296 250.042 140.004 247.473 139.522 244.937C139.046 242.542 137.899 240.332 136.215 238.564C134.748 237.098 133.23 236.893 131.815 238.491C131.32 239.184 130.71 239.787 130.011 240.273C128.661 241.006 127.011 240.39 125.611 239.818C123.154 238.821 120.477 237.948 117.889 238.601C117.047 238.762 116.3 239.243 115.806 239.943C115.073 241.182 115.718 242.737 116.048 244.145C116.591 246.44 116.085 249.117 114.259 250.606C113.873 250.864 113.525 251.175 113.225 251.53C112.911 252.09 112.768 252.73 112.814 253.37C112.856 254.013 112.719 254.656 112.418 255.226C110.834 257.631 108.458 252.938 107.732 252.058C106.266 250.312 102.364 249.777 101.037 253.957C99.7097 258.137 101.836 262.669 104.381 264.326C108.099 266.724 109.947 263.937 109.947 263.937L111.076 281.361C119.319 290.491 138.854 287.096 129.512 277.966L129.219 274.769C130.745 274.667 132.253 274.386 133.714 273.933C134.977 273.559 136.155 272.944 137.183 272.121C139.079 270.545 140.278 268.284 140.519 265.829C141.003 262.273 140.886 258.555 140.394 252.622Z" fill="#FFBDA7"/>
<path d="M131.705 263.849C131.118 263.849 130.531 263.945 129.945 263.93C128.711 263.847 127.517 263.454 126.476 262.786C126.352 262.713 126.161 262.654 126.095 262.786C126.029 262.918 126.095 262.991 126.198 263.065C126.638 263.559 127.176 263.958 127.778 264.234C128.38 264.51 129.033 264.659 129.695 264.671C130.344 264.67 130.987 264.553 131.595 264.326C131.687 264.297 131.769 264.241 131.829 264.165C131.925 264.069 131.873 263.842 131.705 263.849Z" fill="#B16668"/>
<path d="M129.152 274.761C124.114 275.341 118.395 273.742 116.129 271.432C113.863 269.122 111.611 263.527 111.611 263.527C111.611 263.527 113.188 269.892 115.029 272.561C116.869 275.231 120.272 276.067 122.751 276.639C124.93 277.023 127.138 277.222 129.35 277.233L129.152 274.761Z" fill="#F0997A"/>
<path d="M124.408 248.89L121.005 250.87C120.742 250.377 120.671 249.804 120.806 249.262C120.942 248.72 121.274 248.247 121.739 247.937C121.975 247.816 122.234 247.746 122.498 247.729C122.763 247.712 123.029 247.749 123.279 247.839C123.528 247.928 123.757 248.067 123.952 248.248C124.146 248.429 124.301 248.647 124.408 248.89Z" fill="#263238"/>
<path d="M134.389 247.056L138.121 248.735C138.29 248.189 138.259 247.6 138.033 247.075C137.808 246.549 137.402 246.122 136.889 245.868C136.649 245.759 136.388 245.704 136.125 245.706C135.861 245.708 135.601 245.768 135.363 245.881C135.125 245.994 134.914 246.158 134.746 246.361C134.578 246.564 134.456 246.801 134.389 247.056Z" fill="#263238"/>
<path d="M128.984 248.736L131.8 261.334L137.557 258.034L128.984 248.736Z" fill="#F0997A"/>
<path d="M123.352 253.18C123.391 253.631 123.601 254.05 123.939 254.351C124.277 254.652 124.718 254.813 125.17 254.8C125.387 254.778 125.597 254.712 125.788 254.605C125.978 254.499 126.145 254.355 126.277 254.182C126.41 254.009 126.506 253.81 126.559 253.599C126.612 253.387 126.621 253.167 126.586 252.952C126.547 252.502 126.338 252.084 126.001 251.783C125.665 251.482 125.226 251.321 124.774 251.332C124.557 251.353 124.346 251.418 124.155 251.524C123.964 251.63 123.796 251.774 123.663 251.947C123.53 252.121 123.433 252.319 123.38 252.531C123.326 252.743 123.317 252.964 123.352 253.18Z" fill="#263238"/>
<path d="M134.286 252.014C134.327 252.464 134.536 252.882 134.872 253.183C135.208 253.485 135.646 253.649 136.098 253.642C136.315 253.619 136.525 253.551 136.716 253.444C136.907 253.337 137.074 253.193 137.207 253.019C137.34 252.846 137.436 252.647 137.49 252.435C137.544 252.223 137.554 252.002 137.52 251.786C137.485 251.34 137.285 250.923 136.957 250.618C136.63 250.312 136.2 250.141 135.753 250.136C135.529 250.153 135.311 250.216 135.113 250.321C134.915 250.427 134.741 250.573 134.603 250.75C134.465 250.926 134.365 251.13 134.311 251.348C134.256 251.566 134.248 251.793 134.286 252.014Z" fill="#263238"/>
<path d="M111.34 304.908C111.304 304.622 111.274 304.343 111.238 304.057C110.006 293.556 100.905 287.536 100.905 287.536C99.6081 288.343 98.3816 289.258 97.2385 290.271C97.8399 300.523 103.34 305.869 111.34 304.908Z" fill="#455A64"/>
<path d="M302.488 140.871L290.557 133.978C283.884 130.128 274.651 130.685 264.458 136.567C244.072 148.3 227.543 176.965 227.543 200.512C227.543 212.246 231.679 220.547 238.359 224.411L250.261 231.283C253.193 232.936 256.51 233.783 259.875 233.739C264.84 233.739 270.435 232.119 276.367 228.694C296.754 216.924 313.283 188.295 313.283 164.756C313.283 152.964 309.154 144.699 302.488 140.871ZM285.483 191.331C279.015 202.529 270.508 211.556 261.525 216.748C256.817 219.461 252.241 220.928 248.266 220.994C246.345 217.577 245.333 212.972 245.333 207.384C245.333 197.007 248.897 185.127 255.365 173.929C261.833 162.732 270.339 153.712 279.323 148.52C284.031 145.799 288.606 144.333 292.581 144.267C294.502 147.691 295.514 152.333 295.514 157.884C295.507 168.224 291.95 180.104 285.483 191.302V191.331Z" fill="#BA68C8"/>
<path d="M302.488 140.871L290.557 133.978C283.884 130.128 274.651 130.685 264.458 136.567C244.072 148.3 227.543 176.965 227.543 200.512C227.543 212.246 231.679 220.547 238.359 224.411L250.261 231.283C253.193 232.936 256.51 233.783 259.875 233.739C264.84 233.739 270.435 232.119 276.367 228.694C296.754 216.924 313.283 188.295 313.283 164.756C313.283 152.964 309.154 144.699 302.488 140.871ZM285.483 191.331C279.015 202.529 270.508 211.556 261.525 216.748C256.817 219.461 252.241 220.928 248.266 220.994C246.345 217.577 245.333 212.972 245.333 207.384C245.333 197.007 248.897 185.127 255.365 173.929C261.833 162.732 270.339 153.712 279.323 148.52C284.031 145.799 288.606 144.333 292.581 144.267C294.502 147.691 295.514 152.333 295.514 157.884C295.507 168.224 291.95 180.104 285.483 191.302V191.331Z" fill="#00A957"/>
<path opacity="0.1" d="M237.193 166.171L254.177 175.982C254.558 175.286 254.91 174.589 255.343 173.9C257.333 170.449 259.566 167.143 262.024 164.007L245.018 154.181C242.097 157.964 239.48 161.973 237.193 166.171ZM253.994 144.325C252.278 145.899 250.618 147.578 249.015 149.363L266.108 159.204C267.731 157.462 269.444 155.808 271.242 154.247L253.994 144.325Z" fill="white"/>
<path d="M250.217 231.224L238.359 224.382C231.679 220.517 227.543 212.253 227.543 200.483C227.543 200.028 227.543 199.574 227.543 199.119L239.437 205.99C239.437 206.452 239.437 206.899 239.437 207.354C239.452 219.087 243.551 227.352 250.217 231.224Z" fill="#00C565"/>
<path d="M292.853 144.237H292.559C294.481 147.662 295.493 152.304 295.493 157.855C295.493 168.224 291.936 180.104 285.468 191.302C279 202.5 270.494 211.527 261.51 216.719C256.802 219.432 252.227 220.899 248.252 220.965C249.346 223.086 251.015 224.856 253.068 226.072C255.121 227.289 257.475 227.902 259.86 227.843C263.908 227.843 268.594 226.377 273.42 223.59C282.403 218.406 290.909 209.378 297.377 198.181C303.845 186.983 307.402 175.096 307.402 164.726C307.416 151.871 301.975 144.237 292.853 144.237Z" fill="#BA68C8"/>
<path d="M292.853 144.237H292.559C294.481 147.662 295.493 152.304 295.493 157.855C295.493 168.224 291.936 180.104 285.468 191.302C279 202.5 270.494 211.527 261.51 216.719C256.802 219.432 252.227 220.899 248.252 220.965C249.346 223.086 251.015 224.856 253.068 226.072C255.121 227.289 257.475 227.902 259.86 227.843C263.908 227.843 268.594 226.377 273.42 223.59C282.403 218.406 290.909 209.378 297.377 198.181C303.845 186.983 307.402 175.096 307.402 164.726C307.416 151.871 301.975 144.237 292.853 144.237Z" fill="#00A957"/>
<path d="M296.688 150.925L288.621 146.283C284.126 143.694 277.673 144.479 270.332 149.26C255.666 158.83 242.987 180.793 242.033 198.276C241.564 207.024 244.109 213.001 248.633 215.604L256.648 220.231C258.655 221.362 260.952 221.873 263.248 221.698C266.702 221.5 270.67 220.07 274.938 217.298C289.604 207.765 302.29 185.765 303.236 168.29C303.72 159.505 301.176 153.528 296.688 150.925Z" fill="#00A957"/>
<path opacity="0.1" d="M250.151 172.404L261.591 179.004C261.877 178.476 262.177 177.948 262.485 177.412C264.007 174.769 265.695 172.224 267.538 169.793L256.069 163.193C253.885 166.122 251.907 169.2 250.151 172.404ZM262.735 155.486C261.481 156.725 260.249 158.045 259.068 159.431L270.581 166.075C271.813 164.689 273.075 163.384 274.358 162.189L262.735 155.486Z" fill="white"/>
<path d="M278.384 153.895C263.717 163.465 251.031 185.428 250.085 202.903C249.139 220.378 260.263 226.831 274.945 217.261C289.626 207.691 302.298 185.728 303.243 168.246C304.189 150.763 293.065 144.317 278.384 153.895Z" fill="#FAFAFA"/>
<path d="M276.367 143.416C255.981 155.186 239.452 183.815 239.452 207.354C239.452 230.894 255.981 240.434 276.367 228.665C296.754 216.895 313.283 188.266 313.283 164.726C313.283 141.186 296.754 131.639 276.367 143.416ZM273.434 223.59C268.609 226.369 263.901 227.843 259.875 227.843C257.489 227.902 255.135 227.288 253.082 226.072C251.029 224.855 249.36 223.085 248.266 220.965C246.345 217.547 245.333 212.942 245.333 207.354C245.333 196.978 248.897 185.098 255.365 173.9C261.833 162.702 270.339 153.682 279.323 148.49C284.031 145.77 288.607 144.303 292.581 144.237H292.874C301.997 144.237 307.438 151.9 307.438 164.726C307.438 175.095 303.882 186.982 297.414 198.18C290.946 209.378 282.417 218.405 273.434 223.59Z" fill="#02C264"/>
<g opacity="0.3">
<path d="M248.582 174.355C245.18 180.989 242.661 188.04 241.087 195.328C240.326 198.969 239.906 202.674 239.833 206.394C239.737 210.098 240.144 213.798 241.043 217.393C241.908 221.004 243.581 224.371 245.935 227.242C248.351 230.074 251.596 232.075 255.211 232.962C258.838 233.789 262.611 233.731 266.211 232.793C269.835 231.913 273.317 230.522 276.551 228.665C273.351 230.594 269.895 232.06 266.284 233.021C262.648 234.001 258.829 234.087 255.152 233.27C251.467 232.389 248.152 230.369 245.678 227.499C243.259 224.602 241.533 221.191 240.633 217.525C239.749 213.881 239.362 210.134 239.481 206.386C239.576 202.647 240.023 198.925 240.816 195.269C241.607 191.618 242.658 188.027 243.962 184.526C245.295 181.045 246.837 177.648 248.582 174.355Z" fill="#70AE2A"/>
</g>
<g opacity="0.3">
<path d="M304.197 197.829C307.603 191.195 310.125 184.144 311.699 176.855C312.46 173.219 312.879 169.519 312.953 165.804C313.048 162.1 312.643 158.4 311.75 154.804C310.886 151.192 309.211 147.825 306.852 144.956C304.44 142.123 301.197 140.121 297.583 139.236C293.956 138.407 290.182 138.465 286.583 139.405C282.964 140.296 279.488 141.69 276.258 143.548C279.459 141.623 282.915 140.157 286.524 139.192C290.158 138.214 293.975 138.131 297.649 138.95C301.335 139.832 304.651 141.848 307.13 144.714C309.546 147.616 311.271 151.029 312.176 154.694C313.055 158.329 313.44 162.066 313.32 165.804C313.217 169.543 312.77 173.265 311.985 176.921C311.184 180.568 310.125 184.153 308.817 187.65C307.489 191.135 305.946 194.534 304.197 197.829Z" fill="#70AE2A"/>
</g>
<path d="M289.531 193.172L290.623 201.495C292.336 199.033 293.91 196.477 295.338 193.839C293.462 193.252 291.491 193.026 289.531 193.172Z" fill="#455A64"/>
<path d="M289.523 193.179L287.118 193.326C282.02 193.797 276.967 194.663 272.004 195.915C264.231 197.77 253.774 204.289 253.774 204.289C252.226 205.888 251.801 209.972 252.094 215.289C255.893 222.857 264.517 224.133 274.937 217.342C282.461 212.429 289.45 204.274 294.612 195.13C293.039 194.195 291.318 193.535 289.523 193.179Z" fill="#37474F"/>
<path d="M292.185 152.15C286.385 146.283 276.433 143.614 268.535 146.122C265.437 147.203 262.551 148.816 260.007 150.888C259.045 151.566 258.124 152.301 257.25 153.088C251.06 159.204 251.207 167.879 251.383 176.012C251.54 182.186 251.784 188.354 252.116 194.514C252.097 194.779 252.181 195.042 252.351 195.247C252.518 195.361 252.714 195.422 252.916 195.423L256.12 195.76C256.613 193.438 256.881 191.073 256.92 188.698C257.11 191.26 257.463 193.808 257.976 196.325C269.536 197.333 281.169 195.574 291.914 191.192C289.989 186.161 288.954 180.833 288.856 175.447C288.761 173.567 288.979 171.683 289.501 169.874C289.715 168.994 290.135 168.177 290.726 167.491C291.334 166.963 292.28 166.853 292.926 166.266C295.786 163.538 296.204 158.009 294.216 154.731C293.643 153.794 292.961 152.928 292.185 152.15Z" fill="#263238"/>
<path d="M293.263 169.383C293.021 166.384 293.065 163.304 292.127 160.414C291.129 157.334 288.541 154.548 284.999 155.369C283.681 155.67 282.524 156.455 281.757 157.569C280.78 156.814 279.671 156.247 278.487 155.897C277.859 155.76 277.213 155.718 276.573 155.773C275.415 155.813 274.282 156.114 273.256 156.652C272.23 157.19 271.339 157.952 270.648 158.882C269.474 160.612 269.57 162.548 268.932 164.455C268.323 166.15 267.15 167.584 265.61 168.518C265.482 168.579 265.376 168.679 265.309 168.804C265.261 168.941 265.261 169.091 265.309 169.229C265.413 169.557 265.447 169.904 265.41 170.246C265.372 170.588 265.262 170.919 265.089 171.216C263.49 173.607 261.422 169.75 260.535 168.811C258.9 167.11 254.448 167.242 253.121 171.422C251.794 175.602 254.382 180.111 257.125 181.409C261.004 183.243 262.75 180.676 262.75 180.676L263.879 199.398C272.122 208.528 291.745 205.081 282.425 195.951L282.021 191.507C283.547 191.405 285.056 191.125 286.517 190.671C290.579 189.249 292.647 186.095 293.454 181.571C294.004 178.036 293.747 175.338 293.263 169.383Z" fill="#FFBDA7"/>
<path d="M282.043 191.522C277.005 192.101 271.528 190.238 269.02 188.192C265.8 185.574 264.209 180.859 264.209 180.859C264.209 180.859 265.06 186.388 267.912 189.307C270.053 191.368 272.732 192.781 275.641 193.384C277.821 193.769 280.029 193.967 282.241 193.978L282.043 191.522Z" fill="#F0997A"/>
<path d="M277.284 166.603L273.888 168.612C273.621 168.125 273.543 167.555 273.67 167.014C273.797 166.472 274.121 165.996 274.578 165.679C274.814 165.553 275.074 165.477 275.342 165.456C275.609 165.434 275.878 165.468 276.131 165.554C276.385 165.641 276.618 165.779 276.816 165.959C277.015 166.14 277.174 166.359 277.284 166.603Z" fill="#263238"/>
<path d="M287.279 164.77L291.019 166.449C291.188 165.903 291.157 165.314 290.931 164.789C290.705 164.263 290.3 163.835 289.787 163.582C289.546 163.473 289.285 163.418 289.021 163.42C288.757 163.422 288.496 163.482 288.258 163.595C288.019 163.708 287.808 163.871 287.639 164.074C287.47 164.277 287.347 164.515 287.279 164.77Z" fill="#263238"/>
<path d="M281.427 165.819L284.243 178.424L290.007 175.124L281.427 165.819Z" fill="#F0997A"/>
<path d="M275.472 170.446C275.513 170.897 275.724 171.316 276.061 171.618C276.399 171.92 276.838 172.083 277.291 172.074C277.508 172.051 277.718 171.983 277.909 171.876C278.099 171.769 278.266 171.624 278.398 171.451C278.531 171.277 278.626 171.078 278.679 170.866C278.732 170.654 278.741 170.434 278.706 170.218C278.667 169.768 278.458 169.35 278.122 169.049C277.785 168.748 277.346 168.587 276.895 168.598C276.678 168.621 276.469 168.688 276.278 168.794C276.088 168.901 275.922 169.045 275.789 169.218C275.656 169.39 275.559 169.588 275.505 169.799C275.451 170.01 275.439 170.23 275.472 170.446Z" fill="#263238"/>
<path d="M287.206 169.251C287.243 169.701 287.452 170.12 287.789 170.422C288.126 170.723 288.565 170.884 289.017 170.871C289.235 170.85 289.445 170.784 289.636 170.678C289.827 170.572 289.994 170.428 290.127 170.255C290.259 170.082 290.355 169.883 290.408 169.671C290.46 169.459 290.469 169.239 290.433 169.023C290.395 168.573 290.187 168.154 289.85 167.852C289.513 167.551 289.073 167.39 288.621 167.403C288.404 167.424 288.193 167.489 288.002 167.595C287.812 167.701 287.645 167.846 287.512 168.019C287.379 168.192 287.283 168.391 287.231 168.603C287.178 168.815 287.17 169.035 287.206 169.251Z" fill="#263238"/>
<path d="M284.155 181.035C283.561 181.035 282.982 181.131 282.395 181.116C281.159 181.033 279.963 180.639 278.919 179.972C278.802 179.899 278.611 179.84 278.545 179.972C278.479 180.104 278.545 180.185 278.641 180.258C279.083 180.753 279.622 181.151 280.226 181.427C280.829 181.703 281.482 181.852 282.146 181.864C282.794 181.863 283.438 181.747 284.045 181.519C284.137 181.488 284.218 181.433 284.28 181.358C284.375 181.204 284.324 181.028 284.155 181.035Z" fill="#B16668"/>
<path d="M264.209 221.669C264.172 221.39 264.143 221.111 264.106 220.825C262.874 210.324 253.774 204.289 253.774 204.289C252.475 205.09 251.248 206.003 250.107 207.017C250.709 217.283 256.208 222.629 264.209 221.669Z" fill="#455A64"/>
<path d="M115.124 87.9104L103.193 81.0245C96.5197 77.1746 87.2871 77.7319 77.0939 83.6058C56.7076 95.405 40.1785 124.005 40.1785 147.552C40.1785 159.329 44.3144 167.593 50.995 171.451L62.8968 178.322C65.8265 179.98 69.1448 180.828 72.5107 180.778C77.4753 180.778 83.0705 179.165 89.0031 175.74C109.389 163.971 125.919 135.342 125.919 111.802C125.919 100.04 121.819 91.7383 115.124 87.9104ZM98.1183 138.378C91.6504 149.576 83.1438 158.603 74.1606 163.787C69.4527 166.501 64.8768 167.975 60.9022 168.041C58.9809 164.623 57.9689 159.974 57.9689 154.423C57.9689 144.054 61.5328 132.174 68.0007 120.976C74.4686 109.778 82.9752 100.751 91.9511 95.5663C96.6663 92.8457 101.242 91.379 105.217 91.313C107.138 94.7376 108.15 99.3796 108.15 104.931C108.143 115.3 104.586 127.18 98.1183 138.378Z" fill="#00A957"/>
<path d="M113.24 87.9104L101.286 81.0245C94.6131 77.1746 85.3806 77.7319 75.1874 83.6058C54.823 95.405 38.2939 124.005 38.2939 147.552C38.2939 159.329 42.4226 167.593 49.1105 171.451L61.0123 178.322C63.9415 179.981 67.2601 180.829 70.6261 180.778C75.5907 180.778 81.186 179.165 87.1186 175.74C107.505 163.971 124.019 135.342 124.019 111.802C124.019 100.04 119.905 91.7383 113.24 87.9104ZM96.2338 138.378C89.7659 149.576 81.2593 158.603 72.2761 163.787C67.5682 166.501 62.9923 167.975 59.0176 168.041C57.0963 164.623 56.0844 159.974 56.0844 154.423C56.0844 144.054 59.6483 132.174 66.1089 120.976C72.5694 109.778 81.0833 100.751 90.0665 95.5663C94.7745 92.8457 99.3577 91.379 103.332 91.313C105.246 94.7376 106.266 99.3796 106.266 104.931C106.258 115.3 102.702 127.18 96.2338 138.378Z" fill="#00A957"/>
<path opacity="0.1" d="M49.8289 113.247L66.8199 123.052C67.1939 122.362 67.5533 121.666 67.9859 120.976C69.9725 117.523 72.2051 114.217 74.6665 111.084L57.6314 101.272C54.7162 105.05 52.1071 109.054 49.8289 113.247ZM66.6293 91.394C64.9133 92.9682 63.2535 94.65 61.65 96.4393L78.7438 106.31C80.3646 104.566 82.0782 102.912 83.877 101.353L66.6293 91.394Z" fill="white"/>
<path d="M62.8528 178.271L50.995 171.451C44.3144 167.594 40.1785 159.329 40.1785 147.552C40.1785 147.105 40.1785 146.65 40.1785 146.195L52.073 153.067C52.073 153.521 52.073 153.976 52.073 154.423C52.0876 166.164 56.2016 174.428 62.8528 178.271Z" fill="#00C565"/>
<path d="M105.488 91.3059H105.195C107.116 94.7305 108.128 99.3725 108.128 104.924C108.128 115.293 104.572 127.173 98.1038 138.371C91.6359 149.568 83.144 158.603 74.1535 163.788C69.4456 166.501 64.8696 167.975 60.895 168.041C61.9883 170.162 63.6572 171.933 65.7103 173.149C67.7634 174.366 70.1178 174.979 72.5035 174.919C76.5515 174.919 81.2374 173.453 86.0627 170.659C95.0459 165.474 103.552 156.454 110.02 145.256C116.488 134.059 120.045 122.171 120.045 111.802C120.052 98.9691 114.611 91.3059 105.488 91.3059Z" fill="#BA68C8"/>
<path d="M105.488 91.3059H105.195C107.116 94.7305 108.128 99.3725 108.128 104.924C108.128 115.293 104.572 127.173 98.1038 138.371C91.6359 149.568 83.144 158.603 74.1535 163.788C69.4456 166.501 64.8696 167.975 60.895 168.041C61.9883 170.162 63.6572 171.933 65.7103 173.149C67.7634 174.366 70.1178 174.979 72.5035 174.919C76.5515 174.919 81.2374 173.453 86.0627 170.659C95.0459 165.474 103.552 156.454 110.02 145.256C116.488 134.059 120.045 122.171 120.045 111.802C120.052 98.9691 114.611 91.3059 105.488 91.3059Z" fill="#00A957"/>
<path d="M109.352 98.0015L101.286 93.3595C96.7906 90.7636 90.3374 91.5556 82.9968 96.3368C68.3304 105.87 55.6512 127.87 54.6979 145.352C54.2286 154.101 56.7732 160.077 61.2978 162.673L69.313 167.308C71.3214 168.434 73.6167 168.944 75.9129 168.774C79.3669 168.569 83.3341 167.146 87.6021 164.375C102.269 154.805 114.948 132.842 115.901 115.367C116.348 106.574 113.811 100.597 109.352 98.0015Z" fill="#00A957"/>
<path opacity="0.1" d="M62.8086 119.459L74.2484 126.058C74.5344 125.53 74.8351 124.995 75.1357 124.467C76.6624 121.822 78.3523 119.275 80.1957 116.841L68.7265 110.241C66.5404 113.171 64.5629 116.251 62.8086 119.459ZM75.3924 102.541C74.1384 103.787 72.9064 105.107 71.7258 106.493L83.239 113.137C84.4709 111.744 85.7298 110.448 87.0156 109.251L75.3924 102.541Z" fill="white"/>
<path d="M91.0196 100.964C76.3531 110.497 63.6667 132.497 62.7207 149.979C61.7747 167.462 72.8992 173.871 87.5803 164.338C102.261 154.805 114.933 132.805 115.879 115.33C116.825 97.8548 105.686 91.3943 91.0196 100.964Z" fill="#FAFAFA"/>
<path d="M89.0031 90.4846C68.6094 102.254 52.0876 130.883 52.0876 154.43C52.0876 177.977 68.6167 187.511 89.0031 175.741C109.389 163.971 125.919 135.342 125.919 111.802C125.919 88.2626 109.389 78.7147 89.0031 90.4846ZM86.0698 170.659C81.2446 173.445 76.5366 174.919 72.5107 174.919C70.1249 174.979 67.7706 174.366 65.7174 173.149C63.6643 171.933 61.9955 170.162 60.9022 168.041C58.9809 164.623 57.9689 159.974 57.9689 154.423C57.9689 144.054 61.5328 132.174 68.0007 120.976C74.4687 109.778 82.9752 100.751 91.9511 95.5665C96.6663 92.8459 101.242 91.3792 105.217 91.3132H105.51C114.633 91.3132 120.074 98.9764 120.074 111.846C120.074 122.215 116.517 134.103 110.049 145.3C103.582 156.498 95.053 165.474 86.0698 170.659Z" fill="#02C264"/>
<g opacity="0.3">
<path d="M61.2175 121.424C57.816 128.061 55.2965 135.114 53.723 142.404C52.9619 146.043 52.5421 149.745 52.469 153.462C52.3736 157.167 52.7807 160.867 53.679 164.462C54.5424 168.071 56.215 171.436 58.5702 174.303C60.9855 177.138 64.2306 179.141 67.8468 180.031C71.4738 180.857 75.2466 180.8 78.8466 179.862C82.4661 178.97 85.9419 177.573 89.1718 175.711C85.9709 177.638 82.5148 179.104 78.9053 180.067C75.2685 181.045 71.4492 181.128 67.7734 180.309C64.0932 179.448 60.7765 177.452 58.2916 174.604C55.8772 171.705 54.1544 168.295 53.2536 164.631C52.3697 160.984 51.9825 157.235 52.1023 153.484C52.1962 149.735 52.6431 146.003 53.437 142.338C54.2175 138.689 55.2591 135.102 56.5536 131.602C57.9006 128.118 59.4581 124.719 61.2175 121.424Z" fill="#70AE2A"/>
</g>
<g opacity="0.3">
<path d="M116.833 144.904C120.237 138.268 122.759 131.215 124.335 123.924C125.096 120.285 125.515 116.583 125.589 112.866C125.68 109.161 125.273 105.462 124.379 101.866C123.512 98.2566 121.837 94.8914 119.48 92.0246C117.069 89.1892 113.825 87.1854 110.211 86.2973C106.584 85.4718 102.811 85.5296 99.2109 86.466C95.5919 87.3594 92.1162 88.7566 88.8857 90.6166C92.0879 88.6927 95.5436 87.2265 99.1523 86.2607C102.789 85.2829 106.608 85.1999 110.284 86.0187C113.964 86.8837 117.279 88.8848 119.759 91.7386C122.175 94.6372 123.9 98.0477 124.804 101.712C125.688 105.358 126.075 109.108 125.955 112.858C125.854 116.607 125.407 120.338 124.621 124.005C123.827 127.653 122.776 131.241 121.475 134.741C120.137 138.221 118.587 141.615 116.833 144.904Z" fill="#70AE2A"/>
</g>
<path d="M102.159 140.248L103.252 148.571C104.963 146.108 106.537 143.552 107.967 140.915C106.092 140.321 104.12 140.094 102.159 140.248Z" fill="#455A64"/>
<path d="M102.152 140.255C101.352 140.292 100.56 140.358 99.7463 140.395C94.6485 140.865 89.5952 141.733 84.6326 142.991C76.8593 144.846 66.4022 151.358 66.4022 151.358C64.8549 152.957 64.4295 157.041 64.7229 162.358C68.5215 169.926 77.1453 171.202 87.5659 164.404C95.0898 159.498 102.086 151.336 107.241 142.191C105.67 141.255 103.948 140.6 102.152 140.255Z" fill="#37474F"/>
<path d="M64.2976 98.4927C60.5283 101.111 58.145 105.826 57.5071 110.373C56.8691 114.919 57.5071 119.568 57.991 124.152C58.5704 129.439 58.9517 134.821 57.8737 140.043C57.5071 141.839 57.0597 143.973 58.453 145.279C59.244 145.935 60.2491 146.277 61.2763 146.239C62.8753 146.255 64.4304 145.716 65.6763 144.714C65.9494 144.441 66.2802 144.233 66.6443 144.105C66.9495 144.047 67.263 144.047 67.5682 144.105C69.405 144.394 71.2854 144.063 72.9142 143.167C76.1408 141.253 76.5808 137.395 76.5221 134.169C76.2728 125.765 73.7208 117.478 74.0801 109.082C74.1388 107.659 74.3515 106.105 75.4735 105.129C75.7709 104.926 76.0355 104.679 76.2581 104.396C76.418 104.035 76.4665 103.634 76.3974 103.245L76.0235 98.8447C76.0353 98.3885 75.8933 97.9416 75.6201 97.576C75.3384 97.319 74.9948 97.1396 74.6228 97.0554C72.9095 96.4693 71.0824 96.2941 69.289 96.5437C67.4955 96.7934 65.7857 97.461 64.2976 98.4927Z" fill="#263238"/>
<path d="M72.1734 95.7134C71.5529 95.6714 70.9306 95.7614 70.3474 95.9774C69.7364 96.2354 69.1678 96.584 68.6608 97.0114C68.1304 97.4148 67.6525 97.8829 67.2381 98.4047C66.7388 99.0731 66.3971 99.8457 66.2383 100.665C66.0796 101.484 66.108 102.328 66.3215 103.135C66.4198 103.578 66.6321 103.987 66.9375 104.323C67.2504 104.618 67.6386 104.821 68.0595 104.909C68.7042 105.053 69.3713 105.066 70.0212 104.948C70.6712 104.829 71.2908 104.582 71.8434 104.22C72.9484 103.473 73.8525 102.466 74.476 101.287C75.2973 99.8714 75.884 97.9207 74.5347 96.6448C73.8774 96.0733 73.0439 95.7445 72.1734 95.7134Z" fill="#70AE2A"/>
<path d="M104.814 97.8546C99.0131 91.988 89.062 89.3114 81.1641 91.8267C78.0663 92.9056 75.1803 94.5161 72.6355 96.5859C71.6753 97.2662 70.7547 98.0007 69.8782 98.7859C66.2703 102.35 64.459 107.505 64.459 112.572C64.5835 117.662 66.0754 122.624 68.7783 126.938C71.4806 131.237 74.7876 135.124 78.5974 138.481C78.7125 137.129 79.0991 135.815 79.7341 134.616C80.9355 131.762 82.4611 129.055 84.2807 126.55C87.0233 123 90.8806 121.556 94.2099 118.74C95.3539 117.764 96.5125 116.789 97.6052 115.748C99.0718 114.354 104.073 113.298 105.532 111.905C108.392 109.184 108.81 103.648 106.823 100.37C106.252 99.457 105.578 98.613 104.814 97.8546Z" fill="#263238"/>
<path d="M105.891 116.459C105.792 113.879 105.501 111.31 105.019 108.774C104.477 106.565 103.453 104.504 102.02 102.738C100.201 106.804 96.9923 110.087 92.9703 112C93.1905 110.18 93.1534 108.339 92.8603 106.53C92.017 108.51 89.927 109.617 87.9177 110.394C85.9551 111.23 83.8646 111.726 81.7358 111.861C82.0964 111.102 82.2843 110.273 82.2858 109.434C81.8165 111.274 79.9465 112.455 79.3012 114.244C79.0877 115.02 78.9405 115.812 78.8612 116.613C78.779 117.421 78.4064 118.171 77.8125 118.725C75.7226 120.411 74.2632 117.06 73.1779 115.931C71.5426 114.229 67.0913 114.369 65.764 118.549C64.4367 122.729 66.424 126.872 68.9613 128.529C69.9386 129.212 71.1314 129.514 72.3156 129.379C73.4998 129.244 74.594 128.681 75.3926 127.796L76.5219 146.51C84.7644 155.648 104.388 152.201 95.0676 143.064L94.6643 138.627C96.1902 138.525 97.6989 138.244 99.1596 137.791C103.222 136.324 105.29 133.215 106.097 128.683C106.632 125.105 106.375 122.391 105.891 116.459Z" fill="#FFBDA7"/>
<path d="M94.6866 138.598C89.6486 139.177 84.1634 137.315 81.6628 135.269C79.3617 133.303 77.6063 130.777 76.5662 127.936C76.5662 127.936 77.1088 133.384 80.5628 136.391C82.7726 138.349 85.421 139.748 88.2847 140.468C90.4639 140.852 92.6718 141.051 94.8846 141.062L94.6866 138.598Z" fill="#F0997A"/>
<path d="M89.9273 113.68L86.5321 115.681C86.2563 115.191 86.1786 114.614 86.315 114.069C86.4513 113.523 86.7914 113.051 87.2654 112.748C87.5 112.627 87.7568 112.556 88.02 112.537C88.2832 112.519 88.5474 112.555 88.7965 112.642C89.0456 112.729 89.2743 112.866 89.4687 113.044C89.6631 113.223 89.8192 113.439 89.9273 113.68Z" fill="#263238"/>
<path d="M99.9075 111.846L103.647 113.518C103.816 112.973 103.785 112.386 103.559 111.861C103.333 111.337 102.928 110.911 102.415 110.659C102.175 110.549 101.913 110.494 101.649 110.496C101.385 110.499 101.125 110.558 100.886 110.671C100.648 110.784 100.436 110.948 100.267 111.151C100.098 111.354 99.9755 111.591 99.9075 111.846Z" fill="#263238"/>
<path d="M90.0078 126.065L95.3024 127.693C95.2271 128.053 95.0782 128.394 94.865 128.693C94.6519 128.993 94.379 129.246 94.0637 129.435C93.7483 129.624 93.3972 129.747 93.0324 129.794C92.6676 129.841 92.2969 129.812 91.9437 129.71C91.2211 129.458 90.6202 128.943 90.2613 128.267C89.9023 127.591 89.8118 126.805 90.0078 126.065Z" fill="#B16668"/>
<path d="M90.2863 127.18C91.0154 127.15 91.7289 127.397 92.2828 127.872C92.8368 128.347 93.1899 129.014 93.271 129.739C92.8298 129.864 92.3628 129.864 91.9216 129.739C91.3891 129.563 90.9182 129.238 90.5646 128.803C90.2111 128.368 89.9898 127.84 89.927 127.283C90.0444 127.241 90.1644 127.206 90.2863 127.18Z" fill="#F28F8F"/>
<path d="M94.0557 112.895L96.879 125.494L102.636 122.201L94.0557 112.895Z" fill="#F0997A"/>
<path d="M88.0865 117.522C88.1239 117.973 88.3324 118.392 88.6694 118.693C89.0063 118.995 89.4459 119.156 89.8978 119.143C90.1151 119.122 90.3258 119.056 90.5166 118.95C90.7075 118.844 90.8745 118.7 91.0073 118.527C91.14 118.353 91.2357 118.154 91.2883 117.943C91.3409 117.731 91.3494 117.51 91.3131 117.295C91.2758 116.844 91.0672 116.425 90.7303 116.124C90.3934 115.822 89.9537 115.661 89.5018 115.674C89.2845 115.695 89.0739 115.761 88.883 115.867C88.6922 115.973 88.5252 116.117 88.3924 116.291C88.2597 116.464 88.164 116.663 88.1114 116.875C88.0587 117.087 88.0503 117.307 88.0865 117.522Z" fill="#263238"/>
<path d="M99.8197 116.327C99.8605 116.776 100.07 117.193 100.406 117.494C100.742 117.795 101.18 117.957 101.631 117.948C101.848 117.925 102.058 117.859 102.248 117.753C102.439 117.647 102.605 117.502 102.738 117.329C102.87 117.156 102.966 116.958 103.019 116.746C103.072 116.535 103.081 116.315 103.046 116.1C103.01 115.657 102.809 115.245 102.483 114.944C102.157 114.642 101.73 114.474 101.286 114.472C101.065 114.488 100.849 114.551 100.652 114.655C100.456 114.759 100.284 114.903 100.146 115.077C100.008 115.252 99.9077 115.453 99.8515 115.668C99.7954 115.883 99.7846 116.107 99.8197 116.327Z" fill="#263238"/>
<path d="M76.8371 168.737C76.8371 168.451 76.7712 168.173 76.7345 167.887C75.5025 157.386 66.402 151.35 66.402 151.35C65.1049 152.157 63.8784 153.072 62.7354 154.086C63.3367 164.337 68.8366 169.698 76.8371 168.737Z" fill="#455A64"/>
<path d="M250.885 9.34224L238.953 2.44901C232.28 -1.40093 223.048 -0.843609 212.854 5.03764C192.468 16.8148 175.939 45.4364 175.939 68.9834C175.939 80.7532 180.075 89.0251 186.755 92.8824L198.657 99.7536C201.587 101.412 204.905 102.26 208.271 102.21C213.236 102.21 218.831 100.59 224.764 97.165C245.15 85.4318 261.679 56.7662 261.679 33.2266C261.708 21.4641 257.58 13.1995 250.885 9.34224ZM233.879 59.8095C227.418 71.0074 218.934 80.0052 209.95 85.2192C205.243 87.9324 200.667 89.4064 196.692 89.4651C194.771 86.0478 193.759 81.4425 193.759 75.8546C193.759 65.4854 197.323 53.6056 203.791 42.4078C210.258 31.2099 218.765 22.1827 227.741 16.9908C232.449 14.2702 237.032 12.8035 241.007 12.7449C242.921 16.1695 243.94 20.7747 243.94 26.3553C243.933 36.7392 240.376 48.6043 233.908 59.8095H233.879Z" fill="#BA68C8"/>
<path d="M250.885 9.34224L238.953 2.44901C232.28 -1.40093 223.048 -0.843609 212.854 5.03764C192.468 16.8148 175.939 45.4364 175.939 68.9834C175.939 80.7532 180.075 89.0251 186.755 92.8824L198.657 99.7536C201.587 101.412 204.905 102.26 208.271 102.21C213.236 102.21 218.831 100.59 224.764 97.165C245.15 85.4318 261.679 56.7662 261.679 33.2266C261.708 21.4641 257.58 13.1995 250.885 9.34224ZM233.879 59.8095C227.418 71.0074 218.934 80.0052 209.95 85.2192C205.243 87.9324 200.667 89.4064 196.692 89.4651C194.771 86.0478 193.759 81.4425 193.759 75.8546C193.759 65.4854 197.323 53.6056 203.791 42.4078C210.258 31.2099 218.765 22.1827 227.741 16.9908C232.449 14.2702 237.032 12.8035 241.007 12.7449C242.921 16.1695 243.94 20.7747 243.94 26.3553C243.933 36.7392 240.376 48.6043 233.908 59.8095H233.879Z" fill="#00A957"/>
<path opacity="0.1" d="M185.619 34.6785L202.602 44.483C202.976 43.7497 203.336 43.097 203.768 42.4077C205.757 38.9529 207.989 35.6445 210.449 32.5078L193.421 22.6813C190.505 26.4662 187.896 30.478 185.619 34.6785ZM202.419 12.8254C200.703 14.4021 199.046 16.0887 197.44 17.8634L214.534 27.7339C216.153 25.991 217.866 24.3386 219.667 22.784L202.419 12.8254Z" fill="white"/>
<path d="M198.642 99.7247L186.785 92.8828C180.104 89.0255 175.968 80.739 175.968 69.0058C175.968 68.5512 175.968 68.1038 175.968 67.6418L187.863 74.5131C187.863 74.9751 187.863 75.4224 187.863 75.8771C187.877 87.5956 191.991 95.8528 198.642 99.7247Z" fill="#00C565"/>
<path d="M241.278 12.7373H240.985C242.899 16.1619 243.918 20.7672 243.918 26.3478C243.918 36.7243 240.361 48.5968 233.893 59.802C227.425 71.0071 218.934 80.005 209.95 85.2189C205.242 87.9322 200.667 89.4062 196.692 89.4649C197.784 91.5873 199.452 93.3587 201.506 94.5755C203.559 95.7922 205.914 96.405 208.3 96.3434C212.348 96.3434 217.034 94.8768 221.86 92.0901C230.843 86.9056 239.349 77.8857 245.817 66.6805C252.285 55.4754 255.842 43.6029 255.842 33.2263C255.842 20.4005 250.4 12.7373 241.278 12.7373Z" fill="#BA68C8"/>
<path d="M241.278 12.7373H240.985C242.899 16.1619 243.918 20.7672 243.918 26.3478C243.918 36.7243 240.361 48.5968 233.893 59.802C227.425 71.0071 218.934 80.005 209.95 85.2189C205.242 87.9322 200.667 89.4062 196.692 89.4649C197.784 91.5873 199.452 93.3587 201.506 94.5755C203.559 95.7922 205.914 96.405 208.3 96.3434C212.348 96.3434 217.034 94.8768 221.86 92.0901C230.843 86.9056 239.349 77.8857 245.817 66.6805C252.285 55.4754 255.842 43.6029 255.842 33.2263C255.842 20.4005 250.4 12.7373 241.278 12.7373Z" fill="#00A957"/>
<path d="M245.113 19.4253L237.047 14.7907C232.551 12.1947 226.098 12.9794 218.758 17.724C204.091 27.3012 191.412 49.2569 190.459 66.7393C189.989 75.4952 192.534 81.4717 197.059 84.0677L205.074 88.695C207.079 89.8296 209.377 90.3402 211.674 90.1616C215.128 89.9636 219.095 88.5337 223.363 85.7617C238.029 76.2285 250.708 54.2288 251.662 36.7464C252.138 28.0052 249.601 22.0286 245.113 19.4253Z" fill="#00A957"/>
<path opacity="0.1" d="M198.599 40.8897L210.038 47.4896C210.324 46.9543 210.625 46.4263 210.926 45.8983C212.451 43.2524 214.141 40.7052 215.986 38.2717L204.517 31.6718C202.332 34.6033 200.355 37.6834 198.599 40.8897ZM211.182 23.9719C209.928 25.2112 208.696 26.5312 207.516 27.9172L219.022 34.5391C220.254 33.1458 221.513 31.8478 222.798 30.6452L211.182 23.9719Z" fill="white"/>
<path d="M205.051 88.7096L197.066 84.1043C192.563 81.5084 190.018 75.5318 190.466 66.7759C190.466 66.4386 190.517 66.1086 190.546 65.7639L198.554 70.3912C198.525 70.7334 198.503 71.0707 198.488 71.4032C198.034 80.1297 200.571 86.1063 205.051 88.7096Z" fill="#00A957"/>
<path d="M226.809 22.3953C212.143 31.9285 199.456 53.9282 198.51 71.4033C197.564 88.8784 208.689 95.3316 223.37 85.7617C238.051 76.1919 250.716 54.2289 251.669 36.7464C252.622 19.264 241.483 12.8255 226.809 22.3953Z" fill="#FAFAFA"/>
<path d="M224.793 11.9163C204.399 23.6862 187.877 52.3151 187.877 75.8548C187.877 99.3944 204.399 108.942 224.793 97.1724C245.186 85.4026 261.708 56.7737 261.708 33.2267C261.708 9.6797 245.179 0.14651 224.793 11.9163ZM221.859 92.0905C217.034 94.8771 212.326 96.3438 208.3 96.3438C205.914 96.4054 203.559 95.7926 201.506 94.5758C199.452 93.3591 197.784 91.5877 196.692 89.4652C194.77 86.0479 193.758 81.4427 193.758 75.8548C193.758 65.4856 197.322 53.6057 203.79 42.4079C210.258 31.2101 218.765 22.1829 227.741 16.9909C232.449 14.2703 237.032 12.8037 241.006 12.745H241.3C250.422 12.745 255.864 20.4082 255.864 33.234C255.864 43.6105 252.307 55.4904 245.839 66.6882C239.371 77.8861 230.843 86.9059 221.859 92.0905Z" fill="#BA68C8"/>
<path d="M224.793 11.9163C204.399 23.6862 187.877 52.3151 187.877 75.8548C187.877 99.3944 204.399 108.942 224.793 97.1724C245.186 85.4026 261.708 56.7737 261.708 33.2267C261.708 9.6797 245.179 0.14651 224.793 11.9163ZM221.859 92.0905C217.034 94.8771 212.326 96.3438 208.3 96.3438C205.914 96.4054 203.559 95.7926 201.506 94.5758C199.452 93.3591 197.784 91.5877 196.692 89.4652C194.77 86.0479 193.758 81.4427 193.758 75.8548C193.758 65.4856 197.322 53.6057 203.79 42.4079C210.258 31.2101 218.765 22.1829 227.741 16.9909C232.449 14.2703 237.032 12.8037 241.006 12.745H241.3C250.422 12.745 255.864 20.4082 255.864 33.234C255.864 43.6105 252.307 55.4904 245.839 66.6882C239.371 77.8861 230.843 86.9059 221.859 92.0905Z" fill="#02C264"/>
<g opacity="0.3">
<path d="M197.007 42.855C193.604 49.4886 191.084 56.5397 189.513 63.828C188.752 67.4623 188.333 71.1596 188.259 74.8719C188.163 78.5763 188.57 82.2767 189.469 85.8717C190.33 89.4833 192.003 92.8512 194.36 95.7202C196.776 98.5522 200.021 100.553 203.636 101.44C207.263 102.271 211.037 102.213 214.636 101.271C218.255 100.382 221.731 98.9871 224.961 97.1282C221.76 99.0546 218.304 100.521 214.695 101.484C211.058 102.462 207.239 102.545 203.563 101.726C199.876 100.843 196.559 98.8243 194.081 95.9549C191.666 93.0567 189.943 89.6458 189.043 85.9817C188.162 82.347 187.774 78.6101 187.892 74.8719C187.988 71.1325 188.435 67.4104 189.227 63.7547C190.013 60.1045 191.065 56.5164 192.373 53.0188C193.709 49.5397 195.257 46.1454 197.007 42.855Z" fill="white"/>
</g>
<g opacity="0.3">
<path d="M252.622 66.3288C256.025 59.694 258.547 52.6434 260.124 45.3557C260.886 41.7142 261.305 38.0095 261.378 34.2899C261.467 30.5857 261.06 26.8863 260.168 23.2901C259.308 19.6727 257.638 16.2977 255.284 13.4195C252.871 10.5876 249.628 8.58657 246.015 7.69961C242.388 6.87407 238.615 6.93191 235.015 7.86827C231.395 8.75891 227.919 10.1562 224.69 12.0189C227.89 10.0885 231.346 8.61953 234.956 7.65561C238.586 6.6842 242.396 6.59869 246.066 7.40628C249.754 8.28752 253.071 10.3066 255.548 13.1775C257.965 16.0749 259.688 19.486 260.586 23.1507C261.476 26.794 261.866 30.5415 261.745 34.2899C261.645 38.031 261.201 41.7549 260.417 45.4144C259.624 49.0661 258.57 52.6563 257.264 56.1576C255.93 59.6414 254.38 63.0385 252.622 66.3288Z" fill="white"/>
</g>
<path d="M237.956 61.5764L239.041 69.8996C240.761 67.4419 242.336 64.8856 243.756 62.2437C241.882 61.6569 239.914 61.4305 237.956 61.5764Z" fill="#455A64"/>
<path d="M237.941 61.5842L235.543 61.7309C230.443 62.2027 225.388 63.0681 220.422 64.3195C212.656 66.1822 202.199 72.6721 202.199 72.6721C200.651 74.2707 200.226 78.3553 200.519 83.6719C204.311 91.2325 212.942 92.5084 223.362 85.7179C230.886 80.8119 237.875 72.6501 243.038 63.5055C241.461 62.5791 239.737 61.9292 237.941 61.5842Z" fill="#37474F"/>
<path d="M238.543 21.6839C234.495 15.436 227.418 12.8841 220.723 13.9034C214.438 14.8347 206.834 17.482 205.668 25.8125C201.869 28.1812 201.341 33.4611 203.468 39.7457C206.115 47.6729 209.334 49.8802 211.586 55.2261C211.85 54.9768 229.523 40.8163 233.424 37.1057C234.891 35.7124 239.885 34.6564 241.351 33.2631C245.098 27.7339 242.085 22.6813 238.543 21.6839Z" fill="#263238"/>
<path d="M241.688 37.7875C241.588 35.2199 241.296 32.6633 240.816 30.139C240.341 27.7437 239.194 25.5331 237.508 23.7664C236.042 22.2998 234.524 22.0944 233.108 23.6931C232.612 24.3844 232.002 24.9868 231.304 25.475C229.955 26.2084 228.305 25.585 226.904 25.013C224.448 24.0231 221.771 23.1504 219.183 23.8031C218.342 23.9611 217.595 24.4396 217.1 25.1377C216.367 26.377 217.005 27.939 217.342 29.347C217.885 31.635 217.342 34.3189 215.545 35.8076C215.165 36.0675 214.82 36.3756 214.519 36.7242C214.205 37.2873 214.063 37.9294 214.108 38.5722C214.148 39.2128 214.011 39.852 213.712 40.4202C212.121 42.8255 209.752 38.1395 209.026 37.2595C207.559 35.5142 203.658 34.9716 202.324 39.1515C200.989 43.3314 203.13 47.8634 205.675 49.528C209.393 51.926 211.241 49.132 211.241 49.132L212.37 67.8538C220.613 76.9836 240.236 73.537 230.916 64.4071L230.512 59.9632C232.039 59.8659 233.548 59.5852 235.008 59.1272C236.252 58.7313 237.409 58.1016 238.418 57.2719C240.314 55.6916 241.512 53.429 241.754 50.9727C242.297 47.4454 242.165 43.7274 241.688 37.7875Z" fill="#C8856A"/>
<path d="M230.461 59.9345C225.431 60.5138 219.711 58.9078 217.445 56.5978C215.179 54.2879 212.928 48.6926 212.928 48.6926C212.928 48.6926 214.504 55.0652 216.338 57.7272C218.171 60.3891 221.588 61.2398 224.067 61.8118C226.246 62.1959 228.454 62.3921 230.667 62.3984L230.461 59.9345Z" fill="#AF6152"/>
<path d="M225.695 34.0624L222.285 36.0644C222.009 35.5743 221.931 34.9973 222.068 34.4518C222.204 33.9063 222.544 33.4337 223.018 33.1311C223.253 33.0079 223.511 32.9343 223.776 32.9147C224.041 32.8951 224.307 32.9301 224.558 33.0174C224.809 33.1046 225.039 33.2424 225.235 33.4221C225.43 33.6019 225.587 33.8198 225.695 34.0624Z" fill="#263238"/>
<path d="M235.675 32.2291L239.415 33.901C239.584 33.3557 239.552 32.7681 239.326 32.2439C239.101 31.7196 238.695 31.2932 238.183 31.0411C237.943 30.9308 237.681 30.8744 237.416 30.876C237.152 30.8776 236.891 30.9371 236.652 31.0503C236.413 31.1636 236.202 31.3278 236.033 31.5314C235.864 31.735 235.742 31.9732 235.675 32.2291Z" fill="#263238"/>
<path d="M225.02 46.8293L231.913 48.956C231.814 49.4272 231.619 49.8728 231.339 50.2648C231.06 50.6567 230.702 50.9864 230.288 51.2331C229.875 51.4798 229.415 51.6381 228.937 51.698C228.459 51.7579 227.975 51.7182 227.513 51.5813C226.576 51.2482 225.798 50.5741 225.336 49.6933C224.874 48.8125 224.761 47.7898 225.02 46.8293Z" fill="#AF6152"/>
<path d="M225.409 48.2818C226.358 48.2425 227.288 48.5651 228.009 49.1844C228.731 49.8036 229.19 50.6735 229.295 51.6184C228.719 51.7674 228.112 51.7547 227.543 51.5817C226.849 51.3495 226.235 50.9251 225.773 50.3578C225.311 49.7905 225.019 49.1036 224.932 48.3771C225.088 48.3348 225.248 48.303 225.409 48.2818Z" fill="#FFA8A7"/>
<path d="M229.831 33.2778L232.647 45.8763L238.403 42.5764L229.831 33.2778Z" fill="#AF6152"/>
<path d="M223.876 37.9053C223.913 38.3559 224.122 38.775 224.459 39.0764C224.796 39.3779 225.235 39.5388 225.687 39.526C225.905 39.5048 226.115 39.4392 226.306 39.3332C226.497 39.2272 226.664 39.083 226.797 38.9097C226.93 38.7364 227.025 38.5375 227.078 38.3257C227.13 38.1138 227.139 37.8933 227.103 37.678C227.065 37.2274 226.857 36.8083 226.52 36.5069C226.183 36.2054 225.743 36.0445 225.291 36.0573C225.074 36.0785 224.863 36.1441 224.673 36.2501C224.482 36.3561 224.315 36.5003 224.182 36.6736C224.049 36.847 223.954 37.0458 223.901 37.2577C223.848 37.4696 223.84 37.69 223.876 37.9053Z" fill="#263238"/>
<path d="M235.602 36.7391C235.641 37.1897 235.85 37.6085 236.186 37.9108C236.522 38.2131 236.961 38.3762 237.413 38.3671C237.63 38.344 237.84 38.2769 238.031 38.1698C238.221 38.0626 238.388 37.9178 238.52 37.7442C238.653 37.5705 238.748 37.3717 238.801 37.1598C238.854 36.9479 238.864 36.7274 238.828 36.5118C238.789 36.0619 238.58 35.6438 238.244 35.3427C237.907 35.0416 237.469 34.8801 237.017 34.8912C236.801 34.9143 236.591 34.9813 236.401 35.0879C236.212 35.1946 236.045 35.3387 235.913 35.5115C235.781 35.6844 235.685 35.8823 235.631 36.0934C235.578 36.3044 235.568 36.5241 235.602 36.7391Z" fill="#263238"/>
<path d="M212.627 90.0734C212.627 89.7947 212.568 89.5161 212.532 89.2301C211.285 78.7289 202.199 72.6716 202.199 72.6716C200.902 73.4758 199.675 74.3884 198.532 75.3996C199.134 85.6881 204.634 91.0047 212.627 90.0734Z" fill="#455A64"/>
</g>
<defs>
<clipPath id="clip0_260_2449">
<rect width="321.811" height="320" fill="white" transform="translate(0.674316)"/>
</clipPath>
</defs>
</svg>
