<svg width="222" height="333" viewBox="0 0 222 333" fill="none" xmlns="http://www.w3.org/2000/svg">
<g clip-path="url(#clip0_260_1624)">
<path d="M0.679985 326.995C0.679985 326.995 -12.1116 260.72 -12.141 247.088C-12.181 228.221 2.26112 220.709 2.26112 220.709L-3.3509 204.705H27.5179L22.644 220.597C22.644 220.597 38.898 229.213 36.6307 248.783C32.3925 285.37 25.6374 326.994 25.6374 326.994H0.679985V326.995Z" fill="#F5F5F5"/>
<path d="M30.1207 228.224C30.1192 228.231 30.0023 228.222 29.7769 228.198C29.5514 228.175 29.2136 228.146 28.771 228.153C27.8919 228.158 26.5671 228.311 25.0237 228.975C23.4787 229.623 21.7588 230.828 20.2154 232.648C19.4395 233.552 18.7051 234.599 18.0062 235.759C17.314 236.922 16.6196 238.181 16.0654 239.572C15.5187 240.958 15.1116 242.501 15.1659 244.122C15.2164 245.724 15.8203 247.404 16.9951 248.672C17.59 249.291 18.3296 249.8 19.1794 250.043C20.0224 250.291 20.949 250.272 21.8101 249.974C23.53 249.364 24.9452 247.817 25.5085 245.976C26.123 244.121 25.5024 241.999 24.2169 240.439C22.9305 238.861 21.0026 237.763 18.9238 237.371C16.8262 237.004 14.6011 237.342 12.5427 238.139C10.4797 238.94 8.53593 240.15 6.81154 241.636C3.36048 244.608 0.885853 248.601 0.0647469 252.821C-0.348445 254.921 -0.341659 257.076 0.189157 259.067C0.658899 261.065 1.71827 262.885 3.23079 264.113C3.98178 264.724 4.86169 265.162 5.78685 265.286C6.70749 265.433 7.65527 265.232 8.42058 264.766C9.97834 263.809 10.7436 261.947 10.7761 260.246C10.7949 259.384 10.6328 258.532 10.2845 257.782C9.93385 257.036 9.40454 256.381 8.80964 255.845C7.60173 254.769 6.09976 254.181 4.64605 253.907C1.69414 253.358 -1.06173 254.143 -3.13523 255.255C-5.23814 256.381 -6.72125 257.873 -7.72407 259.208C-8.73745 260.549 -9.27581 261.759 -9.57891 262.587C-9.8873 263.417 -9.98909 263.875 -10.0162 263.868C-10.0162 263.868 -9.94611 263.403 -9.66261 262.557C-9.38438 261.713 -8.86714 260.479 -7.86206 259.105C-6.86753 257.738 -5.38215 256.204 -3.25285 255.037C-1.15447 253.886 1.6587 253.054 4.7026 253.599C6.20155 253.871 7.76233 254.468 9.03659 255.589C9.66618 256.151 10.2219 256.826 10.6057 257.631C10.9834 258.434 11.1591 259.339 11.1433 260.252C11.1124 262.051 10.3305 264.031 8.6234 265.097C7.78043 265.615 6.73538 265.836 5.73256 265.68C4.7207 265.547 3.77367 265.074 2.97669 264.431C1.37595 263.142 0.271343 261.234 -0.21951 259.172C-0.771439 257.117 -0.781998 254.895 -0.360512 252.739C0.479445 248.404 3.00233 244.335 6.52426 241.3C8.28711 239.783 10.2649 238.551 12.3859 237.728C14.5023 236.911 16.8043 236.557 19.0022 236.945C21.1835 237.361 23.1899 238.506 24.5456 240.173C25.2197 241.005 25.7249 241.97 25.9812 242.995C26.2549 244.013 26.2044 245.113 25.8998 246.093C25.2883 248.058 23.7969 249.684 21.9375 250.341C21.0071 250.661 19.9877 250.68 19.0716 250.405C18.1509 250.137 17.357 249.583 16.7289 248.923C15.4878 247.57 14.8718 245.812 14.8258 244.132C14.7791 242.445 15.2103 240.862 15.7758 239.455C16.3496 238.042 17.0592 236.78 17.7664 235.612C18.4804 234.448 19.2329 233.394 20.0292 232.486C21.611 230.656 23.3792 229.448 24.9581 228.816C26.5369 228.166 27.8851 228.039 28.7725 228.063C29.666 228.09 30.1207 228.224 30.1207 228.224Z" fill="#C4E7B1"/>
<path d="M30.9222 278.283C30.9222 278.283 31.0835 279.502 30.6394 281.653C30.4094 282.72 30.0113 284.013 29.2852 285.394C28.5697 286.772 27.5307 288.252 26.0506 289.553C24.5863 290.863 22.6523 291.954 20.4031 292.519C18.166 293.086 15.5986 293.167 13.0886 292.413C10.5823 291.677 8.19359 290.059 6.50086 287.77C4.79908 285.51 3.73067 282.559 3.97195 279.517C4.10993 278.02 4.63924 276.476 5.79663 275.454C6.94422 274.406 8.6294 274.205 10.0085 274.621C11.4041 275.022 12.6279 275.966 13.268 277.233C13.9051 278.492 13.9843 279.936 13.6955 281.221C13.4067 282.514 12.7741 283.683 11.9289 284.605C11.0799 285.529 10.0349 286.188 8.9672 286.646C6.81151 287.55 4.58194 287.685 2.64039 287.443C0.685264 287.21 -1.01425 286.605 -2.39558 285.894C-3.78671 285.19 -4.8589 284.364 -5.66644 283.63C-7.27698 282.138 -7.84851 281.049 -7.84851 281.049C-7.84248 281.044 -7.79121 281.101 -7.69771 281.214C-7.59065 281.348 -7.45719 281.515 -7.29281 281.722C-6.91431 282.148 -6.3752 282.799 -5.55107 283.501C-4.73525 284.207 -3.66306 285.001 -2.28324 285.673C-0.913221 286.351 0.762922 286.923 2.67733 287.132C4.57892 287.35 6.7527 287.194 8.82394 286.308C9.84938 285.861 10.8462 285.22 11.6439 284.341C12.4379 283.466 13.0328 282.353 13.2989 281.133C13.5666 279.92 13.4814 278.576 12.8925 277.422C12.3119 276.277 11.1787 275.402 9.89085 275.036C8.61131 274.659 7.1116 274.848 6.08993 275.783C5.05092 276.698 4.54423 278.13 4.41379 279.558C4.18231 282.458 5.20549 285.323 6.84921 287.51C8.48464 289.73 10.7866 291.299 13.2069 292.022C15.6333 292.763 18.1313 292.701 20.3149 292.163C22.5113 291.627 24.4031 290.582 25.8462 289.317C27.3052 288.062 28.3435 286.623 29.0673 285.278C29.8017 283.931 30.2194 282.664 30.472 281.614C30.7352 280.563 30.7962 279.72 30.8596 279.154C30.8739 278.89 30.886 278.676 30.8958 278.505C30.9056 278.358 30.9146 278.283 30.9222 278.283Z" fill="#C4E7B1"/>
<path d="M25.1713 309.516C25.1306 309.602 23.7892 308.876 21.4526 308.2C20.8675 308.035 20.2266 307.859 19.5216 307.739C18.8257 307.577 18.0656 307.501 17.2709 307.397C15.6739 307.254 13.9058 307.23 12.0638 307.423C10.224 307.64 8.50415 308.052 6.97806 308.545C6.22556 308.822 5.50097 309.063 4.85705 309.374C4.19579 309.646 3.60918 309.959 3.07535 310.249C0.945301 311.423 -0.203043 312.426 -0.261855 312.352C-0.281459 312.328 -0.000967115 312.075 0.526833 311.633C0.786963 311.408 1.11495 311.144 1.52437 310.876C1.93003 310.604 2.37564 310.265 2.92078 309.977C3.45235 309.665 4.04047 309.331 4.70475 309.04C5.35168 308.71 6.08306 308.451 6.84535 308.16C8.3903 307.638 10.1403 307.205 12.014 306.984C13.8892 306.787 15.6913 306.823 17.3131 306.992C18.1207 307.108 18.8913 307.2 19.5955 307.38C20.308 307.518 20.955 307.714 21.5423 307.901C22.1372 308.063 22.6469 308.295 23.1023 308.471C23.5608 308.641 23.9385 308.827 24.2424 308.99C24.8554 309.303 25.1849 309.489 25.1713 309.516Z" fill="#C4E7B1"/>
<path d="M23.0171 221.543C23.0337 221.569 22.6695 221.822 21.9962 222.258C21.3274 222.7 20.3238 223.288 19.0564 223.96C16.5252 225.31 12.863 226.9 8.62478 228.043C4.38203 229.176 0.41523 229.633 -2.45148 229.731C-3.88559 229.783 -5.0475 229.777 -5.84825 229.728C-6.64975 229.688 -7.09084 229.652 -7.09009 229.621C-7.08858 229.59 -6.64523 229.569 -5.84599 229.556C-5.0475 229.551 -3.89086 229.51 -2.46731 229.418C0.379041 229.24 4.30361 228.738 8.51018 227.615C12.713 226.482 16.3608 224.952 18.9146 223.681C20.1927 223.048 21.2143 222.506 21.9088 222.109C22.6062 221.72 23.0013 221.517 23.0171 221.543Z" fill="#C4E7B1"/>
<path d="M26.9049 205.465C26.8996 205.51 26.1456 205.394 24.7786 205.392C23.4177 205.399 21.4196 205.549 19.1033 206.318C17.9481 206.7 16.7199 207.234 15.4931 207.967C14.8809 208.334 14.2694 208.751 13.6745 209.224C13.0743 209.695 12.4937 210.209 12.0126 210.838C11.5286 211.457 11.1282 212.183 10.9963 212.971C10.8568 213.753 11.1109 214.593 11.7095 215.16C12.2992 215.74 13.1361 216.07 13.9919 216.312C14.8537 216.533 15.7744 216.808 16.6068 216.613C17.4543 216.424 17.9444 215.595 18.013 214.744C18.102 213.878 17.8727 213.028 17.495 212.257C16.7553 210.702 15.4464 209.544 14.0545 208.799C12.6551 208.038 11.141 207.69 9.72954 207.627C8.31126 207.592 6.98799 207.837 5.83362 208.204C3.51356 208.949 1.85325 210.089 0.749395 210.881C0.201991 211.292 -0.213465 211.624 -0.492445 211.852C-0.770671 212.082 -0.922225 212.199 -0.932027 212.187C-0.942583 212.176 -0.811383 212.038 -0.551253 211.785C-0.289615 211.534 0.109249 211.178 0.645343 210.744C1.72658 209.904 3.37708 208.708 5.7371 207.905C6.91334 207.51 8.26678 207.239 9.74085 207.259C11.2081 207.308 12.7817 207.655 14.2467 208.438C15.7035 209.205 17.0908 210.413 17.8855 212.067C18.2859 212.876 18.5506 213.823 18.451 214.788C18.3945 215.265 18.2678 215.761 17.967 216.18C17.679 216.605 17.2168 216.92 16.7146 217.042C15.6892 217.266 14.7557 216.954 13.8728 216.735C12.9883 216.481 12.0865 216.137 11.4057 215.467C10.7112 214.813 10.4112 213.794 10.58 212.904C10.7361 212.009 11.1787 211.236 11.693 210.586C12.2042 209.926 12.8232 209.388 13.4362 208.916C14.0492 208.438 14.678 208.018 15.3076 207.65C16.5691 206.915 17.8282 206.387 19.0098 206.019C21.3788 205.275 23.4094 205.173 24.7831 205.219C25.4723 205.246 26.0061 205.296 26.3643 205.358C26.7202 205.413 26.9064 205.45 26.9049 205.465Z" fill="#C4E7B1"/>
<path d="M196.047 255.768H114.804C104.24 255.768 95.6772 247.205 95.6772 236.641V26.9568C95.6772 16.3933 104.24 7.83008 114.804 7.83008H196.047C206.611 7.83008 215.174 16.3933 215.174 26.9568V236.641C215.174 247.205 206.611 255.768 196.047 255.768Z" fill="#FAFAFA"/>
<path d="M196.048 255.768C196.048 255.768 196.661 255.724 197.856 255.657C198.448 255.585 199.186 255.472 200.057 255.309C200.486 255.197 200.949 255.076 201.445 254.947C201.945 254.823 202.447 254.594 202.998 254.404C205.148 253.543 207.75 252.103 210.043 249.562C211.22 248.33 212.269 246.797 213.136 245.042C214.009 243.289 214.673 241.275 214.925 239.075C215.183 236.882 215.066 234.526 215.089 232.064C215.086 229.599 215.084 227.014 215.081 224.312C215.076 218.908 215.07 213.037 215.064 206.73C215.056 194.114 215.046 179.749 215.036 163.87C215.023 132.11 215.009 94.2945 214.993 52.305C214.992 47.0564 214.991 41.7422 214.99 36.3669C214.989 33.6789 214.989 30.9758 214.988 28.2577C214.987 27.5783 214.999 26.8952 214.95 26.2241C214.922 25.5493 214.895 24.8737 214.765 24.2079L214.612 23.2044C214.54 22.8741 214.446 22.5476 214.364 22.2181C214.276 21.8909 214.205 21.5584 214.102 21.2349L213.751 20.2773C212.79 17.7371 211.289 15.3733 209.317 13.4551C207.349 11.537 204.956 10.0373 202.34 9.1136C201.038 8.63255 199.668 8.34829 198.287 8.16507C197.597 8.06856 196.895 8.07836 196.198 8.0286C195.496 8.01352 194.787 8.02483 194.08 8.02106C191.249 8.02106 188.407 8.02181 185.55 8.02181C162.703 8.02332 139.049 8.02407 114.821 8.02558C111.82 8.03764 108.841 8.76525 106.186 10.1149C103.511 11.4404 101.237 13.4823 99.4873 15.8619C97.723 18.243 96.5829 21.0555 96.1328 23.9591L95.9692 25.0494L95.9134 26.1495C95.8606 26.8794 95.8734 27.6228 95.8726 28.3632C95.8726 29.8441 95.8726 31.3219 95.8726 32.7967C95.8719 44.5983 95.8704 56.2265 95.8696 67.6526C95.8659 90.5049 95.8621 112.547 95.8583 133.546C95.8523 154.544 95.8462 174.498 95.8402 193.172C95.8364 202.509 95.8327 211.526 95.8289 220.194C95.8266 224.528 95.8244 228.774 95.8229 232.929C95.8364 235.006 95.752 237.07 95.9918 239.068C96.2097 241.076 96.8355 243 97.6687 244.779C98.5033 246.561 99.6072 248.198 100.938 249.587C102.263 250.973 103.731 252.217 105.381 253.117C107.018 254.017 108.736 254.765 110.529 255.137C110.967 255.271 111.422 255.316 111.869 255.389C112.318 255.444 112.761 255.558 113.212 255.559C114.111 255.609 115.005 255.659 115.901 255.641C123.054 255.647 129.799 255.652 136.106 255.657C148.72 255.669 159.585 255.681 168.466 255.69C177.344 255.706 184.238 255.718 188.916 255.727C191.251 255.735 193.032 255.742 194.234 255.746C195.434 255.755 196.048 255.768 196.048 255.768C196.048 255.768 195.434 255.782 194.236 255.788C193.034 255.793 191.252 255.799 188.918 255.808C184.238 255.816 177.345 255.829 168.468 255.845C159.586 255.854 148.722 255.865 136.108 255.878C129.8 255.883 123.055 255.888 115.903 255.893C115.011 255.912 114.105 255.863 113.193 255.814C112.735 255.814 112.286 255.699 111.831 255.644C111.378 255.57 110.916 255.525 110.472 255.39C108.655 255.014 106.913 254.26 105.251 253.349C103.578 252.438 102.086 251.179 100.742 249.775C99.3908 248.368 98.2689 246.709 97.4206 244.901C96.5731 243.097 95.936 241.144 95.7128 239.107C95.4662 237.068 95.5514 235.007 95.5348 232.932C95.5326 228.777 95.5311 224.531 95.5288 220.197C95.525 211.529 95.5213 202.512 95.5175 193.175C95.5122 174.5 95.5062 154.547 95.4994 133.549C95.4956 112.551 95.4919 90.5079 95.4881 67.6557C95.4873 56.2296 95.4858 44.6006 95.4851 32.7998C95.4851 31.3249 95.4851 29.8471 95.4851 28.3662C95.4858 27.6258 95.473 26.8869 95.5265 26.1359L95.5831 25.0132L95.7497 23.9003C96.2097 20.9363 97.3731 18.0643 99.1737 15.6342C100.958 13.2056 103.281 11.1223 106.01 9.76807C108.721 8.38976 111.762 7.64707 114.824 7.63501C139.051 7.63652 162.706 7.63802 185.553 7.63878C188.41 7.63878 191.252 7.63953 194.083 7.63953C194.791 7.6433 195.496 7.63199 196.204 7.64783C196.915 7.69759 197.63 7.68854 198.334 7.78732C199.743 7.97506 201.141 8.26535 202.469 8.75621C205.139 9.69946 207.578 11.2301 209.585 13.1875C211.596 15.1441 213.126 17.5546 214.105 20.1461L214.462 21.1226C214.567 21.4521 214.64 21.7914 214.73 22.1254C214.813 22.4609 214.909 22.7942 214.981 23.1312L215.137 24.1551C215.269 24.8345 215.296 25.5229 215.325 26.2106C215.374 26.9005 215.361 27.5783 215.362 28.2584C215.361 30.9766 215.361 33.6797 215.361 36.3677C215.359 41.743 215.358 47.0571 215.357 52.3057C215.341 94.2952 215.327 132.111 215.315 163.871C215.304 179.75 215.294 194.115 215.285 206.731C215.279 213.038 215.274 218.909 215.269 224.313C215.266 227.014 215.263 229.6 215.261 232.065C215.232 234.527 215.343 236.877 215.079 239.096C214.818 241.312 214.144 243.341 213.259 245.103C212.38 246.868 211.319 248.407 210.13 249.643C207.814 252.191 205.192 253.626 203.028 254.48C202.474 254.667 201.968 254.894 201.467 255.016C200.967 255.142 200.501 255.261 200.07 255.369C199.196 255.526 198.456 255.633 197.861 255.699C196.661 255.751 196.048 255.768 196.048 255.768Z" fill="#263238"/>
<path d="M203.692 22.5134C203.692 22.622 201.741 22.7095 199.335 22.7095C196.928 22.7095 194.977 22.6213 194.977 22.5134C194.977 22.4049 196.928 22.3174 199.335 22.3174C201.741 22.3166 203.692 22.4049 203.692 22.5134Z" fill="#263238"/>
<path d="M203.692 25.3577C203.692 25.4662 201.741 25.5537 199.335 25.5537C196.928 25.5537 194.977 25.4655 194.977 25.3577C194.977 25.2491 196.928 25.1616 199.335 25.1616C201.741 25.1616 203.692 25.2491 203.692 25.3577Z" fill="#263238"/>
<path d="M203.692 28.2017C203.692 28.3102 201.741 28.3977 199.335 28.3977C196.928 28.3977 194.977 28.3095 194.977 28.2017C194.977 28.0931 196.928 28.0056 199.335 28.0056C201.741 28.0056 203.692 28.0938 203.692 28.2017Z" fill="#263238"/>
<path d="M143.515 28.2018L143.509 25.2092L142.025 27.7026H141.756L140.271 25.2265V28.201H139.707V24.094H140.189L141.902 26.9811L143.592 24.094H144.073L144.079 28.201L143.515 28.2018Z" fill="#263238"/>
<path d="M147.978 25.092L146.471 28.5129C146.195 29.1704 145.837 29.3755 145.361 29.3755C145.061 29.3755 144.757 29.276 144.563 29.0882L144.803 28.6652C144.956 28.8123 145.15 28.8945 145.36 28.8945C145.63 28.8945 145.8 28.7716 145.953 28.4134L146.053 28.1963L144.68 25.092H145.266L146.351 27.5802L147.425 25.092H147.978Z" fill="#263238"/>
<path d="M153.479 25.5256C153.479 26.4176 152.834 26.9574 151.766 26.9574H150.751V28.2015H150.164V24.0945H151.766C152.834 24.0945 153.479 24.6343 153.479 25.5256ZM152.892 25.5256C152.892 24.939 152.499 24.6042 151.748 24.6042H150.751V26.447H151.748C152.499 26.447 152.892 26.1129 152.892 25.5256Z" fill="#263238"/>
<path d="M155.877 25.062V25.6079C155.831 25.6019 155.789 25.6019 155.748 25.6019C155.143 25.6019 154.767 25.9713 154.767 26.6522V28.2017H154.204V25.0914H154.744V25.6139C154.944 25.2498 155.331 25.062 155.877 25.062Z" fill="#263238"/>
<path d="M156.251 26.6469C156.251 25.7195 156.937 25.062 157.87 25.062C158.803 25.062 159.484 25.7195 159.484 26.6469C159.484 27.5736 158.804 28.2371 157.87 28.2371C156.937 28.2371 156.251 27.5743 156.251 26.6469ZM158.915 26.6469C158.915 25.9842 158.469 25.5551 157.87 25.5551C157.271 25.5551 156.821 25.9834 156.821 26.6469C156.821 27.3097 157.272 27.744 157.87 27.744C158.469 27.744 158.915 27.3097 158.915 26.6469Z" fill="#263238"/>
<path d="M161.371 23.8125C161.612 23.8125 161.847 23.8714 162.005 23.9943L161.835 24.4225C161.717 24.3343 161.565 24.2763 161.4 24.2763C161.066 24.2763 160.896 24.464 160.896 24.8221V25.0921H161.799V25.5558H160.907V28.2023H160.344V25.5558H159.816V25.0921H160.344V24.8161C160.345 24.2114 160.708 23.8125 161.371 23.8125ZM162.703 24.1292C162.703 23.9241 162.868 23.7598 163.085 23.7598C163.302 23.7598 163.466 23.9181 163.466 24.1179C163.466 24.329 163.308 24.4934 163.085 24.4934C162.867 24.4934 162.703 24.3351 162.703 24.1292ZM162.803 25.0921H163.366V28.2023H162.803V25.0921Z" fill="#263238"/>
<path d="M164.438 23.8479H165.001V28.2015H164.438V23.8479Z" fill="#263238"/>
<path d="M168.873 26.8347H166.35C166.42 27.3806 166.86 27.744 167.476 27.744C167.84 27.744 168.145 27.6203 168.373 27.3685L168.684 27.7319C168.403 28.0607 167.975 28.2371 167.458 28.2371C166.455 28.2371 165.786 27.5743 165.786 26.6469C165.786 25.7255 166.449 25.062 167.346 25.062C168.244 25.062 168.883 25.7082 168.883 26.6643C168.885 26.7118 168.879 26.7819 168.873 26.8347ZM166.35 26.4298H168.345C168.286 25.9072 167.892 25.5378 167.347 25.5378C166.807 25.5378 166.409 25.9012 166.35 26.4298Z" fill="#263238"/>
<path d="M175.464 108.807H135.781V111.163H175.464V108.807Z" fill="#00C565"/>
<path d="M191.374 114.973C191.374 115.082 175.913 115.169 156.846 115.169C137.771 115.169 122.313 115.081 122.313 114.973C122.313 114.865 137.771 114.777 156.846 114.777C175.913 114.777 191.374 114.865 191.374 114.973Z" fill="#263238"/>
<path d="M120.963 151.279C127.46 151.279 132.727 146.012 132.727 139.515C132.727 133.018 127.46 127.751 120.963 127.751C114.466 127.751 109.199 133.018 109.199 139.515C109.199 146.012 114.466 151.279 120.963 151.279Z" fill="#00C565"/>
<path fill-rule="evenodd" clip-rule="evenodd" d="M128.566 138.651C128.465 134.657 125.134 131.451 121.036 131.451C116.987 131.451 113.686 134.584 113.51 138.515C113.506 138.623 113.503 138.732 113.503 138.839C113.503 140.237 113.898 141.54 114.583 142.655L113.224 146.618L117.397 145.308C118.477 145.893 119.718 146.228 121.037 146.228C125.199 146.228 128.572 142.921 128.572 138.839C128.571 138.776 128.571 138.714 128.566 138.651ZM121.036 145.05C119.749 145.05 118.553 144.674 117.551 144.021L115.118 144.788L115.908 142.481C115.149 141.456 114.701 140.198 114.701 138.84C114.701 138.637 114.712 138.435 114.733 138.236C115.044 135.092 117.753 132.629 121.036 132.629C124.362 132.629 127.096 135.156 127.35 138.355C127.364 138.515 127.371 138.675 127.371 138.839C127.371 142.265 124.528 145.05 121.036 145.05Z" fill="white"/>
<path fill-rule="evenodd" clip-rule="evenodd" d="M124.489 140.33C124.302 140.24 123.396 139.8 123.226 139.741C123.057 139.679 122.933 139.651 122.81 139.832C122.687 140.013 122.33 140.421 122.224 140.539C122.115 140.662 122.01 140.675 121.823 140.584C121.639 140.494 121.043 140.306 120.337 139.685C119.791 139.207 119.417 138.615 119.311 138.434C119.205 138.252 119.301 138.155 119.392 138.064C119.476 137.981 119.575 137.851 119.671 137.747C119.696 137.716 119.716 137.688 119.738 137.66C119.78 137.593 119.812 137.531 119.854 137.443C119.918 137.322 119.886 137.217 119.84 137.126C119.793 137.036 119.424 136.144 119.268 135.781C119.117 135.419 118.962 135.482 118.852 135.482C118.746 135.482 118.623 135.464 118.499 135.464C118.376 135.464 118.175 135.509 118.006 135.69C117.837 135.872 117.36 136.311 117.36 137.203C117.36 137.412 117.399 137.621 117.455 137.82C117.642 138.458 118.045 138.984 118.115 139.075C118.206 139.193 119.391 141.083 121.268 141.811C123.148 142.532 123.148 142.292 123.487 142.26C123.825 142.232 124.58 141.824 124.732 141.399C124.887 140.977 124.887 140.614 124.841 140.538C124.796 140.467 124.672 140.421 124.489 140.33Z" fill="white"/>
<path d="M155.369 151.279C161.866 151.279 167.133 146.012 167.133 139.515C167.133 133.018 161.866 127.751 155.369 127.751C148.872 127.751 143.605 133.018 143.605 139.515C143.605 146.012 148.872 151.279 155.369 151.279Z" fill="#00C565"/>
<path d="M154.882 134.211C156.698 134.211 156.913 134.217 157.63 134.249C158.293 134.279 158.653 134.389 158.893 134.481C159.21 134.603 159.437 134.748 159.675 134.983C159.913 135.219 160.06 135.442 160.183 135.756C160.277 135.993 160.387 136.349 160.418 137.004C160.45 137.713 160.457 137.925 160.457 139.72C160.457 141.514 160.45 141.727 160.418 142.435C160.387 143.091 160.277 143.446 160.183 143.683C160.06 143.997 159.913 144.221 159.675 144.456C159.437 144.691 159.21 144.837 158.893 144.958C158.653 145.051 158.293 145.16 157.63 145.19C156.913 145.222 156.698 145.229 154.882 145.229C153.066 145.229 152.85 145.222 152.133 145.19C151.47 145.16 151.11 145.051 150.871 144.958C150.553 144.836 150.327 144.691 150.088 144.456C149.85 144.221 149.703 143.997 149.58 143.683C149.487 143.446 149.376 143.091 149.346 142.435C149.313 141.727 149.306 141.514 149.306 139.72C149.306 137.925 149.313 137.713 149.346 137.004C149.376 136.349 149.487 135.993 149.58 135.756C149.703 135.442 149.851 135.219 150.088 134.983C150.327 134.748 150.553 134.603 150.871 134.481C151.11 134.389 151.47 134.279 152.133 134.249C152.85 134.218 153.066 134.211 154.882 134.211ZM154.882 133C153.034 133 152.803 133.008 152.078 133.04C151.353 133.073 150.859 133.187 150.426 133.353C149.979 133.524 149.6 133.754 149.222 134.128C148.844 134.502 148.611 134.877 148.437 135.318C148.269 135.746 148.154 136.234 148.121 136.949C148.088 137.666 148.08 137.895 148.08 139.72C148.08 141.545 148.088 141.774 148.121 142.491C148.154 143.206 148.269 143.695 148.437 144.123C148.611 144.565 148.843 144.94 149.222 145.313C149.6 145.687 149.979 145.916 150.426 146.088C150.859 146.254 151.353 146.368 152.078 146.401C152.803 146.434 153.035 146.441 154.882 146.441C156.729 146.441 156.961 146.434 157.686 146.401C158.41 146.368 158.904 146.254 159.337 146.088C159.784 145.917 160.164 145.687 160.541 145.313C160.919 144.94 161.152 144.565 161.326 144.123C161.494 143.695 161.609 143.207 161.642 142.491C161.675 141.774 161.683 141.545 161.683 139.72C161.683 137.895 161.675 137.666 161.642 136.949C161.609 136.234 161.494 135.745 161.326 135.318C161.152 134.877 160.92 134.502 160.541 134.128C160.164 133.755 159.784 133.525 159.337 133.353C158.904 133.187 158.41 133.073 157.686 133.04C156.961 133.008 156.729 133 154.882 133Z" fill="white"/>
<path d="M154.882 136.269C152.953 136.269 151.389 137.814 151.389 139.72C151.389 141.626 152.952 143.172 154.882 143.172C156.81 143.172 158.374 141.627 158.374 139.72C158.374 137.815 156.81 136.269 154.882 136.269ZM154.882 141.961C153.629 141.961 152.614 140.958 152.614 139.721C152.614 138.483 153.629 137.48 154.882 137.48C156.134 137.48 157.149 138.483 157.149 139.721C157.149 140.958 156.134 141.961 154.882 141.961Z" fill="white"/>
<path d="M159.329 136.133C159.329 136.578 158.964 136.94 158.512 136.94C158.062 136.94 157.696 136.578 157.696 136.133C157.696 135.688 158.062 135.326 158.512 135.326C158.963 135.326 159.329 135.688 159.329 136.133Z" fill="white"/>
<path d="M189.775 151.279C196.272 151.279 201.539 146.012 201.539 139.515C201.539 133.018 196.272 127.751 189.775 127.751C183.278 127.751 178.011 133.018 178.011 139.515C178.011 146.012 183.278 151.279 189.775 151.279Z" fill="#00C565"/>
<path d="M187.976 146.648H190.757V139.766H192.697L192.904 137.462H190.757C190.757 137.462 190.757 136.602 190.757 136.149C190.757 135.606 190.867 135.392 191.399 135.392C191.827 135.392 192.904 135.392 192.904 135.392V133C192.904 133 191.317 133 190.978 133C188.909 133 187.976 133.901 187.976 135.625C187.976 137.126 187.976 137.462 187.976 137.462H186.529V139.794H187.976V146.648Z" fill="white"/>
<path d="M135.669 156.47C135.669 156.579 129.084 156.666 120.963 156.666C112.84 156.666 106.257 156.579 106.257 156.47C106.257 156.361 112.84 156.274 120.963 156.274C129.084 156.273 135.669 156.361 135.669 156.47Z" fill="#263238"/>
<path d="M168.152 156.47C168.152 156.579 162.428 156.666 155.369 156.666C148.308 156.666 142.586 156.579 142.586 156.47C142.586 156.361 148.308 156.274 155.369 156.274C162.428 156.273 168.152 156.361 168.152 156.47Z" fill="#263238"/>
<path d="M201.539 156.47C201.539 156.579 195.815 156.666 188.756 156.666C181.695 156.666 175.973 156.579 175.973 156.47C175.973 156.361 181.695 156.274 188.756 156.274C195.816 156.273 201.539 156.361 201.539 156.47Z" fill="#263238"/>
<path d="M203.135 196.929C203.135 196.929 203.127 196.758 203.122 196.434C203.119 196.101 203.115 195.624 203.109 194.999C203.103 193.73 203.092 191.869 203.079 189.454C203.063 184.621 203.04 177.579 203.011 168.697L203.134 168.82C180.856 168.837 146.305 168.863 107.608 168.893H107.602L107.798 168.697C107.796 178.451 107.794 187.941 107.793 196.929L107.602 196.738C134.976 196.773 158.832 196.804 175.857 196.826C184.375 196.849 191.181 196.867 195.871 196.88C198.209 196.89 200.017 196.899 201.254 196.905C201.862 196.91 202.327 196.914 202.652 196.917C202.968 196.921 203.135 196.929 203.135 196.929C203.135 196.929 202.984 196.937 202.677 196.941C202.357 196.944 201.9 196.948 201.302 196.953C200.075 196.959 198.281 196.967 195.961 196.978C191.281 196.991 184.489 197.009 175.99 197.032C158.933 197.054 135.031 197.085 107.603 197.12H107.412V196.928C107.41 187.94 107.408 178.45 107.406 168.696V168.5H107.603H107.609C146.306 168.529 180.857 168.556 203.135 168.572H203.259V168.696C203.23 177.61 203.207 184.677 203.192 189.528C203.179 191.931 203.168 193.782 203.161 195.045C203.155 195.661 203.152 196.13 203.149 196.458C203.143 196.774 203.135 196.929 203.135 196.929Z" fill="#263238"/>
<path d="M196.524 177.685C196.524 177.794 178.157 177.881 155.505 177.881C132.845 177.881 114.482 177.793 114.482 177.685C114.482 177.577 132.845 177.489 155.505 177.489C178.157 177.489 196.524 177.577 196.524 177.685Z" fill="#263238"/>
<path d="M196.524 183.277C196.524 183.385 178.157 183.473 155.505 183.473C132.845 183.473 114.482 183.385 114.482 183.277C114.482 183.169 132.845 183.081 155.505 183.081C178.157 183.081 196.524 183.168 196.524 183.277Z" fill="#263238"/>
<path d="M196.524 188.869C196.524 188.977 178.157 189.065 155.505 189.065C132.845 189.065 114.482 188.976 114.482 188.869C114.482 188.761 132.845 188.673 155.505 188.673C178.157 188.673 196.524 188.76 196.524 188.869Z" fill="#263238"/>
<path d="M203.135 232.356C203.135 232.356 203.127 232.185 203.122 231.862C203.119 231.528 203.115 231.051 203.109 230.427C203.103 229.157 203.092 227.297 203.079 224.883C203.063 220.049 203.04 213.007 203.011 204.125L203.134 204.249C180.856 204.265 146.305 204.292 107.608 204.321H107.602L107.798 204.125C107.796 213.88 107.794 223.369 107.793 232.357L107.602 232.166C134.976 232.202 158.832 232.232 175.857 232.254C184.375 232.277 191.181 232.295 195.871 232.308C198.209 232.319 200.017 232.328 201.254 232.333C201.862 232.338 202.327 232.342 202.652 232.345C202.968 232.348 203.135 232.356 203.135 232.356C203.135 232.356 202.984 232.365 202.677 232.368C202.357 232.371 201.9 232.375 201.302 232.38C200.075 232.386 198.281 232.395 195.961 232.405C191.281 232.418 184.489 232.436 175.99 232.46C158.933 232.481 135.031 232.512 107.603 232.547H107.412V232.356C107.41 223.368 107.408 213.877 107.406 204.124V203.927H107.603H107.609C146.306 203.957 180.857 203.983 203.135 204H203.259V204.124C203.23 213.037 203.207 220.105 203.192 224.956C203.179 227.358 203.168 229.209 203.161 230.473C203.155 231.088 203.152 231.558 203.149 231.886C203.143 232.202 203.135 232.356 203.135 232.356Z" fill="#263238"/>
<path d="M196.524 213.112C196.524 213.221 178.157 213.308 155.505 213.308C132.845 213.308 114.482 213.221 114.482 213.112C114.482 213.003 132.845 212.916 155.505 212.916C178.157 212.916 196.524 213.004 196.524 213.112Z" fill="#263238"/>
<path d="M196.524 218.704C196.524 218.813 178.157 218.9 155.505 218.9C132.845 218.9 114.482 218.812 114.482 218.704C114.482 218.597 132.845 218.508 155.505 218.508C178.157 218.508 196.524 218.596 196.524 218.704Z" fill="#263238"/>
<path d="M196.524 224.295C196.524 224.404 178.157 224.491 155.505 224.491C132.845 224.491 114.482 224.404 114.482 224.295C114.482 224.187 132.845 224.099 155.505 224.099C178.157 224.099 196.524 224.187 196.524 224.295Z" fill="#263238"/>
<path d="M108.891 28.2055C108.893 28.2025 108.942 28.1994 109.034 28.1964C109.146 28.1926 109.276 28.1881 109.429 28.1836C109.803 28.1746 110.292 28.1632 110.892 28.1489L110.851 28.1896C110.846 27.8654 110.84 27.511 110.834 27.1288C110.836 26.932 110.818 26.7457 110.836 26.518C110.876 26.2911 111.078 26.0905 111.327 26.0671C111.563 26.0626 111.771 26.052 112.026 26.0634C112.29 26.0958 112.514 26.3491 112.506 26.6281C112.512 27.1227 112.517 27.6392 112.523 28.1753L112.455 28.1082C113.048 28.1022 113.665 28.0961 114.3 28.0894L114.23 28.161C114.223 27.4175 114.217 26.6492 114.21 25.862C114.208 25.6652 114.206 25.4707 114.204 25.2762C114.204 25.096 114.094 24.9746 113.945 24.8404C113.672 24.5712 113.403 24.3058 113.138 24.0449C112.874 23.784 112.614 23.5284 112.36 23.2773C112.233 23.1522 112.108 23.0277 111.983 22.9048C111.854 22.7797 111.752 22.6508 111.602 22.6198C111.456 22.5806 111.296 22.6115 111.178 22.7005C111.066 22.7948 110.947 22.929 110.835 23.0383C110.608 23.2675 110.387 23.4899 110.173 23.7063C109.757 24.1391 109.322 24.5342 109.007 24.9075C108.874 25.1141 108.924 25.3667 108.914 25.5959C108.914 25.8243 108.914 26.0415 108.913 26.2458C108.911 26.6447 108.908 26.9938 108.907 27.2931C108.904 27.5608 108.902 27.7817 108.899 27.9627C108.898 28.1188 108.895 28.2025 108.891 28.2055C108.887 28.2092 108.884 28.1331 108.878 27.9838C108.873 27.8051 108.867 27.5879 108.859 27.324C108.853 27.0224 108.844 26.6703 108.835 26.2684C108.831 26.0596 108.828 25.8387 108.823 25.6057C108.822 25.4873 108.819 25.3667 108.817 25.243C108.816 25.1118 108.85 24.9768 108.919 24.857C109.261 24.4385 109.668 24.0683 110.087 23.6234C110.3 23.4063 110.518 23.1816 110.744 22.9501C110.862 22.834 110.959 22.7186 111.1 22.5972C111.247 22.4841 111.45 22.4434 111.635 22.4917C111.831 22.5354 111.959 22.696 112.078 22.8083C112.203 22.9305 112.329 23.0541 112.457 23.1793C112.712 23.4296 112.972 23.6845 113.237 23.9446C113.503 24.2047 113.772 24.4694 114.045 24.7378C114.11 24.8064 114.188 24.8645 114.251 24.961C114.311 25.053 114.345 25.1616 114.348 25.2724C114.349 25.4669 114.352 25.6637 114.353 25.8613C114.359 26.6485 114.365 27.4175 114.37 28.1602L114.371 28.2311L114.3 28.2319C113.665 28.2356 113.048 28.2402 112.455 28.2439L112.387 28.2447V28.1776C112.384 27.6415 112.382 27.125 112.379 26.6304C112.387 26.4072 112.213 26.2111 112.007 26.1825C111.794 26.1712 111.544 26.1787 111.337 26.1802C111.139 26.1968 110.973 26.3559 110.939 26.5391C110.921 26.7246 110.934 26.941 110.931 27.1288C110.931 27.511 110.931 27.8654 110.931 28.1896V28.2311H110.891C110.281 28.2266 109.784 28.2236 109.404 28.2205C109.253 28.2183 109.126 28.216 109.016 28.2138C108.933 28.2107 108.889 28.2085 108.891 28.2055Z" fill="#263238"/>
<path d="M182.938 77.9426C186.658 61.8992 176.669 45.8774 160.625 42.1568C144.582 38.4363 128.56 48.4259 124.839 64.4692C121.119 80.5126 131.108 96.5344 147.152 100.255C163.195 103.976 179.217 93.9859 182.938 77.9426Z" fill="#C4E7B1"/>
<path d="M177.782 74.3797C179.149 72.7842 179.517 70.4008 178.698 68.4668C177.878 66.5328 175.908 65.1409 173.811 65.0143C174.486 63.0561 174.067 60.7587 172.743 59.1655C171.419 57.5723 169.237 56.7399 167.189 57.0452C167.055 54.9725 165.862 52.9963 164.091 51.9113C162.319 50.8262 160.017 50.6619 158.109 51.4837C156.885 49.9961 154.944 49.126 153.018 49.2021C151.092 49.2783 149.226 50.2984 148.122 51.8781L146.554 51.9588C143.811 52.0997 141.183 53.3205 139.487 55.4807C139.389 55.6059 139.289 55.7182 139.185 55.814C137.674 57.2187 136.095 58.7327 135.56 60.7248C134.963 62.9475 135.752 65.4946 134.631 67.5055C134.191 68.2964 133.481 68.9366 133.183 69.7916C132.619 71.4142 133.713 73.1612 133.582 74.8736C133.442 76.6847 131.948 78.2658 132.129 80.0731C132.26 81.3836 133.254 82.4422 134.314 83.2234C135.375 84.0045 136.57 84.6326 137.441 85.6203C138.137 86.4105 138.587 87.3907 139.27 88.193C141.205 90.4685 145.045 90.7656 147.307 88.815C148.821 90.1255 151.055 90.32 152.991 89.8111C154.927 89.3021 156.638 88.1862 158.311 87.0876C159.028 88.0655 160.259 88.6431 161.469 88.5692C162.679 88.4953 163.831 87.773 164.423 86.7151C164.842 88.0384 166.409 88.7125 167.791 88.5768C169.172 88.441 170.408 87.6938 171.589 86.9662C173.806 85.6007 176.283 83.8047 176.342 81.2019C176.379 79.6094 175.46 77.9642 176.066 76.4916C176.413 75.6464 177.188 75.0719 177.782 74.3797Z" fill="#263238"/>
<path d="M162.847 64.5084C162.347 63.1489 162.567 61.6417 162.381 60.2053C161.971 57.0423 159.504 54.3686 156.533 53.2104C153.562 52.0523 150.184 52.2619 147.155 53.261C144.9 54.0052 142.743 55.2093 141.213 57.0257C139.182 59.437 138.434 62.8692 139.277 65.9071L155.458 63.7612C156.954 65.0317 158.486 66.324 160.312 67.0448C160.847 67.2567 161.425 67.4181 161.994 67.3351C162.564 67.2522 163.121 66.8729 163.264 66.315C163.419 65.705 163.064 65.0988 162.847 64.5084Z" fill="#263238"/>
<path d="M160.816 60.884L146.753 57.7164C142.267 57.3598 139.435 62.9462 139.269 67.4446C139.084 72.4413 139.056 78.5495 139.744 82.2569C141.128 89.7109 146.889 90.5139 146.889 90.5139C146.89 90.4883 146.918 95.6049 147.021 98.3239C152.108 100.741 157.341 100.397 162.681 98.0094L163.241 63.4936C163.233 62.1251 162.178 60.9918 160.816 60.884Z" fill="#B78876"/>
<path d="M142.188 72.0904C142.184 72.5978 142.609 73.0201 143.139 73.0351C143.668 73.0495 144.101 72.6513 144.107 72.1439C144.111 71.6365 143.685 71.2135 143.157 71.1991C142.626 71.1841 142.193 71.5829 142.188 72.0904Z" fill="#263238"/>
<path d="M140.675 70.5837C140.797 70.7059 141.511 70.1487 142.544 70.1246C143.575 70.0854 144.347 70.5973 144.456 70.4676C144.509 70.4103 144.382 70.1879 144.046 69.9557C143.715 69.7249 143.155 69.5063 142.511 69.5259C141.868 69.5462 141.333 69.7973 141.028 70.0477C140.717 70.3002 140.615 70.5287 140.675 70.5837Z" fill="#263238"/>
<path d="M151.981 72.0904C151.975 72.5978 152.401 73.02 152.932 73.0344C153.46 73.0487 153.894 72.6506 153.899 72.1431C153.903 71.6357 153.478 71.2127 152.949 71.1984C152.418 71.184 151.985 71.5829 151.981 72.0904Z" fill="#263238"/>
<path d="M150.834 70.5125C150.957 70.6346 151.671 70.0774 152.703 70.0533C153.734 70.0141 154.506 70.526 154.615 70.3963C154.669 70.339 154.543 70.1159 154.205 69.8844C153.874 69.6537 153.314 69.435 152.67 69.4546C152.027 69.475 151.492 69.726 151.187 69.9764C150.876 70.229 150.773 70.4582 150.834 70.5125Z" fill="#263238"/>
<path d="M147.284 78.2701C147.287 78.2113 146.642 78.1171 145.598 78.0107C145.333 77.9904 145.082 77.9444 145.033 77.7657C144.966 77.5764 145.069 77.2892 145.189 76.9793C145.42 76.3346 145.662 75.6583 145.916 74.9503C146.925 72.0624 147.648 69.6904 147.531 69.6511C147.414 69.6112 146.502 71.9199 145.493 74.8078C145.251 75.5195 145.019 76.1981 144.799 76.8473C144.707 77.1497 144.544 77.4943 144.689 77.8863C144.765 78.0816 144.962 78.2196 145.133 78.2611C145.303 78.3086 145.452 78.3071 145.582 78.3116C146.632 78.3418 147.282 78.3297 147.284 78.2701Z" fill="#263238"/>
<path d="M146.889 90.5129C146.889 90.5129 151.933 90.7067 156.843 87.5784C156.843 87.5784 154.458 92.8255 146.948 92.3195L146.889 90.5129Z" fill="#AA6550"/>
<path d="M147.786 80.7485C148.145 80.2479 148.789 79.9614 149.437 80.0134C149.886 80.0503 150.344 80.2547 150.626 80.612C150.908 80.9702 150.979 81.4867 150.74 81.8411C150.472 82.2399 149.891 82.3462 149.395 82.2188C148.898 82.0914 148.465 81.7777 148.055 81.4656C147.941 81.3789 147.825 81.2884 147.751 81.1677C147.678 81.0471 147.659 80.8873 147.743 80.7832" fill="#AA6550"/>
<path d="M150.342 78.9057C150.174 78.9004 150.201 80.0216 149.262 80.842C148.325 81.6653 147.126 81.5703 147.121 81.7272C147.108 81.798 147.393 81.9383 147.898 81.9383C148.393 81.9428 149.112 81.7649 149.686 81.2627C150.259 80.7598 150.494 80.1015 150.52 79.6409C150.551 79.1719 150.419 78.8974 150.342 78.9057Z" fill="#263238"/>
<path d="M150.579 67.3939C150.688 67.6721 151.716 67.5123 152.931 67.6269C154.15 67.7174 155.136 68.0461 155.291 67.7905C155.359 67.6684 155.182 67.4082 154.78 67.1466C154.381 66.8857 153.75 66.6437 153.02 66.5819C152.291 66.5208 151.628 66.6542 151.191 66.845C150.75 67.035 150.532 67.262 150.579 67.3939Z" fill="#263238"/>
<path d="M140.857 66.0593C141.045 66.2892 141.75 66.0268 142.605 65.9937C143.46 65.9303 144.19 66.1098 144.35 65.8602C144.42 65.7396 144.3 65.5073 143.978 65.2932C143.66 65.0798 143.133 64.9124 142.546 64.9456C141.959 64.9795 141.455 65.205 141.163 65.4531C140.867 65.7026 140.774 65.9469 140.857 66.0593Z" fill="#263238"/>
<path d="M165.46 62.3633C164.053 58.0504 157.744 52.118 153.222 52.4663L146.026 56.8523C146.481 59.3119 148.398 61.4419 150.795 62.1537C152.076 62.5337 153.615 62.6295 154.383 63.7228C155.167 64.8395 154.725 66.4764 155.455 67.6285C156.468 69.2247 159.202 69.1297 159.965 70.8594C160.299 71.6149 160.134 72.522 160.481 73.2714C160.943 74.2705 163.489 75.5221 164.535 75.1821C165.582 74.842 165.572 73.0558 165.908 72.1178C166.483 70.5148 166.236 69.6869 166.037 68.7957C165.564 66.6822 166.131 64.4217 165.46 62.3633Z" fill="#263238"/>
<path d="M164.529 73.3506C164.491 73.3371 164.64 72.9646 164.754 72.2619C164.851 71.5637 164.897 70.5096 164.519 69.2994C164.148 68.1096 163.355 66.7268 161.948 65.8348C161.25 65.3839 160.428 65.0491 159.583 64.657C158.745 64.2642 157.845 63.799 157.163 63.0156C156.48 62.2291 156.162 61.2821 155.76 60.4693C155.374 59.6474 154.844 58.9507 154.222 58.4003C152.978 57.2912 151.466 56.82 150.214 56.7996C148.95 56.7694 147.945 57.1004 147.303 57.3907C146.653 57.6833 146.334 57.9276 146.313 57.8974C146.304 57.8869 146.378 57.819 146.528 57.6999C146.681 57.5845 146.913 57.4231 147.236 57.2535C147.873 56.9142 148.897 56.5274 150.218 56.5221C151.526 56.5063 153.135 56.9723 154.461 58.1281C155.122 58.6967 155.699 59.4461 156.106 60.2997C156.522 61.1381 156.839 62.0504 157.459 62.7569C158.076 63.468 158.92 63.9166 159.746 64.3079C160.576 64.6992 161.414 65.0476 162.145 65.5309C163.631 66.4998 164.434 67.9724 164.785 69.2202C165.143 70.4907 165.051 71.581 164.904 72.2883C164.818 72.6426 164.738 72.9133 164.658 73.0882C164.585 73.2662 164.541 73.3559 164.529 73.3506Z" fill="#455A64"/>
<path d="M163.844 65.3362C163.808 65.3558 163.675 65.0693 163.288 64.6825C162.903 64.2897 162.22 63.8765 161.31 63.4708C160.859 63.2597 160.354 63.038 159.834 62.7357C159.322 62.4341 158.774 62.036 158.38 61.4622C157.575 60.3365 157.318 58.8262 156.251 57.7887C155.216 56.7293 153.826 56.1849 152.559 56.0085C151.279 55.8351 150.097 56.0228 149.148 56.2769C147.242 56.8153 146.189 57.5135 146.153 57.4388C146.14 57.4177 146.391 57.233 146.88 56.9548C147.37 56.6803 148.102 56.3093 149.07 56.0108C150.035 55.7159 151.253 55.4882 152.605 55.6504C153.94 55.817 155.416 56.3765 156.531 57.5157C157.689 58.6641 157.944 60.2286 158.676 61.2556C159.402 62.3036 160.56 62.7591 161.431 63.222C162.331 63.6616 163.031 64.1336 163.398 64.5785C163.583 64.7971 163.705 64.9841 163.764 65.1221C163.828 65.2571 163.856 65.3302 163.844 65.3362Z" fill="#455A64"/>
<path d="M161.446 76.0872C161.434 75.53 162.044 74.1991 162.592 74.0989C164.056 73.8312 166.709 73.8802 166.83 77.6133C166.997 82.7156 161.839 81.8304 161.826 81.6841C161.815 81.5702 161.492 78.0121 161.446 76.0872Z" fill="#B78876"/>
<path d="M163.322 79.7007C163.343 79.6833 163.413 79.7602 163.565 79.8236C163.714 79.8854 163.968 79.9238 164.23 79.8153C164.762 79.5996 165.188 78.7295 165.183 77.8089C165.181 77.3437 165.069 76.9048 164.893 76.5444C164.725 76.1765 164.475 75.9231 164.202 75.8839C163.93 75.8304 163.743 75.9985 163.686 76.144C163.622 76.2896 163.658 76.3899 163.631 76.3997C163.617 76.4132 163.518 76.3182 163.553 76.1063C163.571 76.0046 163.627 75.8816 163.744 75.7799C163.863 75.6766 164.042 75.62 164.231 75.6336C164.625 75.6479 164.991 75.9985 165.185 76.3944C165.401 76.7917 165.538 77.2848 165.54 77.8066C165.541 78.8358 165.046 79.8153 164.315 80.0528C163.959 80.1576 163.656 80.0596 163.498 79.9442C163.334 79.8236 163.304 79.7105 163.322 79.7007Z" fill="#AA6550"/>
<path d="M165.554 80.9537C165.63 80.8474 165.803 80.7953 166.048 80.9047C166.286 81.0117 166.581 81.2975 166.715 81.7657C166.857 82.2098 166.813 82.9246 166.31 83.4939C165.825 84.0368 165.053 84.3361 164.235 84.1891C163.374 84.0308 162.791 83.3831 162.574 82.7836C162.344 82.1684 162.402 81.5486 162.646 81.0985C162.88 80.6634 163.261 80.4282 163.55 80.398C163.843 80.3641 163.987 80.5035 164.003 80.6302C164.023 80.7667 163.956 80.9032 163.942 81.054C163.926 81.1995 163.929 81.3578 163.966 81.5305C164.006 81.6805 164.088 81.8683 164.212 82.0146C164.341 82.1699 164.489 82.2438 164.595 82.2589C164.733 82.289 164.928 82.2536 165.038 82.2076C165.143 82.1782 165.261 82.0771 165.334 81.8992C165.5 81.5614 165.409 81.1822 165.554 80.9537Z" fill="#C4E7B1"/>
<path d="M140.345 97.7694L146.972 96.6211L162.714 96.051L169.839 96.4062C169.839 96.4062 156.169 105.907 140.345 97.7694Z" fill="#00C565"/>
<path d="M183.72 71.1985C183.72 71.1985 183.698 71.0349 183.675 70.716C183.654 70.3834 183.623 69.9129 183.584 69.3007C183.565 68.9885 183.545 68.6409 183.522 68.2587C183.482 67.8771 183.4 67.4632 183.333 67.0131C183.261 66.5629 183.184 66.0789 183.102 65.5616C183.04 65.0398 182.846 64.5105 182.712 63.936C182.187 61.6325 181.109 58.9113 179.41 56.0265C177.696 53.1538 175.224 50.1529 171.857 47.6051C171.434 47.2899 171.006 46.9717 170.574 46.649C170.123 46.3535 169.648 46.0828 169.178 45.794C168.699 45.5218 168.244 45.19 167.73 44.9578C167.222 44.7143 166.709 44.4677 166.19 44.2189C165.93 44.096 165.669 43.9723 165.406 43.8479C165.133 43.7484 164.859 43.6489 164.583 43.5486C164.032 43.348 163.475 43.1452 162.914 42.9401C162.347 42.7531 161.753 42.6317 161.166 42.4726C160.573 42.3384 159.99 42.1296 159.371 42.0662C158.145 41.8928 156.905 41.6395 155.621 41.6327C154.982 41.6108 154.338 41.5482 153.689 41.5588C153.039 41.5927 152.386 41.6259 151.727 41.6606C151.398 41.6832 151.065 41.6809 150.736 41.7247L149.747 41.877C149.088 41.9863 148.417 42.064 147.753 42.2012C146.445 42.5571 145.089 42.8232 143.801 43.3616C142.471 43.7868 141.22 44.4443 139.936 45.0604C139.31 45.3997 138.71 45.7947 138.09 46.1627C137.787 46.3572 137.462 46.5224 137.174 46.7418L136.301 47.3955C135.096 48.2226 134.043 49.2564 132.94 50.2524C131.943 51.3555 130.896 52.4352 130.036 53.6869L129.355 54.5984L128.758 55.5734L128.163 56.5543C127.955 56.8778 127.766 57.2111 127.611 57.5647C127.277 58.2584 126.941 58.9551 126.605 59.654C126.338 60.3824 126.069 61.1145 125.801 61.8482C124.835 64.8219 124.315 67.9812 124.272 71.1955C124.314 74.4106 124.833 77.5706 125.799 80.5459C126.068 81.2802 126.336 82.0116 126.603 82.7407C126.94 83.4405 127.274 84.1372 127.609 84.8308L127.862 85.3496L128.16 85.8419L128.756 86.8237L129.352 87.7993L130.034 88.7109C130.894 89.9633 131.941 91.043 132.938 92.1461C134.041 93.1422 135.095 94.1767 136.3 95.0038L137.172 95.6575C137.461 95.8769 137.785 96.0421 138.088 96.2366C138.708 96.6045 139.308 96.9996 139.934 97.3389C141.22 97.9557 142.47 98.6124 143.8 99.0385C145.088 99.5768 146.444 99.8422 147.752 100.199C148.416 100.336 149.087 100.414 149.747 100.523L150.735 100.675C151.065 100.719 151.397 100.717 151.726 100.739C152.385 100.773 153.039 100.807 153.689 100.841C154.338 100.851 154.982 100.789 155.622 100.767C156.907 100.76 158.145 100.506 159.371 100.333C159.99 100.27 160.573 100.061 161.167 99.9267C161.754 99.7668 162.347 99.6469 162.914 99.4592C163.476 99.2548 164.033 99.052 164.584 98.8507C164.86 98.7504 165.133 98.6509 165.407 98.5514C165.67 98.427 165.93 98.3033 166.191 98.1796C166.709 97.9308 167.223 97.685 167.731 97.4407C168.245 97.2077 168.699 96.8767 169.178 96.6038C169.648 96.3142 170.123 96.0443 170.573 95.748C171.006 95.426 171.433 95.1071 171.856 94.7919C175.223 92.2442 177.695 89.2432 179.408 86.3705C181.108 83.4857 182.185 80.7645 182.71 78.461C182.844 77.8865 183.038 77.3572 183.1 76.8354C183.182 76.3182 183.259 75.8349 183.33 75.3847C183.398 74.9346 183.479 74.5214 183.52 74.1391C183.542 73.7568 183.563 73.4092 183.582 73.0971C183.621 72.4848 183.651 72.0143 183.673 71.6818C183.698 71.3621 183.72 71.1985 183.72 71.1985C183.72 71.1985 183.725 71.3621 183.715 71.6818C183.703 72.0159 183.686 72.4871 183.663 73.1016C183.65 73.4153 183.636 73.7644 183.619 74.1482C183.585 74.5319 183.509 74.9474 183.448 75.3998C183.382 75.853 183.311 76.34 183.235 76.8603C183.178 77.3851 182.99 77.9182 182.861 78.4972C182.356 80.8181 181.293 83.5649 179.599 86.4813C177.891 89.3857 175.414 92.4259 172.027 95.0113C171.601 95.331 171.17 95.6545 170.735 95.981C170.281 96.2811 169.803 96.5563 169.329 96.8503C168.847 97.1271 168.389 97.4633 167.87 97.7009C167.358 97.9489 166.84 98.1993 166.317 98.4526C166.055 98.5778 165.792 98.7037 165.527 98.8303C165.252 98.9321 164.974 99.0339 164.697 99.1357C164.14 99.34 163.579 99.5474 163.012 99.7555C162.439 99.947 161.84 100.071 161.247 100.234C160.647 100.372 160.058 100.584 159.433 100.651C158.194 100.83 156.941 101.089 155.643 101.099C154.997 101.123 154.344 101.187 153.689 101.179C153.032 101.147 152.37 101.114 151.703 101.081C151.371 101.058 151.034 101.061 150.701 101.018L149.701 100.867C149.033 100.758 148.353 100.681 147.681 100.543C146.357 100.186 144.984 99.9184 143.678 99.3762C142.332 98.9472 141.064 98.2852 139.762 97.6624C139.128 97.3193 138.52 96.9205 137.891 96.5487C137.584 96.3527 137.256 96.1853 136.963 95.9636L136.079 95.3031C134.858 94.467 133.789 93.4212 132.672 92.4123C131.66 91.2971 130.599 90.2031 129.726 88.9356L129.036 88.012L128.43 87.0242L127.826 86.0304L127.523 85.5321L127.266 85.0073C126.928 84.3045 126.587 83.5988 126.245 82.89C125.974 82.1519 125.702 81.4099 125.429 80.6665C124.449 77.6528 123.923 74.4498 123.881 71.1925C123.924 67.936 124.451 64.7352 125.432 61.7222C125.705 60.9788 125.977 60.2376 126.247 59.4994C126.589 58.7914 126.929 58.0857 127.268 57.383C127.425 57.0256 127.617 56.687 127.828 56.3598L128.432 55.366L129.037 54.379L129.728 53.4561C130.6 52.1894 131.661 51.0961 132.672 49.981C133.79 48.9729 134.859 47.9278 136.08 47.0916L136.964 46.4311C137.257 46.2102 137.585 46.0421 137.892 45.846C138.52 45.4743 139.128 45.0754 139.762 44.7331C141.064 44.1103 142.332 43.4483 143.678 43.0193C144.983 42.4771 146.355 42.2095 147.681 41.8528C148.352 41.7149 149.032 41.6379 149.699 41.5286L150.7 41.3771C151.033 41.3341 151.369 41.3363 151.702 41.3137C152.368 41.2806 153.03 41.2481 153.686 41.2157C154.343 41.2067 154.994 41.2715 155.641 41.2956C156.939 41.3069 158.192 41.5648 159.431 41.7443C160.056 41.8106 160.646 42.0225 161.244 42.1597C161.837 42.3226 162.436 42.447 163.009 42.6377C163.576 42.8459 164.138 43.0524 164.695 43.2575C164.973 43.3601 165.25 43.4619 165.525 43.5629C165.789 43.6896 166.053 43.8155 166.315 43.9407C166.838 44.194 167.356 44.4443 167.868 44.6924C168.386 44.9299 168.844 45.2654 169.327 45.5429C169.801 45.837 170.279 46.1122 170.733 46.4123C171.168 46.7395 171.599 47.063 172.024 47.3819C175.412 49.9674 177.889 53.0075 179.597 55.9119C181.292 58.8291 182.355 61.576 182.86 63.8968C182.989 64.4758 183.177 65.0089 183.234 65.5345C183.31 66.0547 183.381 66.5418 183.447 66.995C183.508 67.4474 183.585 67.8636 183.619 68.2474C183.634 68.6311 183.649 68.981 183.662 69.2939C183.685 69.9084 183.702 70.3797 183.714 70.7137C183.725 71.0349 183.72 71.1985 183.72 71.1985Z" fill="#263238"/>
<path d="M56.6523 317.765L54.3835 284.345L72.4667 286.045L70.9595 318.447L62.0668 318.94L56.6523 317.765Z" fill="#B78876"/>
<path d="M56.1341 316.104L56.1402 317.08C56.1402 317.08 39.6698 323.885 39.525 327.024L72.358 326.53L71.7465 315.611C66.8997 317.945 61.7952 318.277 56.1341 316.104Z" fill="#00C565"/>
<g opacity="0.6">
<path d="M68.4752 319.154C69.1131 319.318 69.5632 320.025 69.4253 320.67C69.2873 321.315 68.5717 321.778 67.9308 321.625C67.2899 321.472 66.7237 320.639 66.9333 320.015C67.1422 319.39 68.0123 318.891 68.5981 319.194" fill="white"/>
</g>
<g opacity="0.6">
<path d="M72.3583 326.53L72.2113 323.904L40.7966 325.34C40.7966 325.34 39.3444 325.998 39.5254 327.025L72.3583 326.53Z" fill="white"/>
</g>
<path d="M56.0266 317.173C56.0341 317.334 56.8371 317.394 57.6334 317.898C58.4431 318.38 58.8601 319.069 59.0064 319.003C59.1542 318.97 58.9001 318.015 57.9251 317.422C56.9555 316.821 55.9889 317.027 56.0266 317.173Z" fill="#263238"/>
<path d="M52.6043 318.65C52.5696 318.806 53.2685 319.068 53.8235 319.738C54.398 320.391 54.5466 321.122 54.7057 321.113C54.8572 321.136 54.9537 320.195 54.248 319.375C53.5498 318.549 52.605 318.497 52.6043 318.65Z" fill="#263238"/>
<path d="M50.7102 322.8C50.8565 322.832 51.0676 322.028 50.6423 321.156C50.2239 320.281 49.4623 319.946 49.3967 320.081C49.3085 320.215 49.8024 320.678 50.1402 321.399C50.4945 322.112 50.5503 322.787 50.7102 322.8Z" fill="#263238"/>
<path d="M93.7539 295.378L73.4547 268.732L89.4847 260.192L106.071 288.067L98.9203 293.377L93.7539 295.378Z" fill="#B78876"/>
<path d="M92.4064 294.277L92.9486 295.088C92.9486 295.088 82.9498 309.839 84.5573 312.539L111.69 294.044L105.166 285.266C102.406 289.885 98.3276 292.973 92.4064 294.277Z" fill="#00C565"/>
<g opacity="0.6">
<path d="M104.387 290.026C105.01 289.812 105.776 290.155 106.015 290.768C106.255 291.382 105.913 292.163 105.294 292.388C104.675 292.614 103.744 292.23 103.574 291.593C103.404 290.957 103.856 290.061 104.511 289.991" fill="white"/>
</g>
<g opacity="0.6">
<path d="M111.691 294.044L110.122 291.933L84.6915 310.433C84.6915 310.433 83.8418 311.782 84.5588 312.54L111.691 294.044Z" fill="white"/>
</g>
<path d="M92.9055 295.228C93.0005 295.358 93.7033 294.967 94.6458 294.948C95.5875 294.905 96.3151 295.249 96.4011 295.114C96.5059 295.004 95.7685 294.347 94.6277 294.39C93.4869 294.422 92.7939 295.126 92.9055 295.228Z" fill="#263238"/>
<path d="M90.8621 298.345C90.9194 298.495 91.647 298.329 92.4787 298.582C93.3179 298.811 93.8449 299.34 93.9724 299.244C94.1111 299.18 93.6738 298.341 92.6333 298.046C91.5958 297.741 90.7784 298.217 90.8621 298.345Z" fill="#263238"/>
<path d="M91.5671 302.853C91.7066 302.799 91.4397 302.011 90.605 301.518C89.7734 301.018 88.9538 301.158 88.9726 301.307C88.9719 301.467 89.6399 301.582 90.3193 301.998C91.0084 302.397 91.4269 302.93 91.5671 302.853Z" fill="#263238"/>
<path d="M62.3858 180.706C62.3858 180.706 46.698 236.62 47.7559 240.639C48.8145 244.657 76.6726 285.941 77.4665 286.192C78.2605 286.443 100.278 273.32 100.278 273.32L77.4665 235.711C77.4665 235.711 90.1661 208.508 93.8705 196.491C97.5749 184.474 98.2882 183.862 95.987 172.921C94.5921 166.289 88.3694 157.407 88.3694 157.407L87.3726 154.336H61.6665L62.3858 180.706Z" fill="#263238"/>
<path d="M45.4526 154.335L43.5963 161.745C40.4212 164.005 35.6634 174.679 35.3988 178.949C35.1341 183.219 34.1109 200.753 34.0763 212.855C34.0355 226.906 49.6531 310.376 49.6531 310.376H77.7494L67.8509 177.944L65.374 154.335H45.4526Z" fill="#263238"/>
<path d="M61.4855 171.104C61.4923 171.105 61.4765 171.213 61.4395 171.421C61.3973 171.647 61.3392 171.953 61.2653 172.345C61.0995 173.176 60.8619 174.368 60.5581 175.893C59.9029 178.965 58.9257 183.405 57.6318 188.87C56.356 194.339 54.7764 200.837 53.2269 208.095C52.4654 211.725 51.6993 215.545 51.0901 219.534C50.4507 223.516 49.9704 227.675 49.8875 231.944C49.8204 236.203 50.1551 240.418 51.639 244.171C53.0377 247.945 54.802 251.428 56.5234 254.709C60.0265 261.248 63.5613 266.929 66.6572 271.609C69.7531 276.29 72.4313 279.961 74.3608 282.436C75.344 283.658 76.0995 284.614 76.656 285.225C76.9154 285.528 77.1182 285.764 77.2682 285.939C77.4047 286.101 77.4718 286.187 77.4673 286.192C77.4673 286.192 76.2202 284.976 74.2417 282.531C72.273 280.081 69.5556 276.431 66.4265 271.763C63.2966 267.097 59.7332 261.424 56.2045 254.879C54.4695 251.594 52.6931 248.107 51.2778 244.303C49.7698 240.502 49.426 236.215 49.4954 231.937C49.5791 227.639 50.0647 223.465 50.7101 219.474C51.3253 215.476 52.1012 211.652 52.8733 208.019C54.4439 200.758 56.0514 194.266 57.3619 188.805C58.6904 183.349 59.7083 178.921 60.4088 175.86C60.7436 174.342 61.0052 173.156 61.1884 172.329C61.2781 171.94 61.3483 171.637 61.4003 171.412C61.4501 171.208 61.4795 171.103 61.4855 171.104Z" fill="#455A64"/>
<path d="M94.6374 174.21C94.6442 174.232 94.3102 174.367 93.6836 174.549C93.0586 174.732 92.1327 174.935 90.9707 175.061C88.662 175.322 85.324 175.126 82.0215 173.7C78.7175 172.274 76.2851 169.979 74.8932 168.119C74.1875 167.187 73.7011 166.374 73.4056 165.793C73.1085 165.213 72.9773 164.877 72.9984 164.867C73.0685 164.828 73.6634 166.151 75.1119 167.947C76.5399 169.737 78.9482 171.946 82.1776 173.34C85.4062 174.733 88.6658 174.972 90.9466 174.784C93.2471 174.607 94.6186 174.132 94.6374 174.21Z" fill="#455A64"/>
<path d="M46.9598 162.599C46.9854 162.607 46.9387 162.825 46.8316 163.215C46.7298 163.607 46.5391 164.162 46.2669 164.833C45.7263 166.176 44.7807 167.965 43.4055 169.706C42.0249 171.444 40.4995 172.775 39.3165 173.608C38.7254 174.027 38.2292 174.34 37.8711 174.528C37.516 174.722 37.3139 174.817 37.2996 174.794C37.2656 174.737 38.0241 174.268 39.1499 173.386C40.2763 172.506 41.7414 171.169 43.0978 169.462C44.4482 167.752 45.4141 166.019 46.0128 164.722C46.6145 163.424 46.8965 162.578 46.9598 162.599Z" fill="#455A64"/>
<path d="M92.4659 55.7972C93.6481 54.4166 93.9678 52.3537 93.2583 50.6805C92.5488 49.0067 90.844 47.8025 89.0291 47.6924C89.6135 45.9982 89.25 44.0099 88.104 42.6316C86.9579 41.2533 85.0706 40.5325 83.2972 40.7964C83.1811 39.0026 82.1489 37.2925 80.616 36.3538C79.0831 35.4151 77.091 35.2726 75.4398 35.9836C74.3804 34.6957 72.7005 33.9432 71.0341 34.0088C69.3678 34.0744 67.7527 34.9574 66.7982 36.3244C65.8715 36.4797 64.9826 36.8409 64.2037 37.3664C63.3667 37.1937 62.4559 37.3694 61.6763 37.7464C60.6878 38.2245 59.8682 38.983 59.0644 39.7302C57.757 40.9457 56.3907 42.2561 55.927 43.9805C55.4098 45.9039 56.0921 48.1086 55.1232 49.8481C54.7425 50.532 54.128 51.087 53.8708 51.8266C53.383 53.2306 54.3293 54.7423 54.2154 56.224C54.0948 57.7915 52.8017 59.1593 52.9578 60.7231C53.0709 61.8571 53.9312 62.7732 54.8488 63.4488C55.7664 64.1244 56.8016 64.668 57.5549 65.523C58.1573 66.2069 58.5464 67.0552 59.1368 67.7488C60.8114 69.7183 64.1343 69.9754 66.0924 68.2872C67.4014 69.4212 69.3354 69.5901 71.0108 69.149C72.6862 68.7087 74.167 67.7428 75.6147 66.792C76.2352 67.6388 77.2999 68.1379 78.3472 68.0746C79.3945 68.0105 80.3913 67.3854 80.904 66.4701C81.2667 67.6154 82.6224 68.1982 83.8175 68.0806C85.0126 67.963 86.0817 67.3168 87.1049 66.6865C89.0231 65.5049 91.1667 63.9502 91.218 61.698C91.2496 60.3197 90.4542 58.8969 90.9782 57.6219C91.2806 56.8935 91.9516 56.3966 92.4659 55.7972Z" fill="#263238"/>
<path d="M49.7209 46.8113C52.9526 42.6914 56.0161 41.58 59.618 40.967C65.0792 40.0381 71.1609 40.9701 75.6005 44.2831C79.6759 47.3248 81.9371 52.3457 82.5659 57.3914C82.7876 59.1716 82.2523 60.8817 81.7554 62.6061C81.2585 64.3297 79.3004 66.5231 77.7124 67.3578C76.1245 68.1925 75.4602 67.6579 74.1151 66.4703C73.2932 65.7442 72.8258 64.709 72.3688 63.7115C70.4379 59.4966 68.2301 55.3187 64.9804 52.0124C61.7307 48.7061 57.2836 46.3348 52.6495 46.478" fill="#00C565"/>
<path d="M73.8346 55.1511C73.2774 53.6363 73.5224 51.9557 73.3151 50.3549C72.8574 46.83 70.109 43.8494 66.7975 42.5586C63.4852 41.2677 59.7204 41.5015 56.3448 42.6151C53.8309 43.4445 51.4272 44.7866 49.7216 46.8111C47.4581 49.4984 46.6242 53.3249 47.5629 56.7096L65.5994 54.318C67.2672 55.734 68.9743 57.1741 71.0093 57.9779C71.6065 58.2139 72.2497 58.3941 72.8845 58.3013C73.5194 58.2093 74.1414 57.7856 74.2998 57.1643C74.4717 56.4842 74.0766 55.8094 73.8346 55.1511Z" fill="#263238"/>
<path d="M55.8961 47.5802L71.571 51.1112C73.0903 51.2318 74.2643 52.4947 74.2741 54.0193L73.6505 88.0308C73.6083 90.3538 72.8008 92.5985 71.3531 94.4164L69.8293 96.3308C66.3556 100.695 59.4384 100.163 56.8906 95.2006C56.7127 94.8537 56.5906 94.5506 56.54 94.3056C56.491 93.9987 56.4126 93.7958 56.4021 93.5357C55.9881 90.896 56.1955 88.3814 56.1955 88.3814C56.0808 85.351 56.0492 84.1077 56.0477 84.1356C56.0477 84.1356 49.6259 83.2406 48.0839 74.9323C47.3171 70.8004 47.3488 63.9925 47.5539 58.4227C47.7386 53.4093 50.8948 47.1821 55.8961 47.5802Z" fill="#B78876"/>
<path d="M50.809 63.6026C50.8037 64.1681 51.278 64.6394 51.8684 64.6552C52.458 64.671 52.9413 64.2277 52.9466 63.6622C52.9519 63.0967 52.4769 62.6254 51.888 62.6088C51.2968 62.5923 50.8135 63.0371 50.809 63.6026Z" fill="#263238"/>
<path d="M49.1215 61.9231C49.258 62.0595 50.0527 61.4382 51.204 61.4111C52.3539 61.3674 53.2142 61.9381 53.3356 61.7934C53.3952 61.7293 53.2534 61.4812 52.8787 61.2226C52.5092 60.9655 51.8849 60.7219 51.1679 60.7438C50.4508 60.7664 49.8544 61.0462 49.5143 61.3251C49.1682 61.6071 49.0544 61.862 49.1215 61.9231Z" fill="#263238"/>
<path d="M61.7223 63.6029C61.7171 64.1684 62.1913 64.6389 62.7817 64.6555C63.3713 64.6713 63.8539 64.228 63.8592 63.6625C63.8644 63.097 63.3902 62.6257 62.8005 62.6091C62.2109 62.5918 61.7276 63.0374 61.7223 63.6029Z" fill="#263238"/>
<path d="M60.4444 61.8439C60.5809 61.9796 61.3771 61.3591 62.5277 61.3319C63.6768 61.2882 64.5379 61.859 64.6593 61.7142C64.7188 61.6501 64.5786 61.402 64.2023 61.1434C63.8329 60.8856 63.2086 60.6428 62.4915 60.6639C61.7745 60.6865 61.178 60.9662 60.838 61.246C60.4919 61.5272 60.3781 61.7828 60.4444 61.8439Z" fill="#263238"/>
<path d="M56.4881 70.4906C56.4919 70.425 55.7733 70.3202 54.6091 70.2018C54.3143 70.1792 54.0346 70.1279 53.9795 69.9288C53.9049 69.7177 54.0195 69.398 54.153 69.0519C54.4108 68.3334 54.6808 67.5801 54.9643 66.7907C56.0885 63.5719 56.8945 60.9283 56.7648 60.8846C56.6344 60.8401 55.618 63.4135 54.493 66.6323C54.2231 67.4255 53.9645 68.1826 53.7187 68.9064C53.6161 69.2434 53.4344 69.6272 53.5958 70.0645C53.681 70.2825 53.9004 70.4363 54.0904 70.4823C54.2804 70.535 54.4455 70.5335 54.5918 70.5388C55.7612 70.5697 56.4858 70.5562 56.4881 70.4906Z" fill="#263238"/>
<path d="M56.0477 84.1356C56.0477 84.1356 61.6696 84.3512 67.1428 80.8647C67.1428 80.8647 64.4842 86.7128 56.1133 86.1495L56.0477 84.1356Z" fill="#AA6550"/>
<path d="M57.0475 73.2528C57.4472 72.6948 58.165 72.3751 58.8873 72.4339C59.388 72.4746 59.8992 72.7024 60.2136 73.1012C60.528 73.5001 60.6064 74.0761 60.3403 74.4712C60.0409 74.9161 59.394 75.0337 58.8406 74.892C58.2871 74.7502 57.8046 74.4004 57.3461 74.052C57.2195 73.9555 57.0898 73.8545 57.0083 73.7203C56.9269 73.586 56.9058 73.4073 56.9985 73.292" fill="#AA6550"/>
<path d="M59.8969 71.1989C59.7099 71.1929 59.74 72.443 58.6927 73.3576C57.6484 74.2753 56.3124 74.1697 56.3071 74.3446C56.2912 74.4238 56.6102 74.5799 57.1727 74.5806C57.7246 74.5851 58.5254 74.3868 59.1663 73.8274C59.8049 73.2664 60.0665 72.5335 60.0959 72.0193C60.1299 71.496 59.9821 71.1899 59.8969 71.1989Z" fill="#263238"/>
<path d="M60.1607 58.3677C60.2821 58.6776 61.4282 58.4997 62.7831 58.6271C64.1411 58.7274 65.2404 59.0946 65.4123 58.8088C65.4885 58.6723 65.2909 58.3828 64.8431 58.091C64.399 57.8 63.6947 57.53 62.8812 57.4614C62.0676 57.3936 61.3287 57.5421 60.8423 57.7547C60.3515 57.9674 60.1087 58.2199 60.1607 58.3677Z" fill="#263238"/>
<path d="M49.3243 56.8793C49.5332 57.1357 50.3196 56.8431 51.2734 56.8054C52.225 56.7345 53.0393 56.9351 53.218 56.6569C53.2964 56.5219 53.1622 56.2633 52.8025 56.025C52.4482 55.7875 51.8616 55.6013 51.2063 55.6382C50.5519 55.6759 49.9901 55.9278 49.6652 56.2045C49.3357 56.482 49.2324 56.7542 49.3243 56.8793Z" fill="#263238"/>
<path d="M76.7466 52.7603C75.1783 47.9535 68.1472 41.3409 63.106 41.7292L55.0857 46.6174C55.5924 49.3582 57.7292 51.7333 60.4014 52.5265C61.8287 52.9503 63.5448 53.0566 64.3999 54.2758C65.2737 55.5199 64.7814 57.3446 65.5949 58.6286C66.7229 60.4081 69.7714 60.3018 70.6226 62.229C70.9943 63.0712 70.8104 64.0816 71.1972 64.917C71.7121 66.0299 74.5494 67.4256 75.7159 67.0471C76.8823 66.6678 76.8718 64.6772 77.2465 63.6314C77.8866 61.8445 77.6114 60.9223 77.389 59.9285C76.8635 57.5745 77.4946 55.0539 76.7466 52.7603Z" fill="#263238"/>
<path d="M79.8749 49.1661L79.2604 51.8217C79.1744 49.7889 78.8532 47.8617 77.8685 46.3763C75.8591 43.3453 71.4324 41.2883 67.9376 40.284C64.4428 39.2797 60.1563 39.895 56.7791 41.2424C54.2397 42.2557 51.8781 43.6242 49.2927 47.1251C46.7291 50.5965 46.1334 55.8217 47.7198 56.7476C48.9707 53.148 50.9545 49.0266 54.0964 46.8717C57.2391 44.7168 61.325 43.8308 64.9796 44.9083C69.0482 46.1079 72.1509 49.5507 73.9477 53.3931C74.8163 55.2517 75.4791 57.3772 75.9918 59.508C76.5844 61.9706 76.5566 64.5417 75.9383 66.9982L73.9078 74.1213L73.8625 76.4398C78.8155 74.6061 81.8775 69.4427 82.6956 64.2243C83.5145 59.0073 82.9301 53.9782 79.8749 49.1661Z" fill="#00C565"/>
<path d="M75.7089 65.0066C75.6697 64.9931 75.8393 64.5784 75.969 63.7949C76.0806 63.0161 76.1334 61.8391 75.7134 60.4871C75.301 59.1578 74.4158 57.6114 72.8437 56.6131C72.0648 56.1087 71.1472 55.7339 70.2062 55.2974C69.2728 54.86 68.2722 54.342 67.5167 53.4727C66.7582 52.6003 66.4045 51.547 65.9559 50.6399C65.5246 49.7215 64.9312 48.9419 64.2353 48.3281C62.8442 47.0893 61.1529 46.5645 59.7543 46.5442C58.3413 46.5125 57.2216 46.8842 56.5053 47.2107C55.7814 47.5395 55.4271 47.8147 55.406 47.783C55.3977 47.7717 55.4814 47.6978 55.6487 47.5666C55.8191 47.4392 56.0793 47.2612 56.4382 47.0735C57.1492 46.698 58.2885 46.2697 59.758 46.2667C61.2133 46.2509 63.0002 46.7704 64.4743 48.0567C65.2087 48.6893 65.8504 49.5217 66.3013 50.4718C66.7642 51.4045 67.1178 52.4239 67.8123 53.2163C68.5029 54.0125 69.4477 54.514 70.3691 54.9498C71.295 55.3863 72.2285 55.7739 73.0405 56.31C74.6925 57.3852 75.5875 59.0221 75.9796 60.4095C76.38 61.8217 76.2797 63.0357 76.1191 63.8228C76.0248 64.2172 75.9374 64.5195 75.8492 64.7141C75.7692 64.9109 75.7217 65.0112 75.7089 65.0066Z" fill="#455A64"/>
<path d="M74.9453 56.0738C74.9083 56.095 74.7628 55.773 74.3323 55.3395C73.9048 54.8984 73.1425 54.4346 72.1283 53.9807C71.6262 53.744 71.0637 53.4967 70.4861 53.1596C69.9161 52.8234 69.3099 52.3808 68.8726 51.7444C67.9798 50.495 67.6933 48.8091 66.4982 47.6464C65.3401 46.4611 63.7861 45.8534 62.3701 45.6573C60.9382 45.4643 59.6187 45.6762 58.5609 45.962C56.4346 46.5667 55.2644 47.3501 55.2274 47.2717C55.2154 47.2513 55.4958 47.047 56.0417 46.7401C56.5884 46.437 57.405 46.026 58.484 45.695C59.5576 45.3686 60.9133 45.1175 62.4168 45.2984C63.9007 45.4847 65.5414 46.1075 66.7795 47.3727C68.0658 48.6462 68.3493 50.3872 69.1689 51.537C69.9847 52.7118 71.2786 53.2169 72.2497 53.7312C73.2533 54.219 74.0329 54.7415 74.4431 55.2354C74.649 55.4774 74.7862 55.6848 74.8525 55.8378C74.9257 55.9871 74.9573 56.0671 74.9453 56.0738Z" fill="#455A64"/>
<path d="M72.273 68.0571C72.2587 67.4358 72.9381 65.9527 73.5496 65.8403C75.1812 65.5425 78.1377 65.5968 78.2741 69.7574C78.4596 75.4448 72.7119 74.4578 72.696 74.2949C72.684 74.1683 72.3243 70.203 72.273 68.0571Z" fill="#B78876"/>
<path d="M74.3631 72.0843C74.3873 72.0655 74.4649 72.1507 74.6338 72.2215C74.7997 72.2909 75.0825 72.3331 75.375 72.2125C75.9684 71.9727 76.4434 71.0023 76.4374 69.9761C76.4351 69.4581 76.3107 68.9688 76.1139 68.5661C75.9269 68.156 75.648 67.874 75.3441 67.8302C75.041 67.7707 74.8329 67.9584 74.768 68.1205C74.6972 68.2826 74.7371 68.395 74.707 68.4048C74.6919 68.4199 74.5818 68.3136 74.6203 68.0775C74.6406 67.9637 74.7024 67.8272 74.8329 67.7134C74.9656 67.598 75.1646 67.5347 75.3758 67.5505C75.8153 67.5663 76.2233 67.9569 76.4397 68.3987C76.6802 68.8413 76.8325 69.391 76.8348 69.9724C76.8355 71.1199 76.2843 72.211 75.4693 72.4756C75.0727 72.5925 74.7349 72.4832 74.5584 72.355C74.3782 72.2215 74.3435 72.0949 74.3631 72.0843Z" fill="#AA6550"/>
<path d="M79.142 72.527C79.13 72.5203 79.2234 72.3189 79.4104 71.9434C79.5891 71.5634 79.8515 71.0024 80.123 70.2537C80.6696 68.7676 81.26 66.5003 81.2283 63.6532C81.2253 62.2342 81.027 60.684 80.745 59.0335C80.4562 57.3867 80.0415 55.642 79.3833 53.8859C78.7228 52.1328 77.7931 50.3798 76.5339 48.7783C75.2747 47.1806 73.7102 45.7269 71.89 44.5672C68.2505 42.2064 63.9512 41.4849 60.2581 41.9983C58.4025 42.2404 56.6871 42.7855 55.1912 43.5093C53.699 44.2437 52.4172 45.1463 51.3767 46.1069C49.2761 48.0273 48.1051 50.0691 47.4499 51.507C47.1287 52.2346 46.9191 52.8175 46.7894 53.2163C46.6635 53.6167 46.5903 53.8263 46.5775 53.8226C46.5647 53.8195 46.6114 53.6031 46.714 53.1937C46.8195 52.785 47.0065 52.1901 47.3096 51.4459C47.9279 49.9749 49.0763 47.8825 51.1882 45.9025C52.234 44.9125 53.5301 43.9791 55.0472 43.2168C56.5688 42.4651 58.3158 41.8965 60.2091 41.6402C63.9738 41.095 68.3809 41.8234 72.1004 44.2362C73.9598 45.4207 75.5552 46.9069 76.8363 48.5408C78.1173 50.1785 79.0598 51.9745 79.7211 53.7585C80.3816 55.5462 80.788 57.3151 81.0655 58.9784C81.3354 60.641 81.5194 62.2101 81.5058 63.6517C81.502 66.538 80.8619 68.8249 80.2655 70.3073C79.9699 71.0537 79.6826 71.6087 79.4806 71.9781C79.2702 72.3453 79.1541 72.5338 79.142 72.527Z" fill="#263238"/>
<path d="M76.7308 73.5524C76.8062 73.4469 76.9871 73.3986 77.2412 73.5193C77.4893 73.6369 77.7947 73.943 77.9311 74.4376C77.999 74.6827 78.0262 74.9745 77.9689 75.2942C77.9131 75.6116 77.7487 75.9667 77.4968 76.2502C76.9879 76.8172 76.1751 77.1309 75.317 76.9764C74.416 76.8105 73.8022 76.1334 73.5723 75.503C73.3265 74.8561 73.3845 74.2031 73.6364 73.7281C73.8776 73.2682 74.2758 73.0156 74.5766 72.9786C74.8827 72.9372 75.035 73.0767 75.0501 73.2026C75.0705 73.3391 74.9943 73.4763 74.9687 73.6346C74.94 73.7877 74.928 73.9626 74.9551 74.1602C74.9868 74.3351 75.0705 74.556 75.2092 74.734C75.3517 74.9202 75.5304 75.025 75.6767 75.0469C75.8546 75.0846 76.0891 75.0348 76.2241 74.9647C76.3538 74.9104 76.4797 74.7754 76.5491 74.5718C76.7097 74.1783 76.5845 73.7801 76.7308 73.5524Z" fill="#455A64"/>
<path d="M32.1097 109.177C32.1097 109.177 33.056 101.606 36.7069 97.82C40.357 94.0341 56.157 89.1264 56.157 89.1264C56.157 89.1264 56.2596 94.6946 59.9165 95.9968C63.7966 97.3789 67.562 96.6452 70.4031 93.3495C73.1499 90.1631 73.6845 86.1873 73.6845 86.1873C73.6845 86.1873 92.8075 87.9576 95.782 92.9604C98.7565 97.9632 102.603 117.338 102.603 117.338L85.5502 120.957L87.8688 154.335H42.5534L43.4401 123.012L31.1039 124.773L32.1097 109.177Z" fill="#455A64"/>
<path d="M82.164 122.06C82.1368 122.059 82.1165 121.792 82.1029 121.307C82.0893 120.823 82.0826 120.122 82.0833 119.257C82.0833 117.526 82.1112 115.136 82.1655 112.497C82.2205 109.857 82.2914 107.467 82.363 105.738C82.3985 104.873 82.4347 104.173 82.4678 103.689C82.501 103.206 82.5327 102.938 82.5598 102.938C82.587 102.938 82.6073 103.206 82.6209 103.69C82.6345 104.174 82.6413 104.874 82.6413 105.739C82.6413 107.47 82.6134 109.86 82.5583 112.502C82.504 115.142 82.4324 117.532 82.3608 119.262C82.3253 120.127 82.2892 120.827 82.256 121.31C82.222 121.794 82.1911 122.061 82.164 122.06Z" fill="#263238"/>
<path d="M39.2388 108.319C39.3429 108.288 40.4075 111.673 41.6154 115.877C42.8241 120.083 43.7191 123.516 43.6143 123.546C43.5102 123.576 42.4463 120.192 41.2377 115.986C40.0298 111.782 39.1348 108.349 39.2388 108.319Z" fill="#263238"/>
<path d="M93.876 91.7592C93.8896 91.8293 93.0677 91.9801 91.8221 92.4537C90.578 92.9219 88.9305 93.7822 87.3961 95.1115C85.867 96.4476 84.7858 97.9594 84.1502 99.1266C83.5085 100.294 83.2454 101.087 83.1783 101.064C83.1526 101.055 83.1994 100.852 83.3072 100.488C83.4075 100.123 83.6088 99.6091 83.9044 98.9984C84.4895 97.7746 85.5669 96.1882 87.139 94.8152C88.7164 93.4489 90.4363 92.6022 91.7294 92.192C92.3756 91.9847 92.9116 91.8557 93.2879 91.8075C93.6634 91.7509 93.8715 91.7328 93.876 91.7592Z" fill="#263238"/>
<path d="M36.4309 99.3481C36.5357 99.3218 36.8946 100.374 37.2309 101.699C37.5679 103.025 37.7557 104.12 37.6501 104.147C37.5453 104.173 37.1872 103.121 36.8501 101.796C36.5138 100.471 36.3261 99.3753 36.4309 99.3481Z" fill="#263238"/>
<path d="M99.5686 117.983C99.5686 117.983 94.461 143.922 93.8766 146.142C93.2923 148.361 92.3483 154.336 86.1632 155.571C77.8127 157.239 45.0182 156.075 45.0182 156.075L51.204 148.244L79.8975 140.198L83.819 121.326L99.5686 117.983Z" fill="#B78876"/>
<path d="M23.2028 113.166C23.2028 113.166 27.827 128.725 29.7452 135.448C31.784 142.591 36.2379 158.813 45.7338 155.93C52.9571 153.739 50.8308 144.378 50.8308 144.378L43.4394 123.012L37.6909 123.971L32.1083 109.564L23.2028 113.166Z" fill="#B78876"/>
<path d="M48.3057 145.049C48.2152 145.045 48.8071 143.691 48.3087 141.53C48.0667 140.465 47.563 139.243 46.769 138.032C45.9766 136.815 44.9089 135.613 43.7734 134.358C42.6333 133.106 41.5747 131.86 40.7657 130.619C39.9446 129.387 39.3331 128.2 38.8769 127.181C38.4238 126.16 38.132 125.304 37.951 124.708C37.77 124.112 37.7045 123.772 37.7271 123.766C37.7565 123.757 37.8718 124.081 38.0958 124.658C38.3197 125.236 38.6485 126.069 39.1288 127.064C39.6113 128.056 40.2401 129.214 41.0658 130.416C41.8793 131.628 42.9236 132.841 44.0652 134.095C45.2 135.35 46.2774 136.578 47.0729 137.835C47.8721 139.092 48.3653 140.364 48.5801 141.472C48.8063 142.581 48.7317 143.512 48.6118 144.126C48.5409 144.433 48.4784 144.668 48.4135 144.821C48.3555 144.976 48.3185 145.054 48.3057 145.049Z" fill="#AA6550"/>
<path d="M15.502 83.9432C15.502 83.9432 16.2854 82.8861 18.1124 84.5177C19.9393 86.1494 27.5095 98.9395 28.0969 100.114C28.6842 101.289 32.1096 109.563 32.1096 109.563L24.4799 114.973L23.2026 113.165C23.2026 113.165 16.8072 107.488 15.502 105.922C14.1969 104.355 12.4348 102.072 12.3699 101.745C12.3043 101.419 11.8482 99.7697 13.1526 99.2894C13.1526 99.2894 11.913 97.3078 13.0221 96.3292C14.1313 95.3505 16.1543 96.2643 16.1543 96.2643L9.3675 87.5202C9.3675 87.5202 8.78013 84.9098 10.7383 85.8885C12.6957 86.8672 17.8515 94.3718 18.7646 94.5678C19.6784 94.7639 19.6784 93.7852 19.6784 93.7852C19.6784 93.7852 14.3273 85.7181 15.502 83.9432Z" fill="#B78876"/>
<path d="M22.479 106.901C22.4632 106.906 22.4104 106.781 22.3237 106.538C22.2347 106.296 22.1314 105.928 22.0674 105.445C21.9369 104.507 21.9641 102.961 23.0875 101.568L23.0777 101.781C22.3946 100.95 21.6429 100.035 20.8383 99.0564L20.8919 99.1016C20.3528 98.7947 19.8076 98.4577 19.2527 98.092C18.976 97.9088 18.6985 97.7173 18.421 97.5175C18.1503 97.3169 17.8563 97.1239 17.5976 96.8389C17.3865 96.6006 17.1927 96.2907 17.1905 95.9288C17.1807 95.5654 17.3435 95.2487 17.5946 95.0074L17.6678 94.9365L17.7741 94.9667C19.4691 95.447 21.0562 95.8971 22.4655 96.2967L22.4964 96.305L22.519 96.3224C24.0021 97.427 25.2583 98.3635 26.2166 99.0767C27.1011 99.7508 27.5964 100.15 27.5753 100.178C27.5542 100.208 27.0204 99.8632 26.1013 99.2358C25.1218 98.5512 23.837 97.6539 22.3215 96.5953L22.375 96.621C20.9612 96.2364 19.3695 95.8036 17.67 95.3407L17.8495 95.2999C17.6949 95.4515 17.566 95.6943 17.5826 95.9182C17.5803 96.1482 17.7153 96.3774 17.8909 96.5765C18.096 96.8072 18.3788 96.9987 18.651 97.2C18.9232 97.3968 19.1961 97.5868 19.4683 97.7685C20.0127 98.1312 20.5541 98.4713 21.0766 98.7751L21.109 98.794L21.1301 98.8204C21.9196 99.8104 22.6577 100.737 23.328 101.578L23.4125 101.684L23.3182 101.79C22.7995 102.377 22.5115 103.103 22.3637 103.733C22.2121 104.373 22.2129 104.955 22.2506 105.424C22.335 106.37 22.5273 106.887 22.479 106.901Z" fill="#AA6550"/>
<path d="M16.235 96.6952C16.2554 96.6801 16.4951 96.9448 16.8804 97.4635C17.2627 97.9838 17.7897 98.7596 18.3356 99.7806C18.6063 100.296 18.8936 100.847 19.1469 101.502C19.2593 101.831 19.3581 102.214 19.2533 102.628C19.1522 103.047 18.7601 103.381 18.3379 103.459C17.9104 103.56 17.4602 103.444 17.087 103.254C16.7093 103.061 16.376 102.812 16.0495 102.536C15.4026 101.981 14.8514 101.292 14.353 100.561C14.077 100.158 13.8214 99.7519 13.5817 99.3696L13.8946 99.1382C14.9426 100.361 15.7698 101.638 16.3835 102.875C16.5313 103.193 16.6482 103.545 16.621 103.913C16.5916 104.27 16.4273 104.629 16.1136 104.824C15.7992 105.019 15.4177 104.979 15.1455 104.863C14.8642 104.746 14.6388 104.578 14.4405 104.407C13.6759 103.716 13.1541 103.08 12.8179 102.625C12.4838 102.169 12.3338 101.897 12.3526 101.884C12.4062 101.838 13.0825 102.9 14.6094 104.207C14.969 104.499 15.5179 104.832 15.9477 104.562C16.1483 104.433 16.275 104.167 16.2908 103.89C16.3066 103.613 16.2109 103.315 16.0684 103.024C15.4569 101.84 14.6275 100.584 13.599 99.393L13.9119 99.1615C14.1524 99.5423 14.4065 99.9434 14.6772 100.339C15.1658 101.056 15.6944 101.717 16.3013 102.245C16.9008 102.752 17.6005 103.247 18.261 103.104C18.5882 103.041 18.8408 102.825 18.9207 102.534C19.0029 102.242 18.9381 101.909 18.8386 101.604C18.6169 100.993 18.3371 100.415 18.0891 99.9057C17.5809 98.881 17.0953 98.0901 16.7537 97.548C16.4107 97.0081 16.2116 96.7125 16.235 96.6952Z" fill="#AA6550"/>
<path d="M50.6628 143.865C50.6854 143.858 50.7827 144.067 50.9078 144.463C51.033 144.859 51.1672 145.45 51.2366 146.193C51.3851 147.666 51.1785 149.819 50.0649 151.843C49.5145 152.834 48.8947 153.74 48.1874 154.444C47.4862 155.155 46.7005 155.635 45.997 155.902C45.2928 156.175 44.6858 156.256 44.2726 156.291C43.8564 156.309 43.6272 156.295 43.6265 156.269C43.6137 156.186 44.5607 156.214 45.8907 155.646C46.549 155.358 47.2736 154.882 47.9288 154.191C48.5893 153.506 49.1819 152.624 49.721 151.653C50.7887 149.714 51.0345 147.651 50.9599 146.211C50.8928 144.757 50.5919 143.884 50.6628 143.865Z" fill="#AA6550"/>
</g>
<defs>
<clipPath id="clip0_260_1624">
<rect width="222" height="333" fill="white"/>
</clipPath>
</defs>
</svg>
