<svg width="375" height="416" viewBox="0 0 375 416" fill="none" xmlns="http://www.w3.org/2000/svg">
<path d="M94.3233 379.407C148.887 407.573 237.352 407.574 291.915 379.408C346.478 351.241 346.478 305.575 291.915 277.41C237.351 249.244 148.886 249.244 94.3225 277.409C39.76 305.575 39.76 351.241 94.3233 379.407Z" fill="#FAFAFA"/>
<path d="M222.028 314.158C206.373 321.532 180.991 321.532 165.337 314.158C149.682 306.786 149.682 294.832 165.337 287.459C180.992 280.088 206.373 280.088 222.028 287.459C237.683 294.832 237.683 306.786 222.028 314.158Z" fill="#F0F0F0"/>
<path d="M264.101 345.883C275.747 351.369 294.629 351.369 306.276 345.883C317.922 340.399 317.922 331.505 306.276 326.02C294.629 320.536 275.747 320.536 264.101 326.02C252.454 331.505 252.454 340.399 264.101 345.883Z" fill="#F0F0F0"/>
<path d="M79.4031 346.835C90.8206 352.213 109.332 352.213 120.75 346.835C132.167 341.459 132.167 332.74 120.75 327.363C109.332 321.986 90.8206 321.986 79.4031 327.363C67.9856 332.74 67.9856 341.459 79.4031 346.835Z" fill="#F0F0F0"/>
<path d="M314.064 87.1537L317.293 88.3809V81.353C317.293 75.781 321.791 74.4457 326.673 77.2312C331.557 80.0168 335.515 86.7926 335.515 92.3636V93.3845C336.623 92.9477 338.054 93.1166 339.618 94.0093C343.133 96.0145 345.981 100.89 345.981 104.899V105.364L350.483 107.932C352.797 109.252 354.673 112.463 354.673 115.103C354.673 117.743 352.797 118.814 350.483 117.493L314.064 96.7167C311.75 95.3963 309.874 92.1856 309.874 89.5457C309.874 86.9057 311.75 85.8341 314.064 87.1537Z" fill="#F0F0F0"/>
<path d="M70.0452 86.9483L62.5944 91.199C62.6314 90.8703 62.6567 90.5434 62.6567 90.2239V88.0906C62.6567 84.295 59.9597 82.7567 56.633 84.6545C55.2858 85.4232 54.0464 86.6413 53.0427 88.0657C52.4979 83.2925 48.7081 81.5145 44.1049 84.1411C39.1278 86.9807 35.093 93.8855 35.093 99.5647V102.755C35.093 104.226 35.3683 105.465 35.8558 106.452L29.6671 109.983C27.8214 111.036 26.326 113.596 26.326 115.701C26.326 117.807 27.8223 118.66 29.6671 117.607L70.0444 94.5727C71.89 93.5202 73.3854 90.9593 73.3854 88.8544C73.3863 86.7486 71.89 85.895 70.0452 86.9483Z" fill="#F0F0F0"/>
<path d="M241.436 153.985C246.561 153.985 250.716 149.88 250.716 144.815C250.716 139.751 246.561 135.646 241.436 135.646C236.311 135.646 232.156 139.751 232.156 144.815C232.156 149.88 236.311 153.985 241.436 153.985Z" fill="#00C565"/>
<path d="M183.214 174.904C190.73 174.904 196.823 168.883 196.823 161.457C196.823 154.031 190.73 148.01 183.214 148.01C175.699 148.01 169.606 154.031 169.606 161.457C169.606 168.883 175.699 174.904 183.214 174.904Z" fill="#00C565"/>
<path d="M161.526 149.218C169.849 140.994 169.849 127.661 161.526 119.437C153.203 111.213 139.709 111.213 131.387 119.437C123.064 127.661 123.064 140.994 131.387 149.218C139.709 157.442 153.203 157.442 161.526 149.218Z" fill="#00C565"/>
<path d="M169.906 115.192C177.733 115.192 184.079 108.922 184.079 101.187C184.079 93.4522 177.733 87.1819 169.906 87.1819C162.078 87.1819 155.732 93.4522 155.732 101.187C155.732 108.922 162.078 115.192 169.906 115.192Z" fill="#00C565"/>
<path d="M212.679 107.236C223.242 107.236 231.805 98.7742 231.805 88.3366C231.805 77.8991 223.242 69.4377 212.679 69.4377C202.116 69.4377 193.553 77.8991 193.553 88.3366C193.553 98.7742 202.116 107.236 212.679 107.236Z" fill="#00C565"/>
<path d="M216.611 183.125L213.173 188.552C211.363 191.407 207.634 192.323 204.682 190.64C204.682 190.64 203.166 189.776 201.297 188.709C199.428 187.643 197.864 184.917 197.804 182.62L197.459 169.367C197.459 168.796 197.078 168.226 196.315 167.791C194.789 166.921 192.316 166.921 190.791 167.791C190.028 168.226 189.646 168.796 189.646 169.367L188.928 196.944C188.868 199.241 187.915 200.587 186.799 199.95L184.777 198.796C182.779 197.657 181.349 195.816 180.751 193.614L178.484 185.275C178.182 184.166 177.028 183.51 175.906 183.805C174.782 184.103 174.117 185.245 174.419 186.354L176.685 194.693C177.575 197.968 179.701 200.704 182.672 202.399C182.672 202.399 184.021 203.169 185.684 204.118C187.348 205.067 188.648 207.698 188.588 209.995L186.298 297.913C186.298 298.972 187.006 300.031 188.423 300.84C191.256 302.456 195.85 302.456 198.684 300.84C200.103 300.03 200.81 298.968 200.808 297.908L198.148 195.814C198.088 193.517 199.056 192.234 200.308 192.949L202.576 194.243C204.243 195.194 206.057 195.647 207.845 195.647C211.344 195.647 214.744 193.911 216.74 190.759L220.178 185.332C220.794 184.359 220.496 183.075 219.51 182.466C218.526 181.856 217.227 182.151 216.611 183.125Z" fill="#827373"/>
<path d="M275.877 92.0314C279.91 74.8583 269.09 57.7069 251.71 53.7226C234.331 49.7383 216.973 60.4299 212.941 77.6029C208.909 94.776 219.729 111.927 237.108 115.912C254.488 119.896 271.845 109.204 275.877 92.0314Z" fill="#00C565"/>
<path opacity="0.2" d="M276.718 84.5783V84.8204C276.718 102.439 262.255 116.731 244.424 116.731C226.578 116.731 212.115 102.44 212.115 84.8204C212.115 78.6803 213.875 72.9337 216.905 68.064C216.462 70.1356 216.216 72.2988 216.216 74.5219C216.216 91.5056 230.144 105.253 247.317 105.253C260.938 105.252 272.509 96.6165 276.718 84.5783Z" fill="black"/>
<path d="M214.148 95.9745C218.728 108.1 230.552 116.737 244.42 116.737C248.735 116.737 252.849 115.894 256.612 114.377C254.014 101.569 242.57 91.9185 228.842 91.9185C223.462 91.9185 218.432 93.4002 214.148 95.9745Z" fill="#00C565"/>
<path opacity="0.1" d="M214.148 95.9745C218.728 108.1 230.552 116.737 244.42 116.737C248.735 116.737 252.849 115.894 256.612 114.377C254.014 101.569 242.57 91.9185 228.842 91.9185C223.462 91.9185 218.432 93.4002 214.148 95.9745Z" fill="black"/>
<path d="M245.882 71.6618C248.867 71.6618 249.221 71.6726 250.4 71.7258C251.49 71.7749 252.082 71.9546 252.476 72.1061C252.998 72.3066 253.37 72.5462 253.762 72.9322C254.154 73.3191 254.395 73.6869 254.598 74.2027C254.751 74.5921 254.933 75.177 254.983 76.2544C255.037 77.4192 255.048 77.7687 255.048 80.7189C255.048 83.6692 255.036 84.0186 254.983 85.1834C254.933 86.2609 254.751 86.8458 254.598 87.2352C254.395 87.751 254.153 88.1187 253.762 88.5056C253.37 88.8925 252.998 89.1321 252.476 89.3318C252.082 89.4832 251.49 89.6629 250.4 89.712C249.221 89.7653 248.867 89.7761 245.882 89.7761C242.896 89.7761 242.542 89.7653 241.364 89.712C240.273 89.6629 239.681 89.4832 239.287 89.3318C238.765 89.1313 238.393 88.8917 238.001 88.5056C237.61 88.1187 237.368 87.751 237.165 87.2352C237.012 86.8458 236.83 86.2609 236.781 85.1834C236.727 84.0186 236.716 83.6692 236.716 80.7189C236.716 77.7687 236.727 77.4192 236.781 76.2544C236.83 75.177 237.013 74.5921 237.165 74.2027C237.368 73.6869 237.611 73.3191 238.001 72.9322C238.393 72.5454 238.765 72.3066 239.287 72.1061C239.681 71.9546 240.273 71.7749 241.364 71.7258C242.542 71.6734 242.896 71.6618 245.882 71.6618ZM245.882 69.6716C242.845 69.6716 242.464 69.6841 241.272 69.7382C240.081 69.7914 239.269 69.9786 238.557 70.2515C237.822 70.5336 237.198 70.9113 236.577 71.5262C235.955 72.1402 235.572 72.7567 235.287 73.483C235.011 74.1861 234.821 74.9889 234.767 76.1646C234.713 77.3435 234.7 77.7196 234.7 80.7198C234.7 83.7208 234.713 84.0969 234.767 85.2758C234.821 86.4514 235.011 87.2551 235.287 87.9582C235.572 88.6845 235.955 89.301 236.577 89.915C237.198 90.529 237.822 90.9068 238.557 91.1896C239.269 91.4625 240.081 91.6497 241.272 91.703C242.465 91.7571 242.845 91.7696 245.882 91.7696C248.919 91.7696 249.299 91.7571 250.492 91.703C251.682 91.6497 252.495 91.4625 253.206 91.1896C253.941 90.9076 254.565 90.5299 255.187 89.915C255.808 89.301 256.191 88.6845 256.477 87.9582C256.753 87.2551 256.942 86.4522 256.996 85.2758C257.051 84.0969 257.063 83.7208 257.063 80.7198C257.063 77.7187 257.051 77.3427 256.996 76.1646C256.941 74.9881 256.753 74.1852 256.477 73.483C256.191 72.7567 255.809 72.1402 255.187 71.5262C254.565 70.9121 253.941 70.5344 253.206 70.2515C252.495 69.9786 251.682 69.7914 250.492 69.7382C249.299 69.6841 248.919 69.6716 245.882 69.6716Z" fill="white"/>
<path d="M245.882 75.0464C242.711 75.0464 240.139 77.5865 240.139 80.7198C240.139 83.8531 242.71 86.394 245.882 86.394C249.053 86.394 251.623 83.8539 251.623 80.7198C251.623 77.5873 249.053 75.0464 245.882 75.0464ZM245.882 84.4039C243.823 84.4039 242.154 82.7549 242.154 80.7206C242.154 78.6864 243.823 77.0374 245.882 77.0374C247.94 77.0374 249.609 78.6864 249.609 80.7206C249.609 82.7549 247.94 84.4039 245.882 84.4039Z" fill="white"/>
<path d="M253.193 74.8223C253.193 75.5545 252.592 76.1485 251.851 76.1485C251.11 76.1485 250.509 75.5545 250.509 74.8223C250.509 74.0901 251.11 73.4961 251.851 73.4961C252.592 73.4961 253.193 74.0901 253.193 74.8223Z" fill="white"/>
<path d="M289.323 138.669C291.991 125.599 283.43 112.867 270.203 110.231C256.976 107.595 244.09 116.054 241.423 129.124C238.755 142.194 247.315 154.926 260.543 157.562C273.77 160.198 286.655 151.74 289.323 138.669Z" fill="#00C565"/>
<path d="M289.802 133.734V133.917C289.802 147.242 278.865 158.049 265.379 158.049C251.883 158.049 240.945 147.241 240.945 133.917C240.945 129.274 242.276 124.927 244.568 121.245C244.233 122.812 244.047 124.447 244.047 126.129C244.047 138.973 254.581 149.369 267.567 149.369C277.869 149.369 286.619 142.839 289.802 133.734Z" fill="#00C565"/>
<path opacity="0.1" d="M289.802 133.734V133.917C289.802 147.242 278.865 158.049 265.379 158.049C251.883 158.049 240.945 147.241 240.945 133.917C240.945 129.274 242.276 124.927 244.568 121.245C244.233 122.812 244.047 124.447 244.047 126.129C244.047 138.973 254.581 149.369 267.567 149.369C277.869 149.369 286.619 142.839 289.802 133.734Z" fill="black"/>
<path d="M240.945 133.914C240.945 140.39 243.531 146.265 247.732 150.601C254.013 145.467 258.015 137.707 258.015 129.024C258.015 123.11 256.154 117.629 252.987 113.109C245.782 117.308 240.945 125.05 240.945 133.914Z" fill="#00C565"/>
<path opacity="0.1" d="M240.945 133.914C240.945 140.39 243.531 146.265 247.732 150.601C254.013 145.467 258.015 137.707 258.015 129.024C258.015 123.11 256.154 117.629 252.987 113.109C245.782 117.308 240.945 125.05 240.945 133.914Z" fill="black"/>
<path d="M274.79 125.944C272.445 125.869 270.857 127.177 270.025 129.869C270.455 129.687 270.872 129.595 271.278 129.595C272.139 129.595 272.519 130.073 272.417 131.028C272.366 131.606 271.986 132.447 271.278 133.553C270.568 134.659 270.037 135.212 269.683 135.212C269.226 135.212 268.809 134.36 268.431 132.656C268.303 132.156 268.075 130.878 267.746 128.823C267.441 126.918 266.631 126.029 265.315 126.154C264.758 126.204 263.922 126.704 262.808 127.655C261.997 128.381 261.174 129.107 260.339 129.832L261.136 130.845C261.893 130.321 262.337 130.057 262.463 130.057C263.043 130.057 263.586 130.958 264.093 132.758C264.548 134.408 265.004 136.057 265.458 137.708C266.14 139.507 266.974 140.407 267.96 140.407C269.552 140.407 271.498 138.929 273.798 135.974C276.023 133.144 277.173 130.915 277.249 129.287C277.347 127.109 276.528 125.995 274.79 125.944Z" fill="white"/>
<path d="M183.292 93.7381C202.209 93.7381 217.545 78.5845 217.545 59.8915C217.545 41.1986 202.209 26.0449 183.292 26.0449C164.374 26.0449 149.038 41.1986 149.038 59.8915C149.038 78.5845 164.374 93.7381 183.292 93.7381Z" fill="#00C565"/>
<path opacity="0.5" d="M217.537 59.6402V59.8964C217.537 78.5773 202.202 93.7305 183.297 93.7305C164.375 93.7305 149.04 78.5773 149.04 59.8964C149.04 53.386 150.906 47.2924 154.119 42.1299C153.648 44.3264 153.389 46.6194 153.389 48.9772C153.389 66.9842 168.157 81.5609 186.364 81.5609C200.806 81.56 213.075 72.4039 217.537 59.6402Z" fill="#00C565"/>
<path opacity="0.1" d="M217.537 59.6402V59.8964C217.537 78.5773 202.202 93.7305 183.297 93.7305C164.375 93.7305 149.04 78.5773 149.04 59.8964C149.04 53.386 150.906 47.2924 154.119 42.1299C153.648 44.3264 153.389 46.6194 153.389 48.9772C153.389 66.9842 168.157 81.5609 186.364 81.5609C200.806 81.56 213.075 72.4039 217.537 59.6402Z" fill="black"/>
<path d="M212.114 78.1687C208.521 71.0302 201.067 66.123 192.451 66.123C180.326 66.123 170.498 75.835 170.498 87.8158C170.498 89.0397 170.605 90.2377 170.802 91.4059C174.673 92.9051 178.883 93.7371 183.292 93.7371C195.394 93.7371 206.022 87.5304 212.114 78.1687Z" fill="#00C565"/>
<path opacity="0.1" d="M212.114 78.1687C208.521 71.0302 201.067 66.123 192.451 66.123C180.326 66.123 170.498 75.835 170.498 87.8158C170.498 89.0397 170.605 90.2377 170.802 91.4059C174.673 92.9051 178.883 93.7371 183.292 93.7371C195.394 93.7371 206.022 87.5304 212.114 78.1687Z" fill="black"/>
<path d="M180.609 64.0049H185.573V51.7212H189.037L189.406 47.6078H185.573C185.573 47.6078 185.573 46.0719 185.573 45.2649C185.573 44.2956 185.77 43.9121 186.719 43.9121C187.483 43.9121 189.406 43.9121 189.406 43.9121V39.6431C189.406 39.6431 186.574 39.6431 185.968 39.6431C182.274 39.6431 180.609 41.2505 180.609 44.3281C180.609 47.0088 180.609 47.607 180.609 47.607H178.027V51.7711H180.609V64.0049Z" fill="white"/>
<path d="M169.463 106.966C172.548 87.93 159.431 70.027 140.166 66.979C120.901 63.9309 102.782 76.892 99.6978 95.9283C96.6131 114.965 109.73 132.868 128.995 135.916C148.26 138.964 166.378 126.003 169.463 106.966Z" fill="#00C565"/>
<path opacity="0.7" d="M169.906 101.187V101.451C169.906 120.718 154.089 136.347 134.59 136.347C115.075 136.347 99.2593 120.719 99.2593 101.451C99.2593 94.7372 101.184 88.4522 104.497 83.1274C104.012 85.393 103.745 87.7584 103.745 90.1895C103.745 108.761 118.976 123.795 137.755 123.795C152.65 123.794 165.302 114.351 169.906 101.187Z" fill="#00C565"/>
<path opacity="0.1" d="M169.906 101.187V101.451C169.906 120.718 154.089 136.347 134.59 136.347C115.075 136.347 99.2593 120.719 99.2593 101.451C99.2593 94.7372 101.184 88.4522 104.497 83.1274C104.012 85.393 103.745 87.7584 103.745 90.1895C103.745 108.761 118.976 123.795 137.755 123.795C152.65 123.794 165.302 114.351 169.906 101.187Z" fill="black"/>
<path d="M118.307 113.219C112.755 113.219 107.709 115.347 103.948 118.819C110.045 129.295 121.477 136.355 134.585 136.355C136.167 136.355 137.72 136.242 139.247 136.043C139.312 135.374 139.348 134.696 139.348 134.011C139.348 122.528 129.927 113.219 118.307 113.219Z" fill="#00C565"/>
<path opacity="0.1" d="M118.307 113.219C112.755 113.219 107.709 115.347 103.948 118.819C110.045 129.295 121.477 136.355 134.585 136.355C136.167 136.355 137.72 136.242 139.247 136.043C139.312 135.374 139.348 134.696 139.348 134.011C139.348 122.528 129.927 113.219 118.307 113.219Z" fill="black"/>
<path d="M169.902 101.853C156.301 102.721 145.54 113.891 145.54 127.55C145.54 129.896 145.863 132.167 146.458 134.327C160.005 129.551 169.728 116.838 169.902 101.853Z" fill="#00C565"/>
<path opacity="0.1" d="M169.902 101.853C156.301 102.721 145.54 113.891 145.54 127.55C145.54 129.896 145.863 132.167 146.458 134.327C160.005 129.551 169.728 116.838 169.902 101.853Z" fill="black"/>
<path d="M123.719 105.416C125.692 106.666 128.036 107.395 130.554 107.395C138.832 107.395 143.508 100.486 143.227 94.2895C144.098 93.6689 144.854 92.8934 145.452 92.009C144.652 92.3593 143.792 92.5964 142.891 92.7029C143.811 92.1588 144.518 91.2952 144.851 90.266C143.99 90.771 143.035 91.1379 142.02 91.3359C141.207 90.4798 140.048 89.9448 138.765 89.9448C135.888 89.9448 133.773 92.5981 134.422 95.3545C130.717 95.1706 127.431 93.4168 125.233 90.751C124.065 92.732 124.626 95.322 126.613 96.6333C125.882 96.6108 125.193 96.412 124.593 96.0817C124.545 98.1234 126.025 100.032 128.169 100.457C127.54 100.626 126.853 100.664 126.156 100.532C126.723 102.283 128.369 103.556 130.321 103.592C128.446 105.044 126.085 105.692 123.719 105.416Z" fill="white"/>
<path d="M164.963 183.414C175.791 172.715 175.791 155.369 164.963 144.67C154.136 133.972 136.582 133.972 125.754 144.67C114.927 155.369 114.927 172.715 125.754 183.414C136.582 194.113 154.136 194.113 164.963 183.414Z" fill="#00C565"/>
<path opacity="0.3" d="M149.242 136.919C149.09 138.059 149.003 139.219 149.003 140.401C149.003 148.725 152.911 156.144 159.008 160.976C156.438 164.076 154.894 168.039 154.894 172.359C154.894 177.966 157.493 182.971 161.563 186.268C168.541 181.293 173.087 173.195 173.087 164.043C173.087 150.214 162.716 138.785 149.242 136.919Z" fill="#00C565"/>
<path opacity="0.1" d="M149.242 136.919C149.09 138.059 149.003 139.219 149.003 140.401C149.003 148.725 152.911 156.144 159.008 160.976C156.438 164.076 154.894 168.039 154.894 172.359C154.894 177.966 157.493 182.971 161.563 186.268C168.541 181.293 173.087 173.195 173.087 164.043C173.087 150.214 162.716 138.785 149.242 136.919Z" fill="black"/>
<path d="M173.081 163.838V164.046C173.081 179.167 160.668 191.433 145.366 191.433C130.05 191.433 117.637 179.167 117.637 164.046C117.637 158.777 119.147 153.844 121.748 149.665C121.368 151.443 121.157 153.299 121.157 155.207C121.157 169.783 133.11 181.581 147.848 181.581C159.538 181.582 169.469 174.17 173.081 163.838Z" fill="#00C565"/>
<path d="M173.081 163.838V164.046C173.081 179.167 160.668 191.433 145.366 191.433C130.05 191.433 117.637 179.167 117.637 164.046C117.637 158.777 119.147 153.844 121.748 149.665C121.368 151.443 121.157 153.299 121.157 155.207C121.157 169.783 133.11 181.581 147.848 181.581C159.538 181.582 169.469 174.17 173.081 163.838Z" fill="#00C565"/>
<g opacity="0.1">
<path d="M173.081 163.838V164.046C173.081 179.167 160.668 191.433 145.366 191.433C130.05 191.433 117.637 179.167 117.637 164.046C117.637 158.777 119.147 153.844 121.748 149.665C121.368 151.443 121.157 153.299 121.157 155.207C121.157 169.783 133.11 181.581 147.848 181.581C159.538 181.582 169.469 174.17 173.081 163.838Z" fill="black"/>
<path d="M173.081 163.838V164.046C173.081 179.167 160.668 191.433 145.366 191.433C130.05 191.433 117.637 179.167 117.637 164.046C117.637 158.777 119.147 153.844 121.748 149.665C121.368 151.443 121.157 153.299 121.157 155.207C121.157 169.783 133.11 181.581 147.848 181.581C159.538 181.582 169.469 174.17 173.081 163.838Z" fill="black"/>
</g>
<path d="M140.257 168.721C140.812 168.607 141.294 168.396 141.703 168.086C142.064 167.818 142.367 167.486 142.609 167.092C142.988 166.496 143.178 165.826 143.178 165.076C143.178 164.351 143.011 163.732 142.68 163.224C142.348 162.716 141.855 162.343 141.203 162.108C141.632 161.891 141.957 161.652 142.178 161.389C142.573 160.92 142.771 160.3 142.771 159.528C142.771 158.779 142.575 158.136 142.184 157.598C141.534 156.724 140.428 156.275 138.869 156.252H132.685V168.893H138.45C139.098 168.893 139.702 168.836 140.257 168.721ZM135.236 158.448H138.02C138.633 158.448 139.136 158.513 139.532 158.646C139.991 158.834 140.22 159.223 140.22 159.811C140.22 160.343 140.047 160.713 139.7 160.922C139.354 161.131 138.902 161.235 138.347 161.235H135.237V158.448H135.236ZM135.236 166.698V163.328H138.385C138.936 163.334 139.36 163.405 139.664 163.542C140.207 163.787 140.479 164.239 140.479 164.896C140.479 165.674 140.199 166.2 139.638 166.475C139.33 166.624 138.897 166.697 138.343 166.697H135.236V166.698Z" fill="white"/>
<path d="M145.344 168.061C146.307 168.828 147.417 169.211 148.676 169.211C150.202 169.211 151.388 168.757 152.235 167.848C152.781 167.275 153.087 166.712 153.153 166.159H150.627C150.481 166.432 150.311 166.647 150.118 166.801C149.765 167.087 149.308 167.23 148.744 167.23C148.213 167.23 147.758 167.113 147.381 166.878C146.76 166.501 146.43 165.843 146.392 164.906H153.282C153.294 164.099 153.267 163.48 153.2 163.051C153.086 162.318 152.834 161.673 152.447 161.119C152.018 160.489 151.472 160.028 150.812 159.736C150.152 159.444 149.411 159.299 148.587 159.299C147.201 159.299 146.074 159.731 145.205 160.595C144.336 161.459 143.901 162.7 143.901 164.32C143.901 166.046 144.382 167.294 145.344 168.061ZM147.111 161.846C147.461 161.491 147.953 161.313 148.587 161.313C149.171 161.313 149.661 161.481 150.055 161.816C150.449 162.153 150.668 162.645 150.714 163.293H146.452C146.543 162.684 146.762 162.203 147.111 161.846Z" fill="white"/>
<path d="M151.206 156.979H145.646V158.254H151.206V156.979Z" fill="white"/>
<path d="M222.008 150.965C237.652 150.965 250.334 138.433 250.334 122.975C250.334 107.517 237.652 94.9861 222.008 94.9861C206.365 94.9861 193.683 107.517 193.683 122.975C193.683 138.433 206.365 150.965 222.008 150.965Z" fill="#00C565"/>
<path opacity="0.2" d="M250.327 122.767V122.98C250.327 138.428 237.646 150.959 222.012 150.959C206.365 150.959 193.683 138.428 193.683 122.98C193.683 117.596 195.226 112.557 197.883 108.287C197.494 110.104 197.279 112.001 197.279 113.95C197.279 128.841 209.491 140.895 224.548 140.895C236.492 140.894 246.637 133.322 250.327 122.767Z" fill="black"/>
<path d="M197.665 108.665C195.138 112.852 193.683 117.744 193.683 122.974C193.683 131.902 197.918 139.847 204.506 144.972C207.516 140.773 209.291 135.647 209.291 130.108C209.291 121.161 204.673 113.282 197.665 108.665Z" fill="#00C565"/>
<path opacity="0.1" d="M197.665 108.665C195.138 112.852 193.683 117.744 193.683 122.974C193.683 131.902 197.918 139.847 204.506 144.972C207.516 140.773 209.291 135.647 209.291 130.108C209.291 121.161 204.673 113.282 197.665 108.665Z" fill="#00C565"/>
<g opacity="0.1">
<path d="M197.665 108.665C195.138 112.852 193.683 117.744 193.683 122.974C193.683 131.902 197.918 139.847 204.506 144.972C207.516 140.773 209.291 135.647 209.291 130.108C209.291 121.161 204.673 113.282 197.665 108.665Z" fill="black"/>
<path opacity="0.1" d="M197.665 108.665C195.138 112.852 193.683 117.744 193.683 122.974C193.683 131.902 197.918 139.847 204.506 144.972C207.516 140.773 209.291 135.647 209.291 130.108C209.291 121.161 204.673 113.282 197.665 108.665Z" fill="black"/>
</g>
<path d="M218.753 122.224C219.071 122.353 219.356 122.229 219.449 121.881C219.513 121.64 219.665 121.031 219.733 120.777C219.827 120.432 219.79 120.311 219.532 120.012C218.972 119.359 218.615 118.512 218.615 117.314C218.615 113.84 221.245 110.731 225.464 110.731C229.2 110.731 231.253 112.986 231.253 116C231.253 119.963 229.478 123.309 226.843 123.309C225.387 123.309 224.298 122.12 224.647 120.661C225.066 118.92 225.875 117.04 225.875 115.783C225.875 114.657 225.264 113.718 223.999 113.718C222.511 113.718 221.316 115.239 221.316 117.277C221.316 118.574 221.76 119.453 221.76 119.453C221.76 119.453 220.238 125.827 219.971 126.944C219.439 129.167 219.89 131.893 219.929 132.168C219.952 132.332 220.164 132.37 220.26 132.247C220.397 132.07 222.17 129.907 222.771 127.748C222.942 127.136 223.75 123.969 223.75 123.969C224.233 124.88 225.646 125.683 227.148 125.683C231.621 125.683 234.656 121.654 234.656 116.261C234.656 112.183 231.16 108.385 225.848 108.385C219.238 108.385 215.905 113.068 215.905 116.973C215.904 119.337 216.81 121.441 218.753 122.224Z" fill="white"/>
<path d="M251.448 184.954C260.991 175.523 260.991 160.234 251.448 150.804C241.904 141.373 226.431 141.373 216.887 150.804C207.343 160.234 207.343 175.523 216.887 184.954C226.431 194.384 241.904 194.384 251.448 184.954Z" fill="#00C565"/>
<path d="M258.603 167.699V167.882C258.603 181.21 247.663 192.021 234.175 192.021C220.675 192.021 209.734 181.21 209.734 167.882C209.734 163.237 211.065 158.89 213.358 155.206C213.023 156.774 212.837 158.41 212.837 160.091C212.837 172.939 223.372 183.338 236.363 183.338C246.666 183.338 255.42 176.805 258.603 167.699Z" fill="#00C565"/>
<path opacity="0.2" d="M258.603 167.699V167.882C258.603 181.21 247.663 192.021 234.175 192.021C220.675 192.021 209.734 181.21 209.734 167.882C209.734 163.237 211.065 158.89 213.358 155.206C213.023 156.774 212.837 158.41 212.837 160.091C212.837 172.939 223.372 183.338 236.363 183.338C246.666 183.338 255.42 176.805 258.603 167.699Z" fill="black"/>
<path d="M209.733 167.878C209.733 172.923 211.3 177.604 213.977 181.477C222.413 179.044 228.585 171.362 228.585 162.239C228.585 156.216 225.889 150.824 221.635 147.149C214.507 151.367 209.733 159.07 209.733 167.878Z" fill="#00C565"/>
<path opacity="0.1" d="M209.733 167.878C209.733 172.923 211.3 177.604 213.977 181.477C222.413 179.044 228.585 171.362 228.585 162.239C228.585 156.216 225.889 150.824 221.635 147.149C214.507 151.367 209.733 159.07 209.733 167.878Z" fill="black"/>
<path d="M235.773 162.601H232.479V173.115H235.773V162.601Z" fill="white"/>
<path d="M234.111 161.225C235.187 161.225 236.058 160.355 236.058 159.285C236.058 158.213 235.187 157.344 234.111 157.344C233.034 157.344 232.163 158.213 232.163 159.285C232.163 160.355 233.034 161.225 234.111 161.225Z" fill="white"/>
<path d="M241.039 167.596C241.039 166.119 241.727 165.238 243.045 165.238C244.256 165.238 244.838 166.083 244.838 167.596C244.838 169.111 244.838 173.115 244.838 173.115H248.116C248.116 173.115 248.116 169.275 248.116 166.458C248.116 163.642 246.5 162.281 244.244 162.281C241.987 162.281 241.038 164.018 241.038 164.018V162.602H237.879V173.116H241.038C241.038 173.116 241.039 169.215 241.039 167.596Z" fill="white"/>
<path d="M206.266 178.405C216.766 178.405 225.279 169.993 225.279 159.617C225.279 149.241 216.766 140.83 206.266 140.83C195.765 140.83 187.252 149.241 187.252 159.617C187.252 169.993 195.765 178.405 206.266 178.405Z" fill="#00C565"/>
<path d="M225.275 159.478V159.62C225.275 169.989 216.762 178.401 206.268 178.401C195.765 178.401 187.253 169.989 187.253 159.62C187.253 156.007 188.289 152.624 190.072 149.759C189.811 150.978 189.667 152.25 189.667 153.559C189.667 163.555 197.864 171.645 207.971 171.645C215.988 171.646 222.797 166.563 225.275 159.478Z" fill="#00C565"/>
<path opacity="0.2" d="M225.275 159.478V159.62C225.275 169.989 216.762 178.401 206.268 178.401C195.765 178.401 187.253 169.989 187.253 159.62C187.253 156.007 188.289 152.624 190.072 149.759C189.811 150.978 189.667 152.25 189.667 153.559C189.667 163.555 197.864 171.645 207.971 171.645C215.988 171.646 222.797 166.563 225.275 159.478Z" fill="black"/>
<path d="M197.126 153.284L201.694 156.161L206.263 153.284L201.694 150.408L197.126 153.284Z" fill="white"/>
<path d="M206.257 153.284L210.826 156.161L215.395 153.284L210.826 150.408L206.257 153.284Z" fill="white"/>
<path d="M197.126 158.996L201.694 161.872L206.264 158.996L201.694 156.12L197.126 158.996Z" fill="white"/>
<path d="M210.826 156.12L206.257 158.996L210.826 161.872L215.395 158.996L210.826 156.12Z" fill="white"/>
<path d="M201.725 162.826L206.293 165.702L210.863 162.826L206.293 159.949L201.725 162.826Z" fill="white"/>
<path d="M195.612 149.925C205.792 139.866 205.792 123.557 195.612 113.498C185.432 103.439 168.927 103.439 158.747 113.498C148.567 123.557 148.567 139.866 158.747 149.925C168.927 159.984 185.432 159.984 195.612 149.925Z" fill="#00C565"/>
<path opacity="0.7" d="M203.244 131.52V131.716C203.244 145.932 191.574 157.464 177.185 157.464C162.786 157.464 151.115 145.933 151.115 131.716C151.115 126.761 152.536 122.124 154.981 118.195C154.623 119.866 154.425 121.612 154.425 123.406C154.425 137.11 165.664 148.203 179.52 148.203C190.511 148.202 199.848 141.235 203.244 131.52Z" fill="#00C565"/>
<g opacity="0.1">
<path opacity="0.7" d="M203.244 131.52V131.716C203.244 145.932 191.574 157.464 177.185 157.464C162.786 157.464 151.115 145.933 151.115 131.716C151.115 126.761 152.536 122.124 154.981 118.195C154.623 119.866 154.425 121.612 154.425 123.406C154.425 137.11 165.664 148.203 179.52 148.203C190.511 148.202 199.848 141.235 203.244 131.52Z" fill="black"/>
</g>
<path d="M177.769 118.562C171.184 118.562 165.845 123.837 165.845 130.344C165.845 136.852 171.184 142.126 177.769 142.126C184.354 142.126 189.692 136.852 189.692 130.344C189.692 123.837 184.354 118.562 177.769 118.562ZM183.254 135.587C183.015 135.94 182.598 136.058 182.24 135.822C179.438 134.114 175.921 133.761 171.748 134.703C171.33 134.821 170.973 134.527 170.854 134.173C170.734 133.761 171.032 133.407 171.39 133.29C175.921 132.288 179.855 132.701 182.956 134.585C183.373 134.762 183.433 135.233 183.254 135.587ZM184.684 132.346C184.386 132.759 183.85 132.935 183.432 132.641C180.213 130.696 175.325 130.107 171.568 131.285C171.091 131.403 170.555 131.167 170.436 130.696C170.317 130.225 170.555 129.695 171.032 129.577C175.384 128.281 180.75 128.929 184.446 131.168C184.804 131.345 184.983 131.934 184.684 132.346ZM184.804 129.047C180.989 126.809 174.61 126.573 170.973 127.692C170.377 127.869 169.781 127.516 169.601 126.986C169.422 126.397 169.78 125.808 170.317 125.63C174.55 124.393 181.525 124.629 185.936 127.221C186.473 127.516 186.652 128.223 186.354 128.753C186.056 129.166 185.34 129.343 184.804 129.047Z" fill="white"/>
<path d="M176.451 191.941C186.266 191.941 194.223 184.078 194.223 174.379C194.223 164.68 186.266 156.817 176.451 156.817C166.635 156.817 158.678 164.68 158.678 174.379C158.678 184.078 166.635 191.941 176.451 191.941Z" fill="#00C565"/>
<path d="M194.219 174.248V174.381C194.219 184.074 186.262 191.936 176.453 191.936C166.635 191.936 158.678 184.074 158.678 174.381C158.678 171.003 159.647 167.842 161.314 165.163C161.07 166.302 160.935 167.492 160.935 168.715C160.935 178.059 168.597 185.621 178.044 185.621C185.538 185.621 191.904 180.871 194.219 174.248Z" fill="#00C565"/>
<path opacity="0.2" d="M194.219 174.248V174.381C194.219 184.074 186.262 191.936 176.453 191.936C166.635 191.936 158.678 184.074 158.678 174.381C158.678 171.003 159.647 167.842 161.314 165.163C161.07 166.302 160.935 167.492 160.935 168.715C160.935 178.059 168.597 185.621 178.044 185.621C185.538 185.621 191.904 180.871 194.219 174.248Z" fill="#00C565"/>
<g opacity="0.1">
<path d="M194.219 174.248V174.381C194.219 184.074 186.262 191.936 176.453 191.936C166.635 191.936 158.678 184.074 158.678 174.381C158.678 171.003 159.647 167.842 161.314 165.163C161.07 166.302 160.935 167.492 160.935 168.715C160.935 178.059 168.597 185.621 178.044 185.621C185.538 185.621 191.904 180.871 194.219 174.248Z" fill="black"/>
<path opacity="0.2" d="M194.219 174.248V174.381C194.219 184.074 186.262 191.936 176.453 191.936C166.635 191.936 158.678 184.074 158.678 174.381C158.678 171.003 159.647 167.842 161.314 165.163C161.07 166.302 160.935 167.492 160.935 168.715C160.935 178.059 168.597 185.621 178.044 185.621C185.538 185.621 191.904 180.871 194.219 174.248Z" fill="black"/>
</g>
<path d="M169.29 173.041C169.29 177.396 172.863 180.928 177.27 180.928C177.782 180.928 178.282 180.879 178.766 180.787C179.468 181.206 180.291 181.448 181.171 181.448C183.744 181.447 185.828 179.386 185.828 176.844C185.828 175.953 185.571 175.122 185.128 174.416C185.207 173.97 185.251 173.509 185.251 173.041C185.251 168.686 181.677 165.155 177.27 165.155C176.768 165.155 176.277 165.202 175.799 165.29C175.095 164.866 174.266 164.622 173.381 164.622C170.809 164.622 168.723 166.683 168.723 169.225C168.723 170.111 168.978 170.938 169.416 171.64C169.335 172.095 169.29 172.563 169.29 173.041ZM177.356 167.438C179.93 167.587 181.437 168.706 181.584 169.751C181.656 170.434 181.197 170.965 180.399 170.965C179.235 170.965 179.116 169.432 177.111 169.432C176.207 169.432 175.444 169.804 175.444 170.609C175.444 172.293 181.868 171.316 181.868 175.023C181.868 177.16 180.137 178.561 177.552 178.561C175.279 178.561 172.994 177.542 173.006 175.789C173.009 175.26 173.409 174.775 173.94 174.775C175.279 174.775 175.266 176.74 177.398 176.74C178.893 176.74 179.404 175.934 179.404 175.372C179.404 173.344 172.942 174.588 172.942 170.772C172.942 168.706 174.659 167.282 177.356 167.438Z" fill="white"/>
<path d="M135.37 141.294C138.012 130.112 130.979 118.932 119.663 116.322C108.347 113.712 97.0327 120.661 94.3913 131.842C91.75 143.024 98.7822 154.204 110.098 156.814C121.414 159.424 132.729 152.476 135.37 141.294Z" fill="#00C565"/>
<path opacity="0.5" d="M135.922 136.414V136.571C135.922 148.047 126.502 157.355 114.888 157.355C103.265 157.355 93.8451 148.047 93.8451 136.571C93.8451 132.572 94.9911 128.829 96.9656 125.657C96.6767 127.006 96.5168 128.415 96.5168 129.863C96.5168 140.924 105.588 149.878 116.773 149.878C125.645 149.879 133.181 144.255 135.922 136.414Z" fill="#00C565"/>
<path opacity="0.1" d="M135.922 136.414V136.571C135.922 148.047 126.502 157.355 114.888 157.355C103.265 157.355 93.8451 148.047 93.8451 136.571C93.8451 132.572 94.9911 128.829 96.9656 125.657C96.6767 127.006 96.5168 128.415 96.5168 129.863C96.5168 140.924 105.588 149.878 116.773 149.878C125.645 149.879 133.181 144.255 135.922 136.414Z" fill="black"/>
<path fill-rule="evenodd" clip-rule="evenodd" d="M122.935 137.991V137.987C122.93 137.983 122.927 137.983 122.919 137.976C122.919 137.976 122.919 137.976 122.916 137.976C122.72 137.852 122.52 137.834 122.395 137.789C122.395 137.789 122.387 137.789 122.387 137.786C121.534 137.521 120.798 136.947 120.248 136.246C119.942 135.854 119.685 135.433 119.516 134.982C119.516 134.978 119.516 134.978 119.516 134.975C119.448 134.781 119.445 134.564 119.542 134.434C119.542 134.434 119.546 134.434 119.546 134.43C119.701 134.214 119.983 134.076 120.281 133.968C120.286 133.968 120.286 133.968 120.286 133.968C120.622 133.852 120.984 133.722 121.282 133.46C121.285 133.46 121.285 133.456 121.285 133.456C121.334 133.415 121.391 133.36 121.433 133.274C121.44 133.255 121.451 133.233 121.455 133.207C121.478 133.128 121.478 133.031 121.437 132.949C121.437 132.945 121.437 132.945 121.437 132.945C121.35 132.774 121.203 132.681 121.09 132.617H121.086C120.901 132.509 120.682 132.502 120.489 132.565H120.485C120.281 132.625 120.111 132.699 119.957 132.718C119.957 132.718 119.95 132.718 119.946 132.722C119.727 132.76 119.512 132.767 119.345 132.707C119.342 132.685 119.342 132.637 119.334 132.577H119.338C119.322 132.219 119.357 131.85 119.36 131.465C119.36 131.465 119.36 131.465 119.36 131.461C119.38 130.879 119.402 130.283 119.315 129.679C119.315 129.675 119.315 129.671 119.315 129.671C119.122 128.654 118.462 127.777 117.624 127.195C117.017 126.77 116.292 126.536 115.556 126.468C115.304 126.446 115.058 126.438 114.813 126.438C113.82 126.446 112.79 126.703 111.986 127.326C111.382 127.792 110.907 128.411 110.609 129.101V129.105C110.321 129.813 110.348 130.57 110.386 131.271C110.409 131.764 110.465 132.241 110.42 132.696C110.416 132.711 110.416 132.718 110.412 132.726C110.19 132.766 109.944 132.751 109.703 132.707H109.699C109.533 132.682 109.356 132.614 109.156 132.558C109.156 132.558 109.149 132.558 109.145 132.555C108.952 132.514 108.76 132.567 108.617 132.674C108.617 132.674 108.61 132.674 108.61 132.678C108.605 132.682 108.602 132.682 108.602 132.686C108.481 132.761 108.319 132.89 108.312 133.114C108.308 133.129 108.312 133.14 108.312 133.155L108.316 133.158C108.339 133.289 108.421 133.385 108.497 133.449C108.573 133.513 108.64 133.554 108.682 133.588C108.682 133.588 108.69 133.591 108.693 133.595C109.055 133.834 109.455 133.938 109.806 134.073C110.048 134.178 110.255 134.337 110.305 134.543C110.365 134.8 110.252 135.099 110.108 135.386V135.39C109.716 136.15 109.135 136.814 108.418 137.302C108.04 137.556 107.618 137.746 107.177 137.862C107.177 137.862 107.165 137.866 107.157 137.869C107.067 137.902 106.852 137.922 106.716 138.123C106.708 138.138 106.701 138.153 106.693 138.171C106.648 138.298 106.701 138.436 106.765 138.514C106.825 138.585 106.894 138.63 106.953 138.659L106.965 138.664C107.335 138.876 107.742 138.966 108.112 139.059C108.116 139.059 108.116 139.062 108.116 139.062C108.384 139.118 108.633 139.152 108.834 139.238C108.841 139.253 108.864 139.32 108.909 139.432C108.978 139.633 109.008 139.868 109.083 140.118C109.106 140.185 109.166 140.241 109.238 140.256C109.408 140.294 109.498 140.237 109.513 140.234C109.521 140.234 109.528 140.234 109.536 140.234C110.155 140.125 110.777 140.032 111.347 140.17C111.943 140.327 112.464 140.734 113.049 141.08V141.084C113.438 141.323 113.887 141.557 114.407 141.576H114.411C114.803 141.598 115.185 141.572 115.562 141.55C115.562 141.55 115.566 141.55 115.57 141.55C115.89 141.52 116.2 141.412 116.476 141.244C116.48 141.24 116.483 141.236 116.487 141.236C117.103 140.889 117.646 140.476 118.246 140.214H118.251C118.443 140.147 118.688 140.151 118.956 140.133H118.964C119.462 140.118 119.956 140.144 120.451 140.208C120.466 140.212 120.484 140.212 120.5 140.208C120.568 140.2 120.635 140.155 120.67 140.115C120.708 140.074 120.715 140.036 120.723 140.011C120.738 139.962 120.749 139.94 120.727 139.981C120.734 139.966 120.742 139.954 120.745 139.94C120.836 139.645 120.885 139.381 121.033 139.217C121.097 139.154 121.21 139.124 121.338 139.124C121.338 139.124 121.357 139.124 121.364 139.124C121.795 139.075 122.179 138.922 122.546 138.795C122.55 138.792 122.557 138.792 122.561 138.792C122.696 138.732 122.901 138.665 123.04 138.475C123.04 138.475 123.04 138.475 123.04 138.471C123.153 138.308 123.096 138.088 122.935 137.991Z" fill="white"/>
<path d="M211.856 100.952C215.057 89.3963 208.172 77.4649 196.477 74.302C184.783 71.1391 172.709 77.9425 169.508 89.4978C166.307 101.053 173.192 112.984 184.886 116.147C196.58 119.31 208.655 112.507 211.856 100.952Z" fill="#00C565"/>
<path opacity="0.5" d="M212.628 95.0541V95.2189C212.628 107.192 202.799 116.904 190.682 116.904C178.554 116.904 168.726 107.192 168.726 95.2189C168.726 91.0464 169.922 87.141 171.981 83.8313C171.68 85.239 171.513 86.7092 171.513 88.2201C171.513 99.7616 180.978 109.104 192.648 109.104C201.905 109.103 209.767 103.235 212.628 95.0541Z" fill="#00C565"/>
<path opacity="0.1" d="M212.628 95.0541V95.2189C212.628 107.192 202.799 116.904 190.682 116.904C178.554 116.904 168.726 107.192 168.726 95.2189C168.726 91.0464 169.922 87.141 171.981 83.8313C171.68 85.239 171.513 86.7092 171.513 88.2201C171.513 99.7616 180.978 109.104 192.648 109.104C201.905 109.103 209.767 103.235 212.628 95.0541Z" fill="#00C565"/>
<g opacity="0.1">
<path opacity="0.5" d="M212.628 95.0541V95.2189C212.628 107.192 202.799 116.904 190.682 116.904C178.554 116.904 168.726 107.192 168.726 95.2189C168.726 91.0464 169.922 87.141 171.981 83.8313C171.68 85.239 171.513 86.7092 171.513 88.2201C171.513 99.7616 180.978 109.104 192.648 109.104C201.905 109.103 209.767 103.235 212.628 95.0541Z" fill="black"/>
<path opacity="0.1" d="M212.628 95.0541V95.2189C212.628 107.192 202.799 116.904 190.682 116.904C178.554 116.904 168.726 107.192 168.726 95.2189C168.726 91.0464 169.922 87.141 171.981 83.8313C171.68 85.239 171.513 86.7092 171.513 88.2201C171.513 99.7616 180.978 109.104 192.648 109.104C201.905 109.103 209.767 103.235 212.628 95.0541Z" fill="black"/>
</g>
<path fill-rule="evenodd" clip-rule="evenodd" d="M198.566 92.6508C198.465 88.6572 195.134 85.4507 191.036 85.4507C186.987 85.4507 183.686 88.584 183.51 92.5152C183.506 92.6234 183.503 92.7315 183.503 92.8388C183.503 94.2366 183.898 95.5403 184.583 96.6552L183.224 100.618L187.397 99.3076C188.477 99.8934 189.718 100.228 191.037 100.228C195.199 100.228 198.572 96.9206 198.572 92.8388C198.571 92.7764 198.571 92.714 198.566 92.6508ZM191.036 99.0497C189.749 99.0497 188.553 98.6737 187.551 98.0214L185.118 98.7885L185.908 96.4813C185.149 95.4563 184.701 94.1983 184.701 92.8397C184.701 92.6375 184.712 92.4353 184.733 92.2365C185.044 89.0923 187.753 86.6288 191.036 86.6288C194.362 86.6288 197.096 89.1556 197.35 92.3546C197.364 92.5152 197.371 92.6749 197.371 92.8388C197.371 96.265 194.528 99.0497 191.036 99.0497Z" fill="white"/>
<path fill-rule="evenodd" clip-rule="evenodd" d="M194.489 94.3305C194.302 94.2398 193.396 93.8005 193.226 93.7414C193.057 93.679 192.933 93.6507 192.81 93.8321C192.687 94.0135 192.33 94.4212 192.224 94.5393C192.115 94.6616 192.01 94.6749 191.823 94.5842C191.639 94.4936 191.043 94.3055 190.337 93.6848C189.791 93.2073 189.417 92.6149 189.311 92.4335C189.205 92.2521 189.301 92.1548 189.392 92.0641C189.476 91.9809 189.575 91.8511 189.671 91.7471C189.696 91.7155 189.716 91.688 189.738 91.6598C189.78 91.5932 189.812 91.5308 189.854 91.4434C189.918 91.322 189.886 91.2171 189.84 91.1264C189.793 91.0358 189.424 90.1439 189.268 89.7811C189.117 89.4192 188.962 89.4816 188.852 89.4816C188.746 89.4816 188.623 89.4641 188.499 89.4641C188.376 89.4641 188.175 89.509 188.006 89.6904C187.837 89.8718 187.36 90.3111 187.36 91.203C187.36 91.4118 187.399 91.6215 187.455 91.8203C187.642 92.4576 188.045 92.9843 188.115 93.075C188.206 93.1931 189.391 95.0826 191.268 95.8106C193.148 96.5319 193.148 96.2915 193.487 96.2599C193.825 96.2316 194.58 95.8239 194.732 95.3988C194.887 94.9769 194.887 94.6142 194.841 94.5376C194.796 94.4669 194.672 94.4212 194.489 94.3305Z" fill="white"/>
<path d="M299.859 240.531C300.245 241.49 302.659 246.535 305.877 244.125C309.757 241.218 314.634 228.05 314.634 228.05L311.052 226.41L304.178 237.426L299.859 240.531Z" fill="#F28F8F"/>
<path d="M300.085 219.295C301.8 224.986 305.258 237.665 305.258 237.665C305.258 237.665 303.828 245.398 301.311 242.74C300.453 241.834 300.016 241.005 299.129 238.843C298.332 236.899 295.965 228.961 295.965 228.961C295.965 228.961 296.477 217.55 294.673 216.043C292.869 214.536 291.362 214.083 291.362 214.083C294.235 214.305 298.515 214.082 300.085 219.295Z" fill="#F28F8F"/>
<path d="M291.331 214.056C291.331 214.056 293.985 213.901 295.664 214.293C297.343 214.686 299.169 216.238 299.989 218.997C300.809 221.756 304.327 234.28 304.327 234.28C304.327 234.28 302.901 236.764 297.492 236.829L291.331 214.056Z" fill="#455A64"/>
<path d="M291.331 214.056C291.331 214.056 293.985 213.901 295.664 214.293C297.343 214.686 299.169 216.238 299.989 218.997C300.809 221.756 304.327 234.28 304.327 234.28C304.327 234.28 302.901 236.764 297.492 236.829L291.331 214.056Z" fill="black" fill-opacity="0.2"/>
<path d="M308.158 220.114C309.11 218.363 309.346 218.287 309.912 217.902C310.477 217.518 313.95 217.006 315.39 216.887C317.086 216.745 317.687 217.053 317.216 218.494C316.207 221.577 313.148 228.123 312.463 229.026C312.013 229.618 311.921 230.169 310.016 230.353C308.235 230.524 306.003 230.62 305.345 230.66C304.688 230.699 303.779 230.86 304.368 228.949C304.956 227.038 306.347 223.935 306.97 222.6C307.705 221.027 308.158 220.114 308.158 220.114Z" fill="#263238"/>
<path d="M314.634 228.049C315.346 224.956 317.425 222.1 316.251 221.053L315.619 222.422C315.619 222.422 311.723 223.345 309.842 223.203C307.96 223.061 306.421 222.62 305.906 222.978C304.814 223.739 304.501 226.979 307.629 228.156C310.288 229.156 314.634 228.049 314.634 228.049Z" fill="#F28F8F"/>
<path d="M289.336 210.108H286.048C279.903 210.108 274.922 205.186 274.922 199.115C274.922 192.146 280.639 186.497 287.692 186.497C294.745 186.497 300.462 192.146 300.462 199.115C300.461 205.186 295.48 210.108 289.336 210.108Z" fill="#263238"/>
<path d="M268.797 216.856C273.112 216.856 276.609 213.4 276.609 209.137V194.499C272.294 194.499 268.797 197.955 268.797 202.218V216.856Z" fill="#263238"/>
<path d="M289.657 325.786C289.628 326.322 289.685 326.72 290.105 327.532C290.613 328.514 291.97 330.194 293.023 331.312C294.583 332.968 296.916 334.925 298.587 336.367C299.516 337.169 299.552 338.38 298.222 338.806C296.893 339.232 293.951 339.415 290.906 337.797C289.247 336.916 286.88 332.843 285.498 332.227C283.91 331.519 283.018 331.164 282.482 330.441C281.679 329.361 281.472 328.55 282.158 327.288C282.906 325.912 284.03 323.788 284.494 324.025L284.35 324.464C284.715 325.586 287.812 326.894 289.401 326.582L289.657 325.786Z" fill="#263238"/>
<path d="M291.055 320.367C290.293 322.804 289.774 324.741 289.66 325.806C289.697 326.729 289.697 326.729 290.104 327.533C290.612 328.51 291.971 330.191 293.025 331.315C293.783 332.119 294.727 332.996 295.689 333.846C295.781 333.992 295.827 334.129 295.827 334.248C295.827 335.106 293.71 335.335 292.471 334.978C290.955 334.54 289.67 333.407 288.644 332.073C287.932 331.132 286.323 329.323 285.306 327.971C284.871 327.405 284.539 326.92 284.418 326.61C284.058 325.724 284.16 325.093 284.289 324.664L284.354 324.463C284.902 322.777 285.239 321.034 285.361 319.268" fill="#FFA8A7"/>
<path d="M276.365 327.662C276.63 329.242 276.762 330.84 276.762 332.442V335.983H282.078V329.945C282.106 329.936 282.134 329.926 282.153 329.908C282.153 329.908 282.241 328.72 282.388 326.863" fill="#FFA8A7"/>
<path d="M291.055 320.367C293.989 310.982 300.525 294.19 301.42 291.246C302.372 288.103 301.013 260.625 300.236 251.827L272.758 250.39C270.65 259.307 272.703 271.33 273.424 278.84C274.127 286.149 274.996 294.69 274.996 294.69C274.996 294.69 272.833 302.136 273.406 308.065C273.77 311.798 275.558 322.843 276.365 327.662C278.373 328.229 280.381 327.963 282.388 326.864C282.725 322.63 283.369 314.916 283.974 309.873C284.889 302.3 285.194 296.773 285.98 292.351C286.97 286.833 287.311 265.207 287.311 265.207L290.501 289.737C290.501 289.737 288.818 292.542 287.644 297.028C286.731 300.514 285.752 313.606 285.361 319.268C286.76 320.228 288.675 320.576 291.055 320.367Z" fill="#37474F"/>
<path opacity="0.3" d="M287.312 265.208C287.312 265.208 292.371 263.455 295.252 260.84C295.252 260.84 293.291 264.187 289.319 265.967L289.278 280.328L287.312 265.208Z" fill="#263238"/>
<path d="M283.281 214.316C283.281 214.316 275.76 215.17 274.86 215.57C279.444 220.529 276.621 228.091 276.621 228.091L278.908 239.759C275.901 243.563 273.324 246.551 272.604 251.084C275.826 256.695 293.826 257.646 300.46 253.465C299.882 245.634 297.483 240.048 297.911 237.697C301.073 228.081 301.267 226.347 300.707 224.202C299.128 218.165 292.9 214.082 291.362 214.082L283.281 214.316Z" fill="#455A64"/>
<path d="M261.308 240.52C260.782 239.168 263.019 235.342 264.571 232.786L271.012 235.922L268.798 239.896C269.005 240.817 271.698 247.7 273.443 250.742C273.752 251.281 274.264 251.676 274.857 251.876C276.449 252.411 277.218 253.161 278.52 254C279.54 254.656 280.287 254.705 280.243 254.999C280.186 255.377 279.736 256.073 278.662 256.004C278.121 255.969 277.376 255.73 276.441 255.406C276.441 255.406 277.423 256.956 279.273 258.362C281.779 260.267 282.21 261.695 278.289 262.642C275.833 263.237 273.511 262.192 270.383 257.262C269.482 255.842 268.298 253.756 267.352 251.848C265.115 247.336 262.523 243.642 261.308 240.52Z" fill="#FFA8A7"/>
<path d="M274.86 215.57C272.604 215.819 271.036 218.094 269 221.931C267.219 225.287 262.943 234.086 262.943 234.086C262.943 234.086 265.675 237.91 270.485 238.389L276.621 228.092C276.621 228.092 279.961 219.887 274.86 215.57Z" fill="#455A64"/>
<path d="M282.081 333.395V332.643C282.233 333.788 283.772 337.318 285.881 339.22C287.558 340.73 289.846 342.477 290.427 344.162C291.032 345.914 287.724 346.608 285.556 346.394C283.018 346.143 281.038 344.637 280.099 343.573C278.719 342.009 278.743 340.942 278.1 340.082C277.457 339.221 275.973 338.26 275.625 337.264C275.433 336.717 275.661 335.519 275.929 334.506C276.176 333.578 276.443 332.556 276.764 332.643C276.765 332.757 276.764 333.216 276.764 333.216C277.149 333.638 278.218 334.058 279.422 334.104C280.201 334.133 282.088 333.98 282.081 333.395Z" fill="#263238"/>
<path d="M276.765 333.216C277.151 333.639 278.22 334.058 279.423 334.104C280.201 334.133 282.088 333.981 282.081 333.395V332.644C282.232 333.788 283.772 337.319 285.881 339.22C286.282 339.582 286.719 339.957 287.158 340.342C288.05 341.324 287.796 342.181 285.702 342.359C283.606 342.538 281.763 341.287 280.172 339.359C278.582 337.43 276.765 333.216 276.765 333.216Z" fill="#FFA8A7"/>
<path d="M296.266 191.6C297.615 192.388 299.282 195.74 299.117 202.767C298.978 208.722 297.024 210.194 296.043 210.618C295.062 211.043 293.17 210.784 291.33 210.481V214.055C291.33 214.055 293.872 216.973 293.712 218.612C293.552 220.251 290.042 220.638 287.663 219.037C285.284 217.437 283.28 214.315 283.28 214.315L283.321 206.096C283.321 206.096 282.238 207.136 280.404 205.55C278.888 204.24 278.378 202.033 279.558 200.849C280.739 199.664 282.922 199.987 283.758 201.676C283.758 201.676 284.78 198.87 289.017 197.503C292.848 196.266 294.928 194.843 296.266 191.6Z" fill="#FFA8A7"/>
<path d="M292.388 201.271C292.41 201.7 292.088 202.064 291.67 202.084C291.252 202.104 290.896 201.772 290.874 201.342C290.852 200.913 291.174 200.549 291.591 200.529C292.01 200.509 292.366 200.841 292.388 201.271Z" fill="#263238"/>
<path d="M292.59 206.319L294.35 206.874C294.204 207.372 293.692 207.651 293.205 207.498C292.72 207.345 292.444 206.818 292.59 206.319Z" fill="#F28F8F"/>
<path d="M298.603 198.971L297.069 197.921C297.349 197.489 297.92 197.373 298.343 197.663C298.766 197.953 298.882 198.539 298.603 198.971Z" fill="#263238"/>
<path d="M290.182 199.526L291.716 198.475C291.436 198.043 290.866 197.927 290.442 198.217C290.018 198.507 289.902 199.093 290.182 199.526Z" fill="#263238"/>
<path d="M298.249 200.729C298.271 201.159 297.949 201.522 297.532 201.542C297.114 201.562 296.757 201.229 296.735 200.801C296.713 200.371 297.035 200.008 297.452 199.988C297.87 199.968 298.227 200.3 298.249 200.729Z" fill="#263238"/>
<path d="M294.673 200.301L294.793 204.809L297.195 204.074L294.673 200.301Z" fill="#F28F8F"/>
<path d="M291.331 210.482C289.393 210.231 285.405 209.099 284.783 207.541C284.783 207.541 284.99 208.52 286.182 209.528C287.373 210.538 291.331 211.674 291.331 211.674V210.482Z" fill="#F28F8F"/>
<path d="M277.591 233.037L282.909 242.293L278.908 239.759L277.591 233.037Z" fill="#455A64"/>
<path d="M277.591 233.037L282.909 242.293L278.908 239.759L277.591 233.037Z" fill="black" fill-opacity="0.2"/>
<path d="M88.4134 245.725C87.9663 246.836 85.1667 252.686 81.4358 249.891C76.9353 246.52 71.2821 231.253 71.2821 231.253L75.4348 229.352L83.4044 242.124L88.4134 245.725Z" fill="#F28F8F"/>
<path d="M88.1507 221.102C86.1627 227.701 82.1539 242.401 82.1539 242.401C82.1539 242.401 83.8118 251.368 86.731 248.286C87.7263 247.235 88.2323 246.274 89.2604 243.767C90.1849 241.513 92.929 232.309 92.929 232.309C92.929 232.309 92.3362 219.079 94.4261 217.331C96.5168 215.584 98.2648 215.058 98.2648 215.058C94.9338 215.316 89.9719 215.057 88.1507 221.102Z" fill="#F28F8F"/>
<path d="M78.7903 222.052C77.6864 220.022 77.4136 219.932 76.7577 219.487C76.1017 219.042 72.0753 218.448 70.4056 218.309C68.4395 218.145 67.7424 218.502 68.2888 220.173C69.4584 223.747 73.0049 231.338 73.7997 232.384C74.3209 233.071 74.4278 233.709 76.6364 233.922C78.701 234.121 81.2893 234.232 82.0522 234.278C82.8142 234.323 83.8683 234.51 83.1855 232.295C82.5026 230.08 80.8902 226.482 80.1678 224.934C79.3173 223.111 78.7903 222.052 78.7903 222.052Z" fill="#263238"/>
<path d="M71.2822 231.252C70.4579 227.666 68.0455 224.355 69.4079 223.141L70.1404 224.728C70.1404 224.728 74.6577 225.798 76.8394 225.634C79.021 225.469 80.8052 224.957 81.4022 225.373C82.6685 226.254 83.0314 230.012 79.4049 231.376C76.3215 232.536 71.2822 231.252 71.2822 231.252Z" fill="#F28F8F"/>
<path d="M98.5796 213.882C94.5818 213.923 90.179 215.359 88.6642 218.457C87.1494 221.555 83.7208 235.049 83.7208 235.049C83.7208 235.049 86.7764 238.273 92.3808 237.914L98.5796 213.882Z" fill="#374850"/>
<path d="M115.922 327.941H110.393V335.898H115.922V327.941Z" fill="#FFA8A7"/>
<path d="M96.4781 318.089L90.952 318.277L91.229 326.229L96.7551 326.041L96.4781 318.089Z" fill="#FFA8A7"/>
<path d="M115.56 250.265C115.56 255.483 116.242 289.235 116.242 289.235C116.371 290.737 117.796 293.505 117.488 299.271C117.069 307.104 116.384 328.864 116.384 328.864C116.384 328.864 113.79 331.405 110.13 328.864C110.13 328.864 105.124 299.298 104.133 291.536C103.268 284.761 101.801 266.357 101.801 266.357L96.6777 288.021C96.6777 288.021 97.5795 293.113 97.7773 296.708C97.9752 300.302 96.8385 321.062 96.8385 321.062C96.8385 321.062 94.0279 322.981 90.8216 321.289C90.8216 321.289 86.3792 290.957 85.8091 287.71C85.2391 284.464 89.6975 250.266 89.6975 250.266H115.56V250.265Z" fill="#37474F"/>
<path d="M107.235 214.129C107.26 214.135 107.285 214.141 107.31 214.147C112.18 215.341 115.559 219.729 115.559 224.686V234.096V250.265C111.682 254.434 98.1637 256.376 89.6965 250.265C89.6965 250.265 89.6965 227.887 89.6965 223.631C89.6965 219.374 92.0895 214.262 98.6975 213.882L107.235 214.129Z" fill="#455A64"/>
<path d="M109.097 192.348C109.097 192.348 110.467 192.116 111.536 193.195C112.582 194.253 112.365 196.212 111.534 200.713L108.298 201.08L109.097 192.348Z" fill="#263238"/>
<path d="M90.2272 191.046C90.2272 191.046 88.9196 191.047 88.2022 190.64C87.2086 190.077 86.9493 191.192 87.4941 192.161C88.0388 193.13 89.0551 194.392 91.2494 194.632C91.2789 194.493 92.1781 192.134 92.1781 192.134L90.2272 191.046Z" fill="#263238"/>
<path d="M107.579 201.082C108.06 201.365 108.745 200.453 109.337 199.84C109.93 199.228 111.864 198.391 112.829 200.399C113.812 202.447 111.977 205.152 110.454 205.624C107.83 206.438 107.436 204.775 107.436 204.775L107.235 214.129C107.235 214.129 105.517 218.284 100.864 218.907C96.2112 219.53 97.1694 215.74 98.6976 213.882L98.7052 211.035C98.7052 211.035 96.3274 211.392 95.1671 211.215C93.2372 210.92 92.0231 209.415 91.437 207.351C90.4965 204.035 90.1395 201.358 90.9377 194.837C91.8117 187.69 100.225 187.615 104.768 190.44C109.311 193.267 107.579 201.082 107.579 201.082Z" fill="#FFA8A7"/>
<path d="M107.579 201.881C107.821 201.886 108.739 200.379 109.338 199.841C110.167 199.095 109.098 192.348 109.098 192.348C109.098 192.348 109.936 189.789 108.298 188.091C106.66 186.394 103.486 186.68 101.166 186.598C98.7507 186.512 96.1649 186.367 92.8685 184.953C89.5721 183.538 89.3262 183.37 88.917 184.801C88.5078 186.231 88.3545 189.506 90.3206 191.702L91.9574 192.296C91.9574 192.296 92.8415 193.071 95.9157 193.441C98.9898 193.811 103.778 193.37 104.433 193.281C105.325 193.161 105.515 194.014 105.996 196.346C106.416 198.396 106.767 201.865 107.579 201.881Z" fill="#263238"/>
<path d="M109.092 192.872L111.997 191.332C111.584 190.509 110.6 190.188 109.798 190.613C108.995 191.038 108.68 192.05 109.092 192.872Z" fill="#263238"/>
<path d="M98.7043 211.036C98.7043 211.036 103.013 210.178 104.519 209.387C105.527 208.858 106.357 207.94 106.601 207.351C106.601 207.351 106.319 208.614 105.418 209.752C104.317 211.143 98.7052 212.168 98.7052 212.168L98.7043 211.036Z" fill="#F28F8F"/>
<path d="M99.74 200.017C99.74 200.507 100.126 200.903 100.603 200.902C101.08 200.901 101.466 200.503 101.466 200.013C101.466 199.524 101.08 199.128 100.603 199.129C100.126 199.13 99.74 199.528 99.74 200.017Z" fill="#263238"/>
<path d="M100.655 196.797L102.503 197.805C102.775 197.28 102.582 196.63 102.072 196.352C101.562 196.073 100.928 196.272 100.655 196.797Z" fill="#263238"/>
<path d="M99.095 205.911L97.1239 206.641C97.3192 207.199 97.9179 207.488 98.4627 207.287C99.0066 207.085 99.2895 206.469 99.095 205.911Z" fill="#F28F8F"/>
<path d="M92.0409 197.507L93.7249 196.225C93.3813 195.748 92.7254 195.649 92.2606 196.003C91.7958 196.357 91.6973 197.03 92.0409 197.507Z" fill="#263238"/>
<path d="M92.5594 199.775C92.5594 200.264 92.9459 200.66 93.4225 200.658C93.8991 200.657 94.2856 200.259 94.2856 199.77C94.2856 199.28 93.8991 198.884 93.4225 198.885C92.9459 198.887 92.5594 199.285 92.5594 199.775Z" fill="#263238"/>
<path d="M96.958 198.965L96.6743 204.096L93.9639 203.182L96.958 198.965Z" fill="#F28F8F"/>
<path d="M110.393 333.201V332.42C109.864 332.648 108.635 337.282 106.441 339.26C104.697 340.831 102.317 342.647 101.712 344.4C101.082 346.223 105.025 347.228 106.654 346.943C108.548 346.612 111.829 345.294 112.654 344.074C113.477 342.852 113.863 341.051 114.532 340.156C115.202 339.26 116.745 338.261 117.106 337.225C117.305 336.656 117.069 335.41 116.79 334.357C116.534 333.392 116.256 332.329 115.922 332.42C115.921 332.538 115.922 333.015 115.922 333.015C115.52 333.455 114.409 333.892 113.157 333.939C112.349 333.97 110.386 333.811 110.393 333.201Z" fill="#263238"/>
<path d="M91.1659 324.548C90.8787 324.558 90.6447 324.958 90.0115 325.636C89.2461 326.454 87.994 327.337 86.7588 327.949C84.6884 328.973 80.6628 330.549 78.8407 331.359C77.7023 331.866 77.7562 333.224 78.9324 333.997C80.1087 334.77 82.9496 335.328 86.3597 334.574C88.218 334.163 90.6362 332.468 92.167 332.559C93.6978 332.65 96.5622 332.629 97.6922 331.859C98.8222 331.089 98.37 329.445 98.0509 328.034C97.7023 326.492 97.2038 324.133 96.6868 324.239L96.7037 324.724C96.0385 325.719 92.6545 326.125 91.1937 325.393L91.1659 324.548Z" fill="#263238"/>
<path d="M125.723 246.443C126.067 244.798 122.348 228.505 120.888 223.354L114.434 230.806L118.406 246.887C118.346 247.978 116.578 256.354 115.164 260.16C114.913 260.834 114.403 261.382 113.763 261.721C112.043 262.63 111.307 263.632 109.978 264.834C108.937 265.775 108.092 265.97 108.198 266.298C108.334 266.72 108.982 267.433 110.198 267.153C110.81 267.012 111.616 266.6 112.624 266.054C112.624 266.054 111.797 268.011 109.95 269.964C107.446 272.611 107.227 274.324 111.893 274.677C114.817 274.898 117.274 273.27 119.91 267.047C120.669 265.254 121.626 262.647 122.343 260.288C124.041 254.711 124.929 250.242 125.723 246.443Z" fill="#FFA8A7"/>
<path d="M108.988 214.711C112.274 215.781 118.788 216.331 120.888 223.355C122.987 230.378 124.048 234.939 124.048 234.939C122.812 236.571 117.878 238.462 115.559 237.765L108.988 214.711Z" fill="#455A64"/>
<path d="M115.559 237.765L113.31 229.872L115.559 240.973V237.765Z" fill="#374850"/>
<path opacity="0.4" d="M101.8 266.357C101.8 266.357 97.3807 265.126 94.1002 261.994C94.1002 261.994 95.5855 264.743 100.004 267.302L98.3439 281.272L101.8 266.357Z" fill="#263238"/>
</svg>
