<svg width="90" height="90" viewBox="0 0 90 90" fill="none" xmlns="http://www.w3.org/2000/svg">
<rect width="90" height="90" rx="45" fill="#DC424D" fill-opacity="0.1"/>
<path d="M63.6667 21H26.3334C24.2116 21 22.1768 21.8429 20.6765 23.3431C19.1762 24.8434 18.3334 26.8783 18.3334 29V53C18.3334 55.1217 19.1762 57.1566 20.6765 58.6569C22.1768 60.1571 24.2116 61 26.3334 61H33.9067C34.3073 61.0018 34.7022 61.0939 35.0623 61.2693C35.4224 61.4448 35.7384 61.6991 35.9867 62.0133L40.84 68.0667C41.3398 68.6896 41.973 69.1923 42.693 69.5377C43.4131 69.8832 44.2015 70.0625 45 70.0625C45.7986 70.0625 46.587 69.8832 47.307 69.5377C48.0271 69.1923 48.6603 68.6896 49.16 68.0667L54.0134 62.0133C54.2617 61.6991 54.5777 61.4448 54.9378 61.2693C55.2978 61.0939 55.6928 61.0018 56.0934 61H63.6667C65.7884 61 67.8233 60.1571 69.3236 58.6569C70.8239 57.1566 71.6667 55.1217 71.6667 53V29C71.6667 26.8783 70.8239 24.8434 69.3236 23.3431C67.8233 21.8429 65.7884 21 63.6667 21Z" fill="#DC424D"/>
<path d="M45.0001 45.0002C44.2929 45.0002 43.6146 44.7193 43.1145 44.2192C42.6144 43.7191 42.3334 43.0408 42.3334 42.3335V34.3335C42.3334 33.6263 42.6144 32.948 43.1145 32.4479C43.6146 31.9478 44.2929 31.6669 45.0001 31.6669C45.7073 31.6669 46.3856 31.9478 46.8857 32.4479C47.3858 32.948 47.6668 33.6263 47.6668 34.3335V42.3335C47.6668 43.0408 47.3858 43.7191 46.8857 44.2192C46.3856 44.7193 45.7073 45.0002 45.0001 45.0002Z" fill="white"/>
<path d="M45.0001 52.3332C46.4729 52.3332 47.6668 51.1393 47.6668 49.6665C47.6668 48.1938 46.4729 46.9999 45.0001 46.9999C43.5273 46.9999 42.3334 48.1938 42.3334 49.6665C42.3334 51.1393 43.5273 52.3332 45.0001 52.3332Z" fill="white"/>
</svg>
