<svg width="141" height="191" viewBox="0 0 141 191" fill="none" xmlns="http://www.w3.org/2000/svg">
<path fill-rule="evenodd" clip-rule="evenodd" d="M16.9315 1.76672C-9.56019 12.2142 -1.4111 53.16 27.8885 53.16C35.454 53.16 44.4109 55.334 49.5415 58.2906C59.7158 64.2039 78.1513 83.1612 82.8471 92.6398C85.5429 98.2052 85.9777 99.9444 86.7603 109.684C87.456 118.989 87.9777 121.337 90.2387 125.945C99.8006 145.971 128.884 143.524 137.893 124.467C147.168 104.553 130.854 88.4508 111.718 86.9874C106.326 86.6396 99.9782 85.683 97.7173 84.9873C91.1083 82.9873 83.4558 77.4218 73.3685 67.3345C57.5418 51.4208 54.846 46.3771 53.5416 30.7244C53.1068 25.1589 52.3242 19.1587 51.7155 17.5065C47.2105 3.47174 30.4094 -3.52814 16.9315 1.76672ZM87.0747 28.8112C85.9443 16.7238 93.2489 5.50597 104.988 1.3319C106.728 0.72318 110.554 0.201421 113.511 0.114461C134.555 0.0275016 147.512 22.811 136.381 40.3769C135.077 42.5509 131.163 46.4641 127.772 49.1598C121.337 54.2905 118.38 58.7254 116.467 66.03C114.989 71.4215 112.641 71.0737 110.728 65.0735C108.554 58.4645 105.51 53.5078 101.771 50.8121C92.2923 43.8553 87.7704 37.2463 87.0747 28.8112ZM113.566 40.1313C120.506 40.1313 126.131 34.5055 126.131 27.5656C126.131 20.6258 120.506 15 113.566 15C106.626 15 101 20.6258 101 27.5656C101 34.5055 106.626 40.1313 113.566 40.1313ZM23.9756 74.2042C22.0624 81.5089 19.1058 85.9438 12.6708 91.0745C5.45311 96.8138 1.88775 101.944 0.496393 108.553C-1.2428 117.336 1.62687 126.293 8.4967 132.989C13.8013 138.207 20.0624 140.381 28.4105 139.946C38.7587 139.337 46.4982 134.12 51.107 124.815C54.1506 118.467 54.0637 108.293 50.8462 102.292C48.4982 97.8573 44.585 93.6833 38.6718 89.4222C34.9325 86.7265 31.8889 81.7698 29.7149 75.0738C27.8018 69.1606 25.4539 68.8127 23.9756 74.2042ZM39.4161 113.566C39.4161 120.506 33.7902 126.131 26.8504 126.131C19.9106 126.131 14.2847 120.506 14.2847 113.566C14.2847 106.626 19.9106 101 26.8504 101C33.7902 101 39.4161 106.626 39.4161 113.566Z" fill="white"/>
<path d="M30.0347 190.68C29.9566 190.68 29.566 190.361 28.8629 189.723C28.1727 189.072 27.2808 188.226 26.1871 187.184C25.0933 186.13 23.8954 184.977 22.5933 183.727C21.2912 182.464 19.9957 181.208 18.7066 179.958C17.4175 178.695 16.2261 177.542 15.1324 176.501C14.0517 175.446 13.1727 174.6 12.4957 173.962C11.8316 173.324 11.48 173.005 11.441 173.005C11.3759 173.005 11.3368 173.057 11.3238 173.161C11.3108 173.252 11.3043 173.317 11.3043 173.356C11.3043 174.541 11.3043 175.726 11.3043 176.911C11.3173 178.083 11.3238 179.261 11.3238 180.446C11.3238 181.436 11.3238 182.425 11.3238 183.415C11.3238 184.391 11.3173 185.381 11.3043 186.384C11.3043 186.8 11.3108 187.256 11.3238 187.751C11.3498 188.246 11.3368 188.701 11.2847 189.118C11.2587 189.378 11.1936 189.574 11.0894 189.704C10.9852 189.834 10.7834 189.899 10.4839 189.899H7.02692C6.49306 189.899 6.22614 189.626 6.22614 189.079C6.22614 188.337 6.23916 187.594 6.2652 186.852C6.30426 186.11 6.3303 185.368 6.34332 184.626C6.36936 183.141 6.3889 181.657 6.40192 180.173C6.41494 178.688 6.42145 177.204 6.42145 175.719C6.42145 174.157 6.41494 172.594 6.40192 171.032C6.3889 169.469 6.36285 167.907 6.32379 166.344C6.31077 165.602 6.28473 164.86 6.24567 164.118C6.21962 163.376 6.2066 162.634 6.2066 161.891C6.2066 161.813 6.24567 161.774 6.32379 161.774C6.40192 161.774 6.46702 161.8 6.5191 161.852C9.61806 164.73 12.6519 167.679 15.6207 170.7C18.5894 173.708 21.5972 176.677 24.6441 179.606C24.6701 179.632 24.7092 179.671 24.7613 179.723C24.8134 179.762 24.8655 179.782 24.9175 179.782C24.9957 179.782 25.0347 179.736 25.0347 179.645C25.0477 179.541 25.0543 179.469 25.0543 179.43C25.0543 178.219 25.0477 177.015 25.0347 175.817C25.0347 174.606 25.0347 173.395 25.0347 172.184C25.0347 171.143 25.0347 170.108 25.0347 169.079C25.0347 168.037 25.0412 167.002 25.0543 165.973C25.0543 165.544 25.0477 165.101 25.0347 164.645C25.0217 164.19 25.0347 163.747 25.0738 163.317C25.0998 163.044 25.1649 162.842 25.2691 162.712C25.3733 162.581 25.5751 162.516 25.8746 162.516H29.2339C29.7678 162.516 30.0347 162.79 30.0347 163.337C30.0347 164.014 30.0217 164.691 29.9957 165.368C29.9696 166.045 29.9501 166.729 29.9371 167.419C29.911 168.838 29.8915 170.27 29.8785 171.716C29.8655 173.148 29.8589 174.58 29.8589 176.012C29.8589 180.882 29.9371 185.752 30.0933 190.622L30.0347 190.68ZM43.0621 190.368C41.161 190.368 39.5009 189.99 38.0816 189.235C36.6754 188.48 35.5816 187.406 34.8004 186.012C34.0191 184.619 33.6285 182.966 33.6285 181.052C33.6285 179.268 33.9996 177.666 34.7418 176.247C35.4839 174.828 36.5321 173.708 37.8863 172.887C39.2405 172.054 40.829 171.637 42.6519 171.637C44.9045 171.637 46.6688 172.269 47.9449 173.532C49.2339 174.795 50.1063 176.475 50.5621 178.571C50.5751 178.61 50.5816 178.675 50.5816 178.766C50.5816 178.962 50.5295 179.111 50.4254 179.216C50.3342 179.307 50.2105 179.385 50.0543 179.45C49.6116 179.658 49.1428 179.841 48.648 179.997C48.1532 180.153 47.6714 180.322 47.2027 180.505C45.8355 181.012 44.4618 181.514 43.0816 182.009C41.7014 182.49 40.3342 183.005 38.98 183.552C38.8759 183.604 38.8238 183.669 38.8238 183.747C38.8238 183.786 38.8368 183.831 38.8629 183.884C39.3837 184.821 40.0998 185.518 41.0113 185.973C41.9227 186.429 42.8993 186.657 43.941 186.657C44.7613 186.657 45.523 186.527 46.2261 186.266C46.9423 186.006 47.6454 185.68 48.3355 185.29C48.4267 185.238 48.5178 185.192 48.6089 185.153C48.7001 185.114 48.7912 185.094 48.8824 185.094C49.0647 185.094 49.2014 185.153 49.2925 185.27C49.3967 185.374 49.4813 185.498 49.5464 185.641C49.5985 185.733 49.6962 185.941 49.8394 186.266C49.9957 186.579 50.1389 186.898 50.2691 187.223C50.4123 187.536 50.4839 187.738 50.4839 187.829C50.4839 187.972 50.4449 188.089 50.3668 188.18C50.2886 188.272 50.1975 188.356 50.0933 188.434C49.1688 189.072 48.0425 189.554 46.7144 189.88C45.3993 190.205 44.1819 190.368 43.0621 190.368ZM38.1597 180.856C39.4748 180.4 40.7899 179.945 42.105 179.489C43.4201 179.033 44.7287 178.578 46.0308 178.122C45.7053 177.406 45.2496 176.781 44.6636 176.247C44.0907 175.713 43.3811 175.446 42.5347 175.446C41.5451 175.446 40.7248 175.713 40.0738 176.247C39.4227 176.781 38.941 177.464 38.6285 178.298C38.316 179.118 38.1597 179.971 38.1597 180.856ZM60.6402 190.27C58.9475 190.27 57.5282 189.867 56.3824 189.059C55.2366 188.252 54.3707 187.184 53.7847 185.856C53.2118 184.515 52.9254 183.063 52.9254 181.501V181.188C52.9514 179.548 53.2899 178.005 53.941 176.559C54.605 175.114 55.5621 173.949 56.8121 173.063C58.0621 172.165 59.5725 171.716 61.3433 171.716C62.4371 171.716 63.4527 171.924 64.3902 172.341C65.3407 172.744 66.2261 173.298 67.0464 174.001C67.1376 174.092 67.2157 174.137 67.2808 174.137C67.4371 174.137 67.5087 173.975 67.4957 173.649C67.4957 173.324 67.5412 172.998 67.6324 172.673C67.7366 172.347 67.997 172.184 68.4136 172.184H71.1675C71.7014 172.184 71.9683 172.451 71.9683 172.985C71.9683 173.545 71.9618 174.105 71.9488 174.665C71.9488 175.225 71.9488 175.785 71.9488 176.344C71.9488 177.777 71.9553 179.216 71.9683 180.661C71.9944 182.106 72.0139 183.545 72.0269 184.977C72.0399 185.654 72.053 186.338 72.066 187.028C72.092 187.705 72.105 188.389 72.105 189.079C72.105 189.626 71.8381 189.899 71.3043 189.899H68.2379C67.8863 189.899 67.6584 189.788 67.5543 189.567C67.4501 189.333 67.4045 189.059 67.4175 188.747C67.4306 188.434 67.4306 188.154 67.4175 187.907C67.4175 187.868 67.411 187.803 67.398 187.712C67.385 187.621 67.3459 187.575 67.2808 187.575C67.2287 187.575 67.1767 187.594 67.1246 187.634C67.0855 187.673 67.0464 187.705 67.0074 187.731C66.0959 188.499 65.1129 189.118 64.0582 189.587C63.0035 190.042 61.8642 190.27 60.6402 190.27ZM62.6324 186.11C63.5569 186.11 64.4097 185.921 65.191 185.544C65.9852 185.153 66.6037 184.541 67.0464 183.708C67.0725 183.656 67.1311 183.525 67.2222 183.317C67.3264 183.096 67.3785 182.959 67.3785 182.907C67.3785 182.451 67.372 181.996 67.3589 181.54C67.3589 181.084 67.3589 180.635 67.3589 180.192C67.3589 179.984 67.3655 179.756 67.3785 179.509C67.3915 179.248 67.385 179.02 67.3589 178.825C67.3459 178.734 67.2938 178.597 67.2027 178.415C67.1246 178.233 67.066 178.102 67.0269 178.024C66.5712 177.204 65.9267 176.592 65.0933 176.188C64.26 175.785 63.3876 175.583 62.4761 175.583C61.5126 175.583 60.6662 175.824 59.9371 176.305C59.2079 176.787 58.635 177.425 58.2183 178.219C57.8147 179.001 57.6129 179.86 57.6129 180.798C57.6129 181.735 57.8277 182.608 58.2574 183.415C58.6871 184.222 59.2795 184.873 60.0347 185.368C60.803 185.863 61.6688 186.11 62.6324 186.11ZM79.3121 172.184C79.8069 172.184 80.0738 172.425 80.1129 172.907L80.3082 175.134C80.3082 175.147 80.3212 175.244 80.3472 175.427C80.3733 175.596 80.4188 175.68 80.4839 175.68C80.5491 175.68 80.6142 175.609 80.6793 175.466C80.7574 175.322 80.803 175.238 80.816 175.212C81.3498 174.209 82.0009 173.421 82.7691 172.848C83.5373 172.275 84.5074 171.989 85.6793 171.989C85.9527 171.989 86.2977 172.015 86.7144 172.067C87.1441 172.106 87.3589 172.321 87.3589 172.712C87.3589 172.907 87.3199 173.213 87.2418 173.63C87.1636 174.046 87.0725 174.469 86.9683 174.899C86.8772 175.316 86.8056 175.635 86.7535 175.856C86.7014 176.078 86.6168 176.253 86.4996 176.384C86.3954 176.501 86.2131 176.559 85.9527 176.559C85.8225 176.559 85.6923 176.553 85.5621 176.54C85.4449 176.514 85.3147 176.501 85.1714 176.501C84.1428 176.501 83.2769 176.826 82.5738 177.477C81.8707 178.115 81.3433 178.903 80.9918 179.841C80.6402 180.778 80.4644 181.703 80.4644 182.614V189.098C80.4644 189.632 80.1975 189.899 79.6636 189.899H76.6363C76.1024 189.899 75.8355 189.626 75.8355 189.079C75.8355 187.061 75.842 185.049 75.855 183.044C75.8811 181.025 75.8941 179.014 75.8941 177.009V172.985C75.8941 172.451 76.161 172.184 76.6949 172.184H79.3121ZM90.5425 189.899C90.0087 189.899 89.7418 189.626 89.7418 189.079C89.7418 188.363 89.7548 187.647 89.7808 186.93C89.8199 186.214 89.8459 185.498 89.8589 184.782C89.898 183.272 89.9241 181.768 89.9371 180.27C89.9501 178.76 89.9566 177.256 89.9566 175.759C89.9566 173.858 89.9436 171.956 89.9175 170.055C89.8915 168.154 89.8524 166.26 89.8004 164.372V164.177C89.8004 164.072 89.8134 163.838 89.8394 163.473C89.8785 163.109 90.0022 162.927 90.2105 162.927C90.3928 162.927 90.5881 163.057 90.7964 163.317C91.0048 163.578 91.1545 163.766 91.2457 163.884C93.2509 166.605 95.1845 169.391 97.0464 172.243C98.9084 175.081 100.816 177.881 102.769 180.641C102.834 180.733 102.899 180.778 102.964 180.778C103.03 180.778 103.095 180.733 103.16 180.641C105.165 177.868 107.118 175.055 109.019 172.204C110.933 169.352 112.912 166.559 114.957 163.825C115.048 163.708 115.197 163.525 115.406 163.278C115.627 163.018 115.822 162.887 115.992 162.887C116.213 162.887 116.337 163.07 116.363 163.434C116.389 163.799 116.402 164.033 116.402 164.137V164.333C116.35 166.234 116.311 168.141 116.285 170.055C116.259 171.956 116.246 173.858 116.246 175.759C116.246 177.256 116.252 178.76 116.265 180.27C116.278 181.768 116.304 183.272 116.343 184.782C116.369 185.498 116.395 186.214 116.421 186.93C116.447 187.647 116.461 188.363 116.461 189.079C116.461 189.626 116.194 189.899 115.66 189.899H112.3C112.014 189.899 111.812 189.834 111.695 189.704C111.591 189.574 111.526 189.378 111.5 189.118C111.487 188.936 111.48 188.74 111.48 188.532C111.48 188.311 111.48 188.102 111.48 187.907L111.441 185.075C111.415 183.656 111.395 182.236 111.382 180.817C111.369 179.398 111.363 177.979 111.363 176.559C111.363 176.533 111.356 176.455 111.343 176.325C111.343 176.182 111.311 176.11 111.246 176.11C111.194 176.11 111.135 176.162 111.07 176.266C111.005 176.358 110.959 176.416 110.933 176.442C110.087 177.744 109.247 179.059 108.414 180.387C107.593 181.703 106.76 183.018 105.914 184.333C105.575 184.867 105.237 185.407 104.898 185.954C104.559 186.501 104.208 187.035 103.843 187.555C103.765 187.66 103.674 187.777 103.57 187.907C103.466 188.024 103.336 188.083 103.179 188.083C103.036 188.083 102.906 188.031 102.789 187.927C102.684 187.809 102.593 187.699 102.515 187.594C102.19 187.139 101.864 186.677 101.539 186.208C101.226 185.739 100.914 185.27 100.601 184.802C99.6897 183.473 98.7782 182.139 97.8668 180.798C96.9683 179.443 96.0504 178.109 95.1129 176.794C95.0998 176.768 95.0608 176.716 94.9957 176.637C94.9306 176.546 94.872 176.501 94.8199 176.501C94.7548 176.501 94.7157 176.566 94.7027 176.696C94.6897 176.826 94.6832 176.904 94.6832 176.93C94.6832 178.311 94.6767 179.691 94.6636 181.071C94.6506 182.438 94.6311 183.812 94.605 185.192L94.566 187.946C94.566 188.128 94.566 188.324 94.566 188.532C94.579 188.74 94.5725 188.936 94.5464 189.118C94.5204 189.378 94.4553 189.574 94.3511 189.704C94.247 189.834 94.0451 189.899 93.7457 189.899H90.5425ZM120.699 165.524C120.699 164.808 120.966 164.196 121.5 163.688C122.033 163.167 122.658 162.907 123.375 162.907C124.104 162.907 124.742 163.174 125.289 163.708C125.849 164.229 126.128 164.86 126.128 165.602C126.128 166.318 125.862 166.943 125.328 167.477C124.807 167.998 124.182 168.259 123.453 168.259C122.711 168.259 122.066 167.992 121.519 167.458C120.972 166.911 120.699 166.266 120.699 165.524ZM120.992 177.302V172.985C120.992 172.451 121.259 172.184 121.793 172.184H124.8C125.334 172.184 125.601 172.451 125.601 172.985C125.601 175.667 125.608 178.356 125.621 181.052C125.634 183.734 125.64 186.416 125.64 189.098C125.64 189.632 125.373 189.899 124.839 189.899H121.753C121.22 189.899 120.953 189.632 120.953 189.098C120.953 187.132 120.959 185.166 120.972 183.2C120.985 181.234 120.992 179.268 120.992 177.302ZM129.527 165.524C129.527 164.808 129.794 164.196 130.328 163.688C130.862 163.167 131.487 162.907 132.203 162.907C132.932 162.907 133.57 163.174 134.117 163.708C134.677 164.229 134.957 164.86 134.957 165.602C134.957 166.318 134.69 166.943 134.156 167.477C133.635 167.998 133.01 168.259 132.281 168.259C131.539 168.259 130.894 167.992 130.347 167.458C129.8 166.911 129.527 166.266 129.527 165.524ZM129.82 177.302V172.985C129.82 172.451 130.087 172.184 130.621 172.184H133.628C134.162 172.184 134.429 172.451 134.429 172.985C134.429 175.667 134.436 178.356 134.449 181.052C134.462 183.734 134.468 186.416 134.468 189.098C134.468 189.632 134.201 189.899 133.668 189.899H130.582C130.048 189.899 129.781 189.632 129.781 189.098C129.781 187.132 129.787 185.166 129.8 183.2C129.813 181.234 129.82 179.268 129.82 177.302Z" fill="white"/>
</svg>
