<svg width="141" height="191" viewBox="0 0 141 191" fill="none" xmlns="http://www.w3.org/2000/svg">
<path fill-rule="evenodd" clip-rule="evenodd" d="M16.9315 1.76673C-9.56019 12.2142 -1.41109 53.16 27.8885 53.16C35.454 53.16 44.4109 55.334 49.5415 58.2906C59.7158 64.2039 78.1513 83.1612 82.8471 92.6398C85.5429 98.2052 85.9777 99.9444 86.7603 109.684C87.456 118.989 87.9777 121.337 90.2387 125.945C99.8006 145.971 128.884 143.524 137.893 124.467C147.168 104.553 130.854 88.4508 111.718 86.9874C106.326 86.6396 99.9782 85.683 97.7173 84.9873C91.1083 82.9872 83.4558 77.4218 73.3685 67.3345C57.5418 51.4208 54.846 46.3771 53.5416 30.7244C53.1068 25.1589 52.3242 19.1587 51.7155 17.5065C47.2105 3.47173 30.4094 -3.52814 16.9315 1.76673ZM26.639 7.73774C31.0444 7.73774 34.6246 11.3179 34.6246 15.7233C34.6246 20.142 31.0444 23.7089 26.639 23.7089C22.2335 23.7089 18.6534 20.142 18.6534 15.7233C18.6534 11.3179 22.2337 7.73774 26.639 7.73774ZM26.639 45.5362C19.971 45.5362 14.1149 42.129 10.6678 36.965C10.7343 31.6812 21.3285 28.7665 26.639 28.7665C31.9494 28.7665 42.5303 31.6812 42.6102 36.965C39.1631 42.1291 33.3069 45.5362 26.639 45.5362ZM121.352 103.756C121.352 99.3502 117.772 95.77 113.366 95.77C108.961 95.77 105.381 99.3502 105.381 103.756C105.381 108.174 108.961 111.741 113.366 111.741C117.772 111.741 121.352 108.174 121.352 103.756ZM97.395 124.997C100.842 130.161 106.698 133.568 113.366 133.568C120.034 133.568 125.89 130.161 129.337 124.997C129.258 119.713 118.677 116.799 113.366 116.799C108.056 116.799 97.4615 119.713 97.395 124.997ZM87.0747 28.8112C85.9443 16.7238 93.2489 5.50597 104.988 1.3319C106.728 0.72318 110.554 0.201421 113.511 0.114461C134.555 0.0275016 147.512 22.811 136.381 40.3769C135.077 42.5509 131.163 46.4641 127.772 49.1598C121.337 54.2905 118.38 58.7254 116.467 66.03C114.989 71.4215 112.641 71.0737 110.728 65.0735C108.554 58.4645 105.51 53.5078 101.771 50.8121C92.2923 43.8553 87.7704 37.2463 87.0747 28.8112ZM113.566 40.1313C120.506 40.1313 126.131 34.5055 126.131 27.5656C126.131 20.6258 120.506 15 113.566 15C106.626 15 101 20.6258 101 27.5656C101 34.5055 106.626 40.1313 113.566 40.1313ZM23.9756 74.2042C22.0624 81.5089 19.1058 85.9438 12.6708 91.0745C5.45311 96.8138 1.88775 101.944 0.496393 108.553C-1.2428 117.336 1.62687 126.293 8.4967 132.989C13.8013 138.207 20.0624 140.381 28.4105 139.946C38.7587 139.337 46.4982 134.12 51.107 124.815C54.1506 118.467 54.0637 108.293 50.8462 102.292C48.4982 97.8573 44.585 93.6833 38.6718 89.4222C34.9325 86.7265 31.8889 81.7698 29.7149 75.0738C27.8018 69.1606 25.4539 68.8127 23.9756 74.2042ZM39.4161 113.566C39.4161 120.506 33.7902 126.131 26.8504 126.131C19.9106 126.131 14.2847 120.506 14.2847 113.566C14.2847 106.626 19.9106 101 26.8504 101C33.7902 101 39.4161 106.626 39.4161 113.566Z" fill="white"/>
<path d="M26.1167 186.101C25.7621 186.456 25.2427 186.722 24.5587 186.899C23.9001 187.102 23.1021 187.203 22.1647 187.203C21.2274 187.203 20.3407 187.064 19.5047 186.785C18.6687 186.507 17.9847 185.835 17.4527 184.771L13.6907 177.095C13.3107 176.31 12.9687 175.575 12.6647 174.891C12.3607 174.182 12.0314 173.371 11.6767 172.459L11.4487 172.497C11.5501 173.865 11.6007 175.259 11.6007 176.677C11.6261 178.096 11.6387 179.489 11.6387 180.857V186.747C11.3601 186.823 10.9294 186.899 10.3467 186.975C9.7894 187.051 9.23206 187.089 8.67473 187.089C8.1174 187.089 7.6234 187.051 7.19273 186.975C6.76206 186.899 6.4074 186.747 6.12873 186.519C5.85006 186.291 5.63473 185.987 5.48273 185.607C5.33073 185.202 5.25473 184.683 5.25473 184.049V165.049C5.6094 164.543 6.15406 164.163 6.88873 163.909C7.6234 163.656 8.40873 163.529 9.24473 163.529C10.1821 163.529 11.0687 163.681 11.9047 163.985C12.7661 164.264 13.4501 164.923 13.9567 165.961L17.7567 173.637C18.1367 174.423 18.4787 175.17 18.7827 175.879C19.0867 176.563 19.4161 177.361 19.7707 178.273L19.9607 178.235C19.8594 176.867 19.7961 175.499 19.7707 174.131C19.7454 172.763 19.7327 171.395 19.7327 170.027V163.871C20.0114 163.795 20.4294 163.719 20.9867 163.643C21.5694 163.567 22.1394 163.529 22.6967 163.529C23.8114 163.529 24.6601 163.732 25.2427 164.137C25.8254 164.517 26.1167 165.328 26.1167 166.569V186.101ZM40.3177 187.507C38.8231 187.507 37.4297 187.305 36.1377 186.899C34.8711 186.469 33.7564 185.835 32.7937 184.999C31.8564 184.163 31.1091 183.112 30.5517 181.845C30.0197 180.579 29.7537 179.097 29.7537 177.399C29.7537 175.727 30.0197 174.296 30.5517 173.105C31.1091 171.889 31.8311 170.901 32.7177 170.141C33.6044 169.356 34.6177 168.786 35.7577 168.431C36.8977 168.051 38.0631 167.861 39.2537 167.861C40.5964 167.861 41.8124 168.064 42.9017 168.469C44.0164 168.875 44.9664 169.432 45.7517 170.141C46.5624 170.851 47.1831 171.699 47.6137 172.687C48.0697 173.675 48.2977 174.752 48.2977 175.917C48.2977 176.779 48.0571 177.437 47.5757 177.893C47.0944 178.349 46.4231 178.641 45.5617 178.767L36.1757 180.173C36.4544 181.009 37.0244 181.643 37.8857 182.073C38.7471 182.479 39.7351 182.681 40.8497 182.681C41.8884 182.681 42.8637 182.555 43.7757 182.301C44.7131 182.023 45.4731 181.706 46.0557 181.351C46.4611 181.605 46.8031 181.959 47.0817 182.415C47.3604 182.871 47.4997 183.353 47.4997 183.859C47.4997 184.999 46.9677 185.848 45.9037 186.405C45.0931 186.836 44.1811 187.127 43.1677 187.279C42.1544 187.431 41.2044 187.507 40.3177 187.507ZM39.2537 172.573C38.6457 172.573 38.1137 172.675 37.6577 172.877C37.2271 173.08 36.8724 173.346 36.5937 173.675C36.3151 173.979 36.0997 174.334 35.9477 174.739C35.8211 175.119 35.7451 175.512 35.7197 175.917L42.2177 174.853C42.1417 174.347 41.8631 173.84 41.3817 173.333C40.9004 172.827 40.1911 172.573 39.2537 172.573ZM59.3112 182.795C59.7419 182.795 60.2105 182.757 60.7172 182.681C61.2492 182.58 61.6419 182.453 61.8952 182.301V179.261L59.1592 179.489C58.4499 179.54 57.8672 179.692 57.4112 179.945C56.9552 180.199 56.7272 180.579 56.7272 181.085C56.7272 181.592 56.9172 182.01 57.2972 182.339C57.7025 182.643 58.3739 182.795 59.3112 182.795ZM59.0072 167.861C60.3752 167.861 61.6165 168.001 62.7312 168.279C63.8712 168.558 64.8339 168.989 65.6192 169.571C66.4299 170.129 67.0505 170.851 67.4812 171.737C67.9119 172.599 68.1272 173.625 68.1272 174.815V183.327C68.1272 183.986 67.9372 184.531 67.5572 184.961C67.2025 185.367 66.7719 185.721 66.2652 186.025C64.6185 187.013 62.3005 187.507 59.3112 187.507C57.9685 187.507 56.7525 187.381 55.6632 187.127C54.5992 186.874 53.6745 186.494 52.8892 185.987C52.1292 185.481 51.5339 184.835 51.1032 184.049C50.6979 183.264 50.4952 182.352 50.4952 181.313C50.4952 179.565 51.0145 178.223 52.0532 177.285C53.0919 176.348 54.7005 175.765 56.8792 175.537L61.8572 175.005V174.739C61.8572 174.005 61.5279 173.485 60.8692 173.181C60.2359 172.852 59.3112 172.687 58.0952 172.687C57.1325 172.687 56.1952 172.789 55.2832 172.991C54.3712 173.194 53.5479 173.447 52.8132 173.751C52.4839 173.523 52.2052 173.181 51.9772 172.725C51.7492 172.244 51.6352 171.75 51.6352 171.243C51.6352 170.585 51.7872 170.065 52.0912 169.685C52.4205 169.28 52.9145 168.938 53.5732 168.659C54.3079 168.381 55.1692 168.178 56.1572 168.051C57.1705 167.925 58.1205 167.861 59.0072 167.861ZM78.5371 186.861C78.2838 186.937 77.8785 187.013 77.3211 187.089C76.7891 187.165 76.2318 187.203 75.6491 187.203C75.0918 187.203 74.5851 187.165 74.1291 187.089C73.6985 187.013 73.3311 186.861 73.0271 186.633C72.7231 186.405 72.4825 186.101 72.3051 185.721C72.1531 185.316 72.0771 184.797 72.0771 184.163V172.763C72.0771 172.181 72.1785 171.687 72.3811 171.281C72.6091 170.851 72.9258 170.471 73.3311 170.141C73.7365 169.812 74.2305 169.521 74.8131 169.267C75.4211 168.989 76.0671 168.748 76.7511 168.545C77.4351 168.343 78.1445 168.191 78.8791 168.089C79.6138 167.963 80.3485 167.899 81.0831 167.899C82.2991 167.899 83.2618 168.14 83.9711 168.621C84.6805 169.077 85.0351 169.837 85.0351 170.901C85.0351 171.256 84.9845 171.611 84.8831 171.965C84.7818 172.295 84.6551 172.599 84.5031 172.877C83.9711 172.877 83.4265 172.903 82.8691 172.953C82.3118 173.004 81.7671 173.08 81.2351 173.181C80.7031 173.283 80.1965 173.397 79.7151 173.523C79.2591 173.625 78.8665 173.751 78.5371 173.903V186.861ZM103.745 181.237C103.416 181.516 102.985 181.744 102.453 181.921C101.946 182.073 101.351 182.149 100.667 182.149C99.7551 182.149 98.9951 182.035 98.3871 181.807C97.8044 181.579 97.4244 181.187 97.2471 180.629C96.5378 178.4 95.9551 176.601 95.4991 175.233C95.0431 173.84 94.6884 172.624 94.4351 171.585H94.2451C94.1691 173.08 94.1058 174.448 94.0551 175.689C94.0298 176.905 94.0044 178.096 93.9791 179.261C93.9791 180.427 93.9538 181.605 93.9031 182.795C93.8778 183.986 93.8271 185.303 93.7511 186.747C93.4218 186.874 92.9911 186.975 92.4591 187.051C91.9271 187.153 91.3951 187.203 90.8631 187.203C89.7484 187.203 88.8744 187.026 88.2411 186.671C87.6331 186.317 87.3291 185.671 87.3291 184.733L88.4311 165.353C88.6338 165.024 89.0771 164.669 89.7611 164.289C90.4451 163.909 91.4078 163.719 92.6491 163.719C93.9918 163.719 95.0431 163.935 95.8031 164.365C96.5631 164.771 97.1204 165.442 97.4751 166.379C97.7031 166.987 97.9438 167.684 98.1971 168.469C98.4758 169.255 98.7418 170.065 98.9951 170.901C99.2738 171.737 99.5398 172.573 99.7931 173.409C100.046 174.22 100.274 174.955 100.477 175.613H100.667C101.275 173.485 101.883 171.433 102.491 169.457C103.099 167.456 103.656 165.784 104.163 164.441C104.543 164.239 105.024 164.074 105.607 163.947C106.215 163.795 106.886 163.719 107.621 163.719C108.862 163.719 109.876 163.909 110.661 164.289C111.446 164.644 111.902 165.163 112.029 165.847C112.13 166.354 112.232 167.139 112.333 168.203C112.46 169.242 112.586 170.42 112.713 171.737C112.84 173.055 112.966 174.448 113.093 175.917C113.22 177.387 113.334 178.805 113.435 180.173C113.562 181.516 113.663 182.757 113.739 183.897C113.815 185.012 113.866 185.873 113.891 186.481C113.46 186.735 113.004 186.912 112.523 187.013C112.067 187.14 111.472 187.203 110.737 187.203C109.774 187.203 108.964 187.039 108.305 186.709C107.646 186.38 107.292 185.734 107.241 184.771C107.089 182.01 106.988 179.527 106.937 177.323C106.912 175.119 106.861 173.27 106.785 171.775H106.595C106.342 172.763 105.974 174.005 105.493 175.499C105.012 176.994 104.429 178.907 103.745 181.237ZM117.458 163.301C117.458 162.339 117.775 161.528 118.408 160.869C119.067 160.211 119.928 159.881 120.992 159.881C122.056 159.881 122.905 160.211 123.538 160.869C124.197 161.528 124.526 162.339 124.526 163.301C124.526 164.264 124.197 165.075 123.538 165.733C122.905 166.392 122.056 166.721 120.992 166.721C119.928 166.721 119.067 166.392 118.408 165.733C117.775 165.075 117.458 164.264 117.458 163.301ZM124.222 186.861C123.944 186.912 123.526 186.975 122.968 187.051C122.436 187.153 121.892 187.203 121.334 187.203C120.777 187.203 120.27 187.165 119.814 187.089C119.384 187.013 119.016 186.861 118.712 186.633C118.408 186.405 118.168 186.101 117.99 185.721C117.838 185.316 117.762 184.797 117.762 184.163V168.697C118.041 168.647 118.446 168.583 118.978 168.507C119.536 168.406 120.093 168.355 120.65 168.355C121.208 168.355 121.702 168.393 122.132 168.469C122.588 168.545 122.968 168.697 123.272 168.925C123.576 169.153 123.804 169.47 123.956 169.875C124.134 170.255 124.222 170.762 124.222 171.395V186.861ZM128.183 163.301C128.183 162.339 128.5 161.528 129.133 160.869C129.792 160.211 130.653 159.881 131.717 159.881C132.781 159.881 133.63 160.211 134.263 160.869C134.922 161.528 135.251 162.339 135.251 163.301C135.251 164.264 134.922 165.075 134.263 165.733C133.63 166.392 132.781 166.721 131.717 166.721C130.653 166.721 129.792 166.392 129.133 165.733C128.5 165.075 128.183 164.264 128.183 163.301ZM134.947 186.861C134.668 186.912 134.25 186.975 133.693 187.051C133.161 187.153 132.616 187.203 132.059 187.203C131.502 187.203 130.995 187.165 130.539 187.089C130.108 187.013 129.741 186.861 129.437 186.633C129.133 186.405 128.892 186.101 128.715 185.721C128.563 185.316 128.487 184.797 128.487 184.163V168.697C128.766 168.647 129.171 168.583 129.703 168.507C130.26 168.406 130.818 168.355 131.375 168.355C131.932 168.355 132.426 168.393 132.857 168.469C133.313 168.545 133.693 168.697 133.997 168.925C134.301 169.153 134.529 169.47 134.681 169.875C134.858 170.255 134.947 170.762 134.947 171.395V186.861Z" fill="white"/>
</svg>
