<svg width="58" height="58" viewBox="0 0 58 58" fill="none" xmlns="http://www.w3.org/2000/svg">
<path d="M0 29C0 12.9837 12.9837 0 29 0C45.0163 0 58 12.9837 58 29C58 45.0163 45.0163 58 29 58C12.9837 58 0 45.0163 0 29Z" fill="white"/>
<path d="M0.75 29C0.75 13.398 13.398 0.75 29 0.75C44.602 0.75 57.25 13.398 57.25 29C57.25 44.602 44.602 57.25 29 57.25C13.398 57.25 0.75 44.602 0.75 29Z" stroke="black" stroke-opacity="0.04" stroke-width="1.5"/>
<path d="M36.86 41.8766C35.3358 43.3542 33.6715 43.1209 32.0695 42.421C30.3742 41.7055 28.8188 41.6744 27.0302 42.421C24.7904 43.3853 23.6084 43.1053 22.2708 41.8766C14.6806 34.0532 15.8005 22.1391 24.4172 21.7036C26.5169 21.8125 27.9789 22.8546 29.2077 22.9479C31.043 22.5746 32.8005 21.5014 34.7603 21.6414C37.1089 21.828 38.882 22.7612 40.0485 24.441C35.1958 27.3496 36.3468 33.7421 40.7951 35.5307C39.9085 37.8638 38.7576 40.1813 36.8445 41.8922L36.86 41.8766ZM29.0521 21.6103C28.8188 18.1418 31.634 15.28 34.8692 15C35.3202 19.0128 31.2296 21.9991 29.0521 21.6103Z" fill="black"/>
</svg>
