<svg width="24" height="28" viewBox="0 0 24 28" fill="none" xmlns="http://www.w3.org/2000/svg">
<path d="M19.86 26.8766C18.3358 28.3542 16.6715 28.1209 15.0695 27.421C13.3742 26.7055 11.8188 26.6744 10.0302 27.421C7.79044 28.3853 6.60837 28.1053 5.27076 26.8766C-2.31939 19.0532 -1.19953 7.1391 7.41716 6.7036C9.51689 6.81247 10.9789 7.85456 12.2077 7.94789C14.043 7.5746 15.8005 6.5014 17.7603 6.64138C20.1089 6.82803 21.882 7.76124 23.0485 9.44103C18.1958 12.3496 19.3468 18.7421 23.7951 20.5307C22.9085 22.8638 21.7576 25.1813 19.8445 26.8922L19.86 26.8766ZM12.0521 6.61028C11.8188 3.14183 14.634 0.279965 17.8692 0C18.3202 4.01283 14.2296 6.99912 12.0521 6.61028Z" fill="black"/>
</svg>
