<svg width="41" height="42" viewBox="0 0 41 42" fill="none" xmlns="http://www.w3.org/2000/svg">
<rect y="0.5" width="41" height="41" rx="20.5" fill="#42B002" fill-opacity="0.1"/>
<g clip-path="url(#clip0_260_4761)">
<path d="M29 22.5C29.5523 22.5 30 22.0523 30 21.5C30 20.9477 29.5523 20.5 29 20.5V22.5ZM10.0838 20.7929C9.69323 21.1834 9.69323 21.8166 10.0838 22.2071L16.4477 28.5711C16.8382 28.9616 17.4714 28.9616 17.8619 28.5711C18.2525 28.1805 18.2525 27.5474 17.8619 27.1569L12.2051 21.5L17.8619 15.8431C18.2525 15.4526 18.2525 14.8195 17.8619 14.4289C17.4714 14.0384 16.8382 14.0384 16.4477 14.4289L10.0838 20.7929ZM29 20.5L10.7909 20.5V22.5L29 22.5V20.5Z" fill="#00C565"/>
</g>
<defs>
<clipPath id="clip0_260_4761">
<rect width="19" height="19" fill="white" transform="translate(10 11.5)"/>
</clipPath>
</defs>
</svg>
