<svg width="37" height="37" viewBox="0 0 37 37" fill="none" xmlns="http://www.w3.org/2000/svg">
<rect x="1" y="1" width="35" height="35" rx="17.5" fill="#00C565"/>
<rect x="1" y="1" width="35" height="35" rx="17.5" stroke="white" stroke-width="2"/>
<path d="M27.25 23.75C27.25 24.1478 27.092 24.5294 26.8107 24.8107C26.5294 25.092 26.1478 25.25 25.75 25.25H12.25C11.8522 25.25 11.4706 25.092 11.1893 24.8107C10.908 24.5294 10.75 24.1478 10.75 23.75V15.5C10.75 15.1022 10.908 14.7206 11.1893 14.4393C11.4706 14.158 11.8522 14 12.25 14H15.25L16.75 11.75H21.25L22.75 14H25.75C26.1478 14 26.5294 14.158 26.8107 14.4393C27.092 14.7206 27.25 15.1022 27.25 15.5V23.75Z" stroke="white" stroke-width="1.5" stroke-linecap="round" stroke-linejoin="round"/>
<path d="M19 22.25C20.6569 22.25 22 20.9069 22 19.25C22 17.5931 20.6569 16.25 19 16.25C17.3431 16.25 16 17.5931 16 19.25C16 20.9069 17.3431 22.25 19 22.25Z" stroke="white" stroke-width="1.5" stroke-linecap="round" stroke-linejoin="round"/>
</svg>
