<svg width="40" height="40" viewBox="0 0 40 40" fill="none" xmlns="http://www.w3.org/2000/svg">
<path opacity="0.1" d="M20 40C31.0457 40 40 31.0457 40 20C40 8.95431 31.0457 0 20 0C8.95431 0 0 8.95431 0 20C0 31.0457 8.95431 40 20 40Z" fill="#212121" fill-opacity="0.5"/>
<g clip-path="url(#clip0_2082_1502)">
<path d="M29.706 26.1762C29.706 26.6443 29.52 27.0931 29.1891 27.4241C28.8581 27.755 28.4093 27.9409 27.9412 27.9409H12.0589C11.5909 27.9409 11.142 27.755 10.8111 27.4241C10.4801 27.0931 10.2942 26.6443 10.2942 26.1762V16.4704C10.2942 16.0023 10.4801 15.5535 10.8111 15.2225C11.142 14.8916 11.5909 14.7057 12.0589 14.7057H15.5883L17.353 12.0586H22.6471L24.4118 14.7057H27.9412C28.4093 14.7057 28.8581 14.8916 29.1891 15.2225C29.52 15.5535 29.706 16.0023 29.706 16.4704V26.1762Z" stroke="#212121" stroke-opacity="0.5" stroke-linecap="round" stroke-linejoin="round"/>
<path d="M20.0001 24.4115C21.9493 24.4115 23.5295 22.8314 23.5295 20.8821C23.5295 18.9329 21.9493 17.3527 20.0001 17.3527C18.0508 17.3527 16.4707 18.9329 16.4707 20.8821C16.4707 22.8314 18.0508 24.4115 20.0001 24.4115Z" stroke="#212121" stroke-opacity="0.5" stroke-linecap="round" stroke-linejoin="round"/>
</g>
<defs>
<clipPath id="clip0_2082_1502">
<rect width="21.1765" height="21.1765" fill="white" transform="translate(9.41187 9.41162)"/>
</clipPath>
</defs>
</svg>
