<svg width="20" height="20" viewBox="0 0 20 20" fill="none" xmlns="http://www.w3.org/2000/svg">
<path d="M9.9999 0.399902C4.69815 0.399902 0.399902 4.69815 0.399902 9.9999C0.399902 15.3017 4.69815 19.5999 9.9999 19.5999C15.3017 19.5999 19.5999 15.3017 19.5999 9.9999C19.5999 4.69815 15.3017 0.399902 9.9999 0.399902ZM15.4959 7.15253L15.4925 7.1559C15.491 7.15792 15.4889 7.15947 15.4865 7.1604C15.4841 7.16132 15.4815 7.16158 15.479 7.16115L7.51103 15.1292L4.28978 11.9079C4.18951 11.8077 4.10997 11.6887 4.05569 11.5577C4.00141 11.4268 3.97345 11.2864 3.97342 11.1447C3.97338 11.0029 4.00127 10.8625 4.05549 10.7315C4.1097 10.6006 4.18919 10.4815 4.2894 10.3813C4.38962 10.281 4.5086 10.2015 4.63956 10.1472C4.77051 10.0929 4.91088 10.0649 5.05264 10.0649C5.1944 10.0649 5.33478 10.0928 5.46576 10.147C5.59674 10.2012 5.71576 10.2807 5.81603 10.3809L7.51028 12.0752L13.952 5.63415C14.1539 5.43195 14.4276 5.31776 14.7133 5.31646C14.999 5.31517 15.2737 5.42687 15.4774 5.62723C15.6811 5.82759 15.7974 6.10035 15.8009 6.38607C15.8043 6.67179 15.6947 6.94729 15.4959 7.15253Z" fill="#00C565"/>
</svg>
