<svg width="44" height="44" viewBox="0 0 44 44" fill="none" xmlns="http://www.w3.org/2000/svg">
<rect width="44" height="44" rx="22" fill="#F9F9F9"/>
<g opacity="0.6">
<path d="M15.46 28.4898V25.5698C15.46 24.5998 16.22 23.7298 17.3 23.7298C18.27 23.7298 19.14 24.4898 19.14 25.5698V28.3798C19.14 30.3298 17.52 31.9498 15.57 31.9498C13.62 31.9498 12 30.3198 12 28.3798V22.2198C11.89 16.5998 16.33 12.0498 21.95 12.0498C27.57 12.0498 32 16.5998 32 22.1098V28.2698C32 30.2198 30.38 31.8398 28.43 31.8398C26.48 31.8398 24.86 30.2198 24.86 28.2698V25.4598C24.86 24.4898 25.62 23.6198 26.7 23.6198C27.67 23.6198 28.54 24.3798 28.54 25.4598V28.4898" stroke="#21203F" stroke-width="1.5" stroke-linecap="round" stroke-linejoin="round"/>
</g>
</svg>
