<svg width="90" height="44" viewBox="0 0 90 44" fill="none" xmlns="http://www.w3.org/2000/svg">
<rect width="90" height="44" rx="22" fill="#00C565" fill-opacity="0.08"/>
<path d="M21.614 25.366C22.804 25.366 23.728 24.848 24.344 24.092L25.506 24.862C24.61 25.982 23.238 26.682 21.614 26.682C18.716 26.682 16.63 24.47 16.63 21.6C16.63 18.73 18.716 16.532 21.614 16.532C23.238 16.532 24.61 17.218 25.506 18.352L24.344 19.108C23.728 18.352 22.804 17.834 21.614 17.834C19.332 17.834 18.058 19.696 18.058 21.6C18.058 23.504 19.332 25.366 21.614 25.366ZM29.7914 19.234C31.9334 19.234 33.5154 20.914 33.5154 22.958C33.5154 25.002 31.9334 26.682 29.7914 26.682C27.6494 26.682 26.0674 25.002 26.0674 22.958C26.0674 20.914 27.6494 19.234 29.7914 19.234ZM29.7914 25.464C31.1914 25.464 32.2134 24.4 32.2134 22.958C32.2134 21.502 31.1914 20.438 29.7914 20.438C28.3914 20.438 27.3834 21.502 27.3834 22.958C27.3834 24.4 28.3914 25.464 29.7914 25.464ZM38.4933 19.234C40.7053 19.234 42.0213 21.096 42.0213 22.958C42.0213 24.82 40.7053 26.682 38.4933 26.682C37.2613 26.682 36.4353 26.178 35.9033 25.506V29.202H34.6293V19.402H35.9033V20.396C36.4353 19.738 37.2613 19.234 38.4933 19.234ZM38.3673 25.464C39.8233 25.464 40.7193 24.386 40.7193 22.958C40.7193 21.53 39.8233 20.438 38.3673 20.438C36.7993 20.438 35.9033 21.558 35.9033 22.958C35.9033 24.358 36.7993 25.464 38.3673 25.464ZM47.7809 19.402H49.1949L45.3169 29.202H43.9449L45.2049 26.136L42.2369 19.402H43.6509L45.8349 24.526L47.7809 19.402Z" fill="#00C565"/>
<path fill-rule="evenodd" clip-rule="evenodd" d="M57.75 18.3535V28.2498C57.75 28.7473 57.9475 29.2241 58.2994 29.5754C58.6506 29.9273 59.1275 30.1248 59.625 30.1248H66.5C66.845 30.1248 67.125 29.8448 67.125 29.4998C67.125 29.1548 66.845 28.8748 66.5 28.8748C66.5 28.8748 61.9037 28.8748 59.625 28.8748C59.4594 28.8748 59.3 28.8091 59.1831 28.6916C59.0656 28.5748 59 28.4154 59 28.2498V18.3535C59 18.0085 58.72 17.7285 58.375 17.7285C58.03 17.7285 57.75 18.0085 57.75 18.3535Z" fill="#00C565"/>
<path fill-rule="evenodd" clip-rule="evenodd" d="M70.8794 18.1438C70.8794 17.6456 70.6813 17.1681 70.3294 16.8162L67.9325 14.4231C67.5812 14.0719 67.1044 13.875 66.6075 13.875C65.6325 13.875 63.4962 13.875 62.125 13.875C61.6275 13.875 61.1506 14.0725 60.7994 14.4244C60.4475 14.7756 60.25 15.2525 60.25 15.75V25.75C60.25 26.2475 60.4475 26.7244 60.7994 27.0756C61.1506 27.4275 61.6275 27.625 62.125 27.625H69.0006C70.0356 27.625 70.875 26.7862 70.8756 25.7506L70.8794 18.1438ZM69.6294 18.1431L69.6256 25.75C69.6256 26.0956 69.3456 26.375 69.0006 26.375H62.125C61.9594 26.375 61.8 26.3094 61.6831 26.1919C61.5656 26.075 61.5 25.9156 61.5 25.75V15.75C61.5 15.5844 61.5656 15.425 61.6831 15.3081C61.8 15.1906 61.9594 15.125 62.125 15.125H66.6075C66.7731 15.125 66.9319 15.1906 67.0494 15.3075L69.4456 17.7006C69.5631 17.8181 69.6294 17.9775 69.6294 18.1431Z" fill="#00C565"/>
</svg>
