<svg width="132" height="132" viewBox="0 0 132 132" fill="none" xmlns="http://www.w3.org/2000/svg">
<g clip-path="url(#clip0_436_5045)">
<path d="M104.026 48.9609L98.0621 42.9964L107.012 34.0507L95.0799 22.1218L86.1332 31.0685L80.1687 25.104L95.0799 10.1938L118.941 34.0507L104.026 48.9609Z" fill="#E25740"/>
<path d="M5.5664 29.3229L29.4274 5.4619C32.7216 2.16765 38.0631 2.16765 41.3573 5.4619L83.1128 47.2183C86.408 50.5126 86.408 55.8541 83.1128 59.1483L59.2528 83.0083C55.9586 86.3036 50.6171 86.3036 47.3228 83.0083L5.5664 41.2528C2.27214 37.9586 2.27214 32.6171 5.5664 29.3229Z" fill="#E0E0E0"/>
<path d="M123.67 132H30.8743V89.8202C30.8743 85.1615 34.6505 81.3843 39.3102 81.3843H115.234C119.892 81.3843 123.67 85.1615 123.67 89.8202V132Z" fill="#E76E54"/>
<path d="M42.207 46.3751L85.5349 52.7021C85.4226 50.6487 84.5617 48.7086 83.1138 47.2484L41.3553 5.46105C39.8972 4.01318 37.9581 3.15126 35.9058 3.04004L42.207 46.3751Z" fill="#BCAAA4"/>
<path d="M56.3046 1.23887C57.9512 -0.407747 60.6224 -0.407747 62.2691 1.23887L127.885 66.8553C129.533 68.5029 129.533 71.1731 127.885 72.8208C126.239 74.4674 123.568 74.4674 121.921 72.8208L56.3046 7.20437C54.6569 5.55672 54.6569 2.88651 56.3046 1.23887Z" fill="#E76E54"/>
<path d="M73.0539 132H47.7461V115.128C47.7461 108.14 53.4109 102.474 60.4 102.474C67.3881 102.474 73.0539 108.14 73.0539 115.128V132Z" fill="#E25740"/>
<path d="M106.798 132H81.49V115.128C81.49 108.14 87.1548 102.474 94.1439 102.474C101.132 102.474 106.798 108.14 106.798 115.128V132Z" fill="#E25740"/>
</g>
<defs>
<clipPath id="clip0_436_5045">
<rect width="132" height="132" fill="white"/>
</clipPath>
</defs>
</svg>
