<svg width="141" height="140" viewBox="0 0 141 140" fill="none" xmlns="http://www.w3.org/2000/svg">
<path fill-rule="evenodd" clip-rule="evenodd" d="M16.9315 1.76672C-9.56019 12.2142 -1.4111 53.16 27.8885 53.16C35.454 53.16 44.4109 55.334 49.5415 58.2906C59.7158 64.2039 78.1513 83.1612 82.8471 92.6398C85.5429 98.2052 85.9777 99.9444 86.7603 109.684C87.456 118.989 87.9777 121.337 90.2387 125.945C99.8006 145.971 128.884 143.524 137.893 124.467C147.168 104.553 130.854 88.4508 111.718 86.9874C106.326 86.6396 99.9782 85.683 97.7173 84.9873C91.1083 82.9873 83.4558 77.4218 73.3685 67.3345C57.5418 51.4208 54.846 46.3771 53.5416 30.7244C53.1068 25.1589 52.3242 19.1587 51.7155 17.5065C47.2105 3.47174 30.4094 -3.52814 16.9315 1.76672ZM87.0747 28.8112C85.9443 16.7238 93.2489 5.50597 104.988 1.3319C106.728 0.72318 110.554 0.201421 113.511 0.114461C134.555 0.0275016 147.512 22.811 136.381 40.3769C135.077 42.5509 131.163 46.4641 127.772 49.1598C121.337 54.2905 118.38 58.7254 116.467 66.03C114.989 71.4215 112.641 71.0737 110.728 65.0735C108.554 58.4645 105.51 53.5078 101.771 50.8121C92.2923 43.8553 87.7704 37.2463 87.0747 28.8112ZM113.566 40.1313C120.506 40.1313 126.131 34.5055 126.131 27.5656C126.131 20.6258 120.506 15 113.566 15C106.626 15 101 20.6258 101 27.5656C101 34.5055 106.626 40.1313 113.566 40.1313ZM23.9756 74.2042C22.0624 81.5089 19.1058 85.9438 12.6708 91.0745C5.45311 96.8138 1.88775 101.944 0.496393 108.553C-1.2428 117.336 1.62687 126.293 8.4967 132.989C13.8013 138.207 20.0624 140.381 28.4105 139.946C38.7587 139.337 46.4982 134.12 51.107 124.815C54.1506 118.467 54.0637 108.293 50.8462 102.292C48.4982 97.8573 44.585 93.6833 38.6718 89.4222C34.9325 86.7265 31.8889 81.7698 29.7149 75.0738C27.8018 69.1606 25.4539 68.8127 23.9756 74.2042ZM39.4161 113.566C39.4161 120.506 33.7902 126.131 26.8504 126.131C19.9106 126.131 14.2847 120.506 14.2847 113.566C14.2847 106.626 19.9106 101 26.8504 101C33.7902 101 39.4161 106.626 39.4161 113.566Z" fill="white"/>
</svg>
