<svg width="95" height="40" viewBox="0 0 95 40" fill="none" xmlns="http://www.w3.org/2000/svg">
<rect width="94.5161" height="40" rx="20" fill="#D4EDD5"/>
<g clip-path="url(#clip0_569_3796)">
<path d="M26.6666 12.6667L25.8266 14.5001L24 15.3334L25.8266 16.1734L26.6666 18.0001L27.5 16.1734L29.3333 15.3334L27.5 14.5001M20 14.6667L18.3333 18.3334L14.6666 20.0001L18.3333 21.6667L20 25.3334L21.6666 21.6667L25.3333 20.0001L21.6666 18.3334M26.6666 22.0001L25.8266 23.8267L24 24.6667L25.8266 25.5001L26.6666 27.3334L27.5 25.5001L29.3333 24.6667L27.5 23.8267" fill="#00C565"/>
</g>
<path d="M38.9617 23.984H43.2817V26H36.8017V14.8H38.9617V23.984ZM49.5434 14.608C52.8554 14.608 55.2394 17.12 55.2394 20.4C55.2394 23.68 52.8554 26.208 49.5434 26.208C46.2314 26.208 43.8474 23.68 43.8474 20.4C43.8474 17.12 46.2314 14.608 49.5434 14.608ZM49.5434 24.144C51.8634 24.144 53.0634 22.272 53.0634 20.4C53.0634 18.544 51.8634 16.672 49.5434 16.672C47.2234 16.672 46.0234 18.544 46.0234 20.4C46.0234 22.272 47.2234 24.144 49.5434 24.144ZM62.0392 19.664H67.0312V26H65.8632L65.5752 24.4C64.8232 25.488 63.6392 26.208 61.8952 26.208C58.5672 26.208 56.1992 23.68 56.1992 20.4C56.1992 17.12 58.5672 14.608 61.8952 14.608C63.7512 14.608 65.3192 15.392 66.3272 16.672L64.5352 17.872C63.9432 17.152 63.0632 16.672 61.8952 16.672C59.5752 16.672 58.3752 18.544 58.3752 20.4C58.3752 22.272 59.5752 24.128 61.8952 24.128C63.8472 24.128 64.9032 22.992 65.2232 21.552H62.0392V19.664ZM73.9346 14.608C77.2466 14.608 79.6306 17.12 79.6306 20.4C79.6306 23.68 77.2466 26.208 73.9346 26.208C70.6226 26.208 68.2386 23.68 68.2386 20.4C68.2386 17.12 70.6226 14.608 73.9346 14.608ZM73.9346 24.144C76.2546 24.144 77.4546 22.272 77.4546 20.4C77.4546 18.544 76.2546 16.672 73.9346 16.672C71.6146 16.672 70.4146 18.544 70.4146 20.4C70.4146 22.272 71.6146 24.144 73.9346 24.144Z" fill="#00C565"/>
<defs>
<clipPath id="clip0_569_3796">
<rect width="16" height="16" fill="white" transform="translate(14 12)"/>
</clipPath>
</defs>
</svg>
