<svg width="50" height="53" viewBox="0 0 50 53" fill="none" xmlns="http://www.w3.org/2000/svg">
<path d="M24.9991 0.745117C21.846 0.745117 18.8221 1.99766 16.5926 4.2272C14.363 6.45675 13.1105 9.48065 13.1105 12.6337C13.1105 15.7868 14.363 18.8107 16.5926 21.0402C18.8221 23.2697 21.846 24.5223 24.9991 24.5223C28.1521 24.5223 31.176 23.2697 33.4056 21.0402C35.6351 18.8107 36.8877 15.7868 36.8877 12.6337C36.8877 9.48065 35.6351 6.45675 33.4056 4.2272C31.176 1.99766 28.1521 0.745117 24.9991 0.745117ZM12.3179 30.8629C9.16486 30.8629 6.14095 32.1154 3.91141 34.345C1.68187 36.5745 0.429321 39.5984 0.429321 42.7515V46.5178C0.429321 48.9082 2.1603 50.9435 4.519 51.3271C18.0815 53.5431 31.9166 53.5431 45.4791 51.3271C46.6207 51.1412 47.6589 50.5554 48.4081 49.6743C49.1574 48.7932 49.5688 47.6743 49.5688 46.5178V42.7515C49.5688 39.5984 48.3163 36.5745 46.0867 34.345C43.8572 32.1154 40.8333 30.8629 37.6802 30.8629H36.6023C36.0158 30.8629 35.4325 30.958 34.8777 31.1355L32.1322 32.0327C27.4971 33.5457 22.501 33.5457 17.8659 32.0327L15.1204 31.1355C14.5645 30.9546 13.9836 30.8626 13.399 30.8629H12.3179Z" fill="white"/>
</svg>
