<svg width="58" height="58" viewBox="0 0 58 58" fill="none" xmlns="http://www.w3.org/2000/svg">
<path d="M0 29C0 12.9837 12.9837 0 29 0C45.0163 0 58 12.9837 58 29C58 45.0163 45.0163 58 29 58C12.9837 58 0 45.0163 0 29Z" fill="white"/>
<path d="M0.75 29C0.75 13.398 13.398 0.75 29 0.75C44.602 0.75 57.25 13.398 57.25 29C57.25 44.602 44.602 57.25 29 57.25C13.398 57.25 0.75 44.602 0.75 29Z" stroke="black" stroke-opacity="0.04" stroke-width="1.5"/>
<path d="M34.5427 30.3981L35.2039 26.0874H31.0679V23.2901C31.0679 22.1106 31.6457 20.9612 33.4982 20.9612H35.3786V17.2913C35.3786 17.2913 33.6721 17 32.0404 17C28.6342 17 26.4077 19.0645 26.4077 22.8019V26.0874H22.6213V30.3981H26.4077V40.8188C27.1786 40.9396 27.9576 41.0002 28.7378 41C29.5181 41.0002 30.2971 40.9396 31.0679 40.8188V30.3981H34.5427Z" fill="#1877F2"/>
</svg>
