<svg width="40" height="40" viewBox="0 0 40 40" fill="none" xmlns="http://www.w3.org/2000/svg">
<path opacity="0.1" d="M20 40C31.0457 40 40 31.0457 40 20C40 8.95431 31.0457 0 20 0C8.95431 0 0 8.95431 0 20C0 31.0457 8.95431 40 20 40Z" fill="#212121" fill-opacity="0.5"/>
<path d="M17.353 28.8233H22.6471C27.0589 28.8233 28.8236 27.0586 28.8236 22.6469V17.3527C28.8236 12.941 27.0589 11.1763 22.6471 11.1763H17.353C12.9412 11.1763 11.1765 12.941 11.1765 17.3527V22.6469C11.1765 27.0586 12.9412 28.8233 17.353 28.8233Z" stroke="#212121" stroke-opacity="0.5" stroke-linecap="round" stroke-linejoin="round"/>
<path d="M17.3531 18.235C18.3277 18.235 19.1178 17.4449 19.1178 16.4703C19.1178 15.4957 18.3277 14.7056 17.3531 14.7056C16.3785 14.7056 15.5884 15.4957 15.5884 16.4703C15.5884 17.4449 16.3785 18.235 17.3531 18.235Z" stroke="#212121" stroke-opacity="0.5" stroke-linecap="round" stroke-linejoin="round"/>
<path d="M11.7678 26.1321L16.1178 23.2115C16.8149 22.7439 17.8208 22.7968 18.4472 23.3351L18.7384 23.5909C19.4266 24.1821 20.5384 24.1821 21.2266 23.5909L24.8972 20.4409C25.5855 19.8498 26.6972 19.8498 27.3855 20.4409L28.8237 21.6762" stroke="#212121" stroke-opacity="0.5" stroke-linecap="round" stroke-linejoin="round"/>
</svg>
