<svg width="24" height="24" viewBox="0 0 24 24" fill="none" xmlns="http://www.w3.org/2000/svg">
<g clip-path="url(#clip0_359_5151)">
<path d="M8.40197 0.922907C6.03221 1.745 3.98853 3.30536 2.57112 5.37479C1.1537 7.44422 0.437271 9.91364 0.527047 12.4203C0.616824 14.927 1.50808 17.3389 3.0699 19.3016C4.63173 21.2643 6.78179 22.6745 9.20429 23.325C11.1683 23.8317 13.2259 23.854 15.2004 23.3898C16.9891 22.988 18.6428 22.1286 19.9995 20.8958C21.4116 19.5734 22.4366 17.8912 22.9642 16.0299C23.5378 14.0059 23.6398 11.8774 23.2626 9.80776H12.2339V14.3827H18.6209C18.4933 15.1123 18.2197 15.8088 17.8167 16.4302C17.4136 17.0517 16.8893 17.5855 16.2751 17.9996C15.4952 18.5155 14.616 18.8627 13.694 19.0187C12.7692 19.1907 11.8208 19.1907 10.896 19.0187C9.95879 18.825 9.07218 18.4381 8.29265 17.8829C7.04033 16.9964 6.10002 15.737 5.60588 14.2845C5.10339 12.8047 5.10339 11.2004 5.60588 9.72067C5.95762 8.68342 6.53908 7.73902 7.30688 6.95794C8.18553 6.04767 9.29793 5.39701 10.522 5.07734C11.7461 4.75767 13.0346 4.78134 14.2461 5.14576C15.1926 5.43629 16.058 5.94389 16.7736 6.62811C17.4937 5.91164 18.2127 5.19332 18.9304 4.47314C19.301 4.08588 19.7049 3.71714 20.0699 3.32061C18.9778 2.30423 17.6957 1.51336 16.2974 0.993319C13.7509 0.0686823 10.9645 0.0438336 8.40197 0.922907Z" fill="white"/>
<path d="M8.40081 0.921854C10.9632 0.0421835 13.7495 0.0663781 16.2962 0.990413C17.6948 1.51399 18.9763 2.30867 20.0669 3.32882C19.6963 3.72535 19.3054 4.09594 18.9274 4.48135C18.2084 5.19906 17.4901 5.91429 16.7724 6.62706C16.0569 5.94284 15.1914 5.43523 14.245 5.14471C13.0339 4.77901 11.7454 4.75397 10.521 5.07233C9.29656 5.3907 8.18348 6.04016 7.30387 6.94947C6.53607 7.73055 5.9546 8.67496 5.60287 9.7122L1.76172 6.73823C3.13662 4.01175 5.51717 1.92619 8.40081 0.921854Z" fill="#E33629"/>
<path d="M0.745384 9.68446C0.951842 8.66125 1.2946 7.67036 1.7645 6.73828L5.60565 9.71966C5.10316 11.1994 5.10316 12.8037 5.60565 14.2835C4.32589 15.2717 3.0455 16.2649 1.7645 17.263C0.588164 14.9215 0.229401 12.2536 0.745384 9.68446Z" fill="#F8BD00"/>
<path d="M12.2352 9.80469H23.2639C23.6412 11.8743 23.5391 14.0028 22.9656 16.0269C22.4379 17.8881 21.413 19.5703 20.0009 20.8927C18.7613 19.9254 17.5161 18.9656 16.2765 17.9984C16.891 17.5838 17.4156 17.0495 17.8187 16.4273C18.2218 15.8052 18.4951 15.1081 18.6223 14.3777H12.2352C12.2333 12.8546 12.2352 11.3297 12.2352 9.80469Z" fill="#587DBD"/>
<path d="M1.76172 17.2627C3.04272 16.2745 4.3231 15.2813 5.60287 14.2832C6.09799 15.7363 7.03964 16.9957 8.29334 17.8816C9.07529 18.4343 9.96382 18.818 10.9023 19.0082C11.827 19.1801 12.7755 19.1801 13.7002 19.0082C14.6222 18.8521 15.5014 18.505 16.2814 17.9891C17.521 18.9563 18.7662 19.9161 20.0058 20.8834C18.6492 22.1169 16.9955 22.977 15.2067 23.3793C13.2322 23.8435 11.1745 23.8212 9.21054 23.3144C7.65722 22.8997 6.20632 22.1686 4.94878 21.1669C3.61774 20.1101 2.53061 18.7784 1.76172 17.2627Z" fill="#319F43"/>
</g>
<defs>
<clipPath id="clip0_359_5151">
<rect width="24" height="24" fill="white"/>
</clipPath>
</defs>
</svg>
