<svg width="58" height="58" viewBox="0 0 58 58" fill="none" xmlns="http://www.w3.org/2000/svg">
<path d="M0 29C0 12.9837 12.9837 0 29 0C45.0163 0 58 12.9837 58 29C58 45.0163 45.0163 58 29 58C12.9837 58 0 45.0163 0 29Z" fill="white"/>
<path d="M0.75 29C0.75 13.398 13.398 0.75 29 0.75C44.602 0.75 57.25 13.398 57.25 29C57.25 44.602 44.602 57.25 29 57.25C13.398 57.25 0.75 44.602 0.75 29Z" stroke="black" stroke-opacity="0.04" stroke-width="1.5"/>
<g clip-path="url(#clip0_359_5150)">
<path d="M25.402 17.9229C23.0322 18.745 20.9885 20.3054 19.5711 22.3748C18.1537 24.4442 17.4373 26.9136 17.527 29.4203C17.6168 31.927 18.5081 34.3389 20.0699 36.3016C21.6317 38.2643 23.7818 39.6745 26.2043 40.325C28.1683 40.8317 30.2259 40.854 32.2004 40.3898C33.9891 39.988 35.6428 39.1286 36.9995 37.8958C38.4116 36.5734 39.4366 34.8912 39.9642 33.0299C40.5378 31.0059 40.6398 28.8774 40.2626 26.8078H29.2339V31.3827H35.6209C35.4933 32.1123 35.2197 32.8088 34.8167 33.4302C34.4136 34.0517 33.8893 34.5855 33.2751 34.9996C32.4952 35.5155 31.616 35.8627 30.694 36.0187C29.7692 36.1907 28.8208 36.1907 27.896 36.0187C26.9588 35.825 26.0722 35.4381 25.2926 34.8829C24.0403 33.9964 23.1 32.737 22.6059 31.2845C22.1034 29.8047 22.1034 28.2004 22.6059 26.7207C22.9576 25.6834 23.5391 24.739 24.3069 23.9579C25.1855 23.0477 26.2979 22.397 27.522 22.0773C28.7461 21.7577 30.0346 21.7813 31.2461 22.1458C32.1926 22.4363 33.058 22.9439 33.7736 23.6281C34.4937 22.9116 35.2127 22.1933 35.9304 21.4731C36.301 21.0859 36.7049 20.7171 37.0699 20.3206C35.9778 19.3042 34.6957 18.5134 33.2974 17.9933C30.7509 17.0687 27.9645 17.0438 25.402 17.9229Z" fill="white"/>
<path d="M25.4008 17.9219C27.9632 17.0422 30.7495 17.0664 33.2962 17.9904C34.6948 18.514 35.9763 19.3087 37.0669 20.3288C36.6963 20.7254 36.3054 21.0959 35.9274 21.4814C35.2084 22.1991 34.4901 22.9143 33.7724 23.6271C33.0569 22.9428 32.1914 22.4352 31.245 22.1447C30.0339 21.779 28.7454 21.754 27.521 22.0723C26.2966 22.3907 25.1835 23.0402 24.3039 23.9495C23.5361 24.7306 22.9546 25.675 22.6029 26.7122L18.7617 23.7382C20.1366 21.0117 22.5172 18.9262 25.4008 17.9219Z" fill="#E33629"/>
<path d="M17.7454 26.6845C17.9518 25.6613 18.2946 24.6704 18.7645 23.7383L22.6057 26.7197C22.1032 28.1994 22.1032 29.8037 22.6057 31.2835C21.3259 32.2717 20.0455 33.2649 18.7645 34.263C17.5882 31.9215 17.2294 29.2536 17.7454 26.6845Z" fill="#F8BD00"/>
<path d="M29.2352 26.8047H40.2639C40.6412 28.8743 40.5391 31.0028 39.9656 33.0269C39.4379 34.8881 38.413 36.5703 37.0009 37.8927C35.7613 36.9254 34.5161 35.9656 33.2765 34.9984C33.891 34.5838 34.4156 34.0495 34.8187 33.4273C35.2218 32.8052 35.4951 32.1081 35.6223 31.3777H29.2352C29.2333 29.8546 29.2352 28.3297 29.2352 26.8047Z" fill="#587DBD"/>
<path d="M18.7617 34.2627C20.0427 33.2745 21.3231 32.2813 22.6029 31.2832C23.098 32.7363 24.0396 33.9957 25.2933 34.8816C26.0753 35.4343 26.9638 35.818 27.9023 36.0082C28.827 36.1801 29.7755 36.1801 30.7002 36.0082C31.6222 35.8521 32.5014 35.505 33.2814 34.9891C34.521 35.9563 35.7662 36.9161 37.0058 37.8834C35.6492 39.1169 33.9955 39.977 32.2067 40.3793C30.2322 40.8435 28.1745 40.8212 26.2105 40.3144C24.6572 39.8997 23.2063 39.1686 21.9488 38.1669C20.6177 37.1101 19.5306 35.7784 18.7617 34.2627Z" fill="#319F43"/>
</g>
<defs>
<clipPath id="clip0_359_5150">
<rect width="24" height="24" fill="white" transform="translate(17 17)"/>
</clipPath>
</defs>
</svg>
