<svg width="44" height="44" viewBox="0 0 44 44" fill="none" xmlns="http://www.w3.org/2000/svg">
<rect width="44" height="44" rx="22" fill="#F9F9F9"/>
<path fill-rule="evenodd" clip-rule="evenodd" d="M25.25 21V23C25.25 24.519 26.481 25.75 28 25.75H30C31.519 25.75 32.75 24.519 32.75 23V21C32.75 19.481 31.519 18.25 30 18.25H28C26.481 18.25 25.25 19.481 25.25 21ZM26.75 21C26.75 20.31 27.31 19.75 28 19.75H30C30.69 19.75 31.25 20.31 31.25 21V23C31.25 23.69 30.69 24.25 30 24.25H28C27.31 24.25 26.75 23.69 26.75 23V21Z" fill="#7C7F82"/>
<path fill-rule="evenodd" clip-rule="evenodd" d="M11.25 14V16C11.25 17.519 12.481 18.75 14 18.75H16C17.519 18.75 18.75 17.519 18.75 16V14C18.75 12.481 17.519 11.25 16 11.25H14C12.481 11.25 11.25 12.481 11.25 14ZM12.75 14C12.75 13.31 13.31 12.75 14 12.75H16C16.69 12.75 17.25 13.31 17.25 14V16C17.25 16.69 16.69 17.25 16 17.25H14C13.31 17.25 12.75 16.69 12.75 16V14Z" fill="#7C7F82"/>
<path fill-rule="evenodd" clip-rule="evenodd" d="M11.25 28V30C11.25 31.519 12.481 32.75 14 32.75H16C17.519 32.75 18.75 31.519 18.75 30V28C18.75 26.481 17.519 25.25 16 25.25H14C12.481 25.25 11.25 26.481 11.25 28ZM12.75 28C12.75 27.31 13.31 26.75 14 26.75H16C16.69 26.75 17.25 27.31 17.25 28V30C17.25 30.69 16.69 31.25 16 31.25H14C13.31 31.25 12.75 30.69 12.75 30V28Z" fill="#7C7F82"/>
<path fill-rule="evenodd" clip-rule="evenodd" d="M14.961 26.749L15 26.75L15.032 26.746C15.176 26.726 15.75 26.604 15.75 25.987V25C15.75 24.403 15.987 23.831 16.409 23.409C16.831 22.987 17.403 22.75 18 22.75H26C26.414 22.75 26.75 22.414 26.75 22C26.75 21.586 26.414 21.25 26 21.25H18C17.005 21.25 16.052 21.645 15.348 22.348C14.645 23.052 14.25 24.005 14.25 25V25.987V25.993V26C14.25 26.052 14.255 26.103 14.266 26.152C14.286 26.259 14.326 26.347 14.378 26.419C14.506 26.609 14.719 26.737 14.961 26.749Z" fill="#7C7F82"/>
<path fill-rule="evenodd" clip-rule="evenodd" d="M28.961 19.749L29 19.75L29.032 19.746C29.176 19.726 29.75 19.604 29.75 18.987C29.75 18.913 29.75 18.517 29.75 18C29.75 17.005 29.355 16.052 28.652 15.348C27.948 14.645 26.995 14.25 26 14.25H18C17.586 14.25 17.25 14.586 17.25 15C17.25 15.414 17.586 15.75 18 15.75H26C26.597 15.75 27.169 15.987 27.591 16.409C28.013 16.831 28.25 17.403 28.25 18V18.987V18.993V19C28.25 19.052 28.255 19.103 28.266 19.152C28.286 19.259 28.326 19.347 28.378 19.419C28.506 19.609 28.719 19.737 28.961 19.749Z" fill="#7C7F82"/>
<path fill-rule="evenodd" clip-rule="evenodd" d="M18 29.7502H25C25.303 29.7502 25.577 29.5672 25.693 29.2872C25.809 29.0072 25.745 28.6842 25.53 28.4702L23.53 26.4702C23.238 26.1772 22.762 26.1772 22.47 26.4702C22.177 26.7622 22.177 27.2382 22.47 27.5302L23.189 28.2502H18C17.586 28.2502 17.25 28.5862 17.25 29.0002C17.25 29.4142 17.586 29.7502 18 29.7502Z" fill="#7C7F82"/>
<path fill-rule="evenodd" clip-rule="evenodd" d="M24.47 28.4702L22.47 30.4702C22.177 30.7622 22.177 31.2382 22.47 31.5302C22.762 31.8232 23.238 31.8232 23.53 31.5302L25.53 29.5302C25.823 29.2382 25.823 28.7622 25.53 28.4702C25.238 28.1772 24.762 28.1772 24.47 28.4702Z" fill="#7C7F82"/>
</svg>
