<svg width="24" height="24" viewBox="0 0 24 24" fill="none" xmlns="http://www.w3.org/2000/svg">
<path d="M4.38 9.65635L14.595 2.0251C14.7188 1.93135 14.895 1.9576 14.9888 2.08135L16.7213 4.39885C16.7963 4.5001 16.7963 4.63885 16.7213 4.7401C16.2413 5.3701 16.2338 6.25135 16.7063 6.8851C17.1788 7.51885 18.03 7.76635 18.7688 7.48135C18.8888 7.43635 19.02 7.47385 19.095 7.5751L20.6475 9.65635H4.38Z" fill="#5384BF"/>
<path d="M21.8288 13.6613C21.9487 13.6275 22.0312 13.515 22.0312 13.3912V10.5C22.0312 10.3462 21.9037 10.2188 21.75 10.2188H2.25C2.09625 10.2188 1.96875 10.3462 1.96875 10.5V13.3912C1.96875 13.515 2.05125 13.6275 2.175 13.6613C2.93625 13.8788 3.46875 14.58 3.46875 15.375C3.46875 16.17 2.93625 16.8712 2.175 17.0887C2.055 17.1225 1.96875 17.235 1.96875 17.3588V21C1.96875 21.1538 2.09625 21.2812 2.25 21.2812H21.75C21.9037 21.2812 22.0312 21.1538 22.0312 21V17.3588C22.0312 17.2313 21.9487 17.1225 21.825 17.0887C21.0638 16.8712 20.5312 16.17 20.5312 15.375C20.5312 14.58 21.0637 13.8788 21.8288 13.6613ZM8.565 16.2562C8.7 16.335 8.745 16.5075 8.66625 16.6387C8.61375 16.7287 8.52 16.7812 8.4225 16.7812C8.37375 16.7812 8.325 16.77 8.28375 16.7438L7.40625 16.2375V17.25C7.40625 17.4037 7.27875 17.5312 7.125 17.5312C6.97125 17.5312 6.84375 17.4037 6.84375 17.25V16.2375L5.96625 16.7438C5.92125 16.77 5.8725 16.7812 5.8275 16.7812C5.73 16.7812 5.63625 16.7325 5.58375 16.6387C5.505 16.5037 5.55375 16.3312 5.685 16.2562L6.5625 15.75L5.685 15.2438C5.55 15.165 5.505 14.9925 5.58375 14.8613C5.6625 14.7263 5.835 14.6813 5.96625 14.76L6.84375 15.2662V14.2537C6.84375 14.1 6.97125 13.9725 7.125 13.9725C7.27875 13.9725 7.40625 14.1 7.40625 14.2537V15.2662L8.28375 14.76C8.41875 14.6813 8.59125 14.73 8.66625 14.8613C8.74125 14.9925 8.69625 15.1688 8.565 15.2438L7.6875 15.75L8.565 16.2562ZM13.44 16.2562C13.575 16.335 13.62 16.5075 13.5413 16.6387C13.4888 16.7287 13.395 16.7812 13.2975 16.7812C13.2487 16.7812 13.2 16.77 13.1588 16.7438L12.2812 16.2375V17.25C12.2812 17.4037 12.1538 17.5312 12 17.5312C11.8462 17.5312 11.7188 17.4037 11.7188 17.25V16.2375L10.8412 16.7438C10.7963 16.77 10.7475 16.7812 10.7025 16.7812C10.605 16.7812 10.5112 16.7325 10.4587 16.6387C10.38 16.5037 10.4288 16.3312 10.56 16.2562L11.4375 15.75L10.56 15.2438C10.425 15.165 10.38 14.9925 10.4587 14.8613C10.5375 14.7263 10.71 14.6813 10.8412 14.76L11.7188 15.2662V14.2537C11.7188 14.1 11.8462 13.9725 12 13.9725C12.1538 13.9725 12.2812 14.1 12.2812 14.2537V15.2662L13.1588 14.76C13.2937 14.6813 13.4663 14.73 13.5413 14.8613C13.62 14.9963 13.5712 15.1688 13.44 15.2438L12.5625 15.75L13.44 16.2562ZM18.315 16.2562C18.45 16.335 18.495 16.5075 18.4163 16.6387C18.3638 16.7287 18.27 16.7812 18.1725 16.7812C18.1237 16.7812 18.075 16.77 18.0338 16.7438L17.1562 16.2375V17.25C17.1562 17.4037 17.0288 17.5312 16.875 17.5312C16.7212 17.5312 16.5938 17.4037 16.5938 17.25V16.2375L15.7162 16.7438C15.6713 16.77 15.6225 16.7812 15.5775 16.7812C15.48 16.7812 15.3862 16.7325 15.3337 16.6387C15.255 16.5037 15.3038 16.3312 15.435 16.2562L16.3125 15.75L15.435 15.2438C15.3 15.165 15.255 14.9925 15.3337 14.8613C15.4125 14.7263 15.5813 14.6813 15.7162 14.76L16.5938 15.2662V14.2537C16.5938 14.1 16.7212 13.9725 16.875 13.9725C17.0288 13.9725 17.1562 14.1 17.1562 14.2537V15.2662L18.0338 14.76C18.1688 14.6813 18.3412 14.73 18.4163 14.8613C18.495 14.9963 18.4463 15.1688 18.315 15.2438L17.4375 15.75L18.315 16.2562Z" fill="#021E38"/>
</svg>
