<svg width="18" height="23" viewBox="0 0 18 23" fill="none" xmlns="http://www.w3.org/2000/svg">
<path fill-rule="evenodd" clip-rule="evenodd" d="M0.456299 9.04329C0.456299 4.44746 4.1938 0.709961 8.78963 0.709961C13.3855 0.709961 17.123 4.44746 17.123 9.04329C17.123 14.8197 9.60074 22.4086 9.2813 22.7294C9.14519 22.8641 8.96741 22.9322 8.78963 22.9322C8.61185 22.9322 8.43408 22.8641 8.29797 22.7294C7.97852 22.4086 0.456299 14.8197 0.456299 9.04329ZM12.9564 9.04362C12.9564 11.3448 11.0909 13.2103 8.78971 13.2103C6.48853 13.2103 4.62305 11.3448 4.62305 9.04362C4.62305 6.74243 6.48853 4.87695 8.78971 4.87695C11.0909 4.87695 12.9564 6.74243 12.9564 9.04362Z" fill="white"/>
</svg>
