<svg width="23" height="22" viewBox="0 0 23 22" fill="none" xmlns="http://www.w3.org/2000/svg">
<path d="M2.59912 7.13197V16.0511C2.59912 17.7928 3.83662 18.5078 5.33995 17.6461L7.49412 16.4178C7.96162 16.152 8.74079 16.1245 9.22662 16.372L14.0391 18.7828C14.525 19.0211 15.3041 19.0028 15.7716 18.737L19.7408 16.4636C20.245 16.1703 20.6666 15.4553 20.6666 14.8686V5.94947C20.6666 4.2078 19.4291 3.4928 17.9258 4.35447L15.7716 5.5828C15.3041 5.84864 14.525 5.87614 14.0391 5.62864L9.22662 3.22697C8.74079 2.98864 7.96162 3.00697 7.49412 3.2728L3.52495 5.54614C3.01162 5.83947 2.59912 6.55447 2.59912 7.13197Z" stroke="white" stroke-width="1.5" stroke-linecap="round" stroke-linejoin="round"/>
<path d="M8.34668 3.6665V15.5832" stroke="white" stroke-width="1.5" stroke-linecap="round" stroke-linejoin="round"/>
<path d="M14.9191 6.06836V18.3334" stroke="white" stroke-width="1.5" stroke-linecap="round" stroke-linejoin="round"/>
</svg>
