<svg width="27" height="26" viewBox="0 0 27 26" fill="none" xmlns="http://www.w3.org/2000/svg">
<path d="M13.25 6.97656V10.5841" stroke="#9A9A9A" stroke-width="2" stroke-miterlimit="10" stroke-linecap="round"/>
<path d="M13.2717 2.1665C9.28501 2.1665 6.05668 5.39484 6.05668 9.3815V11.6565C6.05668 12.3932 5.75334 13.4982 5.37418 14.1265L3.99834 16.4232C3.15334 17.8423 3.73834 19.424 5.29834 19.944C10.4767 21.6665 16.0775 21.6665 21.2558 19.944C22.7183 19.4565 23.3467 17.7448 22.5558 16.4232L21.18 14.1265C20.8008 13.4982 20.4975 12.3823 20.4975 11.6565V9.3815C20.4867 5.4165 17.2367 2.1665 13.2717 2.1665Z" stroke="#9A9A9A" stroke-width="2" stroke-miterlimit="10" stroke-linecap="round"/>
<path d="M16.8575 20.3882C16.8575 22.3707 15.2325 23.9957 13.25 23.9957C12.2641 23.9957 11.3541 23.584 10.7041 22.934C10.0541 22.284 9.64246 21.374 9.64246 20.3882" stroke="#9A9A9A" stroke-width="2" stroke-miterlimit="10"/>
</svg>
