<svg width="44" height="44" viewBox="0 0 44 44" fill="none" xmlns="http://www.w3.org/2000/svg">
<rect width="44" height="44" rx="22" fill="#F9F9F9"/>
<path d="M31 21.5C31 26.75 26.75 31 21.5 31C16.25 31 12 26.75 12 21.5C12 16.25 16.25 12 21.5 12" stroke="#9A9A9A" stroke-width="1.5" stroke-linecap="round" stroke-linejoin="round"/>
<path d="M32 32L30 30" stroke="#9A9A9A" stroke-width="1.5" stroke-linecap="round" stroke-linejoin="round"/>
<path d="M24.5 16.1301C24.15 15.0301 24.56 13.6601 25.72 13.2901C26.33 13.0901 27.08 13.2601 27.51 13.8501C27.91 13.2401 28.69 13.1001 29.29 13.2901C30.45 13.6601 30.86 15.0301 30.51 16.1301C29.96 17.8801 28.04 18.7901 27.51 18.7901C26.97 18.7901 25.07 17.9001 24.5 16.1301Z" stroke="#9A9A9A" stroke-width="1.5" stroke-linecap="round" stroke-linejoin="round"/>
</svg>
