<svg width="27" height="26" viewBox="0 0 27 26" fill="none" xmlns="http://www.w3.org/2000/svg">
<path d="M13.25 6.97656V10.5841" stroke="#00C565" stroke-width="2" stroke-miterlimit="10" stroke-linecap="round"/>
<path d="M13.2717 2.16699C9.28501 2.16699 6.05668 5.39533 6.05668 9.38199V11.657C6.05668 12.3937 5.75334 13.4987 5.37418 14.127L3.99834 16.4237C3.15334 17.8428 3.73834 19.4245 5.29834 19.9445C10.4767 21.667 16.0775 21.667 21.2558 19.9445C22.7183 19.457 23.3467 17.7453 22.5558 16.4237L21.18 14.127C20.8008 13.4987 20.4975 12.3828 20.4975 11.657V9.38199C20.4867 5.41699 17.2367 2.16699 13.2717 2.16699Z" stroke="#00C565" stroke-width="2" stroke-miterlimit="10" stroke-linecap="round"/>
<path d="M16.8575 20.3887C16.8575 22.3712 15.2325 23.9962 13.25 23.9962C12.2641 23.9962 11.3541 23.5845 10.7041 22.9345C10.0541 22.2845 9.64246 21.3745 9.64246 20.3887" stroke="#00C565" stroke-width="2" stroke-miterlimit="10"/>
</svg>
