<svg width="44" height="44" viewBox="0 0 44 44" fill="none" xmlns="http://www.w3.org/2000/svg">
<rect width="44" height="44" rx="22" fill="#F9F9F9"/>
<path d="M12.0701 14.6004C12.8701 11.1404 18.0801 11.1404 18.8701 14.6004C19.3401 16.6304 18.0501 18.3504 16.9301 19.4204C16.1101 20.2004 14.8201 20.1904 14.0001 19.4204C12.8901 18.3504 11.6001 16.6304 12.0701 14.6004Z" stroke="#9A9A9A" stroke-width="1.5"/>
<path d="M25.07 26.6004C25.87 23.1404 31.11 23.1404 31.91 26.6004C32.38 28.6304 31.09 30.3504 29.96 31.4204C29.14 32.2004 27.84 32.1904 27.02 31.4204C25.89 30.3504 24.6 28.6304 25.07 26.6004Z" stroke="#9A9A9A" stroke-width="1.5"/>
<path d="M22.0001 15H24.6801C26.5301 15 27.3901 17.29 26.0001 18.51L18.0101 25.5C16.6201 26.71 17.4801 29 19.3201 29H22.0001" stroke="#9A9A9A" stroke-width="1.5" stroke-linecap="round" stroke-linejoin="round"/>
<path d="M15.4862 15.5H15.4978" stroke="#9A9A9A" stroke-width="1.5" stroke-linecap="round" stroke-linejoin="round"/>
<path d="M28.4862 27.5H28.4978" stroke="#9A9A9A" stroke-width="1.5" stroke-linecap="round" stroke-linejoin="round"/>
</svg>
