<svg width="130" height="130" viewBox="0 0 130 130" fill="none" xmlns="http://www.w3.org/2000/svg">
<circle cx="65" cy="65" r="65" fill="#D6F4DE"/>
<circle cx="64.62" cy="64.62" r="46.62" fill="#34C759"/>
<mask id="mask0_1450_1594" style="mask-type:luminance" maskUnits="userSpaceOnUse" x="47" y="48" width="35" height="35">
<path d="M64.5838 80.8042C66.6178 80.8067 68.6323 80.4073 70.5115 79.6289C72.3906 78.8505 74.0975 77.7084 75.534 76.2684C76.9741 74.8319 78.1161 73.125 78.8945 71.2458C79.6729 69.3666 80.0724 67.3522 80.0699 65.3181C80.0724 63.2841 79.6729 61.2696 78.8945 59.3904C78.1161 57.5112 76.9741 55.8044 75.534 54.3679C74.0975 52.9278 72.3906 51.7858 70.5115 51.0074C68.6323 50.229 66.6178 49.8295 64.5838 49.832C62.5497 49.8295 60.5353 50.229 58.6561 51.0074C56.7769 51.7858 55.07 52.9278 53.6335 54.3679C52.1935 55.8044 51.0514 57.5112 50.273 59.3904C49.4946 61.2696 49.0952 63.2841 49.0977 65.3181C49.0952 67.3522 49.4946 69.3666 50.273 71.2458C51.0514 73.125 52.1935 74.8319 53.6335 76.2684C55.07 77.7084 56.7769 78.8505 58.6561 79.6289C60.5353 80.4073 62.5497 80.8067 64.5838 80.8042Z" fill="white" stroke="white" stroke-width="3.09722" stroke-linejoin="round"/>
<path d="M58.3906 65.3177L63.0365 69.9635L72.3281 60.6719" stroke="black" stroke-width="3.09722" stroke-linecap="round" stroke-linejoin="round"/>
</mask>
<g mask="url(#mask0_1450_1594)">
<path d="M46 46.7344H83.1666V83.901H46V46.7344Z" fill="white"/>
</g>
</svg>
