<svg width="26" height="26" viewBox="0 0 26 26" fill="none" xmlns="http://www.w3.org/2000/svg">
<g clip-path="url(#clip0_365_14489)">
<path d="M14.7052 1.39088C15.2737 2.25771 16.4021 2.56018 17.3279 2.09355C18.3336 1.58684 19.5597 1.99117 20.0664 2.99683C20.1923 3.24656 20.2655 3.51956 20.2813 3.79877C20.3402 4.83389 21.1662 5.65987 22.2013 5.71881C23.3256 5.78267 24.1852 6.74592 24.1214 7.87024C24.1056 8.14944 24.0324 8.42244 23.9065 8.67218C23.4399 9.59795 23.7424 10.7264 24.6092 11.2949C25.551 11.9125 25.8136 13.1764 25.1963 14.118C25.043 14.3519 24.8432 14.5518 24.6092 14.7051C23.7424 15.2736 23.4399 16.402 23.9065 17.3278C24.4132 18.3334 24.0089 19.5596 23.0032 20.0663C22.7535 20.1922 22.4805 20.2654 22.2013 20.2811C21.1662 20.3401 20.3402 21.1661 20.2813 22.2012C20.2174 23.3255 19.2542 24.1851 18.1298 24.1212C17.8506 24.1055 17.5776 24.0323 17.3279 23.9064C16.4021 23.4398 15.2737 23.7422 14.7052 24.6091C14.0876 25.5509 12.8237 25.8135 11.8821 25.1962C11.6482 25.0429 11.4483 24.843 11.295 24.6091C10.7265 23.7422 9.59807 23.4398 8.6723 23.9064C7.66665 24.4131 6.44047 24.0088 5.93377 23.0031C5.80787 22.7534 5.7347 22.4804 5.71894 22.2012C5.65999 21.1661 4.83401 20.3401 3.79889 20.2811C2.67457 20.2173 1.81498 19.254 1.87884 18.1297C1.89461 17.8505 1.96777 17.5775 2.09367 17.3278C2.5603 16.402 2.25783 15.2736 1.39101 14.7051C0.449208 14.0875 0.186549 12.8235 0.803901 11.882C0.957205 11.648 1.15704 11.4482 1.39101 11.2949C2.25783 10.7264 2.5603 9.59795 2.09367 8.67218C1.58697 7.66652 1.9913 6.44035 2.99695 5.93365C3.24668 5.80774 3.51968 5.73458 3.79889 5.71881C4.83401 5.65987 5.65999 4.83389 5.71894 3.79877C5.78279 2.67445 6.74605 1.81486 7.87036 1.87872C8.14957 1.89449 8.42257 1.96765 8.6723 2.09355C9.59807 2.56018 10.7265 2.25771 11.295 1.39088C11.9126 0.449086 13.1765 0.186427 14.1181 0.803779C14.3518 0.957342 14.5516 1.15718 14.7052 1.39088Z" fill="#FBBC05"/>
<path d="M24.6092 11.2945C23.7424 10.726 23.4399 9.59757 23.9065 8.6718C24.2212 8.05316 24.1969 7.31663 23.8419 6.72021C22.7603 9.24029 18.2141 17.8912 5.58142 21.5767C5.66001 21.7763 5.70629 21.987 5.71895 22.2011C5.78281 23.3254 6.74607 24.185 7.87038 24.1211C8.14959 24.1054 8.42259 24.0322 8.67232 23.9063C9.59809 23.4397 10.7265 23.7421 11.295 24.609C11.9126 25.5508 13.1766 25.8134 14.1181 25.1961C14.3521 25.0428 14.5519 24.8429 14.7052 24.609C15.2737 23.7421 16.4021 23.4397 17.3279 23.9063C18.3336 24.413 19.5597 24.0087 20.0664 23.003C20.1923 22.7533 20.2655 22.4803 20.2813 22.2011C20.3402 21.1659 21.1662 20.34 22.2013 20.281C23.3256 20.2172 24.1852 19.2539 24.1214 18.1296C24.1056 17.8504 24.0324 17.5774 23.9065 17.3277C23.4399 16.4019 23.7424 15.2734 24.6092 14.7049C25.551 14.0876 25.8137 12.8234 25.1963 11.8819C25.0428 11.6479 24.8429 11.4481 24.6092 11.2945Z" fill="#F4950C"/>
<path d="M13 22.5653C18.2828 22.5653 22.5654 18.2827 22.5654 12.9999C22.5654 7.71712 18.2828 3.43457 13 3.43457C7.71724 3.43457 3.43469 7.71712 3.43469 12.9999C3.43469 18.2827 7.71724 22.5653 13 22.5653Z" fill="#FFE161"/>
<path d="M7.62329 20.9117C11.9921 23.8813 17.9412 22.7469 20.9108 18.3782C22.5912 15.9062 23.0194 12.7907 22.068 9.95703C19.8367 13.338 15.4826 18.0961 7.62329 20.9117Z" fill="#FBBC05"/>
<path d="M13.5903 9.89795H14.1073C14.393 9.89795 14.6244 10.1293 14.6244 10.415V16.1025C14.6244 16.3882 14.393 16.6195 14.1073 16.6195H13.5903C13.3046 16.6195 13.0732 16.3882 13.0732 16.1025V10.415C13.0732 10.1293 13.3046 9.89795 13.5903 9.89795Z" fill="#FBBC05"/>
<path d="M18.6881 9.89818H16.6926C16.4069 9.89818 16.1755 10.1296 16.1755 10.4152V16.1027C16.1755 16.3884 16.4069 16.6198 16.6926 16.6198H17.2096C17.4953 16.6198 17.7267 16.3884 17.7267 16.1027V14.5516H18.7608C20.0464 14.5513 21.0885 13.509 21.0882 12.2233C21.0882 12.1083 21.0797 11.9935 21.0627 11.88C20.869 10.7236 19.8603 9.88189 18.6881 9.89818ZM18.7228 13.0005H17.7267V11.4493H18.7608C19.1894 11.4496 19.5368 11.797 19.5366 12.2259C19.5366 12.274 19.5322 12.3221 19.5231 12.3694C19.4417 12.7443 19.1062 13.0087 18.7228 13.0005Z" fill="#FBBC05"/>
<path d="M9.57481 16.2734L11.5654 10.5859C11.6598 10.3162 11.5179 10.0213 11.2482 9.92716C11.1934 9.90777 11.1358 9.89795 11.0776 9.89795H10.529C10.3093 9.89795 10.1136 10.0368 10.0409 10.2444L8.67825 14.1429L7.31532 10.2444C7.24293 10.0368 7.04697 9.89795 6.82723 9.89795H6.27864C5.99297 9.89795 5.7616 10.1293 5.7616 10.415C5.7616 10.4732 5.77142 10.5308 5.79055 10.5859L7.78118 16.2734C7.85408 16.4807 8.04978 16.6195 8.26953 16.6195H9.08697C9.30672 16.6195 9.50242 16.4807 9.57481 16.2734Z" fill="#FBBC05"/>
<path d="M13.2585 9.63916H13.7755C14.0612 9.63916 14.2926 9.87054 14.2926 10.1562V15.8437C14.2926 16.1294 14.0612 16.3608 13.7755 16.3608H13.2585C12.9728 16.3608 12.7415 16.1294 12.7415 15.8437V10.1562C12.7415 9.87054 12.9728 9.63916 13.2585 9.63916Z" fill="#FF1849"/>
<path d="M18.3563 9.63939H16.3608C16.0751 9.63939 15.8438 9.87077 15.8438 10.1564V15.8439C15.8438 16.1296 16.0751 16.361 16.3608 16.361H16.8778C17.1635 16.361 17.3949 16.1296 17.3949 15.8439V14.2928H18.429C19.7146 14.2925 20.7567 13.2502 20.7565 11.9643C20.7565 11.8492 20.7479 11.7345 20.7309 11.621C20.5372 10.4649 19.5287 9.62311 18.3563 9.63939ZM18.391 12.7417H17.3949V11.1905H18.429C18.8576 11.1908 19.2051 11.5382 19.2048 11.9671C19.2048 12.0152 19.2004 12.0633 19.1914 12.1106C19.1099 12.4855 18.7744 12.7499 18.391 12.7417Z" fill="#FF1849"/>
<path d="M9.24339 16.0146L11.234 10.3271C11.3284 10.0574 11.1864 9.76248 10.9168 9.66837C10.8617 9.64898 10.8041 9.63916 10.7459 9.63916H10.1976C9.97785 9.63916 9.78215 9.77799 9.7095 9.98558L8.34657 13.8841L6.98364 9.98558C6.91125 9.77799 6.71555 9.63916 6.49555 9.63916H5.94722C5.66155 9.63916 5.43018 9.87054 5.43018 10.1562C5.43018 10.2144 5.44 10.272 5.45913 10.3271L7.44975 16.0146C7.5224 16.2219 7.7181 16.3608 7.93785 16.3608H8.75529C8.97504 16.3608 9.17074 16.2219 9.24339 16.0146Z" fill="#FF1849"/>
</g>
<defs>
<clipPath id="clip0_365_14489">
<rect width="26" height="26" fill="white"/>
</clipPath>
</defs>
</svg>
