<svg width="44" height="44" viewBox="0 0 44 44" fill="none" xmlns="http://www.w3.org/2000/svg">
<path d="M39.5216 22.495L32.5805 7.75893C32.0143 6.55701 30.4845 6.18241 29.4272 6.98687L27.1813 8.69539C26.7011 9.06063 24.3506 10.9366 22 10.9366C19.6495 10.9366 17.2989 9.06063 16.8188 8.69539L14.5729 6.98687C13.5155 6.18249 11.9857 6.5571 11.4196 7.75893L4.47839 22.4949H39.5216V22.495Z" fill="url(#paint0_linear_546_1462)"/>
<path d="M39.5216 22.495L32.5805 7.75893C32.0143 6.55701 30.4845 6.18241 29.4272 6.98687L27.1813 8.69539C26.7011 9.06063 24.3506 10.9366 22 10.9366C19.6495 10.9366 17.2989 9.06063 16.8188 8.69539L14.5729 6.98687C13.5155 6.18249 11.9857 6.5571 11.4196 7.75893L4.47839 22.4949H39.5216V22.495Z" fill="url(#paint1_linear_546_1462)"/>
<path d="M41.1313 24.3919L43.9619 8.42029C44.3077 6.46925 42.2273 4.99577 40.5015 5.96944L34.0361 9.6174C30.7544 11.469 26.5998 10.4701 24.5185 7.32897L23.2138 5.35989C22.638 4.49071 21.362 4.49071 20.7861 5.35989L19.4814 7.32897C17.4002 10.4701 13.2455 11.469 9.96382 9.6174L3.4984 5.96944C1.77269 4.99577 -0.307773 6.46925 0.0380398 8.42029L2.86865 24.3919H41.1313Z" fill="url(#paint2_linear_546_1462)"/>
<path d="M31.5819 10.4624C30.8642 10.5709 30.1398 10.5696 29.4327 10.4624H14.567C13.8599 10.5696 13.1355 10.5709 12.4178 10.4624H0.399902L2.86846 24.3912H41.1312L43.5997 10.4624H31.5819Z" fill="url(#paint3_linear_546_1462)"/>
<path d="M41.1308 24.3918L43.9614 8.42025C44.3073 6.46921 42.2268 4.99573 40.5011 5.9694L34.0357 9.61736C30.754 11.469 26.5993 10.47 24.5181 7.32893L23.2134 5.35984C22.9254 4.92526 22.4625 4.70801 21.9995 4.70801V24.3919H41.1308V24.3918Z" fill="url(#paint4_linear_546_1462)"/>
<path d="M22.0003 17.1988C24.1748 17.1988 25.9376 15.436 25.9376 13.2615C25.9376 11.087 24.1748 9.32422 22.0003 9.32422C19.8258 9.32422 18.063 11.087 18.063 13.2615C18.063 15.436 19.8258 17.1988 22.0003 17.1988Z" fill="url(#paint5_linear_546_1462)"/>
<path d="M22.0001 16.1821C23.6129 16.1821 24.9203 14.8747 24.9203 13.262C24.9203 11.6492 23.6129 10.3418 22.0001 10.3418C20.3874 10.3418 19.08 11.6492 19.08 13.262C19.08 14.8747 20.3874 16.1821 22.0001 16.1821Z" fill="url(#paint6_linear_546_1462)"/>
<path d="M19.0798 13.2612C19.0798 14.874 20.3872 16.1814 22 16.1814C23.6128 16.1814 24.9201 14.8739 24.9201 13.2612C24.9201 12.912 24.8586 12.5771 24.7461 12.2666H19.2538C19.1414 12.5771 19.0798 12.9119 19.0798 13.2612Z" fill="url(#paint7_linear_546_1462)"/>
<path d="M19.9355 15.3267C21.0759 16.4671 22.9248 16.4671 24.0652 15.3267C25.2056 14.1863 25.2056 12.3373 24.0652 11.1969C23.8182 10.95 23.5379 10.7567 23.2389 10.6167L19.3552 14.5004C19.4952 14.7994 19.6885 15.0797 19.9355 15.3267Z" fill="url(#paint8_linear_546_1462)"/>
<path d="M6.89386 18.8461C8.43148 18.8461 9.67798 17.5996 9.67798 16.0619C9.67798 14.5243 8.43148 13.2778 6.89386 13.2778C5.35623 13.2778 4.10974 14.5243 4.10974 16.0619C4.10974 17.5996 5.35623 18.8461 6.89386 18.8461Z" fill="url(#paint9_linear_546_1462)"/>
<path d="M6.89376 18.1259C8.03418 18.1259 8.95867 17.2014 8.95867 16.061C8.95867 14.9206 8.03418 13.9961 6.89376 13.9961C5.75335 13.9961 4.82886 14.9206 4.82886 16.061C4.82886 17.2014 5.75335 18.1259 6.89376 18.1259Z" fill="url(#paint10_linear_546_1462)"/>
<path d="M4.82874 16.0622C4.82874 17.2026 5.75325 18.1271 6.89364 18.1271C8.03403 18.1271 8.95855 17.2026 8.95855 16.0622C8.95855 15.8152 8.91506 15.5785 8.83548 15.3589H4.95171C4.87222 15.5785 4.82874 15.8152 4.82874 16.0622Z" fill="url(#paint11_linear_546_1462)"/>
<path d="M5.43354 17.5223C6.2399 18.3287 7.54735 18.3287 8.3537 17.5223C9.16005 16.716 9.16005 15.4085 8.3537 14.6022C8.17908 14.4275 7.9809 14.2909 7.76941 14.1919L5.02319 16.9381C5.12228 17.1495 5.25892 17.3477 5.43354 17.5223Z" fill="url(#paint12_linear_546_1462)"/>
<path d="M37.1063 18.8461C38.6439 18.8461 39.8904 17.5996 39.8904 16.0619C39.8904 14.5243 38.6439 13.2778 37.1063 13.2778C35.5686 13.2778 34.3221 14.5243 34.3221 16.0619C34.3221 17.5996 35.5686 18.8461 37.1063 18.8461Z" fill="url(#paint13_linear_546_1462)"/>
<path d="M37.1062 18.1259C38.2466 18.1259 39.1711 17.2014 39.1711 16.061C39.1711 14.9206 38.2466 13.9961 37.1062 13.9961C35.9658 13.9961 35.0413 14.9206 35.0413 16.061C35.0413 17.2014 35.9658 18.1259 37.1062 18.1259Z" fill="url(#paint14_linear_546_1462)"/>
<path d="M35.0414 16.0622C35.0414 17.2026 35.9659 18.1271 37.1063 18.1271C38.2467 18.1271 39.1712 17.2026 39.1712 16.0622C39.1712 15.8152 39.1277 15.5785 39.0481 15.3589H35.1644C35.0849 15.5785 35.0414 15.8152 35.0414 16.0622Z" fill="url(#paint15_linear_546_1462)"/>
<path d="M35.6459 17.5223C36.4523 18.3287 37.7598 18.3287 38.5661 17.5223C39.3725 16.716 39.3725 15.4085 38.5661 14.6022C38.3915 14.4275 38.1933 14.2909 37.9818 14.1919L35.2356 16.9381C35.3347 17.1495 35.4713 17.3477 35.6459 17.5223Z" fill="url(#paint16_linear_546_1462)"/>
<path d="M24.9865 17.81C23.2904 16.2775 20.7098 16.2775 19.0138 17.81C18.308 18.4477 17.417 18.8468 16.47 18.9372C8.20669 19.7261 2.16528 22.2378 2.16528 25.2147V32.7573H41.835V25.2147C41.835 22.2377 35.7936 19.726 27.5303 18.9372C26.5834 18.8468 25.6923 18.4476 24.9865 17.81Z" fill="url(#paint17_linear_546_1462)"/>
<path d="M24.9865 17.81C23.2904 16.2775 20.7098 16.2775 19.0138 17.81C18.308 18.4477 17.417 18.8468 16.47 18.9372C8.20669 19.7261 2.16528 22.2378 2.16528 25.2147V32.7573H41.835V25.2147C41.835 22.2377 35.7936 19.726 27.5303 18.9372C26.5834 18.8468 25.6923 18.4476 24.9865 17.81Z" fill="url(#paint18_linear_546_1462)"/>
<path d="M41.8347 28.4263V32.757H2.16565V28.4263C2.16565 24.8167 11.0454 21.8906 22.0002 21.8906C32.955 21.8906 41.8347 24.8167 41.8347 28.4263Z" fill="url(#paint19_linear_546_1462)"/>
<path d="M41.8347 28.4263V32.757H2.16565V28.4263C2.16565 24.8167 11.0454 21.8906 22.0002 21.8906C32.955 21.8906 41.8347 24.8167 41.8347 28.4263Z" fill="url(#paint20_linear_546_1462)"/>
<path d="M41.8353 32.7573V25.2147C41.8353 22.2377 35.7939 19.726 27.5306 18.9372C26.5836 18.8468 25.6926 18.4477 24.9868 17.81C24.1388 17.0438 23.0696 16.6606 22.0005 16.6606V32.7573H41.8353Z" fill="url(#paint21_linear_546_1462)"/>
<path d="M41.8353 32.7573V25.2147C41.8353 22.2377 35.7939 19.726 27.5306 18.9372C26.5836 18.8468 25.6926 18.4477 24.9868 17.81C24.1388 17.0438 23.0696 16.6606 22.0005 16.6606V32.7573H41.8353Z" fill="url(#paint22_linear_546_1462)"/>
<path d="M22.0005 39.2923C32.9549 39.2923 41.8353 36.3663 41.8353 32.757C41.8353 29.1476 32.9549 26.2217 22.0005 26.2217C11.046 26.2217 2.16565 29.1476 2.16565 32.757C2.16565 36.3663 11.046 39.2923 22.0005 39.2923Z" fill="url(#paint23_linear_546_1462)"/>
<path d="M2.16541 32.7574C2.16541 31.4573 3.31783 30.246 5.3041 29.228H38.6963C40.6826 30.246 41.835 31.4573 41.835 32.7574C41.835 36.3667 32.9547 39.2927 22.0002 39.2927C11.0458 39.2926 2.16541 36.3667 2.16541 32.7574Z" fill="url(#paint24_linear_546_1462)"/>
<path d="M21.9998 37.0299C30.3426 37.0299 37.1058 35.3343 37.1058 33.2427C37.1058 31.1511 30.3426 29.4556 21.9998 29.4556C13.6571 29.4556 6.89392 31.1511 6.89392 33.2427C6.89392 35.3343 13.6571 37.0299 21.9998 37.0299Z" fill="url(#paint25_linear_546_1462)"/>
<path d="M21.9998 37.0299C30.3426 37.0299 37.1058 35.3343 37.1058 33.2427C37.1058 31.1511 30.3426 29.4556 21.9998 29.4556C13.6571 29.4556 6.89392 31.1511 6.89392 33.2427C6.89392 35.3343 13.6571 37.0299 21.9998 37.0299Z" fill="url(#paint26_linear_546_1462)"/>
<path d="M23.1399 26.2334C33.5638 26.428 41.8347 29.2745 41.8347 32.7577C41.8347 36.2409 33.5638 39.0873 23.1399 39.282V26.2334Z" fill="url(#paint27_linear_546_1462)"/>
<path d="M41.8344 29.8204V29.4547C41.8344 25.8461 32.9547 22.9199 21.9999 22.9199C11.0451 22.9199 2.16534 25.8461 2.16534 29.4547V29.8204C1.92867 29.3848 1.80518 28.9344 1.80518 28.4748C1.80518 28.0152 1.92858 27.5648 2.16534 27.1292C3.95035 23.8429 12.1521 21.3589 21.9999 21.3589C31.8476 21.3589 40.0494 23.8429 41.8344 27.1292C42.0711 27.5648 42.1946 28.0152 42.1946 28.4748C42.1946 28.9344 42.0711 29.3848 41.8344 29.8204Z" fill="url(#paint28_linear_546_1462)"/>
<path d="M41.8344 29.8204V29.4547C41.8344 25.8461 32.9547 22.9199 21.9999 22.9199C11.0451 22.9199 2.16534 25.8461 2.16534 29.4547V29.8204C1.92867 29.3848 1.80518 28.9344 1.80518 28.4748C1.80518 28.0152 1.92858 27.5648 2.16534 27.1292C3.95035 23.8429 12.1521 21.3589 21.9999 21.3589C31.8476 21.3589 40.0494 23.8429 41.8344 27.1292C42.0711 27.5648 42.1946 28.0152 42.1946 28.4748C42.1946 28.9344 42.0711 29.3848 41.8344 29.8204Z" fill="url(#paint29_linear_546_1462)"/>
<defs>
<linearGradient id="paint0_linear_546_1462" x1="9.85791" y1="10.6191" x2="25.6892" y2="18.3835" gradientUnits="userSpaceOnUse">
<stop stop-color="#FEF0AE"/>
<stop offset="1" stop-color="#FBC56D"/>
</linearGradient>
<linearGradient id="paint1_linear_546_1462" x1="22" y1="0.786134" x2="22" y2="11.2904" gradientUnits="userSpaceOnUse">
<stop stop-color="#DC8758" stop-opacity="0"/>
<stop offset="0.2153" stop-color="#DD8654" stop-opacity="0.215"/>
<stop offset="0.4291" stop-color="#E28448" stop-opacity="0.429"/>
<stop offset="0.6424" stop-color="#EA8034" stop-opacity="0.642"/>
<stop offset="0.8543" stop-color="#F47B18" stop-opacity="0.854"/>
<stop offset="1" stop-color="#FE7701"/>
</linearGradient>
<linearGradient id="paint2_linear_546_1462" x1="16.2266" y1="14.55" x2="25.019" y2="14.55" gradientUnits="userSpaceOnUse">
<stop stop-color="#FEF0AE"/>
<stop offset="1" stop-color="#FBC56D"/>
</linearGradient>
<linearGradient id="paint3_linear_546_1462" x1="21.9999" y1="15.3868" x2="21.9999" y2="25.433" gradientUnits="userSpaceOnUse">
<stop stop-color="#DC8758" stop-opacity="0"/>
<stop offset="0.2153" stop-color="#DD8654" stop-opacity="0.215"/>
<stop offset="0.4291" stop-color="#E28448" stop-opacity="0.429"/>
<stop offset="0.6424" stop-color="#EA8034" stop-opacity="0.642"/>
<stop offset="0.8543" stop-color="#F47B18" stop-opacity="0.854"/>
<stop offset="1" stop-color="#FE7701"/>
</linearGradient>
<linearGradient id="paint4_linear_546_1462" x1="36.1239" y1="15.8635" x2="42.033" y2="17.0454" gradientUnits="userSpaceOnUse">
<stop stop-color="#DC8758" stop-opacity="0"/>
<stop offset="0.2153" stop-color="#DD8654" stop-opacity="0.215"/>
<stop offset="0.4291" stop-color="#E28448" stop-opacity="0.429"/>
<stop offset="0.6424" stop-color="#EA8034" stop-opacity="0.642"/>
<stop offset="0.8543" stop-color="#F47B18" stop-opacity="0.854"/>
<stop offset="1" stop-color="#FE7701"/>
</linearGradient>
<linearGradient id="paint5_linear_546_1462" x1="24.0561" y1="15.3173" x2="19.3255" y2="10.5867" gradientUnits="userSpaceOnUse">
<stop stop-color="#FEF0AE"/>
<stop offset="1" stop-color="#FBC56D"/>
</linearGradient>
<linearGradient id="paint6_linear_546_1462" x1="20.6701" y1="11.8162" x2="23.2299" y2="14.5986" gradientUnits="userSpaceOnUse">
<stop stop-color="#FD4755"/>
<stop offset="0.3362" stop-color="#E43F48"/>
<stop offset="1" stop-color="#A72B2B"/>
</linearGradient>
<linearGradient id="paint7_linear_546_1462" x1="22" y1="13.1039" x2="22" y2="16.3068" gradientUnits="userSpaceOnUse">
<stop stop-color="#A72B2B" stop-opacity="0"/>
<stop offset="1" stop-color="#481F05"/>
</linearGradient>
<linearGradient id="paint8_linear_546_1462" x1="22.4559" y1="13.6157" x2="24.2861" y2="15.0379" gradientUnits="userSpaceOnUse">
<stop stop-color="#A72B2B" stop-opacity="0"/>
<stop offset="1" stop-color="#481F05"/>
</linearGradient>
<linearGradient id="paint9_linear_546_1462" x1="8.34758" y1="17.5157" x2="5.00255" y2="14.1706" gradientUnits="userSpaceOnUse">
<stop stop-color="#FEF0AE"/>
<stop offset="1" stop-color="#FBC56D"/>
</linearGradient>
<linearGradient id="paint10_linear_546_1462" x1="5.95335" y1="15.0388" x2="7.76336" y2="17.0062" gradientUnits="userSpaceOnUse">
<stop stop-color="#BBEC6C"/>
<stop offset="1" stop-color="#81B823"/>
</linearGradient>
<linearGradient id="paint11_linear_546_1462" x1="6.89364" y1="15.9509" x2="6.89364" y2="18.2157" gradientUnits="userSpaceOnUse">
<stop stop-color="#026841" stop-opacity="0"/>
<stop offset="0.2391" stop-color="#0A6644" stop-opacity="0.239"/>
<stop offset="0.6113" stop-color="#20604D" stop-opacity="0.611"/>
<stop offset="1" stop-color="#3E5959"/>
</linearGradient>
<linearGradient id="paint12_linear_546_1462" x1="7.2158" y1="16.3126" x2="8.50994" y2="17.3181" gradientUnits="userSpaceOnUse">
<stop stop-color="#026841" stop-opacity="0"/>
<stop offset="0.2391" stop-color="#0A6644" stop-opacity="0.239"/>
<stop offset="0.6113" stop-color="#20604D" stop-opacity="0.611"/>
<stop offset="1" stop-color="#3E5959"/>
</linearGradient>
<linearGradient id="paint13_linear_546_1462" x1="38.5599" y1="17.5157" x2="35.2149" y2="14.1706" gradientUnits="userSpaceOnUse">
<stop stop-color="#FEF0AE"/>
<stop offset="1" stop-color="#FBC56D"/>
</linearGradient>
<linearGradient id="paint14_linear_546_1462" x1="36.1657" y1="15.0388" x2="37.9757" y2="17.0062" gradientUnits="userSpaceOnUse">
<stop stop-color="#BBEC6C"/>
<stop offset="1" stop-color="#81B823"/>
</linearGradient>
<linearGradient id="paint15_linear_546_1462" x1="37.1063" y1="15.9509" x2="37.1063" y2="18.2157" gradientUnits="userSpaceOnUse">
<stop stop-color="#026841" stop-opacity="0"/>
<stop offset="0.2391" stop-color="#0A6644" stop-opacity="0.239"/>
<stop offset="0.6113" stop-color="#20604D" stop-opacity="0.611"/>
<stop offset="1" stop-color="#3E5959"/>
</linearGradient>
<linearGradient id="paint16_linear_546_1462" x1="37.4282" y1="16.3126" x2="38.7223" y2="17.3181" gradientUnits="userSpaceOnUse">
<stop stop-color="#026841" stop-opacity="0"/>
<stop offset="0.2391" stop-color="#0A6644" stop-opacity="0.239"/>
<stop offset="0.6113" stop-color="#20604D" stop-opacity="0.611"/>
<stop offset="1" stop-color="#3E5959"/>
</linearGradient>
<linearGradient id="paint17_linear_546_1462" x1="12.8783" y1="24.7089" x2="29.0349" y2="24.7089" gradientUnits="userSpaceOnUse">
<stop stop-color="#FEF0AE"/>
<stop offset="1" stop-color="#FBC56D"/>
</linearGradient>
<linearGradient id="paint18_linear_546_1462" x1="20.2409" y1="17.5386" x2="22.6045" y2="32.8041" gradientUnits="userSpaceOnUse">
<stop stop-color="#DC8758" stop-opacity="0"/>
<stop offset="0.2153" stop-color="#DD8654" stop-opacity="0.215"/>
<stop offset="0.4291" stop-color="#E28448" stop-opacity="0.429"/>
<stop offset="0.6424" stop-color="#EA8034" stop-opacity="0.642"/>
<stop offset="0.8543" stop-color="#F47B18" stop-opacity="0.854"/>
<stop offset="1" stop-color="#FE7701"/>
</linearGradient>
<linearGradient id="paint19_linear_546_1462" x1="22.7188" y1="26.54" x2="23.5067" y2="22.2066" gradientUnits="userSpaceOnUse">
<stop stop-color="#DC8758" stop-opacity="0"/>
<stop offset="0.2153" stop-color="#DD8654" stop-opacity="0.215"/>
<stop offset="0.4291" stop-color="#E28448" stop-opacity="0.429"/>
<stop offset="0.6424" stop-color="#EA8034" stop-opacity="0.642"/>
<stop offset="0.8543" stop-color="#F47B18" stop-opacity="0.854"/>
<stop offset="1" stop-color="#FE7701"/>
</linearGradient>
<linearGradient id="paint20_linear_546_1462" x1="20.0309" y1="25.0145" x2="18.3237" y2="20.3529" gradientUnits="userSpaceOnUse">
<stop stop-color="#DC8758" stop-opacity="0"/>
<stop offset="0.2153" stop-color="#DD8654" stop-opacity="0.215"/>
<stop offset="0.4291" stop-color="#E28448" stop-opacity="0.429"/>
<stop offset="0.6424" stop-color="#EA8034" stop-opacity="0.642"/>
<stop offset="0.8543" stop-color="#F47B18" stop-opacity="0.854"/>
<stop offset="1" stop-color="#FE7701"/>
</linearGradient>
<linearGradient id="paint21_linear_546_1462" x1="36.614" y1="24.7089" x2="40.7924" y2="24.7089" gradientUnits="userSpaceOnUse">
<stop stop-color="#DC8758" stop-opacity="0"/>
<stop offset="0.2153" stop-color="#DD8654" stop-opacity="0.215"/>
<stop offset="0.4291" stop-color="#E28448" stop-opacity="0.429"/>
<stop offset="0.6424" stop-color="#EA8034" stop-opacity="0.642"/>
<stop offset="0.8543" stop-color="#F47B18" stop-opacity="0.854"/>
<stop offset="1" stop-color="#FE7701"/>
</linearGradient>
<linearGradient id="paint22_linear_546_1462" x1="24.0136" y1="22.8419" x2="17.8089" y2="18.607" gradientUnits="userSpaceOnUse">
<stop stop-color="#DC8758" stop-opacity="0"/>
<stop offset="0.2153" stop-color="#DD8654" stop-opacity="0.215"/>
<stop offset="0.4291" stop-color="#E28448" stop-opacity="0.429"/>
<stop offset="0.6424" stop-color="#EA8034" stop-opacity="0.642"/>
<stop offset="0.8543" stop-color="#F47B18" stop-opacity="0.854"/>
<stop offset="1" stop-color="#FE7701"/>
</linearGradient>
<linearGradient id="paint23_linear_546_1462" x1="22.0005" y1="26.8876" x2="22.0005" y2="39.0434" gradientUnits="userSpaceOnUse">
<stop stop-color="#FEF0AE"/>
<stop offset="1" stop-color="#FBC56D"/>
</linearGradient>
<linearGradient id="paint24_linear_546_1462" x1="22.0002" y1="34.3246" x2="22.0002" y2="39.7653" gradientUnits="userSpaceOnUse">
<stop stop-color="#DC8758" stop-opacity="0"/>
<stop offset="0.2153" stop-color="#DD8654" stop-opacity="0.215"/>
<stop offset="0.4291" stop-color="#E28448" stop-opacity="0.429"/>
<stop offset="0.6424" stop-color="#EA8034" stop-opacity="0.642"/>
<stop offset="0.8543" stop-color="#F47B18" stop-opacity="0.854"/>
<stop offset="1" stop-color="#FE7701"/>
</linearGradient>
<linearGradient id="paint25_linear_546_1462" x1="19.6263" y1="22.5466" x2="23.4045" y2="39.5721" gradientUnits="userSpaceOnUse">
<stop stop-color="#DC8758" stop-opacity="0"/>
<stop offset="0.2153" stop-color="#DD8654" stop-opacity="0.215"/>
<stop offset="0.4291" stop-color="#E28448" stop-opacity="0.429"/>
<stop offset="0.6424" stop-color="#EA8034" stop-opacity="0.642"/>
<stop offset="0.8543" stop-color="#F47B18" stop-opacity="0.854"/>
<stop offset="1" stop-color="#FE7701"/>
</linearGradient>
<linearGradient id="paint26_linear_546_1462" x1="21.9999" y1="34.8057" x2="21.9999" y2="29.3988" gradientUnits="userSpaceOnUse">
<stop stop-color="#DC8758" stop-opacity="0"/>
<stop offset="0.2153" stop-color="#DD8654" stop-opacity="0.215"/>
<stop offset="0.4291" stop-color="#E28448" stop-opacity="0.429"/>
<stop offset="0.6424" stop-color="#EA8034" stop-opacity="0.642"/>
<stop offset="0.8543" stop-color="#F47B18" stop-opacity="0.854"/>
<stop offset="1" stop-color="#FE7701"/>
</linearGradient>
<linearGradient id="paint27_linear_546_1462" x1="31.0762" y1="34.2811" x2="38.3891" y2="39.6642" gradientUnits="userSpaceOnUse">
<stop stop-color="#DC8758" stop-opacity="0"/>
<stop offset="0.2153" stop-color="#DD8654" stop-opacity="0.215"/>
<stop offset="0.4291" stop-color="#E28448" stop-opacity="0.429"/>
<stop offset="0.6424" stop-color="#EA8034" stop-opacity="0.642"/>
<stop offset="0.8543" stop-color="#F47B18" stop-opacity="0.854"/>
<stop offset="1" stop-color="#FE7701"/>
</linearGradient>
<linearGradient id="paint28_linear_546_1462" x1="19.0827" y1="25.5897" x2="27.9036" y2="25.5897" gradientUnits="userSpaceOnUse">
<stop stop-color="#FD4755"/>
<stop offset="0.3362" stop-color="#E43F48"/>
<stop offset="1" stop-color="#A72B2B"/>
</linearGradient>
<linearGradient id="paint29_linear_546_1462" x1="21.9999" y1="22.1829" x2="21.9999" y2="27.7639" gradientUnits="userSpaceOnUse">
<stop stop-color="#A72B2B" stop-opacity="0"/>
<stop offset="1" stop-color="#481F05"/>
</linearGradient>
</defs>
</svg>
