<svg width="25" height="24" viewBox="0 0 25 24" fill="none" xmlns="http://www.w3.org/2000/svg">
<path d="M21.6999 13.6406V14.6406C21.6999 14.9106 21.4899 15.1306 21.2099 15.1406H19.7499C19.2199 15.1406 18.7399 14.7506 18.6999 14.2306C18.6699 13.9206 18.7899 13.6306 18.9899 13.4306C19.1699 13.2406 19.4199 13.1406 19.6899 13.1406H21.1999C21.4899 13.1506 21.6999 13.3706 21.6999 13.6406Z" fill="white"/>
<path d="M18.2392 12.6906C17.7392 13.1806 17.4992 13.9106 17.6992 14.6706C17.9592 15.6006 18.8692 16.1906 19.8292 16.1906H20.6992C21.2492 16.1906 21.6992 16.6406 21.6992 17.1906V17.3806C21.6992 19.4506 20.0092 21.1406 17.9392 21.1406H6.45922C4.38922 21.1406 2.69922 19.4506 2.69922 17.3806V10.6506C2.69922 9.42062 3.28922 8.33063 4.19922 7.65063C4.82922 7.17063 5.60922 6.89062 6.45922 6.89062H17.9392C20.0092 6.89062 21.6992 8.58062 21.6992 10.6506V11.0906C21.6992 11.6406 21.2492 12.0906 20.6992 12.0906H19.6792C19.1192 12.0906 18.6092 12.3106 18.2392 12.6906Z" fill="white"/>
<path d="M16.4491 4.82C16.7191 5.09 16.4891 5.51 16.1091 5.51L8.42908 5.5C7.98908 5.5 7.75908 4.96 8.07908 4.65L9.69908 3.02C11.0691 1.66 13.2891 1.66 14.6591 3.02L16.4091 4.79C16.4191 4.8 16.4391 4.81 16.4491 4.82Z" fill="white"/>
</svg>
